<svg width="24" height="24" viewBox="0 0 24 24" fill="none" xmlns="http://www.w3.org/2000/svg"><path d="M4.657 4.042 C 3.252 4.215,2.204 5.283,2.041 6.710 C 1.987 7.182,1.987 16.818,2.041 17.290 C 2.124 18.019,2.403 18.610,2.897 19.103 C 3.390 19.597,3.981 19.876,4.710 19.959 C 4.921 19.983,6.640 19.999,9.030 20.000 L 13.000 20.000 13.000 19.000 L 13.000 18.000 8.873 18.000 C 4.788 18.000,4.743 17.999,4.575 17.918 C 4.379 17.823,4.137 17.571,4.056 17.377 C 4.009 17.264,4.000 16.407,4.000 11.994 C 4.000 6.777,4.001 6.744,4.082 6.575 C 4.177 6.379,4.429 6.137,4.623 6.056 C 4.731 6.011,5.080 6.000,6.394 6.000 L 8.031 6.000 8.235 6.110 C 8.347 6.170,9.007 6.688,9.701 7.260 C 10.396 7.832,11.077 8.367,11.216 8.448 C 11.569 8.656,12.015 8.796,12.470 8.840 C 12.685 8.861,14.300 8.879,16.060 8.880 C 19.658 8.882,19.419 8.862,19.728 9.185 C 19.912 9.377,20.000 9.583,20.000 9.819 L 20.000 10.000 21.001 10.000 L 22.002 10.000 21.977 9.730 C 21.904 8.941,21.651 8.348,21.169 7.832 C 20.803 7.441,20.258 7.119,19.710 6.972 C 19.488 6.912,19.062 6.902,15.940 6.882 L 12.420 6.860 12.260 6.773 C 12.172 6.724,11.508 6.199,10.785 5.604 C 8.807 3.979,8.946 4.031,6.580 4.017 C 5.678 4.011,4.813 4.022,4.657 4.042 M17.668 11.501 C 17.266 11.577,16.732 11.778,16.344 12.000 C 13.662 13.535,13.196 17.352,15.426 19.525 C 15.837 19.925,16.368 20.285,16.813 20.465 C 17.321 20.670,17.400 20.600,17.400 19.941 L 17.400 19.500 16.930 19.500 C 16.254 19.500,16.098 19.406,15.823 18.837 C 15.678 18.536,15.572 18.399,15.323 18.191 C 15.159 18.053,15.180 17.983,15.391 17.968 C 15.604 17.952,15.755 18.033,15.947 18.264 C 16.301 18.691,16.454 18.838,16.591 18.884 C 16.776 18.945,16.993 18.944,17.217 18.881 C 17.369 18.838,17.400 18.812,17.422 18.705 C 17.436 18.636,17.492 18.500,17.545 18.403 C 17.598 18.306,17.628 18.215,17.611 18.200 C 17.594 18.186,17.463 18.152,17.321 18.124 C 16.343 17.932,15.813 17.355,15.677 16.335 C 15.596 15.727,15.686 15.217,15.942 14.837 L 16.083 14.628 16.043 14.340 C 16.016 14.149,16.016 13.969,16.042 13.807 C 16.104 13.425,16.138 13.360,16.280 13.360 C 16.457 13.360,16.812 13.494,17.121 13.678 L 17.390 13.838 17.685 13.773 C 18.102 13.681,18.929 13.682,19.330 13.774 C 19.637 13.845,19.641 13.845,19.757 13.762 C 19.977 13.605,20.488 13.388,20.678 13.369 C 20.864 13.351,20.870 13.354,20.918 13.485 C 20.987 13.676,21.015 14.227,20.967 14.436 C 20.930 14.594,20.935 14.626,21.018 14.736 C 21.265 15.067,21.359 15.398,21.359 15.940 C 21.358 17.130,20.859 17.831,19.822 18.098 C 19.690 18.132,19.545 18.160,19.498 18.160 C 19.452 18.160,19.404 18.169,19.393 18.180 C 19.382 18.191,19.429 18.312,19.497 18.448 L 19.620 18.697 19.631 19.578 C 19.644 20.521,19.654 20.570,19.847 20.570 C 19.899 20.570,20.078 20.513,20.244 20.444 C 21.140 20.071,22.071 19.162,22.520 18.219 C 22.864 17.498,22.980 16.948,22.976 16.060 C 22.972 15.313,22.910 14.985,22.643 14.293 C 22.133 12.973,20.955 11.923,19.567 11.553 C 19.156 11.444,18.122 11.415,17.668 11.501 " fill="#A1A1AA" stroke="none" fill-rule="evenodd"></path></svg>