<svg width="24" height="24" viewBox="0 0 24 24" fill="none" xmlns="http://www.w3.org/2000/svg"><path d="M4.503 4.042 C 3.490 4.212,2.556 4.976,2.202 5.925 C 1.996 6.477,2.001 6.315,2.001 11.992 C 2.000 17.780,1.991 17.556,2.234 18.151 C 2.521 18.857,3.143 19.479,3.849 19.766 C 4.439 20.007,4.284 20.000,9.358 20.000 L 14.000 20.000 14.000 19.000 L 14.000 18.000 9.427 18.000 C 4.286 18.000,4.617 18.019,4.299 17.701 C 3.979 17.381,4.000 17.783,4.000 12.000 C 4.000 6.216,3.979 6.619,4.300 6.298 C 4.597 6.001,4.643 5.995,6.466 6.008 C 8.015 6.020,8.065 6.022,8.220 6.107 C 8.308 6.155,8.958 6.669,9.664 7.250 C 11.026 8.370,11.225 8.513,11.639 8.669 C 12.193 8.878,12.233 8.880,15.834 8.882 C 18.524 8.883,19.209 8.894,19.330 8.937 C 19.692 9.066,19.949 9.394,19.988 9.778 L 20.011 10.000 21.012 10.000 L 22.012 10.000 21.987 9.670 C 21.889 8.392,21.032 7.346,19.780 6.975 C 19.561 6.910,19.235 6.902,16.000 6.882 C 12.854 6.862,12.444 6.853,12.320 6.795 C 12.243 6.760,11.588 6.245,10.864 5.650 C 9.503 4.532,9.293 4.380,8.874 4.211 C 8.409 4.023,8.152 4.003,6.360 4.006 C 5.447 4.008,4.611 4.024,4.503 4.042 M19.556 12.039 C 17.803 12.259,16.436 13.539,16.076 15.300 C 16.049 15.432,16.027 15.747,16.027 16.000 C 16.027 16.253,16.049 16.568,16.076 16.700 C 16.411 18.337,17.597 19.546,19.220 19.906 C 19.681 20.008,20.453 19.989,20.940 19.863 C 22.120 19.558,23.029 18.823,23.564 17.740 C 23.847 17.167,23.965 16.671,23.969 16.040 C 23.971 15.765,23.950 15.432,23.924 15.300 C 23.593 13.676,22.382 12.434,20.800 12.101 C 20.449 12.027,19.878 11.999,19.556 12.039 " fill="#64748B" stroke="none" fill-rule="evenodd"></path></svg>