<svg width="24" height="24" viewBox="0 0 24 24" fill="none" xmlns="http://www.w3.org/2000/svg"><path d="M4.503 4.042 C 3.490 4.212,2.556 4.976,2.202 5.925 C 1.996 6.477,2.001 6.315,2.001 11.992 C 2.000 17.780,1.991 17.556,2.234 18.151 C 2.521 18.857,3.143 19.479,3.849 19.766 C 4.439 20.007,4.284 20.000,9.358 20.000 L 14.000 20.000 14.000 19.000 L 14.000 18.000 9.427 18.000 C 4.286 18.000,4.617 18.019,4.299 17.701 C 3.979 17.381,4.000 17.783,4.000 12.000 C 4.000 6.216,3.979 6.619,4.300 6.298 C 4.597 6.001,4.643 5.995,6.466 6.008 C 8.015 6.020,8.065 6.022,8.220 6.107 C 8.308 6.155,8.958 6.669,9.664 7.250 C 11.026 8.370,11.225 8.513,11.639 8.669 C 12.193 8.878,12.233 8.880,15.834 8.882 C 18.524 8.883,19.209 8.894,19.330 8.937 C 19.692 9.066,19.949 9.394,19.988 9.778 L 20.011 10.000 21.012 10.000 L 22.012 10.000 21.987 9.670 C 21.889 8.392,21.032 7.346,19.780 6.975 C 19.561 6.910,19.235 6.902,16.000 6.882 C 12.854 6.862,12.444 6.853,12.320 6.795 C 12.243 6.760,11.588 6.245,10.864 5.650 C 9.503 4.532,9.293 4.380,8.874 4.211 C 8.409 4.023,8.152 4.003,6.360 4.006 C 5.447 4.008,4.611 4.024,4.503 4.042 M19.579 12.042 C 17.871 12.210,16.456 13.489,16.098 15.191 C 16.012 15.600,16.012 16.400,16.098 16.809 C 16.425 18.365,17.635 19.575,19.191 19.902 C 19.600 19.988,20.400 19.988,20.809 19.902 C 22.154 19.619,23.251 18.675,23.738 17.382 C 23.900 16.951,23.967 16.546,23.967 16.000 C 23.967 15.101,23.752 14.412,23.249 13.700 C 22.418 12.523,21.036 11.899,19.579 12.042 M20.476 14.042 C 21.140 14.196,21.804 14.860,21.958 15.524 C 22.010 15.750,22.010 16.250,21.958 16.476 C 21.804 17.140,21.140 17.804,20.476 17.958 C 20.250 18.010,19.750 18.010,19.524 17.958 C 18.860 17.804,18.196 17.140,18.042 16.476 C 17.990 16.250,17.990 15.750,18.042 15.524 C 18.193 14.870,18.860 14.196,19.508 14.044 C 19.718 13.994,20.264 13.994,20.476 14.042 " fill="#64748B" stroke="none" fill-rule="evenodd"></path></svg>