<svg width="24" height="24" viewBox="0 0 24 24" fill="none" xmlns="http://www.w3.org/2000/svg"><path d="M4.657 4.042 C 3.252 4.215,2.204 5.283,2.041 6.710 C 1.987 7.182,1.987 16.818,2.041 17.290 C 2.124 18.019,2.403 18.610,2.897 19.103 C 3.390 19.597,3.981 19.876,4.710 19.959 C 4.921 19.983,6.640 19.999,9.030 20.000 L 13.000 20.000 13.000 19.000 L 13.000 18.000 8.873 18.000 C 4.788 18.000,4.743 17.999,4.575 17.918 C 4.379 17.823,4.137 17.571,4.056 17.377 C 4.009 17.264,4.000 16.407,4.000 11.994 C 4.000 6.777,4.001 6.744,4.082 6.575 C 4.177 6.379,4.429 6.137,4.623 6.056 C 4.731 6.011,5.080 6.000,6.394 6.000 L 8.031 6.000 8.235 6.110 C 8.347 6.170,9.007 6.688,9.701 7.260 C 10.396 7.832,11.077 8.367,11.216 8.448 C 11.569 8.656,12.015 8.796,12.470 8.840 C 12.685 8.861,14.300 8.879,16.060 8.880 C 19.658 8.882,19.419 8.862,19.728 9.185 C 19.912 9.377,20.000 9.583,20.000 9.819 L 20.000 10.000 21.001 10.000 L 22.002 10.000 21.977 9.730 C 21.904 8.941,21.651 8.348,21.169 7.832 C 20.803 7.441,20.258 7.119,19.710 6.972 C 19.488 6.912,19.062 6.902,15.940 6.882 L 12.420 6.860 12.260 6.773 C 12.172 6.724,11.508 6.199,10.785 5.604 C 8.807 3.979,8.946 4.031,6.580 4.017 C 5.678 4.011,4.813 4.022,4.657 4.042 M18.480 11.904 C 17.921 11.995,17.569 12.151,17.182 12.478 C 16.749 12.845,16.452 13.329,16.264 13.977 C 15.958 15.035,16.075 16.114,16.619 17.240 C 16.729 17.467,16.740 17.519,16.706 17.649 C 16.592 18.081,17.064 18.583,17.508 18.502 C 17.837 18.442,18.120 18.117,18.120 17.800 C 18.120 17.615,17.978 17.339,17.829 17.232 C 17.761 17.184,17.623 17.123,17.523 17.098 C 17.359 17.056,17.330 17.030,17.231 16.836 C 17.171 16.717,17.077 16.476,17.023 16.300 C 16.666 15.141,16.862 13.878,17.512 13.155 C 17.930 12.690,18.773 12.500,19.275 12.757 C 19.737 12.994,20.170 13.717,20.259 14.400 L 20.282 14.580 20.648 14.690 C 20.849 14.750,21.021 14.793,21.029 14.784 C 21.037 14.776,21.024 14.610,20.998 14.415 C 20.945 14.000,20.766 13.430,20.595 13.131 C 20.298 12.612,19.827 12.192,19.346 12.018 C 19.101 11.929,18.671 11.872,18.480 11.904 M17.920 14.424 C 17.629 14.550,17.476 14.774,17.474 15.077 C 17.472 15.311,17.551 15.474,17.745 15.634 C 18.020 15.860,18.403 15.835,18.665 15.573 L 18.809 15.428 19.214 15.452 C 20.876 15.551,22.365 16.772,22.373 18.042 C 22.374 18.298,22.356 18.385,22.254 18.602 C 21.957 19.234,21.372 19.525,20.579 19.437 C 20.424 19.420,20.184 19.367,20.047 19.319 C 19.833 19.245,19.786 19.240,19.723 19.286 C 19.683 19.316,19.529 19.434,19.380 19.549 L 19.110 19.759 19.305 19.843 C 19.901 20.099,20.068 20.134,20.700 20.137 C 21.255 20.139,21.322 20.131,21.592 20.031 C 22.658 19.638,23.223 18.787,23.083 17.783 C 22.992 17.126,22.749 16.645,22.235 16.102 C 21.814 15.658,21.520 15.440,20.981 15.176 C 20.444 14.913,19.916 14.773,19.250 14.716 C 18.794 14.677,18.749 14.666,18.634 14.560 C 18.523 14.459,18.256 14.357,18.112 14.362 C 18.084 14.362,17.997 14.390,17.920 14.424 M15.517 15.813 C 14.812 16.395,14.450 17.057,14.410 17.842 C 14.352 18.958,14.947 19.766,16.031 20.043 C 16.578 20.183,17.243 20.132,17.960 19.895 C 18.966 19.562,19.834 18.847,20.343 17.931 C 20.426 17.781,20.489 17.715,20.567 17.699 C 20.718 17.665,20.989 17.359,21.022 17.184 C 21.082 16.862,20.932 16.557,20.641 16.410 C 20.418 16.297,20.235 16.296,20.010 16.405 C 19.664 16.573,19.516 17.014,19.694 17.352 L 19.764 17.483 19.585 17.752 C 19.146 18.412,18.261 19.059,17.484 19.286 C 16.921 19.452,16.223 19.416,15.801 19.201 C 15.292 18.941,14.971 18.195,15.118 17.612 C 15.219 17.211,15.538 16.719,15.854 16.475 L 16.023 16.346 15.925 15.973 C 15.872 15.768,15.816 15.600,15.802 15.600 C 15.787 15.600,15.659 15.696,15.517 15.813 " fill="#16A34A" stroke="none" fill-rule="evenodd"></path></svg>