<svg width="24" height="24" viewBox="0 0 24 24" fill="none" xmlns="http://www.w3.org/2000/svg"><path d="M4.657 4.042 C 3.252 4.215,2.204 5.283,2.041 6.710 C 1.987 7.182,1.987 16.818,2.041 17.290 C 2.124 18.019,2.403 18.610,2.897 19.103 C 3.390 19.597,3.981 19.876,4.710 19.959 C 4.921 19.983,6.640 19.999,9.030 20.000 L 13.000 20.000 13.000 19.000 L 13.000 18.000 8.873 18.000 C 4.788 18.000,4.743 17.999,4.575 17.918 C 4.379 17.823,4.137 17.571,4.056 17.377 C 4.009 17.264,4.000 16.407,4.000 11.994 C 4.000 6.777,4.001 6.744,4.082 6.575 C 4.177 6.379,4.429 6.137,4.623 6.056 C 4.731 6.011,5.080 6.000,6.394 6.000 L 8.031 6.000 8.235 6.110 C 8.347 6.170,9.007 6.688,9.701 7.260 C 10.396 7.832,11.077 8.367,11.216 8.448 C 11.569 8.656,12.015 8.796,12.470 8.840 C 12.685 8.861,14.300 8.879,16.060 8.880 C 19.658 8.882,19.419 8.862,19.728 9.185 C 19.912 9.377,20.000 9.583,20.000 9.819 L 20.000 10.000 21.001 10.000 L 22.002 10.000 21.977 9.730 C 21.904 8.941,21.651 8.348,21.169 7.832 C 20.803 7.441,20.258 7.119,19.710 6.972 C 19.488 6.912,19.062 6.902,15.940 6.882 L 12.420 6.860 12.260 6.773 C 12.172 6.724,11.508 6.199,10.785 5.604 C 8.807 3.979,8.946 4.031,6.580 4.017 C 5.678 4.011,4.813 4.022,4.657 4.042 M14.252 11.078 C 13.999 11.232,14.000 11.228,14.000 13.008 C 14.000 14.536,14.004 14.627,14.078 14.748 C 14.167 14.893,14.346 15.000,14.500 15.000 C 14.747 15.000,14.999 14.748,15.000 14.500 C 15.000 14.434,15.035 14.322,15.078 14.252 C 15.226 14.009,15.278 14.000,16.508 14.000 C 17.540 14.000,17.629 14.006,17.748 14.078 C 18.008 14.237,18.000 14.150,18.000 16.771 C 18.000 19.454,17.994 19.396,18.299 19.701 C 18.597 19.999,18.603 20.000,20.737 20.000 C 22.534 20.000,22.626 20.004,22.748 20.078 C 22.895 20.168,23.000 20.346,23.000 20.508 C 23.000 20.660,23.131 20.863,23.276 20.938 C 23.353 20.978,23.504 21.000,23.698 21.000 L 24.000 21.000 24.000 19.000 L 24.000 17.000 23.698 17.000 C 23.504 17.000,23.353 17.022,23.276 17.062 C 23.128 17.139,23.000 17.341,23.000 17.500 C 23.000 17.566,22.965 17.678,22.922 17.748 C 22.774 17.991,22.722 18.000,21.492 18.000 C 20.460 18.000,20.371 17.994,20.252 17.922 C 19.992 17.763,20.000 17.850,20.000 15.229 C 20.000 12.546,20.006 12.604,19.701 12.299 C 19.403 12.001,19.397 12.000,17.263 12.000 C 15.466 12.000,15.374 11.996,15.252 11.922 C 15.105 11.832,15.000 11.654,15.000 11.492 C 15.000 11.248,14.743 11.000,14.492 11.000 C 14.430 11.000,14.322 11.035,14.252 11.078 " fill="#16A34A" stroke="none" fill-rule="evenodd"></path></svg>