<svg width="24" height="24" viewBox="0 0 24 24" fill="none" xmlns="http://www.w3.org/2000/svg"><path d="M4.657 4.042 C 3.252 4.215,2.204 5.283,2.041 6.710 C 1.987 7.182,1.987 16.818,2.041 17.290 C 2.124 18.019,2.403 18.610,2.897 19.103 C 3.390 19.597,3.981 19.876,4.710 19.959 C 4.921 19.983,6.640 19.999,9.030 20.000 L 13.000 20.000 13.000 19.000 L 13.000 18.000 8.873 18.000 C 4.788 18.000,4.743 17.999,4.575 17.918 C 4.379 17.823,4.137 17.571,4.056 17.377 C 4.009 17.264,4.000 16.407,4.000 11.994 C 4.000 6.777,4.001 6.744,4.082 6.575 C 4.177 6.379,4.429 6.137,4.623 6.056 C 4.731 6.011,5.080 6.000,6.394 6.000 L 8.031 6.000 8.235 6.110 C 8.347 6.170,9.007 6.688,9.701 7.260 C 10.396 7.832,11.077 8.367,11.216 8.448 C 11.569 8.656,12.015 8.796,12.470 8.840 C 12.685 8.861,14.300 8.879,16.060 8.880 C 19.658 8.882,19.419 8.862,19.728 9.185 C 19.912 9.377,20.000 9.583,20.000 9.819 L 20.000 10.000 21.001 10.000 L 22.002 10.000 21.977 9.730 C 21.904 8.941,21.651 8.348,21.169 7.832 C 20.803 7.441,20.258 7.119,19.710 6.972 C 19.488 6.912,19.062 6.902,15.940 6.882 L 12.420 6.860 12.260 6.773 C 12.172 6.724,11.508 6.199,10.785 5.604 C 8.807 3.979,8.946 4.031,6.580 4.017 C 5.678 4.011,4.813 4.022,4.657 4.042 M18.510 12.055 C 18.427 12.085,18.298 12.158,18.223 12.215 C 17.917 12.448,17.800 12.745,17.800 13.284 L 17.800 13.635 16.867 13.647 L 15.933 13.660 15.737 13.782 C 15.611 13.859,15.504 13.968,15.440 14.082 C 15.342 14.256,15.340 14.280,15.340 15.073 L 15.340 15.886 15.464 15.997 C 15.567 16.090,15.635 16.111,15.884 16.131 C 16.240 16.159,16.427 16.232,16.647 16.431 C 16.871 16.633,16.958 16.838,16.959 17.165 C 16.961 17.781,16.505 18.199,15.831 18.200 C 15.634 18.200,15.583 18.217,15.471 18.317 L 15.340 18.434 15.340 19.247 L 15.340 20.060 15.451 20.249 C 15.523 20.371,15.629 20.477,15.751 20.549 L 15.940 20.660 16.753 20.660 L 17.566 20.660 17.677 20.537 C 17.770 20.433,17.791 20.364,17.813 20.106 C 17.869 19.442,18.257 19.040,18.840 19.040 C 19.445 19.040,19.825 19.427,19.870 20.089 C 19.889 20.369,19.907 20.429,20.003 20.536 L 20.114 20.660 20.927 20.660 C 21.720 20.660,21.744 20.658,21.918 20.560 C 22.115 20.450,22.258 20.266,22.319 20.045 C 22.341 19.965,22.360 19.518,22.360 19.050 L 22.360 18.200 22.713 18.200 C 23.150 18.200,23.413 18.125,23.633 17.937 C 23.891 17.716,23.978 17.519,23.978 17.160 C 23.978 16.801,23.891 16.604,23.633 16.383 C 23.413 16.195,23.150 16.120,22.713 16.120 L 22.360 16.120 22.360 15.270 C 22.360 14.803,22.341 14.355,22.319 14.275 C 22.258 14.054,22.115 13.870,21.918 13.760 C 21.745 13.663,21.716 13.660,20.810 13.647 L 19.880 13.635 19.880 13.259 C 19.880 12.664,19.696 12.308,19.282 12.099 C 19.098 12.006,18.701 11.983,18.510 12.055 " fill="#0EA5E9" stroke="none" fill-rule="evenodd"></path></svg>