<svg width="24" height="24" viewBox="0 0 24 24" fill="none" xmlns="http://www.w3.org/2000/svg"><path d="M4.657 4.042 C 3.252 4.215,2.204 5.283,2.041 6.710 C 1.987 7.182,1.987 16.818,2.041 17.290 C 2.124 18.019,2.403 18.610,2.897 19.103 C 3.390 19.597,3.981 19.876,4.710 19.959 C 4.921 19.983,6.640 19.999,9.030 20.000 L 13.000 20.000 13.000 19.000 L 13.000 18.000 8.873 18.000 C 4.788 18.000,4.743 17.999,4.575 17.918 C 4.379 17.823,4.137 17.571,4.056 17.377 C 4.009 17.264,4.000 16.407,4.000 11.994 C 4.000 6.777,4.001 6.744,4.082 6.575 C 4.177 6.379,4.429 6.137,4.623 6.056 C 4.731 6.011,5.080 6.000,6.394 6.000 L 8.031 6.000 8.235 6.110 C 8.347 6.170,9.007 6.688,9.701 7.260 C 10.396 7.832,11.077 8.367,11.216 8.448 C 11.569 8.656,12.015 8.796,12.470 8.840 C 12.685 8.861,14.300 8.879,16.060 8.880 C 19.658 8.882,19.419 8.862,19.728 9.185 C 19.912 9.377,20.000 9.583,20.000 9.819 L 20.000 10.000 21.001 10.000 L 22.002 10.000 21.977 9.730 C 21.904 8.941,21.651 8.348,21.169 7.832 C 20.803 7.441,20.258 7.119,19.710 6.972 C 19.488 6.912,19.062 6.902,15.940 6.882 L 12.420 6.860 12.260 6.773 C 12.172 6.724,11.508 6.199,10.785 5.604 C 8.807 3.979,8.946 4.031,6.580 4.017 C 5.678 4.011,4.813 4.022,4.657 4.042 M15.532 12.048 C 15.484 12.071,15.415 12.164,15.378 12.255 C 15.239 12.600,14.160 15.533,14.170 15.540 C 14.175 15.544,14.270 15.571,14.380 15.600 C 14.706 15.687,15.165 15.894,15.462 16.087 C 15.665 16.219,18.296 18.252,18.439 18.387 C 18.450 18.397,18.387 18.468,18.299 18.544 C 17.975 18.828,18.611 18.347,19.971 17.280 C 20.714 16.697,21.472 16.128,21.657 16.016 C 21.860 15.892,22.157 15.759,22.407 15.678 C 22.634 15.605,22.825 15.542,22.830 15.539 C 22.842 15.532,21.709 12.449,21.615 12.235 C 21.553 12.090,21.424 12.000,21.283 12.000 C 21.095 12.000,21.045 12.111,20.607 13.500 L 20.178 14.860 18.501 14.860 L 16.824 14.860 16.395 13.501 C 15.951 12.093,15.906 11.996,15.706 12.003 C 15.659 12.004,15.581 12.024,15.532 12.048 M14.006 16.200 C 14.006 16.255,14.015 16.277,14.026 16.250 C 14.038 16.223,14.038 16.178,14.026 16.150 C 14.015 16.122,14.006 16.145,14.006 16.200 M22.966 16.200 C 22.966 16.255,22.975 16.277,22.986 16.250 C 22.998 16.223,22.998 16.178,22.986 16.150 C 22.975 16.122,22.966 16.145,22.966 16.200 M14.006 16.600 C 14.006 16.655,14.015 16.678,14.026 16.650 C 14.038 16.622,14.038 16.578,14.026 16.550 C 14.015 16.523,14.006 16.545,14.006 16.600 M22.966 16.600 C 22.966 16.655,22.975 16.678,22.986 16.650 C 22.998 16.622,22.998 16.578,22.986 16.550 C 22.975 16.523,22.966 16.545,22.966 16.600 M14.440 17.815 C 14.440 17.823,14.472 17.855,14.510 17.885 C 14.573 17.935,14.575 17.933,14.525 17.870 C 14.473 17.803,14.440 17.782,14.440 17.815 M22.475 17.870 C 22.425 17.933,22.427 17.935,22.490 17.885 C 22.557 17.833,22.578 17.800,22.545 17.800 C 22.537 17.800,22.505 17.832,22.475 17.870 M14.680 18.100 C 14.732 18.155,14.783 18.200,14.794 18.200 C 14.805 18.200,14.772 18.155,14.720 18.100 C 14.668 18.045,14.617 18.000,14.606 18.000 C 14.595 18.000,14.628 18.045,14.680 18.100 M22.277 18.110 L 22.180 18.220 22.290 18.123 C 22.351 18.070,22.400 18.020,22.400 18.013 C 22.400 17.982,22.368 18.007,22.277 18.110 M14.880 18.255 C 14.880 18.263,14.912 18.295,14.950 18.325 C 15.013 18.375,15.015 18.373,14.965 18.310 C 14.913 18.243,14.880 18.222,14.880 18.255 M22.035 18.310 C 21.985 18.373,21.987 18.375,22.050 18.325 C 22.117 18.273,22.138 18.240,22.105 18.240 C 22.097 18.240,22.065 18.271,22.035 18.310 M15.080 18.415 C 15.080 18.423,15.112 18.455,15.150 18.485 C 15.213 18.535,15.215 18.533,15.165 18.470 C 15.113 18.403,15.080 18.382,15.080 18.415 M21.835 18.470 C 21.785 18.533,21.787 18.535,21.850 18.485 C 21.917 18.433,21.938 18.400,21.905 18.400 C 21.897 18.400,21.865 18.431,21.835 18.470 M18.560 18.455 C 18.560 18.463,18.591 18.495,18.630 18.525 C 18.693 18.575,18.695 18.573,18.645 18.510 C 18.593 18.443,18.560 18.422,18.560 18.455 M15.240 18.535 C 15.240 18.543,15.272 18.575,15.310 18.605 C 15.373 18.655,15.375 18.653,15.325 18.590 C 15.273 18.523,15.240 18.502,15.240 18.535 M18.720 18.575 C 18.720 18.583,18.752 18.615,18.790 18.645 C 18.853 18.695,18.855 18.693,18.805 18.630 C 18.753 18.563,18.720 18.542,18.720 18.575 M15.440 18.695 C 15.440 18.703,15.472 18.735,15.510 18.765 C 15.573 18.815,15.575 18.813,15.525 18.750 C 15.473 18.683,15.440 18.662,15.440 18.695 M17.900 18.844 C 17.596 19.090,17.547 19.159,17.833 18.939 C 18.053 18.769,18.153 18.677,18.112 18.681 C 18.106 18.682,18.010 18.756,17.900 18.844 M21.475 18.750 C 21.425 18.813,21.427 18.815,21.490 18.765 C 21.529 18.735,21.560 18.703,21.560 18.695 C 21.560 18.662,21.527 18.683,21.475 18.750 M15.600 18.815 C 15.600 18.823,15.632 18.855,15.670 18.885 C 15.733 18.935,15.735 18.933,15.685 18.870 C 15.633 18.803,15.600 18.782,15.600 18.815 M19.120 18.895 C 19.120 18.903,19.152 18.935,19.190 18.965 C 19.253 19.015,19.255 19.013,19.205 18.950 C 19.153 18.883,19.120 18.862,19.120 18.895 M15.800 18.975 C 15.800 18.983,15.832 19.015,15.870 19.045 C 15.933 19.095,15.935 19.093,15.885 19.030 C 15.833 18.963,15.800 18.942,15.800 18.975 M21.115 19.030 C 21.065 19.093,21.067 19.095,21.130 19.045 C 21.197 18.993,21.218 18.960,21.185 18.960 C 21.177 18.960,21.145 18.992,21.115 19.030 M15.960 19.095 C 15.960 19.103,15.992 19.135,16.030 19.165 C 16.093 19.215,16.095 19.213,16.045 19.150 C 15.993 19.083,15.960 19.062,15.960 19.095 M17.340 19.284 C 17.036 19.530,16.987 19.599,17.273 19.379 C 17.493 19.209,17.593 19.117,17.552 19.121 C 17.546 19.122,17.450 19.196,17.340 19.284 M16.160 19.255 C 16.160 19.263,16.192 19.295,16.230 19.325 C 16.293 19.375,16.295 19.373,16.245 19.310 C 16.193 19.243,16.160 19.222,16.160 19.255 M20.755 19.310 C 20.705 19.373,20.707 19.375,20.770 19.325 C 20.837 19.273,20.858 19.240,20.825 19.240 C 20.817 19.240,20.785 19.271,20.755 19.310 M16.320 19.375 C 16.320 19.383,16.352 19.415,16.390 19.445 C 16.453 19.495,16.455 19.493,16.405 19.430 C 16.353 19.363,16.320 19.342,16.320 19.375 M20.595 19.430 C 20.545 19.493,20.547 19.495,20.610 19.445 C 20.677 19.393,20.698 19.360,20.665 19.360 C 20.657 19.360,20.625 19.392,20.595 19.430 M19.840 19.455 C 19.840 19.463,19.872 19.495,19.910 19.525 C 19.973 19.575,19.975 19.573,19.925 19.510 C 19.873 19.443,19.840 19.422,19.840 19.455 M16.520 19.535 C 16.520 19.543,16.552 19.575,16.590 19.605 C 16.653 19.655,16.655 19.653,16.605 19.590 C 16.553 19.523,16.520 19.502,16.520 19.535 M20.395 19.590 C 20.345 19.653,20.347 19.655,20.410 19.605 C 20.477 19.553,20.498 19.520,20.465 19.520 C 20.457 19.520,20.425 19.552,20.395 19.590 M16.885 19.642 C 16.806 19.708,16.778 19.712,16.725 19.671 C 16.667 19.626,16.666 19.628,16.714 19.689 C 16.773 19.764,16.861 19.739,16.958 19.622 C 17.028 19.538,17.000 19.546,16.885 19.642 M20.040 19.615 C 20.040 19.623,20.072 19.655,20.110 19.685 C 20.173 19.735,20.175 19.733,20.125 19.670 C 20.073 19.603,20.040 19.582,20.040 19.615 M20.235 19.710 C 20.185 19.773,20.187 19.775,20.250 19.725 C 20.288 19.695,20.320 19.663,20.320 19.655 C 20.320 19.622,20.287 19.643,20.235 19.710 " fill="#E24329" stroke="none" fill-rule="evenodd"></path></svg>