<svg width="24" height="24" viewBox="0 0 24 24" fill="none" xmlns="http://www.w3.org/2000/svg"><path d="M4.657 4.042 C 3.252 4.215,2.204 5.283,2.041 6.710 C 1.987 7.182,1.987 16.818,2.041 17.290 C 2.124 18.019,2.403 18.610,2.897 19.103 C 3.390 19.597,3.981 19.876,4.710 19.959 C 4.921 19.983,6.640 19.999,9.030 20.000 L 13.000 20.000 13.000 19.000 L 13.000 18.000 8.873 18.000 C 4.788 18.000,4.743 17.999,4.575 17.918 C 4.379 17.823,4.137 17.571,4.056 17.377 C 4.009 17.264,4.000 16.407,4.000 11.994 C 4.000 6.777,4.001 6.744,4.082 6.575 C 4.177 6.379,4.429 6.137,4.623 6.056 C 4.731 6.011,5.080 6.000,6.394 6.000 L 8.031 6.000 8.235 6.110 C 8.347 6.170,9.007 6.688,9.701 7.260 C 10.396 7.832,11.077 8.367,11.216 8.448 C 11.569 8.656,12.015 8.796,12.470 8.840 C 12.685 8.861,14.300 8.879,16.060 8.880 C 19.658 8.882,19.419 8.862,19.728 9.185 C 19.912 9.377,20.000 9.583,20.000 9.819 L 20.000 10.000 21.001 10.000 L 22.002 10.000 21.977 9.730 C 21.904 8.941,21.651 8.348,21.169 7.832 C 20.803 7.441,20.258 7.119,19.710 6.972 C 19.488 6.912,19.062 6.902,15.940 6.882 L 12.420 6.860 12.260 6.773 C 12.172 6.724,11.508 6.199,10.785 5.604 C 8.807 3.979,8.946 4.031,6.580 4.017 C 5.678 4.011,4.813 4.022,4.657 4.042 M20.130 10.821 C 19.586 10.939,19.105 11.332,18.850 11.866 C 18.706 12.168,18.700 12.198,18.693 12.639 L 18.687 13.098 17.734 13.744 L 16.781 14.389 16.606 14.255 C 15.825 13.659,14.764 13.723,14.081 14.405 C 13.690 14.797,13.492 15.325,13.531 15.876 C 13.583 16.615,14.063 17.261,14.755 17.523 C 15.240 17.707,15.889 17.658,16.340 17.404 L 16.540 17.291 17.646 18.016 C 18.748 18.737,18.753 18.741,18.726 18.860 C 18.712 18.926,18.700 19.169,18.700 19.400 C 18.701 19.802,18.707 19.833,18.850 20.134 C 19.421 21.332,20.980 21.607,21.912 20.675 C 22.041 20.546,22.195 20.353,22.252 20.247 C 22.552 19.696,22.551 18.988,22.249 18.423 C 22.110 18.163,21.757 17.810,21.497 17.671 C 20.935 17.371,20.218 17.365,19.696 17.656 L 19.511 17.760 18.405 17.035 C 17.797 16.636,17.297 16.307,17.293 16.304 C 17.289 16.301,17.296 16.123,17.309 15.908 L 17.332 15.517 18.328 14.838 C 18.876 14.465,19.341 14.160,19.361 14.160 C 19.380 14.160,19.462 14.204,19.541 14.258 C 19.796 14.431,20.117 14.530,20.484 14.550 C 21.050 14.581,21.526 14.401,21.923 14.003 C 22.837 13.089,22.583 11.547,21.424 10.979 C 20.978 10.760,20.613 10.716,20.130 10.821 " fill="#8B5CF6" stroke="none" fill-rule="evenodd"></path></svg>