<svg width="24" height="24" viewBox="0 0 24 24" fill="none" xmlns="http://www.w3.org/2000/svg"><path d="M4.657 4.042 C 3.252 4.215,2.204 5.283,2.041 6.710 C 1.987 7.182,1.987 16.818,2.041 17.290 C 2.124 18.019,2.403 18.610,2.897 19.103 C 3.390 19.597,3.981 19.876,4.710 19.959 C 4.921 19.983,6.640 19.999,9.030 20.000 L 13.000 20.000 13.000 19.000 L 13.000 18.000 8.873 18.000 C 4.788 18.000,4.743 17.999,4.575 17.918 C 4.379 17.823,4.137 17.571,4.056 17.377 C 4.009 17.264,4.000 16.407,4.000 11.994 C 4.000 6.777,4.001 6.744,4.082 6.575 C 4.177 6.379,4.429 6.137,4.623 6.056 C 4.731 6.011,5.080 6.000,6.394 6.000 L 8.031 6.000 8.235 6.110 C 8.347 6.170,9.007 6.688,9.701 7.260 C 10.396 7.832,11.077 8.367,11.216 8.448 C 11.569 8.656,12.015 8.796,12.470 8.840 C 12.685 8.861,14.300 8.879,16.060 8.880 C 19.658 8.882,19.419 8.862,19.728 9.185 C 19.912 9.377,20.000 9.583,20.000 9.819 L 20.000 10.000 21.001 10.000 L 22.002 10.000 21.977 9.730 C 21.904 8.941,21.651 8.348,21.169 7.832 C 20.803 7.441,20.258 7.119,19.710 6.972 C 19.488 6.912,19.062 6.902,15.940 6.882 L 12.420 6.860 12.260 6.773 C 12.172 6.724,11.508 6.199,10.785 5.604 C 8.807 3.979,8.946 4.031,6.580 4.017 C 5.678 4.011,4.813 4.022,4.657 4.042 M13.720 11.213 C 13.529 11.274,13.269 11.544,13.209 11.745 C 13.146 11.958,13.140 14.627,13.203 14.853 C 13.254 15.037,13.472 15.288,13.657 15.376 C 13.830 15.458,14.170 15.458,14.343 15.376 C 14.528 15.288,14.746 15.037,14.797 14.853 C 14.820 14.769,14.840 14.547,14.840 14.360 L 14.840 14.020 16.104 15.280 C 17.003 16.176,17.393 16.592,17.454 16.720 C 17.537 16.893,17.541 16.966,17.560 18.606 L 17.580 20.313 17.704 20.466 C 18.041 20.886,18.538 20.953,18.907 20.629 C 19.198 20.373,19.198 20.370,19.199 18.608 C 19.200 17.570,19.216 16.972,19.246 16.848 C 19.288 16.675,19.392 16.559,20.596 15.348 L 21.900 14.037 21.922 14.468 C 21.941 14.851,21.956 14.918,22.051 15.060 C 22.216 15.305,22.405 15.414,22.698 15.433 C 23.062 15.456,23.316 15.311,23.494 14.980 C 23.578 14.824,23.580 14.780,23.580 13.297 L 23.580 11.774 23.459 11.579 C 23.372 11.437,23.281 11.353,23.125 11.272 L 22.911 11.160 21.443 11.160 L 19.976 11.160 19.772 11.261 C 19.146 11.573,19.146 12.427,19.772 12.739 C 19.947 12.826,20.029 12.840,20.358 12.840 L 20.739 12.840 19.560 14.020 L 18.381 15.200 17.210 14.030 L 16.039 12.860 16.449 12.837 C 16.714 12.823,16.904 12.792,16.984 12.750 C 17.130 12.673,17.349 12.433,17.403 12.293 C 17.461 12.140,17.447 11.806,17.376 11.657 C 17.288 11.472,17.037 11.254,16.853 11.203 C 16.642 11.144,13.908 11.153,13.720 11.213 " stroke="none" fill-rule="evenodd" fill="black"></path></svg>