<svg width="24" height="24" viewBox="0 0 24 24" fill="none" xmlns="http://www.w3.org/2000/svg"><path d="M4.503 4.042 C 3.490 4.212,2.556 4.976,2.202 5.925 C 1.996 6.477,2.001 6.315,2.001 11.992 C 2.000 17.780,1.991 17.556,2.234 18.151 C 2.521 18.857,3.143 19.479,3.849 19.766 C 4.435 20.005,4.333 20.000,8.858 20.000 L 13.000 20.000 13.000 19.000 L 13.000 18.000 8.927 18.000 C 4.346 18.000,4.615 18.017,4.299 17.701 C 3.979 17.381,4.000 17.783,4.000 12.000 C 4.000 6.216,3.979 6.619,4.300 6.298 C 4.597 6.001,4.643 5.995,6.466 6.008 C 8.015 6.020,8.065 6.022,8.220 6.107 C 8.308 6.155,8.958 6.669,9.664 7.250 C 11.026 8.370,11.225 8.513,11.639 8.669 C 12.193 8.878,12.233 8.880,15.834 8.882 C 18.524 8.883,19.209 8.894,19.330 8.937 C 19.692 9.066,19.949 9.394,19.988 9.778 L 20.011 10.000 21.012 10.000 L 22.012 10.000 21.987 9.670 C 21.889 8.392,21.032 7.346,19.780 6.975 C 19.561 6.910,19.235 6.902,16.000 6.882 C 12.854 6.862,12.444 6.853,12.320 6.795 C 12.243 6.760,11.588 6.245,10.864 5.650 C 9.503 4.532,9.293 4.380,8.874 4.211 C 8.409 4.023,8.152 4.003,6.360 4.006 C 5.447 4.008,4.611 4.024,4.503 4.042 M17.660 11.899 C 17.270 11.976,16.905 12.103,16.600 12.267 C 16.457 12.344,16.234 12.433,16.104 12.464 C 15.599 12.587,14.981 13.024,14.554 13.560 C 13.940 14.331,13.293 15.660,13.250 16.242 C 13.202 16.889,13.636 17.859,14.401 18.814 C 14.652 19.127,14.841 19.224,15.075 19.161 C 15.226 19.121,15.391 18.976,15.478 18.808 C 15.524 18.717,15.530 18.721,15.717 18.968 C 15.995 19.333,16.348 19.653,16.631 19.796 C 16.904 19.933,17.007 19.949,17.078 19.862 C 17.177 19.743,17.110 19.630,16.866 19.506 C 16.492 19.316,15.988 18.805,15.785 18.410 C 15.724 18.292,15.724 18.269,15.779 18.162 C 15.861 18.004,15.856 17.809,15.760 17.371 C 15.595 16.614,15.594 15.736,15.758 15.263 C 15.833 15.048,15.835 15.018,15.779 14.933 C 15.655 14.744,15.497 14.841,15.387 15.173 C 15.207 15.714,15.215 16.590,15.408 17.510 L 15.494 17.921 15.277 18.350 C 15.002 18.895,14.949 18.914,14.673 18.566 C 13.969 17.679,13.544 16.723,13.621 16.200 C 13.653 15.977,13.945 15.253,14.185 14.801 C 14.580 14.055,15.087 13.426,15.539 13.119 C 15.780 12.955,16.141 12.802,16.288 12.801 C 16.348 12.800,16.489 12.746,16.601 12.679 C 17.201 12.326,17.842 12.177,18.616 12.211 C 19.308 12.242,19.811 12.393,20.454 12.761 C 20.735 12.922,20.837 12.960,20.990 12.960 C 21.327 12.961,21.868 13.286,22.207 13.692 C 22.594 14.155,23.011 14.948,23.262 15.697 C 23.417 16.160,23.423 16.227,23.341 16.614 C 23.232 17.126,22.657 18.166,22.238 18.607 C 22.025 18.831,21.969 18.795,21.724 18.278 L 21.518 17.842 21.581 17.571 C 21.805 16.612,21.816 15.652,21.611 15.080 C 21.527 14.846,21.489 14.800,21.380 14.800 C 21.183 14.800,21.166 14.919,21.303 15.360 C 21.396 15.661,21.396 16.572,21.304 17.040 C 21.133 17.899,21.136 17.861,21.230 18.083 L 21.316 18.286 21.148 18.568 C 20.916 18.957,20.478 19.398,20.193 19.531 C 19.967 19.635,19.895 19.729,19.944 19.855 C 19.992 19.980,20.142 19.974,20.399 19.837 C 20.723 19.665,20.941 19.467,21.223 19.091 C 21.352 18.920,21.468 18.766,21.482 18.748 C 21.496 18.731,21.555 18.789,21.613 18.877 C 21.810 19.174,22.191 19.198,22.447 18.930 C 22.823 18.536,23.353 17.690,23.557 17.160 C 23.801 16.526,23.813 16.141,23.608 15.560 C 22.988 13.799,22.108 12.761,21.100 12.600 C 20.920 12.571,20.748 12.510,20.592 12.418 C 20.276 12.234,19.851 12.055,19.482 11.954 C 19.092 11.846,18.083 11.816,17.660 11.899 M16.797 14.917 C 16.656 15.058,16.644 15.223,16.763 15.375 C 16.860 15.498,17.054 15.516,17.242 15.419 C 17.349 15.364,17.360 15.339,17.360 15.159 C 17.360 14.911,17.266 14.800,17.057 14.800 C 16.952 14.800,16.883 14.831,16.797 14.917 M20.100 14.880 C 20.060 14.924,20.020 15.045,20.010 15.153 C 19.992 15.342,19.995 15.348,20.132 15.413 C 20.433 15.556,20.680 15.433,20.680 15.140 C 20.680 14.860,20.281 14.680,20.100 14.880 M17.782 16.490 C 17.673 16.586,17.442 17.171,17.469 17.286 C 17.477 17.322,17.596 17.400,17.732 17.460 C 17.955 17.557,18.035 17.569,18.536 17.581 L 19.093 17.595 19.363 17.458 C 19.517 17.381,19.645 17.288,19.659 17.244 C 19.693 17.136,19.451 16.574,19.328 16.478 C 19.239 16.408,19.162 16.400,18.557 16.400 C 17.917 16.400,17.880 16.404,17.782 16.490 M16.542 17.493 C 16.479 17.540,16.472 17.590,16.488 17.863 C 16.499 18.052,16.535 18.234,16.576 18.312 C 16.676 18.506,16.914 18.757,17.120 18.888 L 17.300 19.003 17.346 19.512 C 17.418 20.299,17.592 20.690,17.940 20.844 C 18.291 20.999,18.901 21.019,19.156 20.882 C 19.455 20.722,19.678 20.151,19.701 19.487 L 19.715 19.073 19.908 18.953 C 20.166 18.791,20.429 18.533,20.524 18.349 C 20.701 18.007,20.706 17.549,20.534 17.470 C 20.381 17.400,20.280 17.523,20.280 17.780 C 20.280 18.055,20.152 18.293,19.887 18.508 C 19.656 18.697,19.419 18.781,19.274 18.725 C 19.222 18.705,19.085 18.613,18.970 18.521 L 18.760 18.353 18.760 18.099 C 18.760 17.830,18.702 17.720,18.559 17.720 C 18.435 17.720,18.360 17.876,18.358 18.139 L 18.355 18.380 18.151 18.536 C 17.856 18.761,17.729 18.791,17.514 18.687 C 17.096 18.484,16.841 18.130,16.840 17.753 C 16.840 17.484,16.710 17.371,16.542 17.493 " fill="#64748B" stroke="none" fill-rule="evenodd"></path></svg>