<svg width="24" height="24" viewBox="0 0 24 24" fill="none" xmlns="http://www.w3.org/2000/svg"><path d="M4.503 4.042 C 3.490 4.212,2.556 4.976,2.202 5.925 C 1.996 6.477,2.001 6.315,2.001 11.992 C 2.000 17.780,1.991 17.556,2.234 18.151 C 2.521 18.857,3.143 19.479,3.849 19.766 C 4.435 20.005,4.333 20.000,8.858 20.000 L 13.000 20.000 13.000 19.000 L 13.000 18.000 8.927 18.000 C 4.346 18.000,4.615 18.017,4.299 17.701 C 3.979 17.381,4.000 17.783,4.000 12.000 C 4.000 6.216,3.979 6.619,4.300 6.298 C 4.597 6.001,4.643 5.995,6.466 6.008 C 8.015 6.020,8.065 6.022,8.220 6.107 C 8.308 6.155,8.958 6.669,9.664 7.250 C 11.026 8.370,11.225 8.513,11.639 8.669 C 12.193 8.878,12.233 8.880,15.834 8.882 C 18.524 8.883,19.209 8.894,19.330 8.937 C 19.692 9.066,19.949 9.394,19.988 9.778 L 20.011 10.000 21.012 10.000 L 22.012 10.000 21.987 9.670 C 21.889 8.392,21.032 7.346,19.780 6.975 C 19.561 6.910,19.235 6.902,16.000 6.882 C 12.854 6.862,12.444 6.853,12.320 6.795 C 12.243 6.760,11.588 6.245,10.864 5.650 C 9.503 4.532,9.293 4.380,8.874 4.211 C 8.409 4.023,8.152 4.003,6.360 4.006 C 5.447 4.008,4.611 4.024,4.503 4.042 M14.789 11.042 C 14.563 11.097,14.430 11.177,14.272 11.352 C 14.031 11.619,14.020 11.689,14.020 13.000 C 14.020 14.325,14.029 14.384,14.288 14.665 C 14.565 14.965,14.648 14.980,16.000 14.980 C 17.352 14.980,17.435 14.965,17.712 14.665 C 17.971 14.384,17.980 14.325,17.980 13.000 C 17.980 11.686,17.970 11.620,17.725 11.348 C 17.443 11.035,17.373 11.021,16.080 11.013 C 15.453 11.009,14.872 11.022,14.789 11.042 M20.660 16.043 C 20.315 16.094,19.865 16.329,19.597 16.597 C 18.644 17.550,18.913 19.182,20.120 19.773 C 21.111 20.258,22.293 19.860,22.773 18.880 C 23.487 17.420,22.282 15.801,20.660 16.043 " fill="#64748B" stroke="none" fill-rule="evenodd"></path></svg>