<svg width="24" height="24" viewBox="0 0 24 24" fill="none" xmlns="http://www.w3.org/2000/svg"><path d="M4.503 4.042 C 3.490 4.212,2.556 4.976,2.202 5.925 C 1.996 6.477,2.001 6.315,2.001 11.992 C 2.000 17.780,1.991 17.556,2.234 18.151 C 2.521 18.857,3.143 19.479,3.849 19.766 C 4.435 20.005,4.333 20.000,8.858 20.000 L 13.000 20.000 13.000 19.000 L 13.000 18.000 8.927 18.000 C 4.346 18.000,4.615 18.017,4.299 17.701 C 3.979 17.381,4.000 17.783,4.000 12.000 C 4.000 6.216,3.979 6.619,4.300 6.298 C 4.597 6.001,4.643 5.995,6.466 6.008 C 8.015 6.020,8.065 6.022,8.220 6.107 C 8.308 6.155,8.958 6.669,9.664 7.250 C 11.026 8.370,11.225 8.513,11.639 8.669 C 12.192 8.877,12.227 8.879,15.871 8.880 L 19.260 8.882 19.260 7.891 L 19.260 6.900 15.860 6.880 C 12.840 6.862,12.444 6.853,12.320 6.795 C 12.243 6.760,11.588 6.245,10.864 5.650 C 9.503 4.532,9.293 4.380,8.874 4.211 C 8.409 4.023,8.152 4.003,6.360 4.006 C 5.447 4.008,4.611 4.024,4.503 4.042 M21.715 7.023 C 21.283 7.155,20.950 7.498,20.821 7.942 C 20.786 8.064,20.659 8.737,20.540 9.439 C 20.166 11.641,19.974 12.341,19.646 12.694 C 19.258 13.111,17.913 13.382,15.840 13.460 C 14.770 13.500,14.298 13.607,13.989 13.877 C 13.845 14.004,13.600 14.352,13.600 14.430 C 13.600 14.453,13.679 14.519,13.775 14.575 C 13.872 14.632,14.031 14.767,14.129 14.877 C 14.346 15.118,14.400 15.333,14.400 15.957 C 14.399 16.460,14.324 16.993,14.155 17.694 C 14.000 18.334,14.007 18.396,14.327 19.285 L 14.569 19.960 14.840 19.960 L 15.111 19.960 15.137 19.610 C 15.194 18.858,15.252 18.411,15.318 18.196 C 15.514 17.566,16.172 16.975,16.844 16.824 C 17.103 16.767,17.997 16.735,18.900 16.751 L 19.380 16.760 19.385 17.170 C 19.390 17.622,19.466 17.976,19.628 18.297 C 19.761 18.560,20.205 19.210,20.538 19.630 L 20.800 19.960 21.140 19.960 C 21.327 19.960,21.480 19.954,21.480 19.948 C 21.480 19.941,21.416 19.778,21.339 19.585 C 21.106 19.009,21.025 18.611,21.022 18.040 C 21.020 17.591,21.033 17.494,21.151 17.085 C 21.312 16.526,21.633 15.708,22.026 14.857 L 22.323 14.213 22.262 13.377 C 22.117 11.393,22.077 9.817,22.162 9.509 C 22.224 9.288,22.419 9.085,22.623 9.031 C 22.780 8.989,22.801 8.967,22.870 8.779 L 22.946 8.574 22.683 8.437 C 22.538 8.363,22.326 8.210,22.210 8.098 C 22.041 7.935,21.999 7.869,21.996 7.758 C 21.988 7.509,22.006 7.383,22.081 7.170 L 22.154 6.960 22.027 6.963 C 21.957 6.964,21.817 6.991,21.715 7.023 M16.497 17.357 C 16.385 17.421,16.208 17.557,16.104 17.659 C 15.920 17.837,15.915 17.849,15.942 18.012 C 16.063 18.739,16.348 19.405,16.706 19.801 L 16.849 19.960 17.163 19.960 L 17.477 19.960 17.322 19.670 C 17.063 19.185,16.882 18.451,16.778 17.470 C 16.765 17.343,16.742 17.240,16.727 17.240 C 16.712 17.241,16.609 17.293,16.497 17.357 " fill="#64748B" stroke="none" fill-rule="evenodd"></path></svg>