<svg width="24" height="24" viewBox="0 0 24 24" fill="none" xmlns="http://www.w3.org/2000/svg"><path d="M4.657 4.042 C 3.252 4.215,2.204 5.283,2.041 6.710 C 1.987 7.182,1.987 16.818,2.041 17.290 C 2.124 18.019,2.403 18.610,2.897 19.103 C 3.390 19.597,3.981 19.876,4.710 19.959 C 4.921 19.983,6.640 19.999,9.030 20.000 L 13.000 20.000 13.000 19.000 L 13.000 18.000 8.873 18.000 C 4.788 18.000,4.743 17.999,4.575 17.918 C 4.379 17.823,4.137 17.571,4.056 17.377 C 4.009 17.264,4.000 16.407,4.000 11.994 C 4.000 6.777,4.001 6.744,4.082 6.575 C 4.177 6.379,4.429 6.137,4.623 6.056 C 4.731 6.011,5.080 6.000,6.394 6.000 L 8.031 6.000 8.235 6.110 C 8.347 6.170,9.007 6.688,9.701 7.260 C 10.396 7.832,11.077 8.367,11.216 8.448 C 11.569 8.656,12.015 8.796,12.470 8.840 C 12.685 8.861,14.300 8.879,16.060 8.880 C 19.658 8.882,19.419 8.862,19.728 9.185 C 19.912 9.377,20.000 9.583,20.000 9.819 L 20.000 10.000 21.001 10.000 L 22.002 10.000 21.977 9.730 C 21.904 8.941,21.651 8.348,21.169 7.832 C 20.803 7.441,20.258 7.119,19.710 6.972 C 19.488 6.912,19.062 6.902,15.940 6.882 L 12.420 6.860 12.260 6.773 C 12.172 6.724,11.508 6.199,10.785 5.604 C 8.807 3.979,8.946 4.031,6.580 4.017 C 5.678 4.011,4.813 4.022,4.657 4.042 M18.480 10.905 C 17.363 11.069,16.609 11.769,16.265 12.965 C 15.961 14.019,16.078 15.159,16.595 16.190 C 16.722 16.444,16.743 16.518,16.712 16.600 C 16.658 16.741,16.705 17.034,16.807 17.182 C 16.955 17.399,17.142 17.499,17.396 17.497 C 17.675 17.496,17.847 17.408,17.986 17.198 C 18.276 16.760,18.023 16.176,17.508 16.093 C 17.355 16.069,17.344 16.056,17.195 15.739 C 16.954 15.226,16.865 14.799,16.862 14.160 C 16.860 13.510,16.935 13.138,17.161 12.689 C 17.443 12.129,17.780 11.837,18.301 11.701 C 18.814 11.568,19.193 11.649,19.543 11.969 C 19.903 12.299,20.187 12.867,20.258 13.402 L 20.283 13.585 20.591 13.677 C 20.761 13.728,20.934 13.779,20.975 13.791 C 21.044 13.810,21.047 13.793,21.022 13.556 C 20.896 12.389,20.355 11.493,19.540 11.101 C 19.169 10.922,18.814 10.857,18.480 10.905 M17.920 13.424 C 17.511 13.601,17.348 14.054,17.558 14.427 C 17.790 14.841,18.334 14.914,18.672 14.576 C 18.800 14.448,18.824 14.440,19.074 14.441 C 20.045 14.442,21.301 15.031,21.853 15.741 C 22.064 16.013,22.311 16.532,22.362 16.810 C 22.487 17.490,22.010 18.219,21.321 18.401 C 20.961 18.496,20.317 18.441,19.946 18.283 L 19.782 18.213 19.541 18.417 C 19.408 18.528,19.255 18.650,19.200 18.686 L 19.100 18.753 19.325 18.854 C 19.845 19.087,20.101 19.140,20.700 19.140 C 21.346 19.140,21.639 19.070,22.074 18.812 C 22.765 18.401,23.092 17.845,23.092 17.080 C 23.092 16.410,22.876 15.842,22.404 15.272 C 21.643 14.351,20.593 13.830,19.273 13.718 C 18.793 13.677,18.755 13.668,18.638 13.558 C 18.435 13.368,18.165 13.318,17.920 13.424 M15.580 14.756 C 14.755 15.410,14.358 16.211,14.412 17.116 C 14.468 18.076,14.928 18.670,15.879 19.010 C 16.037 19.066,16.243 19.094,16.600 19.107 C 17.058 19.125,17.138 19.117,17.560 19.008 C 18.166 18.853,18.579 18.677,19.000 18.396 C 19.541 18.034,20.098 17.428,20.364 16.910 C 20.418 16.805,20.497 16.734,20.624 16.674 C 20.892 16.548,21.020 16.336,21.020 16.017 C 21.020 15.799,21.005 15.749,20.899 15.618 C 20.716 15.392,20.544 15.312,20.274 15.330 C 20.015 15.347,19.806 15.477,19.692 15.692 C 19.606 15.855,19.606 16.183,19.691 16.346 C 19.757 16.470,19.756 16.473,19.597 16.720 C 19.269 17.227,18.722 17.704,18.099 18.027 C 17.320 18.430,16.522 18.507,15.897 18.239 C 15.632 18.125,15.349 17.839,15.215 17.549 C 15.115 17.333,15.100 17.252,15.100 16.940 C 15.100 16.606,15.111 16.557,15.251 16.265 C 15.366 16.022,15.473 15.878,15.711 15.641 L 16.020 15.333 15.933 14.996 C 15.885 14.811,15.840 14.639,15.833 14.613 C 15.826 14.586,15.715 14.649,15.580 14.756 " fill="#8B5CF6" stroke="none" fill-rule="evenodd"></path></svg>