<svg width="24" height="24" viewBox="0 0 24 24" fill="none" xmlns="http://www.w3.org/2000/svg"><path d="M4.657 4.042 C 3.252 4.215,2.204 5.283,2.041 6.710 C 1.987 7.182,1.987 16.818,2.041 17.290 C 2.124 18.019,2.403 18.610,2.897 19.103 C 3.390 19.597,3.981 19.876,4.710 19.959 C 4.921 19.983,6.640 19.999,9.030 20.000 L 13.000 20.000 13.000 19.000 L 13.000 18.000 8.873 18.000 C 4.788 18.000,4.743 17.999,4.575 17.918 C 4.379 17.823,4.137 17.571,4.056 17.377 C 4.009 17.264,4.000 16.407,4.000 11.994 C 4.000 6.777,4.001 6.744,4.082 6.575 C 4.177 6.379,4.429 6.137,4.623 6.056 C 4.731 6.011,5.080 6.000,6.394 6.000 L 8.031 6.000 8.235 6.110 C 8.347 6.170,9.007 6.688,9.701 7.260 C 10.396 7.832,11.077 8.367,11.216 8.448 C 11.569 8.656,12.015 8.796,12.470 8.840 C 12.685 8.861,14.300 8.879,16.060 8.880 C 19.658 8.882,19.419 8.862,19.728 9.185 C 19.912 9.377,20.000 9.583,20.000 9.819 L 20.000 10.000 21.001 10.000 L 22.002 10.000 21.977 9.730 C 21.904 8.941,21.651 8.348,21.169 7.832 C 20.803 7.441,20.258 7.119,19.710 6.972 C 19.488 6.912,19.062 6.902,15.940 6.882 L 12.420 6.860 12.260 6.773 C 12.172 6.724,11.508 6.199,10.785 5.604 C 8.807 3.979,8.946 4.031,6.580 4.017 C 5.678 4.011,4.813 4.022,4.657 4.042 M14.709 10.803 C 14.333 10.893,13.993 11.188,13.856 11.542 C 13.783 11.732,13.780 11.898,13.780 15.500 C 13.780 19.110,13.783 19.268,13.857 19.459 C 13.957 19.720,14.232 20.008,14.491 20.126 L 14.700 20.220 18.500 20.220 L 22.300 20.220 22.509 20.126 C 22.768 20.008,23.043 19.720,23.143 19.459 C 23.217 19.268,23.220 19.110,23.220 15.500 C 23.220 11.890,23.217 11.732,23.143 11.541 C 23.043 11.280,22.768 10.992,22.509 10.874 L 22.300 10.780 18.580 10.774 C 16.489 10.770,14.794 10.783,14.709 10.803 M21.940 12.540 L 21.940 13.020 18.500 13.020 L 15.060 13.020 15.049 12.583 C 15.042 12.342,15.046 12.121,15.057 12.092 C 15.074 12.049,15.697 12.041,18.509 12.050 L 21.940 12.060 21.940 12.540 M21.940 16.640 L 21.940 18.940 18.500 18.940 L 15.060 18.940 15.050 16.680 C 15.044 15.437,15.048 14.397,15.058 14.370 C 15.074 14.330,15.785 14.322,18.509 14.330 L 21.940 14.340 21.940 16.640 M16.300 14.877 C 16.031 14.942,15.864 15.133,15.817 15.429 C 15.797 15.557,15.811 15.637,15.878 15.776 C 16.084 16.202,16.612 16.273,16.930 15.917 C 17.066 15.765,17.080 15.729,17.080 15.521 C 17.080 15.073,16.720 14.776,16.300 14.877 M17.939 14.877 C 17.746 14.923,17.610 15.034,17.522 15.216 C 17.421 15.424,17.420 15.571,17.516 15.784 C 17.726 16.246,18.424 16.256,18.660 15.800 C 18.693 15.736,18.720 15.601,18.720 15.500 C 18.720 15.399,18.693 15.264,18.660 15.200 C 18.533 14.955,18.214 14.812,17.939 14.877 M19.571 14.878 C 19.376 14.925,19.250 15.024,19.161 15.199 C 18.938 15.636,19.236 16.135,19.720 16.135 C 20.090 16.135,20.360 15.867,20.360 15.500 C 20.360 15.079,19.980 14.780,19.571 14.878 " fill="#2563EB" stroke="none" fill-rule="evenodd"></path></svg>