<svg width="24" height="24" viewBox="0 0 24 24" fill="none" xmlns="http://www.w3.org/2000/svg"><path d="M4.657 4.042 C 3.252 4.215,2.204 5.283,2.041 6.710 C 1.987 7.182,1.987 16.818,2.041 17.290 C 2.124 18.019,2.403 18.610,2.897 19.103 C 3.390 19.597,3.981 19.876,4.710 19.959 C 4.921 19.983,6.640 19.999,9.030 20.000 L 13.000 20.000 13.000 19.000 L 13.000 18.000 8.873 18.000 C 4.788 18.000,4.743 17.999,4.575 17.918 C 4.379 17.823,4.137 17.571,4.056 17.377 C 4.009 17.264,4.000 16.407,4.000 11.994 C 4.000 6.777,4.001 6.744,4.082 6.575 C 4.177 6.379,4.429 6.137,4.623 6.056 C 4.731 6.011,5.080 6.000,6.394 6.000 L 8.031 6.000 8.235 6.110 C 8.347 6.170,9.007 6.688,9.701 7.260 C 10.396 7.832,11.077 8.367,11.216 8.448 C 11.569 8.656,12.015 8.796,12.470 8.840 C 12.685 8.861,14.300 8.879,16.060 8.880 C 19.658 8.882,19.419 8.862,19.728 9.185 C 19.912 9.377,20.000 9.583,20.000 9.819 L 20.000 10.000 21.001 10.000 L 22.002 10.000 21.977 9.730 C 21.904 8.941,21.651 8.348,21.169 7.832 C 20.803 7.441,20.258 7.119,19.710 6.972 C 19.488 6.912,19.062 6.902,15.940 6.882 L 12.420 6.860 12.260 6.773 C 12.172 6.724,11.508 6.199,10.785 5.604 C 8.807 3.979,8.946 4.031,6.580 4.017 C 5.678 4.011,4.813 4.022,4.657 4.042 M18.132 11.194 C 17.541 11.369,16.991 11.853,16.704 12.451 C 16.165 13.574,16.198 14.832,16.800 16.108 C 16.953 16.432,16.989 16.545,16.959 16.602 C 16.808 16.884,17.065 17.280,17.398 17.280 C 17.684 17.280,17.880 17.077,17.880 16.782 C 17.880 16.639,17.856 16.574,17.764 16.471 C 17.661 16.357,17.623 16.341,17.445 16.340 L 17.242 16.340 17.063 15.980 C 16.964 15.782,16.834 15.458,16.773 15.260 C 16.670 14.921,16.663 14.854,16.662 14.120 C 16.661 13.366,16.664 13.329,16.773 13.020 C 17.095 12.103,17.591 11.619,18.380 11.452 C 18.737 11.377,19.028 11.408,19.340 11.557 C 19.840 11.795,20.251 12.381,20.432 13.119 C 20.501 13.399,20.512 13.418,20.637 13.450 C 20.709 13.469,20.775 13.478,20.782 13.471 C 20.790 13.463,20.769 13.323,20.735 13.159 C 20.555 12.282,20.076 11.607,19.407 11.288 C 19.152 11.166,19.068 11.147,18.747 11.135 C 18.475 11.124,18.316 11.140,18.132 11.194 M17.854 13.732 C 17.713 13.862,17.700 13.892,17.700 14.080 C 17.700 14.267,17.714 14.299,17.849 14.423 C 17.973 14.536,18.030 14.560,18.176 14.560 C 18.368 14.560,18.572 14.430,18.621 14.278 C 18.641 14.214,18.682 14.200,18.853 14.200 C 19.973 14.202,21.094 14.648,21.826 15.383 C 22.147 15.706,22.396 16.115,22.525 16.533 C 22.645 16.921,22.620 17.377,22.460 17.704 C 22.291 18.052,21.977 18.361,21.629 18.524 C 21.347 18.657,21.328 18.660,20.840 18.657 C 20.445 18.654,20.286 18.636,20.085 18.569 L 19.829 18.485 19.696 18.592 C 19.536 18.719,19.553 18.735,19.979 18.850 C 20.633 19.027,21.235 18.972,21.825 18.681 C 22.788 18.207,23.123 17.266,22.708 16.200 C 22.577 15.863,22.466 15.687,22.171 15.351 C 21.403 14.474,20.370 13.992,19.140 13.934 L 18.660 13.911 18.538 13.770 C 18.436 13.652,18.384 13.627,18.213 13.610 C 18.023 13.592,17.998 13.600,17.854 13.732 M15.391 15.232 C 15.063 15.566,14.870 15.868,14.743 16.247 C 14.475 17.046,14.632 17.833,15.158 18.335 C 15.823 18.969,16.839 19.077,18.030 18.638 C 18.593 18.431,19.068 18.124,19.489 17.694 C 19.813 17.363,19.912 17.234,20.147 16.830 C 20.246 16.660,20.353 16.520,20.385 16.520 C 20.498 16.520,20.679 16.398,20.739 16.281 C 21.025 15.729,20.275 15.248,19.928 15.760 C 19.812 15.931,19.824 16.195,19.953 16.333 L 20.036 16.421 19.918 16.637 C 19.461 17.473,18.410 18.277,17.455 18.521 C 17.074 18.619,16.403 18.628,16.065 18.540 C 15.449 18.379,15.002 17.875,14.881 17.203 C 14.783 16.663,15.003 16.059,15.486 15.542 C 15.734 15.276,15.757 15.237,15.735 15.124 C 15.721 15.055,15.697 14.991,15.682 14.981 C 15.667 14.972,15.536 15.085,15.391 15.232 " fill="#F59E0B" stroke="none" fill-rule="evenodd"></path></svg>