<svg width="24" height="24" viewBox="0 0 24 24" fill="none" xmlns="http://www.w3.org/2000/svg"><path d="M4.657 4.042 C 3.252 4.215,2.204 5.283,2.041 6.710 C 1.987 7.182,1.987 16.818,2.041 17.290 C 2.124 18.019,2.403 18.610,2.897 19.103 C 3.390 19.597,3.981 19.876,4.710 19.959 C 4.921 19.983,6.640 19.999,9.030 20.000 L 13.000 20.000 13.000 19.000 L 13.000 18.000 8.873 18.000 C 4.788 18.000,4.743 17.999,4.575 17.918 C 4.379 17.823,4.137 17.571,4.056 17.377 C 4.009 17.264,4.000 16.407,4.000 11.994 C 4.000 6.777,4.001 6.744,4.082 6.575 C 4.177 6.379,4.429 6.137,4.623 6.056 C 4.731 6.011,5.080 6.000,6.394 6.000 L 8.031 6.000 8.235 6.110 C 8.347 6.170,9.007 6.688,9.701 7.260 C 10.396 7.832,11.077 8.367,11.216 8.448 C 11.569 8.656,12.015 8.796,12.470 8.840 C 12.685 8.861,14.300 8.879,16.060 8.880 C 19.658 8.882,19.419 8.862,19.728 9.185 C 19.912 9.377,20.000 9.583,20.000 9.819 L 20.000 10.000 21.001 10.000 L 22.002 10.000 21.977 9.730 C 21.904 8.941,21.651 8.348,21.169 7.832 C 20.803 7.441,20.258 7.119,19.710 6.972 C 19.488 6.912,19.062 6.902,15.940 6.882 L 12.420 6.860 12.260 6.773 C 12.172 6.724,11.508 6.199,10.785 5.604 C 8.807 3.979,8.946 4.031,6.580 4.017 C 5.678 4.011,4.813 4.022,4.657 4.042 M14.700 11.296 C 14.542 11.366,14.362 11.549,14.294 11.709 C 14.250 11.814,14.240 12.501,14.240 15.496 C 14.240 17.979,14.254 19.191,14.282 19.267 C 14.340 19.420,14.552 19.637,14.709 19.705 C 14.900 19.787,22.100 19.787,22.291 19.705 C 22.448 19.637,22.660 19.420,22.718 19.267 C 22.746 19.191,22.760 17.979,22.760 15.496 C 22.760 12.473,22.750 11.815,22.705 11.709 C 22.637 11.552,22.420 11.340,22.267 11.282 C 22.086 11.214,14.856 11.227,14.700 11.296 M22.400 12.560 L 22.400 13.520 18.500 13.520 L 14.600 13.520 14.600 12.560 L 14.600 11.600 18.500 11.600 L 22.400 11.600 22.400 12.560 M22.400 16.620 L 22.400 19.400 18.500 19.400 L 14.600 19.400 14.600 16.620 L 14.600 13.840 18.500 13.840 L 22.400 13.840 22.400 16.620 M16.328 15.368 C 16.222 15.474,16.299 15.680,16.445 15.680 C 16.528 15.680,16.640 15.576,16.640 15.500 C 16.640 15.360,16.426 15.270,16.328 15.368 M17.968 15.368 C 17.862 15.474,17.939 15.680,18.085 15.680 C 18.168 15.680,18.280 15.576,18.280 15.500 C 18.280 15.360,18.066 15.270,17.968 15.368 M19.608 15.368 C 19.542 15.434,19.548 15.580,19.619 15.640 C 19.654 15.668,19.722 15.678,19.779 15.664 C 19.874 15.640,19.901 15.580,19.881 15.440 C 19.864 15.324,19.696 15.280,19.608 15.368 " fill="#F87171" stroke="none" fill-rule="evenodd"></path></svg>