<svg width="24" height="24" viewBox="0 0 24 24" fill="none" xmlns="http://www.w3.org/2000/svg"><path d="M4.503 4.042 C 3.490 4.212,2.556 4.976,2.202 5.925 C 1.996 6.477,2.001 6.315,2.001 11.992 C 2.000 17.780,1.991 17.556,2.234 18.151 C 2.521 18.857,3.143 19.479,3.849 19.766 C 4.413 19.996,4.476 20.000,7.358 20.000 L 10.000 20.000 10.000 19.000 L 10.000 18.000 7.427 18.000 C 4.523 18.000,4.606 18.008,4.299 17.701 C 3.979 17.381,4.000 17.783,4.000 12.000 C 4.000 6.216,3.979 6.619,4.300 6.298 C 4.597 6.001,4.643 5.995,6.466 6.008 C 8.015 6.020,8.065 6.022,8.220 6.107 C 8.308 6.155,8.958 6.669,9.664 7.250 C 11.026 8.370,11.225 8.513,11.639 8.669 C 12.193 8.878,12.233 8.880,15.834 8.882 C 18.524 8.883,19.209 8.894,19.330 8.937 C 19.692 9.066,19.949 9.394,19.988 9.778 L 20.011 10.000 21.012 10.000 L 22.012 10.000 21.987 9.670 C 21.889 8.392,21.032 7.346,19.780 6.975 C 19.561 6.910,19.235 6.902,16.000 6.882 C 12.854 6.862,12.444 6.853,12.320 6.795 C 12.243 6.760,11.588 6.245,10.864 5.650 C 9.503 4.532,9.293 4.380,8.874 4.211 C 8.409 4.023,8.152 4.003,6.360 4.006 C 5.447 4.008,4.611 4.024,4.503 4.042 M19.336 11.716 C 19.246 11.757,19.136 11.842,19.091 11.905 C 18.966 12.083,15.874 19.241,15.851 19.407 C 15.819 19.636,15.872 19.828,16.011 19.987 C 16.301 20.317,16.793 20.330,17.089 20.014 C 17.160 19.938,17.751 18.626,18.788 16.239 C 20.258 12.854,20.377 12.563,20.377 12.355 C 20.377 11.817,19.840 11.487,19.336 11.716 M14.820 13.146 C 14.645 13.237,12.448 15.433,12.357 15.608 C 12.272 15.772,12.256 16.052,12.322 16.227 C 12.388 16.403,14.709 18.710,14.875 18.765 C 15.060 18.826,15.333 18.816,15.476 18.742 C 15.660 18.647,15.834 18.408,15.864 18.209 C 15.918 17.848,15.870 17.778,14.917 16.819 L 14.041 15.938 14.885 15.099 C 15.748 14.240,15.878 14.070,15.878 13.800 C 15.878 13.524,15.673 13.216,15.427 13.123 C 15.266 13.061,14.960 13.073,14.820 13.146 M20.704 13.175 C 20.392 13.364,20.262 13.811,20.425 14.132 C 20.461 14.202,20.870 14.643,21.334 15.111 L 22.178 15.962 21.311 16.831 C 20.834 17.309,20.425 17.751,20.402 17.813 C 20.379 17.875,20.360 18.010,20.361 18.113 C 20.363 18.659,20.970 18.991,21.449 18.708 C 21.543 18.652,22.127 18.097,22.746 17.473 C 23.737 16.476,23.877 16.319,23.920 16.162 C 23.986 15.916,23.942 15.700,23.781 15.483 C 23.584 15.216,21.563 13.222,21.412 13.145 C 21.219 13.047,20.892 13.061,20.704 13.175 " fill="#64748B" stroke="none" fill-rule="evenodd"></path></svg>