<svg width="24" height="24" viewBox="0 0 24 24" fill="none" xmlns="http://www.w3.org/2000/svg"><path d="M4.503 4.042 C 3.490 4.212,2.556 4.976,2.202 5.925 C 1.996 6.477,2.001 6.315,2.001 11.992 C 2.000 17.780,1.991 17.556,2.234 18.151 C 2.521 18.857,3.143 19.479,3.849 19.766 C 4.439 20.007,4.284 20.000,9.358 20.000 L 14.000 20.000 14.000 19.000 L 14.000 18.000 9.427 18.000 C 4.286 18.000,4.617 18.019,4.299 17.701 C 3.979 17.381,4.000 17.783,4.000 12.000 C 4.000 6.216,3.979 6.619,4.300 6.298 C 4.597 6.001,4.643 5.995,6.466 6.008 C 8.015 6.020,8.065 6.022,8.220 6.107 C 8.308 6.155,8.958 6.669,9.664 7.250 C 11.026 8.370,11.225 8.513,11.639 8.669 C 12.193 8.878,12.233 8.880,15.834 8.882 C 18.524 8.883,19.209 8.894,19.330 8.937 C 19.692 9.066,19.949 9.394,19.988 9.778 L 20.011 10.000 21.012 10.000 L 22.012 10.000 21.987 9.670 C 21.889 8.392,21.032 7.346,19.780 6.975 C 19.561 6.910,19.235 6.902,16.000 6.882 C 12.854 6.862,12.444 6.853,12.320 6.795 C 12.243 6.760,11.588 6.245,10.864 5.650 C 9.503 4.532,9.293 4.380,8.874 4.211 C 8.409 4.023,8.152 4.003,6.360 4.006 C 5.447 4.008,4.611 4.024,4.503 4.042 M19.611 12.042 C 18.709 12.131,17.886 12.515,17.226 13.155 C 15.626 14.708,15.626 17.292,17.226 18.845 C 18.780 20.353,21.220 20.353,22.774 18.845 C 24.371 17.294,24.371 14.706,22.774 13.155 C 22.143 12.544,21.301 12.135,20.514 12.061 C 20.000 12.012,19.934 12.011,19.611 12.042 M20.730 14.116 C 21.213 14.304,21.691 14.781,21.886 15.270 C 21.965 15.467,21.978 15.572,21.978 16.000 C 21.978 16.428,21.965 16.533,21.886 16.730 C 21.691 17.217,21.217 17.691,20.730 17.886 C 20.533 17.965,20.428 17.978,20.000 17.978 C 19.572 17.978,19.467 17.965,19.270 17.886 C 18.781 17.690,18.304 17.212,18.116 16.730 C 17.983 16.387,17.963 15.775,18.074 15.412 C 18.264 14.788,18.762 14.282,19.392 14.075 C 19.717 13.968,20.405 13.989,20.730 14.116 " fill="#64748B" stroke="none" fill-rule="evenodd"></path></svg>