<svg width="24" height="24" viewBox="0 0 24 24" fill="none" xmlns="http://www.w3.org/2000/svg"><path d="M4.503 4.042 C 3.490 4.212,2.556 4.976,2.202 5.925 C 1.996 6.477,2.001 6.315,2.001 11.992 C 2.000 17.780,1.991 17.556,2.234 18.151 C 2.521 18.857,3.143 19.479,3.849 19.766 C 4.413 19.996,4.476 20.000,7.358 20.000 L 10.000 20.000 10.000 19.000 L 10.000 18.000 7.427 18.000 C 4.523 18.000,4.606 18.008,4.299 17.701 C 3.979 17.381,4.000 17.783,4.000 12.000 C 4.000 6.216,3.979 6.619,4.300 6.298 C 4.597 6.001,4.643 5.995,6.466 6.008 C 8.015 6.020,8.065 6.022,8.220 6.107 C 8.308 6.155,8.958 6.669,9.664 7.250 C 11.026 8.370,11.225 8.513,11.639 8.669 C 12.193 8.878,12.233 8.880,15.834 8.882 C 18.524 8.883,19.209 8.894,19.330 8.937 C 19.692 9.066,19.949 9.394,19.988 9.778 L 20.011 10.000 21.012 10.000 L 22.012 10.000 21.987 9.670 C 21.889 8.392,21.032 7.346,19.780 6.975 C 19.561 6.910,19.235 6.902,16.000 6.882 C 12.854 6.862,12.444 6.853,12.320 6.795 C 12.243 6.760,11.588 6.245,10.864 5.650 C 9.503 4.532,9.293 4.380,8.874 4.211 C 8.409 4.023,8.152 4.003,6.360 4.006 C 5.447 4.008,4.611 4.024,4.503 4.042 M19.304 11.731 C 19.218 11.780,19.115 11.865,19.075 11.920 C 19.035 11.975,18.291 13.663,17.421 15.672 C 15.673 19.708,15.730 19.546,15.936 19.897 C 16.219 20.380,16.963 20.352,17.215 19.848 C 17.480 19.318,20.372 12.569,20.389 12.440 C 20.466 11.869,19.811 11.441,19.304 11.731 M14.780 13.156 C 14.583 13.281,12.367 15.531,12.322 15.653 C 12.268 15.797,12.268 16.083,12.322 16.227 C 12.371 16.361,14.646 18.657,14.819 18.748 C 14.885 18.783,15.031 18.811,15.143 18.811 C 15.523 18.811,15.829 18.546,15.870 18.180 C 15.909 17.838,15.836 17.735,14.901 16.801 L 14.041 15.941 14.918 15.061 C 15.400 14.576,15.814 14.129,15.837 14.067 C 15.892 13.923,15.892 13.677,15.837 13.533 C 15.785 13.395,15.617 13.212,15.472 13.136 C 15.312 13.053,14.926 13.064,14.780 13.156 M20.701 13.171 C 20.356 13.367,20.249 13.854,20.476 14.202 C 20.539 14.300,20.944 14.731,21.375 15.159 L 22.159 15.938 21.324 16.779 C 20.865 17.242,20.458 17.681,20.420 17.756 C 20.315 17.966,20.350 18.348,20.494 18.535 C 20.554 18.615,20.660 18.709,20.728 18.744 C 20.909 18.838,21.285 18.828,21.449 18.726 C 21.684 18.579,23.831 16.393,23.898 16.231 C 23.977 16.042,23.977 15.838,23.898 15.649 C 23.825 15.473,21.759 13.375,21.482 13.195 C 21.251 13.046,20.940 13.036,20.701 13.171 " fill="#64748B" stroke="none" fill-rule="evenodd"></path></svg>