<svg width="24" height="24" viewBox="0 0 24 24" fill="none" xmlns="http://www.w3.org/2000/svg"><path d="M4.657 4.042 C 3.252 4.215,2.204 5.283,2.041 6.710 C 1.987 7.182,1.987 16.818,2.041 17.290 C 2.124 18.019,2.403 18.610,2.897 19.103 C 3.390 19.597,3.981 19.876,4.710 19.959 C 4.921 19.983,6.640 19.999,9.030 20.000 L 13.000 20.000 13.000 19.000 L 13.000 18.000 8.873 18.000 C 4.788 18.000,4.743 17.999,4.575 17.918 C 4.379 17.823,4.137 17.571,4.056 17.377 C 4.009 17.264,4.000 16.407,4.000 11.994 C 4.000 6.777,4.001 6.744,4.082 6.575 C 4.177 6.379,4.429 6.137,4.623 6.056 C 4.731 6.011,5.080 6.000,6.394 6.000 L 8.031 6.000 8.235 6.110 C 8.347 6.170,9.007 6.688,9.701 7.260 C 10.396 7.832,11.077 8.367,11.216 8.448 C 11.569 8.656,12.015 8.796,12.470 8.840 C 12.685 8.861,14.300 8.879,16.060 8.880 C 19.658 8.882,19.419 8.862,19.728 9.185 C 19.912 9.377,20.000 9.583,20.000 9.819 L 20.000 10.000 21.001 10.000 L 22.002 10.000 21.977 9.730 C 21.904 8.941,21.651 8.348,21.169 7.832 C 20.803 7.441,20.258 7.119,19.710 6.972 C 19.488 6.912,19.062 6.902,15.940 6.882 L 12.420 6.860 12.260 6.773 C 12.172 6.724,11.508 6.199,10.785 5.604 C 8.807 3.979,8.946 4.031,6.580 4.017 C 5.678 4.011,4.813 4.022,4.657 4.042 M23.320 11.042 C 23.265 11.065,23.003 11.299,22.738 11.563 L 22.256 12.043 21.998 11.923 C 21.432 11.660,20.783 11.668,20.206 11.946 C 19.961 12.063,19.813 12.178,19.445 12.536 C 19.180 12.794,18.958 13.047,18.915 13.140 C 18.821 13.346,18.821 13.656,18.917 13.860 C 19.020 14.080,20.966 16.015,21.169 16.099 C 21.368 16.181,21.664 16.175,21.860 16.085 C 22.114 15.968,22.879 15.155,23.032 14.840 C 23.347 14.192,23.356 13.543,23.057 12.954 L 22.954 12.750 23.453 12.245 C 24.005 11.687,24.060 11.582,23.947 11.310 C 23.848 11.073,23.552 10.947,23.320 11.042 M17.778 15.062 C 17.711 15.095,17.487 15.292,17.281 15.499 L 16.906 15.876 16.771 15.758 C 16.675 15.673,16.596 15.640,16.489 15.640 C 16.351 15.640,16.299 15.682,15.716 16.270 C 15.169 16.821,15.073 16.938,14.949 17.200 C 14.650 17.834,14.648 18.464,14.943 19.047 L 15.047 19.252 14.538 19.762 C 14.042 20.259,14.029 20.277,14.010 20.472 C 13.992 20.656,14.001 20.682,14.132 20.826 C 14.264 20.969,14.289 20.980,14.496 20.980 L 14.719 20.980 15.234 20.466 L 15.748 19.953 15.954 20.057 C 16.592 20.380,17.402 20.330,18.027 19.928 C 18.133 19.860,18.477 19.545,18.790 19.229 C 19.315 18.700,19.360 18.642,19.360 18.508 C 19.360 18.402,19.327 18.324,19.243 18.231 L 19.127 18.100 19.540 17.676 C 19.864 17.344,19.960 17.220,19.982 17.105 C 20.038 16.806,19.805 16.520,19.506 16.520 C 19.295 16.520,19.227 16.566,18.770 17.015 L 18.399 17.379 18.010 16.990 L 17.621 16.600 18.006 16.210 C 18.440 15.771,18.480 15.709,18.480 15.488 C 18.480 15.299,18.364 15.134,18.175 15.055 C 18.008 14.985,17.930 14.987,17.778 15.062 " fill="#F59E0B" stroke="none" fill-rule="evenodd"></path></svg>