<svg width="24" height="24" viewBox="0 0 24 24" fill="none" xmlns="http://www.w3.org/2000/svg"><path d="M4.657 4.042 C 3.252 4.215,2.204 5.283,2.041 6.710 C 1.987 7.182,1.987 16.818,2.041 17.290 C 2.124 18.019,2.403 18.610,2.897 19.103 C 3.390 19.597,3.981 19.876,4.710 19.959 C 4.921 19.983,6.640 19.999,9.030 20.000 L 13.000 20.000 13.000 19.000 L 13.000 18.000 8.873 18.000 C 4.788 18.000,4.743 17.999,4.575 17.918 C 4.379 17.823,4.137 17.571,4.056 17.377 C 4.009 17.264,4.000 16.407,4.000 11.994 C 4.000 6.777,4.001 6.744,4.082 6.575 C 4.177 6.379,4.429 6.137,4.623 6.056 C 4.731 6.011,5.080 6.000,6.394 6.000 L 8.031 6.000 8.235 6.110 C 8.347 6.170,9.007 6.688,9.701 7.260 C 10.396 7.832,11.077 8.367,11.216 8.448 C 11.569 8.656,12.015 8.796,12.470 8.840 C 12.685 8.861,14.300 8.879,16.060 8.880 C 19.658 8.882,19.419 8.862,19.728 9.185 C 19.912 9.377,20.000 9.583,20.000 9.819 L 20.000 10.000 21.001 10.000 L 22.002 10.000 21.977 9.730 C 21.904 8.941,21.651 8.348,21.169 7.832 C 20.803 7.441,20.258 7.119,19.710 6.972 C 19.488 6.912,19.062 6.902,15.940 6.882 L 12.420 6.860 12.260 6.773 C 12.172 6.724,11.508 6.199,10.785 5.604 C 8.807 3.979,8.946 4.031,6.580 4.017 C 5.678 4.011,4.813 4.022,4.657 4.042 M15.911 11.917 C 14.884 12.413,14.033 12.831,14.020 12.845 C 13.993 12.874,14.310 18.310,14.351 18.533 C 14.378 18.677,14.476 18.469,16.091 14.857 C 17.032 12.751,17.797 11.025,17.791 11.021 C 17.785 11.017,16.939 11.420,15.911 11.917 M20.212 11.052 C 20.222 11.078,20.993 12.808,21.925 14.896 L 23.620 18.691 23.650 18.456 C 23.709 17.998,24.003 12.867,23.972 12.837 C 23.899 12.766,20.195 11.008,20.212 11.052 M18.328 15.630 C 17.974 16.527,17.672 17.292,17.657 17.330 C 17.633 17.396,17.713 17.400,19.000 17.400 C 20.287 17.400,20.367 17.396,20.343 17.330 C 20.114 16.714,19.020 14.000,19.000 14.000 C 18.985 14.000,18.683 14.733,18.328 15.630 M16.884 19.210 C 16.864 19.259,16.746 19.557,16.620 19.872 C 16.493 20.186,16.397 20.450,16.405 20.458 C 16.413 20.466,17.000 20.817,17.710 21.237 L 19.000 22.002 20.290 21.237 C 20.999 20.817,21.587 20.466,21.595 20.458 C 21.603 20.450,21.492 20.150,21.349 19.792 L 21.088 19.140 19.003 19.130 L 16.918 19.119 16.884 19.210 " fill="#F87171" stroke="none" fill-rule="evenodd"></path></svg>