<svg width="24" height="24" viewBox="0 0 24 24" fill="none" xmlns="http://www.w3.org/2000/svg"><path d="M4.657 4.042 C 3.252 4.215,2.204 5.283,2.041 6.710 C 1.987 7.182,1.987 16.818,2.041 17.290 C 2.124 18.019,2.403 18.610,2.897 19.103 C 3.390 19.597,3.981 19.876,4.710 19.959 C 4.921 19.983,6.640 19.999,9.030 20.000 L 13.000 20.000 13.000 19.000 L 13.000 18.000 8.873 18.000 C 4.788 18.000,4.743 17.999,4.575 17.918 C 4.379 17.823,4.137 17.571,4.056 17.377 C 4.009 17.264,4.000 16.407,4.000 11.994 C 4.000 6.777,4.001 6.744,4.082 6.575 C 4.177 6.379,4.429 6.137,4.623 6.056 C 4.731 6.011,5.080 6.000,6.394 6.000 L 8.031 6.000 8.235 6.110 C 8.347 6.170,9.007 6.688,9.701 7.260 C 10.396 7.832,11.077 8.367,11.216 8.448 C 11.569 8.656,12.015 8.796,12.470 8.840 C 12.685 8.861,14.300 8.879,16.060 8.880 C 19.658 8.882,19.419 8.862,19.728 9.185 C 19.912 9.377,20.000 9.583,20.000 9.819 L 20.000 10.000 21.001 10.000 L 22.002 10.000 21.977 9.730 C 21.904 8.941,21.651 8.348,21.169 7.832 C 20.803 7.441,20.258 7.119,19.710 6.972 C 19.488 6.912,19.062 6.902,15.940 6.882 L 12.420 6.860 12.260 6.773 C 12.172 6.724,11.508 6.199,10.785 5.604 C 8.807 3.979,8.946 4.031,6.580 4.017 C 5.678 4.011,4.813 4.022,4.657 4.042 M18.156 11.178 C 18.056 11.206,17.859 11.289,17.720 11.363 C 16.896 11.802,16.387 12.743,16.331 13.925 C 16.295 14.708,16.429 15.335,16.800 16.113 C 16.938 16.400,16.989 16.547,16.961 16.575 C 16.900 16.636,16.911 16.907,16.981 17.041 C 17.058 17.191,17.230 17.280,17.442 17.280 C 17.577 17.280,17.633 17.255,17.744 17.144 C 17.863 17.025,17.880 16.983,17.880 16.805 C 17.880 16.637,17.860 16.579,17.765 16.472 C 17.670 16.367,17.611 16.339,17.439 16.322 L 17.229 16.300 17.075 16.000 C 16.738 15.342,16.619 14.760,16.651 13.932 C 16.676 13.316,16.736 13.046,16.947 12.614 C 17.324 11.841,17.948 11.426,18.741 11.422 C 19.025 11.420,19.093 11.435,19.329 11.552 C 19.820 11.793,20.238 12.384,20.418 13.090 C 20.497 13.399,20.509 13.420,20.631 13.455 C 20.703 13.475,20.769 13.485,20.778 13.475 C 20.787 13.466,20.770 13.333,20.741 13.180 C 20.551 12.190,19.934 11.408,19.163 11.183 C 18.907 11.109,18.417 11.106,18.156 11.178 M17.928 13.654 C 17.620 13.825,17.602 14.301,17.897 14.494 C 18.054 14.597,18.330 14.580,18.475 14.458 C 18.541 14.402,18.608 14.319,18.622 14.273 C 18.648 14.192,18.666 14.190,19.074 14.216 C 19.623 14.252,20.127 14.363,20.531 14.538 C 21.503 14.958,22.127 15.543,22.464 16.349 C 22.562 16.584,22.577 16.673,22.579 17.020 C 22.580 17.388,22.570 17.441,22.453 17.689 C 22.215 18.191,21.786 18.531,21.249 18.643 C 20.947 18.705,20.408 18.667,20.087 18.560 L 19.833 18.476 19.688 18.586 L 19.544 18.696 19.702 18.765 C 19.926 18.862,20.435 18.960,20.716 18.960 C 21.399 18.960,22.148 18.630,22.515 18.166 C 22.847 17.747,22.960 17.162,22.825 16.555 C 22.503 15.111,20.771 13.921,18.988 13.920 C 18.677 13.920,18.677 13.920,18.525 13.760 C 18.391 13.620,18.351 13.600,18.196 13.601 C 18.099 13.602,17.978 13.626,17.928 13.654 M15.404 15.212 C 14.950 15.664,14.725 16.091,14.636 16.671 C 14.504 17.538,14.875 18.297,15.609 18.658 C 16.148 18.923,16.651 18.976,17.322 18.840 C 18.602 18.579,19.583 17.875,20.180 16.787 C 20.295 16.578,20.345 16.525,20.444 16.505 C 20.510 16.492,20.618 16.428,20.683 16.364 C 20.781 16.265,20.800 16.214,20.800 16.046 C 20.800 15.563,20.251 15.358,19.941 15.726 C 19.814 15.877,19.805 16.126,19.920 16.300 C 19.964 16.366,20.000 16.440,20.000 16.465 C 20.000 16.572,19.564 17.165,19.281 17.443 C 18.530 18.177,17.594 18.600,16.721 18.600 C 15.875 18.600,15.333 18.300,15.037 17.667 C 14.821 17.205,14.800 16.819,14.968 16.370 C 15.094 16.030,15.238 15.804,15.511 15.514 C 15.741 15.270,15.764 15.231,15.740 15.122 C 15.726 15.055,15.700 14.992,15.684 14.982 C 15.667 14.972,15.541 15.075,15.404 15.212 " fill="#F87171" stroke="none" fill-rule="evenodd"></path></svg>