<svg width="24" height="24" viewBox="0 0 24 24" fill="none" xmlns="http://www.w3.org/2000/svg"><path d="M4.657 4.042 C 3.252 4.215,2.204 5.283,2.041 6.710 C 1.987 7.182,1.987 16.818,2.041 17.290 C 2.124 18.019,2.403 18.610,2.897 19.103 C 3.390 19.597,3.981 19.876,4.710 19.959 C 4.921 19.983,6.640 19.999,9.030 20.000 L 13.000 20.000 13.000 19.000 L 13.000 18.000 8.873 18.000 C 4.788 18.000,4.743 17.999,4.575 17.918 C 4.379 17.823,4.137 17.571,4.056 17.377 C 4.009 17.264,4.000 16.407,4.000 11.994 C 4.000 6.777,4.001 6.744,4.082 6.575 C 4.177 6.379,4.429 6.137,4.623 6.056 C 4.731 6.011,5.080 6.000,6.394 6.000 L 8.031 6.000 8.235 6.110 C 8.347 6.170,9.007 6.688,9.701 7.260 C 10.396 7.832,11.077 8.367,11.216 8.448 C 11.569 8.656,12.015 8.796,12.470 8.840 C 12.685 8.861,14.300 8.879,16.060 8.880 C 19.658 8.882,19.419 8.862,19.728 9.185 C 19.912 9.377,20.000 9.583,20.000 9.819 L 20.000 10.000 21.001 10.000 L 22.002 10.000 21.977 9.730 C 21.904 8.941,21.651 8.348,21.169 7.832 C 20.803 7.441,20.258 7.119,19.710 6.972 C 19.488 6.912,19.062 6.902,15.940 6.882 L 12.420 6.860 12.260 6.773 C 12.172 6.724,11.508 6.199,10.785 5.604 C 8.807 3.979,8.946 4.031,6.580 4.017 C 5.678 4.011,4.813 4.022,4.657 4.042 M20.920 10.587 C 20.250 10.702,19.529 11.229,19.201 11.843 C 18.973 12.272,18.832 12.826,18.899 13.036 C 18.932 13.140,19.082 13.146,19.418 13.059 C 20.017 12.903,20.584 12.428,20.875 11.838 C 21.053 11.477,21.171 11.009,21.152 10.743 C 21.139 10.573,21.112 10.554,20.920 10.587 M20.360 13.321 C 20.195 13.363,19.898 13.461,19.700 13.540 C 19.040 13.803,18.972 13.800,18.140 13.479 C 17.392 13.190,16.786 13.208,16.100 13.539 C 14.621 14.251,14.073 16.103,14.699 18.277 C 14.945 19.130,15.259 19.761,15.803 20.494 C 16.177 20.998,16.526 21.348,16.788 21.482 C 16.953 21.566,17.033 21.580,17.360 21.578 C 17.713 21.577,17.769 21.565,18.142 21.410 C 18.862 21.112,19.410 21.095,20.020 21.354 C 20.689 21.638,21.064 21.667,21.496 21.468 C 22.068 21.204,22.980 19.967,23.334 18.974 L 23.435 18.688 23.176 18.536 C 22.676 18.244,22.268 17.748,22.076 17.200 C 21.941 16.816,21.941 16.098,22.076 15.688 C 22.203 15.299,22.517 14.838,22.840 14.566 C 22.983 14.445,23.107 14.329,23.115 14.309 C 23.123 14.289,22.993 14.138,22.827 13.975 C 22.186 13.347,21.248 13.098,20.360 13.321 " fill="#A1A1AA" stroke="none" fill-rule="evenodd"></path></svg>