<svg width="24" height="24" viewBox="0 0 24 24" fill="none" xmlns="http://www.w3.org/2000/svg"><path d="M4.503 4.042 C 3.490 4.212,2.556 4.976,2.202 5.925 C 1.996 6.477,2.001 6.315,2.001 11.992 C 2.000 17.780,1.991 17.556,2.234 18.151 C 2.521 18.857,3.143 19.479,3.849 19.766 C 4.413 19.996,4.476 20.000,7.358 20.000 L 10.000 20.000 10.000 19.000 L 10.000 18.000 7.427 18.000 C 4.523 18.000,4.606 18.008,4.299 17.701 C 3.979 17.381,4.000 17.783,4.000 12.000 C 4.000 6.216,3.979 6.619,4.300 6.298 C 4.597 6.001,4.643 5.995,6.466 6.008 C 8.015 6.020,8.065 6.022,8.220 6.107 C 8.308 6.155,8.958 6.669,9.664 7.250 C 11.026 8.370,11.225 8.513,11.639 8.669 C 12.193 8.878,12.233 8.880,15.834 8.882 C 18.524 8.883,19.209 8.894,19.330 8.937 C 19.692 9.066,19.949 9.394,19.988 9.778 L 20.011 10.000 21.012 10.000 L 22.012 10.000 21.987 9.670 C 21.889 8.392,21.032 7.346,19.780 6.975 C 19.561 6.910,19.235 6.902,16.000 6.882 C 12.854 6.862,12.444 6.853,12.320 6.795 C 12.243 6.760,11.588 6.245,10.864 5.650 C 9.503 4.532,9.293 4.380,8.874 4.211 C 8.409 4.023,8.152 4.003,6.360 4.006 C 5.447 4.008,4.611 4.024,4.503 4.042 M19.321 11.731 C 19.200 11.795,19.115 11.882,19.037 12.021 C 18.976 12.130,18.232 13.824,17.383 15.784 C 16.127 18.685,15.840 19.381,15.840 19.524 C 15.840 20.155,16.635 20.482,17.070 20.029 C 17.162 19.933,17.603 18.960,18.785 16.240 C 20.253 12.863,20.376 12.563,20.377 12.355 C 20.377 12.172,20.356 12.099,20.264 11.966 C 20.050 11.656,19.650 11.557,19.321 11.731 M14.760 13.192 C 14.526 13.346,12.429 15.461,12.344 15.628 C 12.257 15.801,12.263 16.090,12.357 16.272 C 12.459 16.468,14.705 18.702,14.860 18.761 C 15.026 18.824,15.332 18.816,15.468 18.746 C 15.699 18.626,15.880 18.333,15.880 18.080 C 15.880 17.824,15.762 17.669,14.900 16.802 L 14.042 15.938 14.882 15.099 C 15.739 14.243,15.881 14.058,15.879 13.797 C 15.878 13.595,15.749 13.346,15.580 13.217 C 15.461 13.127,15.379 13.100,15.185 13.089 C 14.968 13.076,14.920 13.088,14.760 13.192 M20.800 13.125 C 20.672 13.176,20.489 13.349,20.416 13.488 C 20.344 13.626,20.344 13.926,20.416 14.091 C 20.447 14.162,20.852 14.598,21.316 15.060 C 21.780 15.521,22.160 15.918,22.160 15.940 C 22.160 15.962,21.780 16.359,21.316 16.820 C 20.852 17.282,20.447 17.718,20.416 17.789 C 20.349 17.943,20.343 18.252,20.405 18.373 C 20.473 18.505,20.646 18.680,20.777 18.748 C 20.928 18.827,21.234 18.826,21.383 18.747 C 21.582 18.642,23.830 16.358,23.899 16.191 C 23.979 15.997,23.975 15.856,23.883 15.660 C 23.791 15.463,21.513 13.184,21.347 13.122 C 21.208 13.070,20.934 13.072,20.800 13.125 " fill="#64748B" stroke="none" fill-rule="evenodd"></path></svg>