<svg width="24" height="24" viewBox="0 0 24 24" fill="none" xmlns="http://www.w3.org/2000/svg"><path d="M4.657 4.042 C 3.252 4.215,2.204 5.283,2.041 6.710 C 1.987 7.182,1.987 16.818,2.041 17.290 C 2.124 18.019,2.403 18.610,2.897 19.103 C 3.390 19.597,3.981 19.876,4.710 19.959 C 4.921 19.983,6.640 19.999,9.030 20.000 L 13.000 20.000 13.000 19.000 L 13.000 18.000 8.873 18.000 C 4.788 18.000,4.743 17.999,4.575 17.918 C 4.379 17.823,4.137 17.571,4.056 17.377 C 4.009 17.264,4.000 16.407,4.000 11.994 C 4.000 6.777,4.001 6.744,4.082 6.575 C 4.177 6.379,4.429 6.137,4.623 6.056 C 4.731 6.011,5.080 6.000,6.394 6.000 L 8.031 6.000 8.235 6.110 C 8.347 6.170,9.007 6.688,9.701 7.260 C 10.396 7.832,11.077 8.367,11.216 8.448 C 11.569 8.656,12.015 8.796,12.470 8.840 C 12.685 8.861,14.300 8.879,16.060 8.880 C 19.658 8.882,19.419 8.862,19.728 9.185 C 19.912 9.377,20.000 9.583,20.000 9.819 L 20.000 10.000 21.001 10.000 L 22.002 10.000 21.977 9.730 C 21.904 8.941,21.651 8.348,21.169 7.832 C 20.803 7.441,20.258 7.119,19.710 6.972 C 19.488 6.912,19.062 6.902,15.940 6.882 L 12.420 6.860 12.260 6.773 C 12.172 6.724,11.508 6.199,10.785 5.604 C 8.807 3.979,8.946 4.031,6.580 4.017 C 5.678 4.011,4.813 4.022,4.657 4.042 M19.099 12.484 C 18.879 12.750,18.587 13.106,18.448 13.274 C 17.794 14.070,17.327 14.959,17.120 15.801 C 16.992 16.321,16.972 17.077,17.073 17.582 C 17.222 18.333,17.520 18.981,18.022 19.648 C 18.254 19.956,18.832 20.551,19.092 20.749 C 19.198 20.830,19.206 20.860,19.262 21.387 C 19.294 21.691,19.320 21.953,19.320 21.970 C 19.320 21.987,19.398 22.000,19.494 22.000 L 19.669 22.000 19.714 21.599 C 19.739 21.378,19.760 21.124,19.760 21.035 C 19.760 20.897,19.782 20.855,19.910 20.748 C 19.992 20.680,20.251 20.432,20.484 20.197 C 21.182 19.496,21.631 18.735,21.870 17.852 C 21.963 17.505,21.975 17.386,21.976 16.820 C 21.976 16.292,21.960 16.118,21.887 15.822 C 21.671 14.954,21.213 14.080,20.552 13.273 C 20.094 12.715,19.587 12.101,19.542 12.050 C 19.508 12.012,19.405 12.113,19.099 12.484 M19.638 18.194 L 19.751 20.500 19.648 20.610 C 19.591 20.671,19.525 20.720,19.500 20.720 C 19.475 20.720,19.408 20.671,19.350 20.610 L 19.245 20.500 19.362 18.140 C 19.426 16.842,19.482 15.708,19.487 15.620 C 19.498 15.389,19.508 15.548,19.638 18.194 " fill="#22C55E" stroke="none" fill-rule="evenodd"></path></svg>