<svg width="24" height="24" viewBox="0 0 24 24" fill="none" xmlns="http://www.w3.org/2000/svg"><path d="M4.657 4.042 C 3.252 4.215,2.204 5.283,2.041 6.710 C 1.987 7.182,1.987 16.818,2.041 17.290 C 2.124 18.019,2.403 18.610,2.897 19.103 C 3.390 19.597,3.981 19.876,4.710 19.959 C 4.921 19.983,6.640 19.999,9.030 20.000 L 13.000 20.000 13.000 19.000 L 13.000 18.000 8.873 18.000 C 4.788 18.000,4.743 17.999,4.575 17.918 C 4.379 17.823,4.137 17.571,4.056 17.377 C 4.009 17.264,4.000 16.407,4.000 11.994 C 4.000 6.777,4.001 6.744,4.082 6.575 C 4.177 6.379,4.429 6.137,4.623 6.056 C 4.731 6.011,5.080 6.000,6.394 6.000 L 8.031 6.000 8.235 6.110 C 8.347 6.170,9.007 6.688,9.701 7.260 C 10.396 7.832,11.077 8.367,11.216 8.448 C 11.569 8.656,12.015 8.796,12.470 8.840 C 12.685 8.861,14.300 8.879,16.060 8.880 C 19.658 8.882,19.419 8.862,19.728 9.185 C 19.912 9.377,20.000 9.583,20.000 9.819 L 20.000 10.000 21.001 10.000 L 22.002 10.000 21.977 9.730 C 21.904 8.941,21.651 8.348,21.169 7.832 C 20.803 7.441,20.258 7.119,19.710 6.972 C 19.488 6.912,19.062 6.902,15.940 6.882 L 12.420 6.860 12.260 6.773 C 12.172 6.724,11.508 6.199,10.785 5.604 C 8.807 3.979,8.946 4.031,6.580 4.017 C 5.678 4.011,4.813 4.022,4.657 4.042 M18.404 13.863 C 17.706 14.051,17.103 14.642,16.875 15.360 C 16.761 15.718,16.761 16.282,16.875 16.640 C 17.178 17.595,18.009 18.208,19.000 18.208 C 19.446 18.208,19.768 18.120,20.147 17.895 C 21.185 17.279,21.524 15.915,20.901 14.860 C 20.629 14.399,20.096 13.996,19.578 13.861 C 19.285 13.785,18.692 13.786,18.404 13.863 M19.234 14.922 C 19.821 15.048,20.202 15.630,20.081 16.215 C 19.956 16.818,19.365 17.214,18.785 17.085 C 17.647 16.830,17.593 15.237,18.712 14.936 C 18.950 14.872,18.993 14.871,19.234 14.922 " fill="#C084FC" stroke="none" fill-rule="evenodd"></path></svg>