<svg width="24" height="24" viewBox="0 0 24 24" fill="none" xmlns="http://www.w3.org/2000/svg"><path d="M6.240 4.480 C 3.495 5.753,3.058 5.967,3.046 6.046 C 3.027 6.172,3.601 15.403,3.634 15.490 C 3.651 15.538,4.604 13.529,6.555 9.332 C 8.147 5.906,9.458 3.079,9.469 3.051 C 9.480 3.023,9.473 3.001,9.454 3.003 C 9.435 3.004,7.989 3.669,6.240 4.480 M13.658 3.210 C 14.037 4.059,19.369 15.505,19.400 15.536 C 19.427 15.563,19.440 15.522,19.441 15.418 C 19.441 15.331,19.575 13.172,19.738 10.620 C 19.901 8.069,20.031 5.978,20.027 5.974 C 20.010 5.957,13.606 3.000,13.586 3.000 C 13.574 3.000,13.607 3.095,13.658 3.210 M11.499 7.844 C 9.981 11.512,9.217 13.386,9.229 13.410 C 9.248 13.447,13.840 13.450,13.840 13.413 C 13.840 13.382,11.559 7.828,11.537 7.804 C 11.529 7.796,11.512 7.814,11.499 7.844 M7.959 16.330 C 7.938 16.380,7.733 16.875,7.505 17.430 L 7.089 18.440 9.301 19.700 C 10.518 20.393,11.521 20.960,11.532 20.960 C 11.558 20.960,15.893 18.482,15.929 18.446 C 15.945 18.431,15.756 17.928,15.509 17.329 L 15.060 16.240 11.529 16.240 L 7.998 16.240 7.959 16.330 " fill="#FBBF24" stroke="none" fill-rule="evenodd"></path></svg>