<svg width="24" height="24" viewBox="0 0 24 24" fill="none" xmlns="http://www.w3.org/2000/svg"><path d="M8.958 3.054 C 8.548 3.166,8.330 3.417,8.146 3.989 C 7.902 4.747,4.994 14.484,4.895 14.875 C 4.735 15.507,4.779 16.002,5.041 16.521 C 5.185 16.807,5.363 17.012,5.695 17.275 C 5.955 17.481,9.817 20.175,10.410 20.564 C 10.935 20.909,11.134 20.976,11.640 20.976 C 12.129 20.976,12.337 20.915,12.782 20.636 C 13.315 20.303,17.502 17.401,17.768 17.180 C 18.492 16.579,18.709 15.743,18.411 14.700 C 18.231 14.065,15.343 4.583,15.172 4.060 C 14.973 3.454,14.867 3.307,14.480 3.096 C 14.347 3.024,14.213 3.020,11.740 3.012 C 9.762 3.006,9.096 3.016,8.958 3.054 M13.243 4.720 C 13.412 4.767,13.698 5.002,13.781 5.161 C 13.827 5.250,16.480 14.270,16.480 14.338 C 16.480 14.347,16.277 14.259,16.030 14.142 C 15.285 13.792,14.427 13.502,13.718 13.362 L 13.496 13.318 12.685 10.449 C 12.238 8.871,11.847 7.540,11.816 7.490 C 11.747 7.382,11.596 7.372,11.513 7.470 C 11.480 7.509,11.106 8.782,10.681 10.300 C 10.256 11.818,9.893 13.117,9.873 13.187 C 9.841 13.303,9.817 13.319,9.609 13.360 C 8.895 13.500,8.044 13.787,7.288 14.143 C 6.946 14.304,6.841 14.340,6.856 14.288 C 7.826 10.944,9.505 5.267,9.549 5.180 C 9.664 4.951,9.852 4.799,10.120 4.717 C 10.271 4.671,13.076 4.674,13.243 4.720 M9.507 14.722 C 9.834 15.085,10.638 15.350,11.520 15.388 C 12.405 15.425,13.216 15.262,13.720 14.944 C 13.939 14.806,13.940 14.805,13.975 14.892 C 13.995 14.941,14.010 15.151,14.010 15.360 C 14.009 16.106,13.684 16.658,12.954 17.151 C 12.417 17.513,12.255 17.662,12.140 17.895 C 12.006 18.171,11.974 18.503,12.054 18.800 C 12.087 18.921,12.107 19.026,12.099 19.035 C 12.091 19.043,12.023 19.011,11.948 18.965 C 11.724 18.827,11.443 18.495,11.313 18.217 C 11.204 17.985,11.187 17.898,11.160 17.426 C 11.140 17.069,11.109 16.855,11.066 16.771 C 10.809 16.274,10.071 16.387,9.907 16.949 L 9.855 17.128 9.750 16.989 C 9.601 16.794,9.419 16.421,9.336 16.140 C 9.286 15.971,9.264 15.758,9.262 15.420 C 9.260 14.980,9.299 14.560,9.343 14.560 C 9.352 14.560,9.426 14.633,9.507 14.722 " fill="#EA580C" stroke="none" fill-rule="evenodd"></path></svg>