<svg width="24" height="24" viewBox="0 0 24 24" fill="none" xmlns="http://www.w3.org/2000/svg"><path d="M11.789 3.043 C 11.564 3.097,11.430 3.177,11.272 3.352 C 11.001 3.652,11.020 3.004,11.020 12.000 C 11.020 18.859,11.029 20.205,11.075 20.337 C 11.203 20.699,11.604 20.975,12.000 20.975 C 12.396 20.975,12.797 20.699,12.925 20.337 C 13.007 20.104,13.007 3.897,12.925 3.665 C 12.771 3.227,12.236 2.935,11.789 3.043 M7.789 6.043 C 7.564 6.097,7.430 6.177,7.272 6.352 C 7.005 6.648,7.020 6.301,7.020 12.000 C 7.020 17.734,7.002 17.354,7.288 17.665 C 7.670 18.079,8.330 18.079,8.712 17.665 C 8.998 17.354,8.980 17.734,8.980 12.000 C 8.980 7.715,8.971 6.793,8.925 6.665 C 8.771 6.227,8.236 5.935,7.789 6.043 M15.789 6.043 C 15.564 6.097,15.430 6.177,15.272 6.352 C 15.005 6.648,15.020 6.301,15.020 12.000 C 15.020 17.734,15.002 17.354,15.288 17.665 C 15.670 18.079,16.330 18.079,16.712 17.665 C 16.998 17.354,16.980 17.734,16.980 12.000 C 16.980 7.715,16.971 6.793,16.925 6.665 C 16.771 6.227,16.236 5.935,15.789 6.043 M3.789 8.043 C 3.564 8.097,3.430 8.177,3.272 8.352 C 3.010 8.642,3.020 8.498,3.020 12.000 C 3.020 15.527,3.008 15.360,3.288 15.665 C 3.670 16.079,4.330 16.079,4.712 15.665 C 4.992 15.360,4.980 15.527,4.980 12.000 C 4.980 9.409,4.970 8.791,4.925 8.665 C 4.771 8.227,4.236 7.935,3.789 8.043 M19.789 8.043 C 19.564 8.097,19.430 8.177,19.272 8.352 C 19.010 8.642,19.020 8.498,19.020 12.000 C 19.020 15.527,19.008 15.360,19.288 15.665 C 19.670 16.079,20.330 16.079,20.712 15.665 C 20.992 15.360,20.980 15.527,20.980 12.000 C 20.980 9.409,20.970 8.791,20.925 8.665 C 20.771 8.227,20.236 7.935,19.789 8.043 " stroke="none" fill="black" fill-rule="evenodd"></path></svg>