<svg width="24" height="24" viewBox="0 0 24 24" fill="none" xmlns="http://www.w3.org/2000/svg"><path d="M14.860 2.025 C 13.434 2.241,12.302 2.541,10.686 3.128 C 9.986 3.382,9.865 3.440,9.426 3.735 C 8.936 4.064,8.039 4.612,7.910 4.662 C 7.872 4.676,7.840 4.724,7.840 4.767 C 7.840 4.844,7.870 4.845,8.064 4.773 C 8.088 4.764,8.130 4.784,8.158 4.817 C 8.197 4.864,8.227 4.868,8.288 4.836 C 8.331 4.813,8.379 4.806,8.393 4.821 C 8.440 4.868,8.022 5.219,7.299 5.741 C 6.915 6.019,6.600 6.262,6.600 6.282 C 6.600 6.302,6.550 6.330,6.490 6.344 C 6.298 6.388,6.055 6.551,5.865 6.763 C 5.669 6.981,5.663 6.992,5.713 7.070 C 5.738 7.109,5.774 7.111,5.873 7.076 C 5.987 7.037,6.009 7.042,6.079 7.126 C 6.122 7.178,6.158 7.235,6.159 7.253 C 6.159 7.272,6.306 7.151,6.485 6.985 C 6.664 6.818,6.904 6.618,7.019 6.539 L 7.227 6.396 7.436 6.479 L 7.646 6.561 7.953 6.345 C 8.730 5.799,9.750 5.258,10.530 4.977 C 10.675 4.925,10.680 4.927,10.680 5.013 C 10.680 5.062,10.602 5.191,10.506 5.300 C 10.345 5.482,10.336 5.506,10.372 5.626 C 10.421 5.785,10.300 6.150,9.714 7.618 C 8.252 11.275,6.129 15.786,4.173 19.388 C 3.809 20.058,3.761 20.168,3.801 20.242 C 3.840 20.315,3.869 20.323,3.993 20.300 C 4.074 20.285,4.243 20.231,4.370 20.179 C 4.552 20.105,4.600 20.097,4.600 20.143 C 4.600 20.185,4.653 20.200,4.796 20.200 L 4.992 20.200 4.676 21.030 C 4.501 21.487,4.364 21.887,4.370 21.920 C 4.376 21.953,4.408 21.980,4.440 21.980 C 4.556 21.980,5.351 20.905,5.660 20.331 C 5.771 20.123,5.774 20.120,6.116 20.017 C 7.242 19.678,8.422 19.241,9.180 18.884 C 9.463 18.750,9.677 18.679,9.901 18.644 C 10.567 18.541,11.085 18.359,11.444 18.101 C 11.551 18.024,11.832 17.865,12.069 17.745 C 12.384 17.587,12.765 17.331,13.481 16.795 C 14.020 16.391,14.733 15.876,15.064 15.650 C 16.372 14.761,17.378 13.763,17.853 12.883 C 17.976 12.655,18.012 12.520,18.116 11.902 L 18.237 11.185 18.150 11.043 C 18.047 10.878,17.583 10.311,17.192 9.876 C 17.043 9.709,16.920 9.544,16.920 9.509 C 16.920 9.397,17.121 9.203,17.490 8.960 C 17.842 8.728,19.303 7.467,19.564 7.170 C 19.842 6.853,20.066 6.214,20.183 5.400 C 20.320 4.454,20.162 3.913,19.591 3.373 C 19.318 3.116,19.075 2.959,18.433 2.629 C 17.869 2.339,17.412 2.208,16.600 2.104 C 16.116 2.041,15.064 1.994,14.860 2.025 M14.440 4.040 C 14.440 4.138,14.408 4.138,15.139 4.036 C 15.921 3.926,16.594 3.942,16.910 4.079 C 17.150 4.183,17.340 4.377,17.380 4.559 C 17.418 4.732,17.497 4.689,17.512 4.487 C 17.526 4.302,17.570 4.282,17.756 4.378 C 18.025 4.517,18.234 4.899,18.177 5.149 C 18.142 5.301,17.912 5.684,17.864 5.668 C 17.834 5.658,17.763 5.560,17.736 5.489 C 17.733 5.483,17.704 5.489,17.671 5.501 C 17.632 5.516,17.603 5.595,17.591 5.717 C 17.577 5.866,17.526 5.977,17.358 6.219 C 17.071 6.634,16.637 7.093,16.439 7.191 C 16.351 7.235,16.157 7.407,16.007 7.574 C 15.704 7.914,15.456 8.118,14.840 8.533 C 14.509 8.756,14.326 8.847,13.980 8.963 C 13.476 9.131,13.248 9.221,12.140 9.691 C 11.518 9.955,11.311 10.026,11.210 10.011 C 11.081 9.991,11.080 9.990,11.080 9.760 C 11.080 9.571,11.109 9.472,11.239 9.213 C 11.326 9.038,11.434 8.736,11.480 8.541 C 11.570 8.154,11.684 7.866,11.796 7.740 C 11.850 7.680,13.117 4.850,13.322 4.332 C 13.366 4.219,13.533 4.134,13.893 4.040 C 14.287 3.936,14.440 3.937,14.440 4.040 M14.809 11.218 C 15.156 11.280,15.477 11.414,15.670 11.577 C 15.839 11.720,15.840 11.866,15.678 12.273 C 15.439 12.871,15.160 13.284,14.868 13.467 C 14.779 13.524,14.335 13.861,13.883 14.218 C 13.430 14.574,12.871 14.992,12.640 15.146 C 12.015 15.565,11.167 16.094,10.940 16.207 C 10.830 16.262,10.380 16.497,9.940 16.729 C 8.480 17.500,7.296 18.005,7.068 17.954 C 6.989 17.936,7.052 17.788,7.699 16.440 C 8.064 15.680,9.707 12.365,9.734 12.333 C 9.737 12.330,9.920 12.296,10.140 12.259 C 10.823 12.143,12.288 11.690,13.140 11.331 C 13.521 11.171,14.262 11.120,14.809 11.218 " fill="#FDD835" stroke="none" fill-rule="evenodd"></path></svg>