<svg width="24" height="24" viewBox="0 0 24 24" fill="none" xmlns="http://www.w3.org/2000/svg"><path d="M9.777 6.724 C 8.569 8.816,7.575 10.541,7.569 10.558 C 7.563 10.574,7.750 10.537,7.984 10.475 C 8.908 10.234,9.358 10.182,10.540 10.185 C 11.472 10.187,11.686 10.199,12.100 10.275 C 12.540 10.355,14.282 10.749,14.307 10.773 C 14.319 10.786,12.919 16.733,12.899 16.754 C 12.891 16.762,12.483 16.673,11.992 16.556 C 11.128 16.350,11.082 16.344,10.520 16.343 C 10.053 16.343,9.871 16.361,9.585 16.432 C 8.571 16.686,7.629 17.395,7.133 18.279 C 7.071 18.390,7.002 18.480,6.980 18.479 C 6.906 18.479,5.640 17.845,5.640 17.809 C 5.640 17.747,6.012 17.150,6.220 16.879 C 7.320 15.444,9.201 14.620,10.971 14.797 C 11.218 14.821,11.491 14.858,11.579 14.879 C 11.666 14.899,11.743 14.910,11.749 14.904 C 11.766 14.888,12.439 12.029,12.440 11.973 C 12.441 11.817,10.941 11.667,9.968 11.725 C 6.531 11.930,3.548 14.220,2.446 17.500 C 2.188 18.268,2.000 19.314,2.000 19.984 L 2.000 20.200 12.005 20.200 L 22.009 20.200 21.952 20.110 C 21.920 20.061,19.674 16.172,16.960 11.470 C 14.246 6.768,12.014 2.920,12.000 2.920 C 11.986 2.920,10.986 4.632,9.777 6.724 " fill="#60A5FA" stroke="none" fill-rule="evenodd"></path></svg>