<svg width="24" height="24" viewBox="0 0 24 24" fill="none" xmlns="http://www.w3.org/2000/svg"><path d="M7.060 4.026 C 6.237 4.151,5.438 4.724,5.087 5.441 C 4.783 6.062,4.788 6.011,4.763 8.360 C 4.738 10.688,4.751 10.579,4.466 10.830 C 4.333 10.946,4.198 11.002,3.720 11.136 C 3.407 11.224,3.226 11.362,3.104 11.606 C 2.966 11.883,2.967 12.118,3.106 12.397 C 3.239 12.663,3.444 12.800,3.892 12.920 C 4.275 13.023,4.341 13.054,4.494 13.195 C 4.748 13.430,4.738 13.340,4.763 15.640 C 4.788 17.980,4.784 17.940,5.077 18.540 C 5.480 19.363,6.344 19.931,7.278 19.987 C 7.596 20.006,7.635 19.999,7.840 19.894 C 8.139 19.739,8.289 19.520,8.312 19.204 C 8.353 18.639,8.033 18.293,7.404 18.221 C 7.060 18.181,6.849 18.046,6.655 17.742 C 6.585 17.631,6.579 17.491,6.560 15.482 L 6.540 13.340 6.427 13.020 C 6.304 12.669,6.194 12.463,5.981 12.184 L 5.841 12.000 5.981 11.816 C 6.194 11.537,6.304 11.331,6.427 10.980 L 6.540 10.660 6.560 8.518 C 6.579 6.509,6.585 6.369,6.655 6.258 C 6.856 5.944,7.051 5.825,7.437 5.783 C 7.743 5.749,7.944 5.655,8.110 5.466 C 8.272 5.281,8.333 5.081,8.312 4.799 C 8.279 4.341,7.943 4.038,7.447 4.018 C 7.300 4.012,7.126 4.016,7.060 4.026 M16.020 4.057 C 15.932 4.090,15.785 4.196,15.694 4.292 C 15.449 4.551,15.376 4.889,15.501 5.189 C 15.657 5.562,15.900 5.728,16.387 5.794 C 16.716 5.838,16.910 5.949,17.074 6.186 L 17.180 6.340 17.204 8.440 C 17.225 10.218,17.239 10.579,17.295 10.796 C 17.381 11.127,17.559 11.498,17.760 11.765 C 17.848 11.882,17.920 11.988,17.920 12.000 C 17.920 12.012,17.845 12.121,17.754 12.241 C 17.565 12.490,17.399 12.833,17.298 13.181 C 17.237 13.390,17.226 13.678,17.211 15.500 L 17.194 17.580 17.091 17.768 C 16.923 18.078,16.740 18.170,16.115 18.261 C 15.792 18.308,15.440 18.734,15.440 19.078 C 15.441 19.460,15.725 19.863,16.060 19.955 C 16.434 20.059,16.983 19.967,17.519 19.711 C 17.794 19.580,17.921 19.485,18.203 19.203 C 18.485 18.921,18.580 18.794,18.711 18.519 C 18.993 17.928,19.000 17.858,19.000 15.630 L 19.000 13.656 19.105 13.444 C 19.246 13.161,19.437 13.031,19.864 12.924 C 20.266 12.823,20.380 12.770,20.528 12.614 C 20.772 12.356,20.833 11.922,20.670 11.599 C 20.536 11.334,20.313 11.187,19.884 11.081 C 19.437 10.971,19.249 10.844,19.105 10.556 L 19.000 10.344 19.000 8.370 C 19.000 6.144,18.993 6.071,18.713 5.484 C 18.514 5.069,18.044 4.571,17.640 4.350 C 17.115 4.062,16.370 3.928,16.020 4.057 " fill="#16A34A" stroke="none" fill-rule="evenodd"></path></svg>