<svg width="24" height="24" viewBox="0 0 24 24" fill="none" xmlns="http://www.w3.org/2000/svg"><path d="M10.904 3.303 C 10.274 3.444,9.695 3.737,8.023 4.760 C 7.482 5.091,6.746 5.525,6.389 5.725 C 5.153 6.416,4.459 6.945,3.771 7.720 C 2.933 8.664,2.372 9.760,2.115 10.960 C 1.993 11.528,1.983 12.622,2.095 13.220 C 2.319 14.424,2.913 15.599,3.791 16.580 C 4.225 17.065,5.221 18.044,5.660 18.417 C 6.707 19.307,8.286 20.081,9.800 20.446 C 11.279 20.802,12.955 20.856,14.480 20.596 C 17.951 20.005,20.762 17.868,21.676 15.126 C 21.912 14.415,21.974 14.020,21.976 13.200 C 21.978 12.357,21.923 11.978,21.693 11.260 C 21.442 10.478,21.065 9.783,20.499 9.060 C 20.174 8.645,18.428 6.922,18.040 6.634 C 17.601 6.308,17.262 6.095,16.500 5.671 C 16.126 5.462,15.559 5.133,15.240 4.939 C 14.921 4.745,14.381 4.417,14.040 4.210 C 13.292 3.756,12.723 3.475,12.320 3.360 C 11.920 3.246,11.276 3.220,10.904 3.303 M12.091 3.958 C 12.444 4.048,13.004 4.320,13.646 4.711 C 13.896 4.863,14.431 5.190,14.836 5.437 C 15.240 5.684,15.873 6.055,16.243 6.261 C 17.661 7.050,18.435 7.684,19.134 8.630 C 20.493 10.468,20.722 12.713,19.750 14.660 C 18.525 17.114,15.720 18.797,12.388 19.077 C 11.219 19.175,10.019 19.080,8.849 18.796 C 5.881 18.075,3.556 16.097,2.860 13.700 C 2.561 12.668,2.577 11.454,2.904 10.452 C 3.210 9.513,3.712 8.697,4.455 7.928 C 5.094 7.267,5.568 6.922,6.800 6.219 C 7.229 5.974,7.985 5.525,8.480 5.221 C 9.769 4.428,10.574 4.025,11.100 3.907 C 11.310 3.860,11.809 3.886,12.091 3.958 M8.125 10.162 C 7.709 10.247,7.364 10.505,7.157 10.887 C 7.028 11.125,7.020 11.163,7.020 11.520 C 7.020 11.848,7.035 11.931,7.127 12.128 C 7.257 12.406,7.512 12.669,7.780 12.800 C 7.952 12.885,8.036 12.899,8.380 12.900 C 8.821 12.900,8.970 12.848,9.303 12.579 C 9.810 12.167,9.909 11.305,9.513 10.730 C 9.221 10.306,8.621 10.060,8.125 10.162 M14.435 10.161 C 14.002 10.233,13.597 10.538,13.399 10.940 C 13.315 11.112,13.301 11.197,13.300 11.540 C 13.300 11.901,13.311 11.961,13.411 12.151 C 13.553 12.420,13.780 12.647,14.049 12.789 C 14.239 12.889,14.300 12.900,14.660 12.900 C 15.041 12.900,15.072 12.893,15.316 12.761 C 16.203 12.281,16.295 11.012,15.487 10.419 C 15.186 10.198,14.793 10.102,14.435 10.161 M8.255 10.684 C 8.386 10.786,8.480 10.961,8.480 11.100 C 8.480 11.323,8.272 11.569,8.040 11.620 C 7.873 11.657,7.582 11.519,7.503 11.365 C 7.374 11.117,7.455 10.780,7.671 10.663 C 7.836 10.573,8.128 10.583,8.255 10.684 M14.554 10.701 C 14.983 11.062,14.621 11.746,14.079 11.600 C 13.679 11.492,13.567 10.958,13.891 10.703 C 14.074 10.559,14.384 10.558,14.554 10.701 M9.719 13.747 C 9.600 13.847,9.593 13.868,9.616 14.035 C 9.629 14.134,9.713 14.365,9.802 14.549 C 9.927 14.807,10.031 14.950,10.264 15.180 C 11.116 16.024,11.981 16.000,12.827 15.108 C 13.111 14.808,13.316 14.452,13.402 14.110 C 13.443 13.947,13.440 13.906,13.383 13.818 C 13.346 13.762,13.271 13.699,13.215 13.678 C 13.157 13.656,12.422 13.640,11.480 13.640 L 9.846 13.640 9.719 13.747 M11.960 14.563 C 12.125 14.604,12.528 14.839,12.550 14.907 C 12.573 14.980,12.127 15.311,11.880 15.404 C 11.502 15.547,11.065 15.445,10.680 15.123 L 10.540 15.006 10.640 14.899 C 10.956 14.562,11.451 14.435,11.960 14.563 " stroke="none" fill-rule="evenodd"></path></svg>