<svg width="24" height="24" viewBox="0 0 24 24" fill="none" xmlns="http://www.w3.org/2000/svg"><path d="M10.920 5.782 C 9.032 6.080,7.531 7.317,6.867 9.120 C 6.325 10.593,6.308 12.642,6.824 14.125 C 7.655 16.514,9.776 17.851,12.397 17.637 C 14.023 17.504,15.343 16.756,16.190 15.486 C 16.527 14.981,16.811 14.262,16.901 13.689 L 16.927 13.519 15.678 13.529 L 14.429 13.540 14.374 13.755 C 14.286 14.098,14.044 14.516,13.780 14.780 C 13.355 15.205,12.792 15.432,12.075 15.469 C 10.434 15.553,9.294 14.514,9.018 12.683 C 8.950 12.232,8.942 11.257,9.003 10.813 C 9.209 9.299,9.974 8.293,11.160 7.973 C 11.520 7.876,12.323 7.878,12.680 7.976 C 13.340 8.157,13.893 8.589,14.171 9.143 C 14.300 9.397,14.343 9.523,14.417 9.850 L 14.442 9.960 15.681 9.960 C 16.835 9.960,16.920 9.955,16.919 9.890 C 16.918 9.772,16.764 9.115,16.674 8.840 C 16.138 7.208,14.693 6.059,12.827 5.782 C 12.322 5.707,11.393 5.707,10.920 5.782 " fill="#60A5FA" stroke="none" fill-rule="evenodd"></path></svg>