<svg width="24" height="24" viewBox="0 0 24 24" fill="none" xmlns="http://www.w3.org/2000/svg"><path d="M16.670 4.750 L 14.280 7.140 11.950 4.810 L 9.620 2.480 8.330 3.770 L 7.040 5.060 13.010 11.030 L 18.980 17.000 20.270 15.710 L 21.560 14.420 19.210 12.070 L 16.860 9.720 19.260 7.320 L 21.660 4.920 20.380 3.640 C 19.676 2.936,19.091 2.360,19.080 2.360 C 19.069 2.360,17.984 3.435,16.670 4.750 M3.750 8.350 L 2.480 9.620 4.810 11.950 L 7.140 14.280 4.740 16.680 L 2.340 19.080 3.630 20.370 L 4.920 21.660 7.320 19.260 L 9.720 16.860 12.070 19.210 L 14.420 21.560 15.710 20.270 L 17.000 18.980 11.050 13.030 C 7.777 9.757,5.082 7.080,5.060 7.080 C 5.038 7.080,4.448 7.651,3.750 8.350 " fill="#60A5FA" stroke="none" fill-rule="evenodd"></path></svg>