<svg width="24" height="24" viewBox="0 0 24 24" fill="none" xmlns="http://www.w3.org/2000/svg"><path d="M6.266 7.642 C 5.945 7.696,5.521 7.838,5.202 8.000 C 4.214 8.500,3.487 9.400,3.034 10.680 L 2.900 11.060 2.902 12.020 C 2.905 13.051,2.961 13.527,3.184 14.383 C 3.411 15.258,3.890 16.330,4.388 17.080 C 5.770 19.161,7.772 20.475,10.220 20.905 C 10.729 20.994,12.135 21.006,12.640 20.926 C 13.929 20.719,14.966 20.328,16.067 19.632 C 16.611 19.289,17.470 18.531,17.940 17.980 C 18.181 17.697,18.524 17.230,18.505 17.211 C 18.496 17.202,18.275 17.240,18.014 17.294 C 17.314 17.440,16.846 17.492,16.220 17.493 C 15.525 17.494,14.636 17.362,14.125 17.182 C 13.957 17.123,13.950 17.124,13.586 17.279 C 12.123 17.904,10.528 17.854,9.110 17.139 C 7.621 16.388,6.535 14.956,6.153 13.240 C 6.071 12.872,6.060 12.717,6.061 11.980 C 6.063 11.215,6.072 11.100,6.168 10.696 C 6.417 9.642,6.906 8.731,7.646 7.940 L 7.878 7.691 7.602 7.646 C 7.291 7.594,6.561 7.592,6.266 7.642 M8.607 8.333 C 8.315 8.576,7.989 8.948,7.742 9.320 C 6.425 11.304,6.776 14.047,8.548 15.613 L 8.812 15.846 8.961 15.393 C 9.164 14.778,9.382 14.293,10.169 12.705 C 10.538 11.960,10.840 11.315,10.840 11.273 C 10.840 11.160,10.423 10.124,10.190 9.660 C 9.940 9.162,9.768 8.890,9.550 8.652 C 9.390 8.478,8.941 8.119,8.886 8.121 C 8.872 8.121,8.746 8.217,8.607 8.333 M11.068 12.326 C 10.531 13.589,10.226 14.399,10.055 15.013 C 9.977 15.291,9.947 15.512,9.931 15.923 L 9.910 16.466 10.197 16.556 C 11.003 16.811,11.987 16.819,12.728 16.576 L 12.916 16.515 12.698 16.247 C 12.250 15.699,11.867 14.765,11.398 13.085 C 11.267 12.612,11.151 12.218,11.142 12.209 C 11.132 12.199,11.099 12.252,11.068 12.326 " fill="#22C55E" stroke="none" fill-rule="evenodd"></path></svg>