<svg width="24" height="24" viewBox="0 0 24 24" fill="none" xmlns="http://www.w3.org/2000/svg"><path d="M8.128 3.959 C 7.986 3.993,7.640 4.119,7.640 4.137 C 7.640 4.143,8.137 5.046,8.745 6.144 C 11.349 10.849,11.714 11.509,11.795 11.668 C 11.847 11.771,11.880 11.912,11.880 12.031 C 11.880 12.240,11.998 12.019,8.653 18.056 C 7.887 19.439,7.649 19.901,7.688 19.927 C 7.717 19.945,7.839 19.992,7.960 20.030 C 8.156 20.093,8.386 20.100,10.097 20.100 L 12.013 20.100 14.111 16.320 C 15.265 14.241,16.236 12.462,16.270 12.366 C 16.311 12.248,16.324 12.105,16.311 11.920 L 16.291 11.648 14.155 7.794 L 12.018 3.940 10.139 3.934 C 9.106 3.931,8.201 3.942,8.128 3.959 " fill="#FEF3C7" stroke="none" fill-rule="evenodd"></path></svg>