<svg width="24" height="24" viewBox="0 0 24 24" fill="none" xmlns="http://www.w3.org/2000/svg"><path d="M14.512 5.056 C 14.249 5.127,14.021 5.289,13.905 5.489 C 13.712 5.821,8.317 18.331,8.294 18.500 C 8.248 18.831,8.446 19.221,8.758 19.419 C 9.177 19.683,9.799 19.563,10.059 19.168 C 10.200 18.954,15.633 6.398,15.688 6.159 C 15.836 5.518,15.158 4.882,14.512 5.056 M6.552 7.576 C 6.448 7.604,6.295 7.674,6.212 7.732 C 6.128 7.790,5.192 8.707,4.132 9.769 C 2.036 11.868,2.028 11.878,2.031 12.304 C 2.035 12.732,2.039 12.736,4.192 14.888 C 6.348 17.044,6.341 17.037,6.771 17.039 C 7.178 17.041,7.483 16.843,7.665 16.460 C 7.776 16.225,7.785 16.009,7.694 15.737 C 7.636 15.561,7.456 15.366,6.016 13.920 L 4.403 12.300 5.995 10.700 C 7.012 9.677,7.614 9.042,7.663 8.940 C 7.765 8.728,7.767 8.315,7.668 8.116 C 7.457 7.692,6.980 7.461,6.552 7.576 M16.992 7.576 C 16.385 7.739,16.081 8.376,16.340 8.940 C 16.389 9.047,16.945 9.634,18.006 10.700 L 19.598 12.300 18.003 13.900 C 17.127 14.780,16.379 15.559,16.342 15.632 C 16.169 15.976,16.229 16.406,16.494 16.706 C 16.702 16.943,16.911 17.038,17.220 17.038 C 17.660 17.038,17.644 17.052,19.808 14.888 C 21.961 12.736,21.965 12.731,21.969 12.304 C 21.972 11.876,21.970 11.874,19.808 9.712 C 17.749 7.652,17.695 7.606,17.320 7.547 C 17.243 7.535,17.096 7.548,16.992 7.576 " stroke="none" fill-rule="evenodd" fill="black"></path></svg>