<svg width="24" height="24" viewBox="0 0 24 24" fill="none" xmlns="http://www.w3.org/2000/svg"><path d="M14.469 5.057 C 14.219 5.124,14.006 5.298,13.874 5.543 C 13.815 5.651,12.538 8.575,11.035 12.040 C 8.347 18.238,8.303 18.344,8.303 18.600 C 8.303 19.311,9.014 19.770,9.667 19.481 C 9.903 19.377,10.024 19.267,10.128 19.063 C 10.172 18.977,11.443 16.061,12.952 12.583 C 15.638 6.392,15.695 6.255,15.697 6.000 C 15.700 5.532,15.418 5.175,14.950 5.054 C 14.707 4.991,14.715 4.991,14.469 5.057 M6.570 7.563 C 6.477 7.581,6.324 7.649,6.230 7.715 C 5.934 7.922,2.181 11.723,2.101 11.897 C 1.998 12.122,2.006 12.496,2.119 12.722 C 2.252 12.989,6.070 16.807,6.338 16.941 C 6.711 17.128,7.180 17.054,7.472 16.762 C 7.686 16.548,7.738 16.414,7.739 16.080 C 7.740 15.825,7.724 15.753,7.633 15.600 C 7.573 15.501,6.822 14.718,5.963 13.861 L 4.401 12.301 5.996 10.701 C 6.873 9.820,7.624 9.037,7.665 8.960 C 7.765 8.770,7.767 8.273,7.669 8.091 C 7.450 7.686,7.014 7.477,6.570 7.563 M17.013 7.562 C 16.406 7.680,16.061 8.410,16.346 8.974 C 16.381 9.043,17.127 9.820,18.004 10.701 L 19.599 12.301 18.037 13.861 C 17.178 14.718,16.427 15.501,16.367 15.600 C 16.276 15.753,16.260 15.825,16.261 16.080 C 16.262 16.414,16.314 16.548,16.528 16.762 C 16.820 17.054,17.289 17.128,17.662 16.941 C 17.930 16.807,21.748 12.989,21.881 12.722 C 21.993 12.497,22.002 12.123,21.899 11.897 C 21.805 11.689,17.840 7.718,17.640 7.631 C 17.452 7.549,17.216 7.523,17.013 7.562 " stroke="none" fill-rule="evenodd" fill="black"></path></svg>