<svg width="24" height="24" viewBox="0 0 24 24" fill="none" xmlns="http://www.w3.org/2000/svg"><path d="M14.467 5.056 C 14.244 5.117,14.109 5.209,13.956 5.403 C 13.821 5.572,8.370 18.143,8.310 18.420 C 8.255 18.679,8.290 18.853,8.450 19.121 C 8.622 19.408,8.915 19.568,9.271 19.568 C 9.692 19.568,9.973 19.385,10.173 18.980 C 10.227 18.870,11.489 15.969,12.977 12.532 C 14.874 8.153,15.690 6.226,15.707 6.088 C 15.785 5.429,15.119 4.875,14.467 5.056 M6.549 7.563 C 6.465 7.583,6.348 7.625,6.289 7.657 C 6.229 7.689,5.268 8.629,4.154 9.747 C 1.971 11.939,2.029 11.869,2.029 12.300 C 2.029 12.730,1.972 12.662,4.149 14.845 C 5.540 16.240,6.223 16.897,6.343 16.957 C 6.534 17.052,6.937 17.078,7.121 17.006 C 7.493 16.862,7.760 16.475,7.760 16.082 C 7.759 15.661,7.715 15.607,5.984 13.880 L 4.400 12.301 5.998 10.700 C 7.727 8.969,7.758 8.930,7.759 8.520 C 7.760 7.887,7.165 7.416,6.549 7.563 M17.007 7.562 C 16.555 7.653,16.242 8.046,16.242 8.520 C 16.242 8.930,16.273 8.969,18.002 10.700 L 19.600 12.301 18.016 13.880 C 16.285 15.607,16.241 15.661,16.240 16.082 C 16.240 16.475,16.507 16.862,16.879 17.006 C 17.063 17.078,17.466 17.052,17.657 16.957 C 17.777 16.897,18.460 16.240,19.851 14.845 C 22.028 12.662,21.971 12.730,21.971 12.300 C 21.971 11.869,22.029 11.939,19.846 9.746 C 18.430 8.324,17.772 7.690,17.660 7.640 C 17.451 7.546,17.221 7.519,17.007 7.562 " stroke="none" fill-rule="evenodd" fill="black"></path></svg>