<svg width="24" height="24" viewBox="0 0 24 24" fill="none" xmlns="http://www.w3.org/2000/svg"><path d="M7.320 4.355 C 6.891 4.471,6.497 4.704,6.161 5.040 C 5.820 5.381,5.647 5.651,5.501 6.070 L 5.400 6.358 5.400 9.497 C 5.400 12.506,5.403 12.654,5.483 13.068 C 6.049 16.021,7.990 18.339,10.700 19.296 C 12.022 19.764,13.589 19.853,14.940 19.539 C 15.759 19.348,16.755 18.919,17.460 18.453 C 19.535 17.080,20.871 14.773,21.081 12.200 C 21.110 11.852,21.120 10.743,21.110 9.080 C 21.093 6.204,21.107 6.352,20.803 5.738 C 20.513 5.152,19.935 4.634,19.319 4.409 L 19.020 4.300 13.300 4.292 C 7.944 4.285,7.563 4.289,7.320 4.355 M18.716 6.298 C 18.885 6.385,19.072 6.620,19.108 6.789 C 19.166 7.061,19.146 11.973,19.086 12.380 C 18.926 13.461,18.552 14.423,17.966 15.260 C 17.657 15.702,16.899 16.450,16.460 16.747 C 15.459 17.423,14.373 17.760,13.193 17.760 C 10.495 17.760,8.103 15.757,7.458 12.957 C 7.397 12.695,7.387 12.306,7.371 9.655 L 7.353 6.651 7.486 6.500 C 7.559 6.416,7.673 6.325,7.739 6.296 C 7.928 6.213,18.556 6.215,18.716 6.298 " stroke="none" fill-rule="evenodd" fill="black"></path></svg>