<svg width="24" height="24" viewBox="0 0 24 24" fill="none" xmlns="http://www.w3.org/2000/svg"><path d="M7.740 6.303 C 5.678 6.664,4.124 8.130,3.579 10.230 C 3.405 10.899,3.350 11.482,3.372 12.420 C 3.392 13.265,3.431 13.579,3.598 14.233 C 4.041 15.965,5.279 17.330,6.900 17.871 C 7.596 18.103,7.857 18.140,8.800 18.139 C 9.590 18.138,9.697 18.129,10.110 18.031 C 11.051 17.808,11.830 17.380,12.485 16.725 C 12.916 16.294,13.246 15.818,13.463 15.314 C 13.610 14.975,13.800 14.308,13.800 14.135 L 13.800 14.040 12.567 14.040 L 11.333 14.040 11.264 14.290 C 10.989 15.277,10.147 15.909,9.000 15.987 C 7.523 16.087,6.373 15.184,5.999 13.629 C 5.758 12.624,5.816 11.220,6.136 10.328 C 6.505 9.301,7.324 8.593,8.326 8.436 C 8.688 8.379,9.341 8.412,9.640 8.503 C 10.481 8.756,11.110 9.409,11.283 10.210 L 11.333 10.440 12.572 10.440 L 13.811 10.440 13.786 10.230 C 13.752 9.936,13.620 9.453,13.477 9.092 C 12.886 7.604,11.536 6.583,9.781 6.299 C 9.322 6.224,8.176 6.227,7.740 6.303 " fill="#60A5FA" stroke="none" fill-rule="evenodd"></path></svg>