<svg width="24" height="24" viewBox="0 0 24 24" fill="none" xmlns="http://www.w3.org/2000/svg"><path d="M12.027 3.057 C 11.803 3.117,11.638 3.230,10.000 4.435 C 9.329 4.929,8.177 5.774,7.440 6.315 C 6.453 7.038,6.000 7.398,5.720 7.679 C 4.945 8.457,4.436 9.407,4.192 10.532 C 4.073 11.082,4.065 12.205,4.175 12.720 C 4.431 13.915,4.905 14.822,5.677 15.600 C 6.123 16.049,10.316 19.790,11.160 20.491 C 11.701 20.941,11.772 20.973,12.292 20.993 C 12.556 21.003,12.791 20.990,12.895 20.962 C 13.095 20.905,13.569 20.570,16.046 18.734 C 18.912 16.609,19.474 16.172,19.606 15.965 C 20.075 15.224,19.995 14.298,19.414 13.758 C 19.307 13.659,18.783 13.221,18.250 12.785 C 17.716 12.349,17.288 11.979,17.298 11.962 C 17.309 11.946,17.750 11.594,18.279 11.181 C 19.724 10.051,19.888 9.840,19.893 9.100 C 19.896 8.666,19.816 8.375,19.622 8.113 C 19.546 8.011,19.182 7.685,18.812 7.391 C 17.059 5.992,13.456 3.254,13.223 3.144 C 12.921 3.001,12.383 2.962,12.027 3.057 M12.839 4.523 C 13.239 4.781,16.601 7.350,17.900 8.389 C 18.474 8.848,18.541 8.915,18.553 9.035 C 18.564 9.153,18.539 9.196,18.352 9.375 C 18.136 9.583,16.285 11.025,16.185 11.063 C 16.155 11.075,15.685 10.726,15.094 10.252 C 13.322 8.831,13.173 8.737,12.641 8.692 C 12.069 8.644,11.788 8.789,10.466 9.812 C 9.406 10.633,9.201 10.823,9.043 11.132 C 8.918 11.377,8.905 11.437,8.889 11.830 C 8.874 12.198,8.884 12.292,8.957 12.486 C 9.077 12.802,9.223 12.988,9.607 13.311 C 10.161 13.777,11.645 14.877,11.859 14.980 C 12.271 15.179,12.957 15.148,13.347 14.912 C 13.468 14.840,14.136 14.353,14.831 13.830 C 15.526 13.307,16.113 12.880,16.134 12.880 C 16.183 12.880,16.469 13.094,17.220 13.694 C 18.634 14.824,18.725 14.931,18.474 15.165 C 18.271 15.355,16.976 16.350,15.300 17.604 C 12.831 19.451,12.445 19.713,12.269 19.657 C 12.166 19.624,6.898 14.936,6.572 14.587 C 5.660 13.610,5.288 12.350,5.499 10.950 C 5.606 10.240,5.867 9.627,6.308 9.049 C 6.596 8.672,6.941 8.357,7.560 7.908 C 7.835 7.709,8.636 7.120,9.340 6.600 C 11.874 4.730,12.398 4.360,12.519 4.360 C 12.557 4.360,12.701 4.433,12.839 4.523 M12.875 10.229 C 13.194 10.455,14.884 11.808,14.954 11.893 C 14.996 11.943,14.939 12.005,14.592 12.289 C 14.146 12.654,13.095 13.465,12.793 13.678 C 12.652 13.777,12.580 13.804,12.505 13.785 C 12.394 13.757,10.784 12.564,10.450 12.262 C 10.260 12.091,10.240 12.057,10.240 11.904 C 10.240 11.705,10.270 11.674,10.960 11.134 C 11.931 10.374,12.404 10.040,12.507 10.040 C 12.565 10.040,12.725 10.122,12.875 10.229 " fill="#A855F7" stroke="none" fill-rule="evenodd"></path></svg>