<svg width="24" height="24" viewBox="0 0 24 24" fill="none" xmlns="http://www.w3.org/2000/svg"><path d="M15.627 9.827 C 15.612 9.841,15.600 10.210,15.600 10.647 L 15.600 11.440 14.820 11.440 L 14.040 11.440 14.040 12.000 L 14.040 12.560 14.819 12.560 L 15.598 12.560 15.609 13.370 L 15.620 14.180 16.150 14.191 L 16.680 14.202 16.680 13.381 L 16.680 12.560 17.460 12.560 L 18.240 12.560 18.240 12.000 L 18.240 11.440 17.460 11.440 L 16.680 11.440 16.680 10.620 L 16.680 9.800 16.167 9.800 C 15.884 9.800,15.641 9.812,15.627 9.827 " fill="#60A5FA" stroke="none" fill-rule="evenodd"></path></svg>