<svg width="24" height="24" viewBox="0 0 24 24" fill="none" xmlns="http://www.w3.org/2000/svg"><path d="M6.220 5.464 C 4.218 7.149,2.539 8.560,2.489 8.600 L 2.398 8.673 3.242 13.466 C 3.706 16.103,4.089 18.263,4.093 18.266 C 4.097 18.270,6.156 19.021,8.670 19.936 L 13.239 21.600 16.890 18.535 C 18.897 16.849,20.573 15.439,20.613 15.401 C 20.683 15.335,20.655 15.158,19.845 10.560 C 19.382 7.936,18.990 5.775,18.972 5.758 C 18.950 5.737,10.485 2.618,9.900 2.415 C 9.878 2.407,8.222 3.780,6.220 5.464 " fill="white" stroke="none" fill-rule="evenodd"></path></svg>