<svg width="24" height="24" viewBox="0 0 24 24" fill="none" xmlns="http://www.w3.org/2000/svg"><path d="M8.960 5.761 C 8.067 5.886,7.164 6.258,6.480 6.781 C 6.157 7.029,5.643 7.580,5.401 7.938 C 4.938 8.624,4.599 9.523,4.464 10.420 C 4.233 11.952,4.451 13.670,5.021 14.802 C 5.874 16.496,7.414 17.500,9.377 17.640 C 11.277 17.777,12.930 17.080,13.964 15.708 C 14.364 15.177,14.728 14.328,14.821 13.708 L 14.849 13.520 13.611 13.520 L 12.373 13.520 12.268 13.839 C 12.055 14.483,11.679 14.923,11.103 15.199 C 10.064 15.698,8.701 15.512,7.925 14.765 C 7.370 14.230,7.032 13.462,6.917 12.473 C 6.853 11.922,6.891 10.892,6.992 10.419 C 7.364 8.688,8.622 7.710,10.218 7.912 C 11.356 8.055,12.125 8.750,12.340 9.830 L 12.366 9.960 13.603 9.960 C 15.038 9.960,14.890 10.031,14.756 9.409 C 14.364 7.582,13.071 6.303,11.160 5.853 C 10.810 5.771,10.613 5.752,9.980 5.740 C 9.562 5.731,9.103 5.741,8.960 5.761 " fill="#14B8A6" stroke="none" fill-rule="evenodd"></path></svg>