<svg width="24" height="24" viewBox="0 0 24 24" fill="none" xmlns="http://www.w3.org/2000/svg"><path d="M11.140 3.044 C 9.575 3.209,8.051 3.850,6.860 4.847 C 5.953 5.605,5.296 6.452,4.781 7.531 C 3.727 9.736,3.741 12.229,4.820 14.428 C 5.842 16.512,7.675 18.014,9.919 18.606 L 10.400 18.733 10.400 19.867 C 10.400 20.490,10.416 21.000,10.434 21.000 C 10.453 21.000,10.683 20.956,10.944 20.903 C 13.186 20.443,15.194 19.373,16.760 17.802 C 17.668 16.891,18.190 16.172,18.721 15.100 C 19.639 13.246,19.920 11.277,19.537 9.380 C 19.297 8.191,18.782 7.041,18.047 6.053 C 17.689 5.571,16.912 4.804,16.380 4.406 C 15.881 4.033,15.127 3.641,14.491 3.423 C 13.469 3.074,12.212 2.932,11.140 3.044 M13.868 6.025 C 14.052 6.091,14.259 6.299,14.345 6.506 C 14.424 6.695,14.413 7.070,14.320 7.341 C 14.101 7.976,13.645 8.437,13.008 8.669 L 12.741 8.766 12.665 8.673 C 12.623 8.622,12.535 8.466,12.469 8.327 C 12.179 7.713,12.330 6.829,12.825 6.241 C 13.071 5.949,13.438 5.873,13.868 6.025 M10.512 6.086 C 10.629 6.143,10.746 6.250,10.862 6.407 C 11.308 7.013,11.383 7.790,11.061 8.471 C 10.906 8.798,10.921 8.794,10.504 8.633 C 10.009 8.441,9.616 8.066,9.354 7.537 C 9.210 7.247,9.188 7.168,9.187 6.932 C 9.185 6.523,9.381 6.213,9.740 6.056 C 9.931 5.972,10.307 5.987,10.512 6.086 M8.218 8.381 C 8.784 8.529,9.380 9.013,9.628 9.525 C 9.840 9.963,9.839 9.968,9.586 10.092 C 8.902 10.427,8.126 10.397,7.489 10.011 C 7.018 9.726,6.873 9.527,6.870 9.164 C 6.867 8.806,7.073 8.496,7.401 8.365 C 7.552 8.305,7.955 8.313,8.218 8.381 M15.720 11.361 C 15.984 11.438,16.383 11.654,16.554 11.813 C 16.822 12.062,16.890 12.539,16.703 12.858 C 16.417 13.347,15.805 13.419,15.043 13.053 C 14.535 12.809,14.022 12.207,13.899 11.714 C 13.875 11.615,13.890 11.599,14.127 11.488 C 14.642 11.244,15.171 11.202,15.720 11.361 M9.092 11.380 C 9.218 11.412,9.413 11.486,9.525 11.543 C 9.725 11.644,9.729 11.649,9.706 11.793 C 9.636 12.223,9.161 12.824,8.700 13.066 C 7.971 13.450,7.322 13.405,7.015 12.951 C 6.596 12.332,7.028 11.645,8.000 11.384 C 8.288 11.307,8.805 11.305,9.092 11.380 M11.114 13.088 C 11.438 13.731,11.367 14.463,10.913 15.171 C 10.539 15.753,9.712 15.724,9.382 15.116 C 9.280 14.929,9.272 14.884,9.288 14.597 C 9.331 13.866,9.914 13.157,10.719 12.857 C 10.796 12.828,10.887 12.808,10.920 12.812 C 10.953 12.817,11.040 12.940,11.114 13.088 M13.045 12.922 C 13.599 13.108,14.045 13.500,14.311 14.036 C 14.623 14.665,14.494 15.231,13.980 15.480 C 13.579 15.674,13.065 15.543,12.805 15.182 C 12.488 14.740,12.354 14.206,12.432 13.700 C 12.486 13.355,12.698 12.840,12.786 12.840 C 12.795 12.840,12.912 12.877,13.045 12.922 " fill="#22C55E" stroke="none" fill-rule="evenodd"></path></svg>