<svg width="24" height="24" viewBox="0 0 24 24" fill="none" xmlns="http://www.w3.org/2000/svg"><path d="M9.720 6.798 L 9.720 7.596 9.590 7.615 C 9.519 7.625,9.271 7.664,9.040 7.702 C 7.263 7.989,5.149 9.080,3.309 10.661 C 3.053 10.880,3.002 10.944,3.022 11.014 C 3.094 11.266,3.681 12.372,3.993 12.841 C 5.324 14.847,7.119 16.091,9.160 16.425 C 9.369 16.459,9.580 16.495,9.630 16.504 C 9.719 16.521,9.720 16.527,9.720 17.221 L 9.720 17.920 15.360 17.920 L 21.000 17.920 21.000 11.960 L 21.000 6.000 15.360 6.000 L 9.720 6.000 9.720 6.798 M11.640 7.718 C 12.965 7.995,14.347 8.684,15.480 9.632 C 15.937 10.014,16.760 10.855,16.760 10.940 C 16.760 11.036,15.472 12.301,14.940 12.728 C 13.685 13.735,12.440 14.375,11.331 14.583 C 10.959 14.653,10.279 14.672,9.930 14.622 L 9.720 14.592 9.720 14.176 L 9.720 13.759 9.495 13.660 C 9.023 13.451,8.547 13.033,8.203 12.525 C 7.977 12.191,7.671 11.543,7.687 11.431 C 7.704 11.314,8.173 10.925,8.511 10.748 C 8.868 10.562,9.160 10.480,9.467 10.480 L 9.720 10.480 9.720 12.117 L 9.720 13.754 9.998 13.817 C 11.156 14.080,12.442 13.536,13.814 12.201 C 14.277 11.751,14.880 11.073,14.880 11.002 C 14.880 10.929,14.406 10.415,14.040 10.090 C 13.332 9.463,12.446 8.941,11.687 8.703 C 11.196 8.550,10.729 8.480,10.195 8.480 L 9.720 8.480 9.720 9.010 L 9.720 9.540 10.270 9.544 C 11.097 9.550,11.672 9.719,12.343 10.153 C 12.735 10.407,13.291 10.903,13.272 10.982 C 13.265 11.009,12.927 11.310,12.521 11.651 L 11.782 12.271 11.589 11.950 C 11.149 11.217,10.873 10.901,10.515 10.718 C 10.312 10.615,10.196 10.578,9.830 10.502 L 9.720 10.478 9.720 10.019 C 9.720 9.626,9.711 9.560,9.656 9.560 C 9.499 9.560,8.773 9.732,8.452 9.845 C 7.754 10.091,6.959 10.558,6.452 11.018 L 6.203 11.244 6.307 11.532 C 6.628 12.428,7.283 13.327,8.001 13.858 C 8.425 14.173,9.043 14.449,9.610 14.577 L 9.720 14.602 9.720 15.096 L 9.720 15.590 10.090 15.618 C 10.293 15.633,10.703 15.625,11.000 15.601 C 13.086 15.432,14.869 14.594,17.103 12.732 L 17.587 12.330 17.903 12.518 C 18.077 12.622,18.499 12.864,18.840 13.057 C 19.558 13.461,19.639 13.525,19.559 13.621 C 19.462 13.738,18.631 14.269,18.160 14.514 C 15.866 15.711,11.998 16.683,10.101 16.541 L 9.722 16.513 9.711 16.051 L 9.700 15.588 9.340 15.516 C 8.890 15.425,8.479 15.280,8.040 15.059 C 6.808 14.438,5.685 13.145,5.022 11.585 C 4.809 11.083,4.799 11.134,5.190 10.709 C 6.183 9.629,7.501 8.874,8.860 8.606 C 9.080 8.563,9.364 8.515,9.490 8.501 L 9.720 8.474 9.720 8.032 L 9.720 7.590 10.470 7.610 C 11.026 7.625,11.329 7.653,11.640 7.718 " fill="#22C55E" stroke="none" fill-rule="evenodd"></path></svg>