<svg width="24" height="24" viewBox="0 0 24 24" fill="none" xmlns="http://www.w3.org/2000/svg"><path d="M6.500 6.804 C 5.426 6.901,4.413 7.381,3.689 8.135 C 3.301 8.540,3.087 8.851,2.837 9.375 C 2.467 10.153,2.315 10.915,2.315 12.000 C 2.314 13.267,2.554 14.246,3.071 15.089 C 3.841 16.345,5.028 17.061,6.586 17.208 C 7.705 17.314,8.842 17.046,9.685 16.478 C 10.013 16.257,10.521 15.766,10.740 15.460 C 11.056 15.016,11.342 14.350,11.432 13.850 L 11.469 13.640 11.101 13.640 C 10.898 13.640,10.409 13.628,10.013 13.614 L 9.293 13.588 9.244 13.782 C 9.164 14.098,8.994 14.402,8.753 14.661 C 8.364 15.077,7.903 15.274,7.236 15.309 C 5.954 15.375,5.042 14.695,4.664 13.389 C 4.517 12.883,4.456 12.124,4.513 11.509 C 4.605 10.510,4.850 9.907,5.379 9.379 C 5.868 8.890,6.378 8.681,7.080 8.681 C 8.154 8.681,8.987 9.273,9.227 10.207 L 9.298 10.481 10.379 10.471 L 11.460 10.460 11.446 10.320 C 11.419 10.047,11.245 9.446,11.107 9.148 C 10.598 8.045,9.620 7.253,8.375 6.938 C 8.055 6.857,7.135 6.747,6.924 6.766 C 6.889 6.769,6.698 6.786,6.500 6.804 " fill="#2DD4BF" stroke="none" fill-rule="evenodd"></path></svg>