<svg width="24" height="24" viewBox="0 0 24 24" fill="none" xmlns="http://www.w3.org/2000/svg"><path d="M11.766 3.059 C 11.575 3.102,10.819 3.478,8.729 4.567 C 7.199 5.365,5.914 6.046,5.874 6.079 C 5.783 6.157,3.076 12.048,2.964 12.414 C 2.865 12.738,2.860 12.929,2.941 13.276 C 3.066 13.803,3.212 14.003,4.298 15.135 C 4.850 15.710,5.713 16.612,6.217 17.140 C 6.720 17.668,7.755 18.752,8.516 19.548 L 9.900 20.997 13.490 20.998 L 17.080 21.000 17.080 19.400 L 17.080 17.800 18.600 17.800 L 20.120 17.800 20.119 14.130 L 20.119 10.460 18.449 8.717 C 17.531 7.759,16.028 6.189,15.108 5.228 C 14.189 4.267,13.356 3.426,13.257 3.358 C 12.793 3.039,12.295 2.939,11.766 3.059 " fill="#38BDF8" stroke="none" fill-rule="evenodd"></path></svg>