<svg width="24" height="24" viewBox="0 0 24 24" fill="none" xmlns="http://www.w3.org/2000/svg"><path d="M11.140 3.024 C 9.380 3.158,8.046 3.468,6.941 4.001 C 6.359 4.282,5.946 4.567,5.559 4.957 C 5.287 5.230,5.183 5.370,5.051 5.640 C 4.960 5.827,4.866 6.087,4.842 6.217 C 4.783 6.547,4.783 17.453,4.842 17.783 C 4.990 18.609,5.761 19.429,6.916 19.987 C 7.871 20.449,9.070 20.763,10.500 20.927 C 11.070 20.992,12.930 20.992,13.500 20.927 C 14.930 20.763,16.129 20.449,17.084 19.987 C 17.974 19.557,18.652 18.965,18.950 18.357 C 19.041 18.172,19.134 17.913,19.158 17.783 C 19.217 17.453,19.217 6.547,19.158 6.217 C 19.008 5.383,18.238 4.570,17.059 4.001 C 16.131 3.553,14.920 3.235,13.560 3.081 C 13.167 3.037,11.492 2.997,11.140 3.024 M13.391 4.421 C 15.257 4.616,16.804 5.184,17.512 5.935 C 17.753 6.190,17.840 6.366,17.840 6.600 C 17.840 6.834,17.753 7.010,17.512 7.265 C 16.607 8.224,14.451 8.840,12.000 8.840 C 9.549 8.840,7.393 8.224,6.488 7.265 C 6.247 7.010,6.160 6.834,6.160 6.600 C 6.160 6.366,6.247 6.190,6.488 5.935 C 7.184 5.198,8.729 4.622,10.541 4.425 C 11.258 4.347,12.664 4.346,13.391 4.421 M7.080 9.268 C 7.970 9.675,9.159 9.974,10.500 10.127 C 11.070 10.192,12.930 10.192,13.500 10.127 C 15.172 9.936,16.536 9.537,17.530 8.948 L 17.840 8.764 17.840 13.163 C 17.840 16.921,17.832 17.583,17.782 17.702 C 17.706 17.884,17.356 18.252,17.080 18.440 C 14.725 20.041,9.275 20.041,6.920 18.440 C 6.644 18.252,6.294 17.884,6.218 17.702 C 6.168 17.583,6.160 16.921,6.160 13.163 L 6.160 8.764 6.470 8.947 C 6.640 9.048,6.915 9.193,7.080 9.268 " fill="#F472B6" stroke="none" fill-rule="evenodd"></path></svg>