<svg width="24" height="24" viewBox="0 0 24 24" fill="none" xmlns="http://www.w3.org/2000/svg"><path d="M11.220 2.945 C 9.413 3.132,7.922 3.711,6.510 4.771 C 4.568 6.230,3.306 8.421,2.982 10.894 C 2.910 11.438,2.901 12.391,2.962 12.952 C 3.145 14.640,3.813 16.282,4.861 17.620 C 5.214 18.071,5.345 18.189,5.431 18.134 C 5.518 18.078,5.515 17.963,5.410 17.460 C 5.197 16.437,5.182 14.847,5.376 13.740 C 5.759 11.552,6.706 9.544,8.074 8.022 C 9.269 6.692,10.878 5.877,12.116 5.973 C 12.780 6.024,13.403 6.316,14.740 7.202 C 15.780 7.891,16.161 8.118,16.980 8.535 C 17.785 8.945,18.190 9.300,18.455 9.829 C 18.764 10.442,18.744 11.350,18.405 12.161 C 17.920 13.320,16.616 14.047,15.020 14.049 C 14.270 14.049,13.041 13.873,12.304 13.658 C 11.974 13.562,11.944 13.559,11.884 13.620 C 11.825 13.681,11.836 13.700,12.018 13.867 C 12.127 13.966,12.345 14.123,12.502 14.215 L 12.789 14.383 12.672 14.521 C 12.515 14.709,12.344 15.074,12.234 15.461 C 12.158 15.724,12.143 15.874,12.144 16.320 C 12.145 16.789,12.160 16.906,12.253 17.212 C 12.439 17.820,12.714 18.273,13.149 18.687 C 14.511 19.983,16.639 19.882,18.381 18.440 C 19.248 17.722,20.255 16.086,20.683 14.701 C 21.149 13.189,21.211 11.453,20.853 9.940 C 20.225 7.286,18.448 5.050,16.020 3.857 C 14.750 3.233,13.627 2.965,12.180 2.941 C 11.740 2.934,11.308 2.935,11.220 2.945 M11.340 6.913 C 10.971 7.129,10.682 7.658,10.681 8.120 C 10.679 8.810,11.032 9.219,11.621 9.210 C 11.922 9.205,12.132 9.123,12.328 8.932 C 12.842 8.431,12.768 7.334,12.193 6.935 C 12.068 6.849,11.975 6.820,11.786 6.810 C 11.572 6.798,11.514 6.812,11.340 6.913 " fill="#64748B" stroke="none" fill-rule="evenodd"></path></svg>