<svg width="24" height="24" viewBox="0 0 24 24" fill="none" xmlns="http://www.w3.org/2000/svg"><path d="M16.754 8.010 C 16.075 9.101,15.947 10.307,16.403 11.314 C 16.468 11.456,16.516 11.576,16.510 11.581 C 16.454 11.628,16.195 11.734,15.955 11.808 L 15.660 11.899 8.997 11.919 L 2.334 11.940 2.183 12.055 C 1.933 12.246,1.906 12.361,1.933 13.120 C 1.992 14.768,2.445 16.341,3.178 17.438 C 3.988 18.653,5.059 19.244,7.000 19.548 C 7.718 19.660,9.574 19.649,10.354 19.527 C 11.466 19.353,12.352 19.080,13.300 18.618 C 14.690 17.940,15.845 16.898,16.762 15.492 C 17.111 14.958,17.596 14.003,17.898 13.256 L 18.126 12.691 18.513 12.668 C 19.249 12.624,19.839 12.380,20.333 11.918 C 20.638 11.632,20.827 11.355,20.987 10.957 L 21.086 10.712 20.995 10.615 C 20.857 10.468,20.398 10.254,20.057 10.178 C 19.821 10.126,19.617 10.114,19.142 10.127 L 18.531 10.143 18.461 9.846 C 18.325 9.270,17.862 8.531,17.416 8.177 C 17.232 8.031,16.934 7.840,16.891 7.840 C 16.874 7.840,16.812 7.917,16.754 8.010 " fill="#60A5FA" stroke="none" fill-rule="evenodd"></path></svg>