<svg width="24" height="24" viewBox="0 0 24 24" fill="none" xmlns="http://www.w3.org/2000/svg"><path d="M18.575 4.876 C 18.455 4.950,18.360 5.131,18.360 5.288 C 18.360 5.496,18.624 5.760,18.834 5.760 C 19.101 5.760,19.320 5.529,19.320 5.247 C 19.320 5.119,19.292 5.056,19.185 4.943 C 19.071 4.821,19.025 4.800,18.875 4.800 C 18.774 4.800,18.648 4.832,18.575 4.876 M16.490 4.944 C 16.462 4.957,16.440 4.995,16.440 5.030 C 16.440 5.065,16.409 5.128,16.371 5.170 C 16.331 5.214,16.302 5.310,16.302 5.397 C 16.302 5.486,16.330 5.576,16.371 5.617 C 16.409 5.655,16.440 5.719,16.440 5.759 C 16.440 5.842,16.516 5.880,16.685 5.880 C 17.102 5.880,17.305 5.366,17.006 5.068 C 16.921 4.983,16.842 4.947,16.715 4.937 C 16.619 4.929,16.518 4.932,16.490 4.944 M6.560 5.376 C 5.922 5.518,5.459 6.024,5.355 6.697 C 5.302 7.038,5.377 7.217,5.620 7.324 C 5.939 7.465,6.248 7.268,6.302 6.890 C 6.354 6.525,6.573 6.313,6.897 6.313 C 7.239 6.313,7.450 6.514,7.501 6.887 C 7.560 7.318,7.949 7.509,8.287 7.273 C 8.449 7.160,8.497 6.969,8.442 6.652 C 8.326 5.990,7.831 5.484,7.181 5.364 C 6.898 5.311,6.844 5.312,6.560 5.376 M17.060 7.125 C 14.448 7.291,13.276 7.380,13.124 7.424 C 12.822 7.510,12.474 7.857,12.384 8.161 C 12.299 8.446,12.303 8.673,12.399 8.928 C 12.511 9.228,12.683 9.417,12.974 9.560 L 13.225 9.683 17.076 9.925 C 19.194 10.057,20.952 10.156,20.984 10.144 C 21.032 10.125,21.039 9.877,21.030 8.511 L 21.020 6.900 20.900 6.894 C 20.834 6.891,19.106 6.995,17.060 7.125 M15.840 13.440 L 15.840 13.560 17.617 13.560 C 19.196 13.560,19.401 13.553,19.459 13.496 C 19.508 13.446,19.512 13.419,19.476 13.376 C 19.438 13.330,19.121 13.320,17.635 13.320 L 15.840 13.320 15.840 13.440 M15.228 14.501 L 15.156 14.600 17.314 14.600 C 19.003 14.600,19.475 14.589,19.490 14.550 C 19.545 14.401,19.533 14.400,17.387 14.401 L 15.300 14.403 15.228 14.501 M14.287 14.470 C 13.954 14.479,13.838 14.496,13.850 14.531 C 13.862 14.566,14.025 14.583,14.401 14.591 L 14.935 14.602 14.861 14.521 C 14.821 14.477,14.777 14.444,14.764 14.449 C 14.751 14.453,14.536 14.463,14.287 14.470 M13.855 15.538 C 13.843 15.570,13.845 15.615,13.859 15.638 C 13.876 15.667,14.774 15.680,16.678 15.680 C 19.014 15.680,19.475 15.671,19.493 15.625 C 19.547 15.484,19.469 15.480,16.651 15.480 C 14.263 15.480,13.874 15.488,13.855 15.538 M13.880 16.620 C 13.880 16.653,13.896 16.680,13.916 16.680 C 13.935 16.680,13.962 16.653,13.974 16.620 C 13.988 16.583,13.975 16.560,13.939 16.560 C 13.906 16.560,13.880 16.587,13.880 16.620 M15.040 16.660 C 15.040 16.786,15.080 16.785,15.172 16.659 C 15.243 16.561,15.243 16.560,15.142 16.560 C 15.060 16.560,15.040 16.580,15.040 16.660 M16.026 16.680 L 16.097 16.800 17.746 16.800 C 19.206 16.800,19.402 16.793,19.459 16.736 C 19.508 16.686,19.512 16.659,19.476 16.616 C 19.438 16.570,19.130 16.560,17.693 16.560 L 15.955 16.560 16.026 16.680 M16.920 17.760 L 16.920 17.880 18.179 17.880 C 19.361 17.880,19.440 17.876,19.477 17.806 C 19.560 17.650,19.481 17.640,18.172 17.640 L 16.920 17.640 16.920 17.760 M17.200 18.840 L 17.200 18.960 18.312 18.960 C 19.475 18.960,19.559 18.948,19.477 18.794 C 19.440 18.725,19.365 18.720,18.319 18.720 L 17.200 18.720 17.200 18.840 " fill="white" stroke="none" fill-rule="evenodd"></path></svg>