<svg width="24" height="24" viewBox="0 0 24 24" fill="none" xmlns="http://www.w3.org/2000/svg"><path d="M5.660 2.043 C 4.874 2.159,4.154 2.896,4.041 3.700 C 3.987 4.081,3.987 19.919,4.041 20.300 C 4.157 21.125,4.875 21.843,5.700 21.959 C 5.874 21.983,8.266 21.998,12.000 21.998 C 15.734 21.998,18.126 21.983,18.300 21.959 C 18.694 21.904,19.096 21.697,19.397 21.397 C 19.697 21.096,19.904 20.694,19.959 20.300 C 20.013 19.918,20.012 8.116,19.959 7.745 C 19.910 7.407,19.774 7.060,19.595 6.817 C 19.508 6.699,18.545 5.901,16.880 4.565 C 15.461 3.427,14.201 2.428,14.080 2.347 C 13.959 2.265,13.743 2.158,13.600 2.110 L 13.340 2.021 9.620 2.015 C 7.574 2.011,5.792 2.024,5.660 2.043 M11.008 6.610 C 11.020 9.175,11.021 9.223,11.105 9.400 C 11.207 9.617,11.403 9.811,11.620 9.908 C 11.769 9.975,11.995 9.981,14.890 9.991 L 18.000 10.003 18.000 15.001 L 18.000 20.000 12.000 20.000 L 6.000 20.000 6.000 12.000 L 6.000 4.000 8.498 4.000 L 10.997 4.000 11.008 6.610 M15.520 6.000 C 16.851 7.062,17.957 7.947,17.978 7.965 C 17.999 7.985,16.917 8.000,15.508 8.000 L 13.000 8.000 13.000 5.995 C 13.000 4.397,13.010 3.998,13.050 4.029 C 13.078 4.051,14.189 4.937,15.520 6.000 " stroke="none" fill-rule="evenodd" fill="black"></path></svg>