<svg width="24" height="24" viewBox="0 0 24 24" fill="none" xmlns="http://www.w3.org/2000/svg"><path d="M16.960 6.243 C 15.794 6.391,14.746 6.866,14.037 7.569 C 13.115 8.482,12.740 9.791,13.020 11.122 C 13.186 11.907,13.703 12.653,14.394 13.102 C 14.527 13.189,14.637 13.272,14.638 13.287 C 14.639 13.302,14.346 13.320,13.987 13.327 C 13.339 13.340,13.332 13.341,13.137 13.461 C 13.004 13.543,12.897 13.654,12.810 13.800 C 12.687 14.004,12.680 14.038,12.680 14.403 C 12.680 15.980,13.503 17.326,14.900 18.030 C 16.221 18.696,18.379 18.818,19.895 18.313 C 21.277 17.853,22.249 16.862,22.562 15.593 C 22.679 15.117,22.706 14.398,22.624 13.928 C 22.549 13.500,22.387 13.053,22.171 12.680 C 21.965 12.325,21.342 11.707,20.940 11.458 L 20.620 11.260 21.220 11.236 C 21.550 11.223,21.856 11.197,21.900 11.179 C 22.110 11.093,22.311 10.913,22.420 10.714 C 22.527 10.518,22.536 10.469,22.530 10.127 C 22.499 8.105,20.902 6.525,18.601 6.242 C 18.212 6.194,17.343 6.195,16.960 6.243 M3.013 6.361 C 2.655 6.433,2.358 6.738,2.277 7.116 C 2.252 7.234,2.240 7.716,2.247 8.328 C 2.260 9.326,2.262 9.346,2.362 9.541 C 2.477 9.764,2.728 9.976,2.951 10.038 C 3.037 10.062,3.575 10.080,4.229 10.080 L 5.358 10.080 5.369 13.930 L 5.380 17.780 5.466 17.940 C 5.579 18.149,5.738 18.296,5.960 18.397 C 6.129 18.473,6.218 18.478,7.420 18.479 C 8.680 18.479,8.703 18.478,8.902 18.385 C 9.118 18.285,9.293 18.105,9.396 17.880 C 9.453 17.755,9.461 17.319,9.471 13.910 L 9.482 10.080 10.631 10.078 C 11.461 10.077,11.820 10.062,11.924 10.025 C 12.148 9.945,12.337 9.779,12.464 9.550 L 12.580 9.340 12.580 8.220 C 12.580 7.165,12.575 7.089,12.496 6.920 C 12.396 6.706,12.240 6.543,12.021 6.426 L 11.860 6.340 7.520 6.334 C 5.133 6.330,3.105 6.343,3.013 6.361 M18.352 7.202 C 19.739 7.352,20.770 7.983,21.258 8.980 C 21.443 9.358,21.560 9.792,21.560 10.099 L 21.560 10.281 20.530 10.271 L 19.500 10.260 19.455 10.079 C 19.367 9.720,19.149 9.424,18.828 9.225 C 18.641 9.109,18.133 9.000,17.781 9.000 C 16.820 9.000,16.238 9.358,16.143 10.008 C 16.090 10.375,16.245 10.687,16.601 10.928 C 16.900 11.130,17.206 11.237,18.120 11.458 C 19.792 11.863,20.380 12.133,20.992 12.777 C 21.298 13.099,21.544 13.545,21.646 13.960 C 21.718 14.258,21.707 14.954,21.624 15.300 C 21.406 16.213,20.728 16.944,19.745 17.323 C 19.126 17.562,18.760 17.617,17.760 17.618 C 16.958 17.620,16.814 17.610,16.440 17.526 C 14.747 17.148,13.783 16.134,13.655 14.595 L 13.628 14.279 14.684 14.289 L 15.739 14.300 15.767 14.496 C 15.854 15.103,16.307 15.560,17.003 15.741 C 17.318 15.824,18.052 15.834,18.362 15.760 C 18.915 15.629,19.344 15.299,19.457 14.918 C 19.616 14.381,19.434 13.992,18.892 13.711 C 18.554 13.536,18.322 13.462,17.240 13.184 C 15.944 12.851,15.616 12.729,15.076 12.380 C 14.276 11.862,13.919 11.217,13.917 10.280 C 13.916 9.840,13.973 9.525,14.116 9.167 C 14.397 8.466,15.085 7.834,15.929 7.504 C 16.363 7.333,16.577 7.280,17.060 7.219 C 17.577 7.154,17.874 7.150,18.352 7.202 M11.600 8.220 L 11.600 9.120 10.216 9.120 C 9.014 9.120,8.818 9.128,8.723 9.185 C 8.487 9.324,8.501 9.068,8.489 13.471 L 8.479 17.521 7.409 17.511 L 6.340 17.500 6.320 13.431 L 6.300 9.362 6.189 9.251 L 6.078 9.140 4.649 9.120 L 3.220 9.100 3.209 8.210 L 3.198 7.320 7.399 7.320 L 11.600 7.320 11.600 8.220 M18.271 10.041 C 18.410 10.091,18.492 10.214,18.533 10.431 C 18.562 10.581,18.636 10.585,17.890 10.396 C 17.451 10.284,17.089 10.138,17.135 10.091 C 17.258 9.969,17.982 9.937,18.271 10.041 M17.427 14.239 C 18.073 14.408,18.484 14.554,18.494 14.620 C 18.497 14.642,18.428 14.696,18.340 14.740 C 18.208 14.806,18.100 14.820,17.720 14.820 C 17.309 14.820,17.239 14.809,17.061 14.720 C 16.844 14.611,16.743 14.471,16.707 14.230 C 16.689 14.107,16.697 14.080,16.753 14.080 C 16.790 14.080,17.093 14.152,17.427 14.239 " stroke="none" fill-rule="evenodd" fill="black"></path></svg>