<svg width="24" height="24" viewBox="0 0 24 24" fill="none" xmlns="http://www.w3.org/2000/svg"><path d="M12.680 6.296 C 12.680 6.305,12.843 6.499,13.043 6.726 C 13.898 7.701,14.212 8.403,14.210 9.340 C 14.209 10.324,13.964 10.856,12.682 12.660 C 12.463 12.968,12.198 13.364,12.093 13.540 C 11.612 14.348,11.565 14.964,11.928 15.719 C 12.066 16.007,12.154 16.121,12.515 16.483 C 12.791 16.759,13.150 17.059,13.540 17.337 L 14.140 17.765 16.900 17.745 C 19.630 17.726,20.442 17.690,20.705 17.580 C 20.815 17.534,20.839 17.498,20.877 17.313 C 20.964 16.896,20.998 15.623,20.999 12.775 L 21.000 9.889 20.410 9.332 C 19.130 8.123,18.406 7.619,17.260 7.139 C 16.260 6.720,15.395 6.532,13.676 6.361 C 12.856 6.279,12.680 6.267,12.680 6.296 M11.394 7.510 C 11.297 7.615,11.085 7.880,10.922 8.100 C 10.203 9.076,9.332 9.794,8.229 10.320 C 7.081 10.868,5.951 11.122,4.420 11.179 C 3.125 11.227,3.126 11.226,3.041 12.580 C 2.989 13.397,2.989 15.504,3.040 16.360 C 3.103 17.405,3.151 17.538,3.500 17.638 C 3.777 17.717,5.916 17.762,8.852 17.751 L 11.685 17.740 11.239 17.260 C 10.517 16.482,10.255 16.011,10.159 15.320 C 10.107 14.943,10.133 14.339,10.219 13.915 C 10.313 13.458,10.569 13.030,11.555 11.680 C 12.390 10.537,12.613 10.050,12.616 9.360 C 12.619 8.842,12.485 8.459,12.106 7.900 C 11.934 7.647,11.650 7.320,11.600 7.320 C 11.584 7.320,11.491 7.405,11.394 7.510 " fill="#EA580C" stroke="none" fill-rule="evenodd"></path></svg>