<svg width="24" height="24" viewBox="0 0 24 24" fill="none" xmlns="http://www.w3.org/2000/svg"><path d="M10.820 3.146 C 10.099 3.260,9.145 3.733,8.660 4.219 C 8.348 4.531,7.659 5.564,7.472 6.000 C 7.392 6.187,7.234 6.646,7.120 7.020 C 6.867 7.856,6.643 8.336,6.345 8.680 C 6.222 8.823,6.046 9.082,5.955 9.257 C 5.864 9.431,5.678 9.746,5.542 9.957 C 5.406 10.167,5.237 10.441,5.167 10.565 L 5.040 10.790 4.759 10.817 C 4.352 10.857,4.108 10.941,3.961 11.090 C 3.759 11.296,3.710 11.427,3.689 11.820 C 3.667 12.238,3.732 12.547,3.919 12.918 C 3.986 13.050,4.040 13.190,4.040 13.229 C 4.040 13.269,3.960 13.562,3.863 13.880 C 3.383 15.447,3.079 16.660,2.939 17.560 C 2.903 17.791,2.864 18.314,2.852 18.723 C 2.811 20.105,3.002 20.535,3.717 20.676 C 4.591 20.848,6.401 20.899,7.420 20.781 C 8.035 20.710,8.724 20.568,9.185 20.417 C 9.557 20.296,12.061 19.103,12.520 18.829 C 13.036 18.520,13.663 18.099,14.025 17.817 C 14.437 17.496,14.739 17.165,15.159 16.577 C 15.659 15.876,15.798 15.616,15.857 15.273 L 15.907 14.980 16.074 14.991 C 16.274 15.004,17.107 15.251,17.325 15.363 C 17.468 15.436,17.477 15.450,17.431 15.526 C 17.301 15.741,17.281 15.787,17.281 15.882 C 17.279 16.176,17.638 16.151,17.983 15.833 C 18.186 15.646,18.280 15.493,18.280 15.350 C 18.280 15.237,18.091 15.046,17.842 14.905 L 17.664 14.804 17.767 14.765 C 17.823 14.744,18.030 14.670,18.225 14.601 C 18.917 14.357,19.551 13.951,20.192 13.341 C 20.641 12.914,20.897 12.567,21.032 12.206 C 21.248 11.630,21.176 10.579,20.880 9.976 C 20.572 9.348,19.796 8.961,18.596 8.838 C 17.840 8.760,17.313 8.893,16.119 9.460 C 15.727 9.647,15.379 9.800,15.347 9.800 C 15.315 9.800,15.213 9.655,15.119 9.473 C 14.904 9.061,14.716 8.857,14.314 8.598 C 13.902 8.334,12.874 7.831,12.473 7.698 C 12.301 7.640,12.160 7.575,12.160 7.552 C 12.160 7.529,12.248 7.346,12.356 7.145 C 12.718 6.471,12.853 5.953,12.904 5.051 C 12.936 4.498,12.879 4.232,12.658 3.899 C 12.448 3.583,12.180 3.391,11.732 3.237 C 11.509 3.161,11.031 3.113,10.820 3.146 M11.573 3.862 C 11.890 3.969,12.244 4.173,12.317 4.289 C 12.390 4.408,12.440 5.039,12.398 5.330 C 12.353 5.647,12.126 6.322,11.933 6.711 C 11.847 6.885,11.698 7.101,11.579 7.223 C 11.259 7.550,11.163 7.568,9.900 7.537 C 8.882 7.512,8.564 7.533,7.932 7.663 L 7.805 7.689 7.864 7.437 C 7.995 6.876,8.496 6.138,9.212 5.454 C 10.097 4.608,10.559 4.378,11.320 4.407 L 11.660 4.420 11.779 4.640 C 11.877 4.820,11.899 4.907,11.899 5.120 C 11.899 5.432,11.777 5.718,11.420 6.240 C 11.135 6.657,11.042 6.855,11.041 7.048 C 11.040 7.244,11.094 7.268,11.276 7.147 C 11.646 6.903,12.210 5.437,12.140 4.900 C 12.048 4.185,11.457 3.861,10.609 4.060 C 10.151 4.168,9.799 4.403,9.217 4.988 C 8.593 5.617,8.137 6.242,7.894 6.803 C 7.712 7.222,7.503 7.583,7.487 7.504 C 7.466 7.403,7.636 6.780,7.786 6.406 C 8.140 5.526,8.563 4.923,9.127 4.499 C 10.112 3.757,10.763 3.587,11.573 3.862 M19.233 9.464 C 19.371 9.495,19.586 9.570,19.710 9.630 C 19.989 9.767,20.381 10.149,20.540 10.440 C 20.650 10.642,20.660 10.691,20.657 11.040 C 20.656 11.326,20.633 11.485,20.565 11.680 C 20.371 12.240,19.975 12.773,19.376 13.283 C 18.665 13.887,18.243 14.148,17.660 14.342 C 17.123 14.520,16.070 14.521,15.923 14.344 C 15.896 14.312,15.865 13.867,15.843 13.196 C 15.822 12.593,15.784 11.998,15.758 11.873 C 15.683 11.515,15.725 11.392,16.033 11.085 C 16.681 10.439,17.621 10.018,18.520 9.971 C 18.994 9.947,19.271 9.991,19.598 10.143 C 19.918 10.291,20.129 10.482,20.275 10.757 C 20.415 11.020,20.458 11.049,20.494 10.910 C 20.563 10.648,20.252 10.229,19.839 10.028 C 19.437 9.832,19.036 9.751,18.440 9.745 C 18.098 9.742,17.819 9.760,17.680 9.795 C 17.339 9.880,16.913 10.091,16.498 10.380 C 16.116 10.647,15.834 10.798,15.715 10.799 C 15.634 10.800,15.594 10.662,15.639 10.541 C 15.658 10.492,15.761 10.401,15.867 10.339 C 15.973 10.277,16.159 10.151,16.280 10.059 C 16.619 9.801,16.907 9.654,17.300 9.540 C 17.908 9.364,18.651 9.335,19.233 9.464 M4.529 11.945 L 4.380 12.370 4.368 12.147 C 4.360 12.000,4.378 11.881,4.420 11.800 C 4.481 11.682,4.619 11.520,4.659 11.520 C 4.669 11.520,4.610 11.711,4.529 11.945 M6.039 11.602 C 6.327 11.682,7.075 11.974,7.327 12.104 L 7.450 12.167 7.331 12.239 C 7.266 12.279,7.174 12.360,7.126 12.421 C 7.019 12.557,6.894 12.955,6.858 13.272 C 6.843 13.403,6.818 13.531,6.802 13.556 C 6.739 13.658,5.531 13.449,5.196 13.278 C 5.043 13.200,5.034 13.186,5.057 13.063 C 5.111 12.775,5.647 11.520,5.716 11.520 C 5.730 11.520,5.876 11.557,6.039 11.602 M8.313 12.765 C 8.331 12.946,8.260 13.170,8.155 13.263 C 8.070 13.340,8.069 13.340,8.105 13.240 C 8.124 13.185,8.140 13.001,8.140 12.832 C 8.140 12.532,8.142 12.525,8.220 12.576 C 8.267 12.608,8.305 12.684,8.313 12.765 M7.672 12.880 C 7.659 13.063,7.627 13.160,7.537 13.287 C 7.369 13.525,7.320 13.527,7.320 13.293 C 7.321 13.018,7.386 12.816,7.507 12.722 C 7.668 12.595,7.691 12.617,7.672 12.880 M10.848 13.444 C 11.075 13.469,11.267 13.495,11.275 13.502 C 11.283 13.510,11.236 13.585,11.170 13.668 C 10.909 14.000,10.812 14.345,10.884 14.683 C 10.930 14.897,11.014 14.981,11.225 15.023 C 11.708 15.120,12.280 14.496,12.280 13.873 L 12.280 13.670 12.434 13.694 C 12.728 13.741,13.302 13.923,13.560 14.051 C 13.789 14.165,13.833 14.206,13.930 14.397 C 14.120 14.772,14.057 15.035,13.728 15.244 C 13.202 15.578,12.141 15.672,11.302 15.459 C 10.708 15.309,10.127 14.906,9.928 14.507 C 9.771 14.194,9.825 13.641,10.027 13.482 C 10.147 13.387,10.266 13.382,10.848 13.444 M11.743 13.858 C 11.793 14.058,11.646 14.315,11.410 14.436 C 11.334 14.476,11.320 14.472,11.320 14.416 C 11.320 14.275,11.416 14.039,11.529 13.902 C 11.667 13.734,11.710 13.726,11.743 13.858 M4.305 18.859 C 4.635 18.937,4.975 19.091,5.107 19.224 L 5.216 19.332 5.118 19.370 C 4.948 19.436,4.379 19.375,4.140 19.265 C 3.931 19.169,3.800 19.014,3.800 18.862 C 3.800 18.782,3.976 18.781,4.305 18.859 " fill="#FAFAFA" stroke="none" fill-rule="evenodd"></path></svg>