<svg width="24" height="24" viewBox="0 0 24 24" fill="none" xmlns="http://www.w3.org/2000/svg"><path d="M11.345 3.041 C 11.026 3.137,11.037 3.120,8.352 7.412 C 6.929 9.685,5.694 11.688,5.607 11.862 C 5.409 12.260,5.228 12.799,5.113 13.330 C 4.985 13.925,4.985 15.076,5.114 15.680 C 5.392 16.982,6.005 18.121,6.920 19.039 C 7.802 19.923,8.810 20.496,10.020 20.801 C 12.166 21.342,14.447 20.732,16.069 19.184 C 16.907 18.384,17.452 17.534,17.801 16.484 C 18.079 15.646,18.178 14.887,18.117 14.069 C 18.054 13.216,17.852 12.509,17.426 11.650 C 17.099 10.990,12.377 3.437,12.164 3.233 C 11.945 3.025,11.640 2.953,11.345 3.041 M13.783 8.920 C 14.945 10.779,15.955 12.417,16.028 12.560 C 16.768 14.019,16.581 15.894,15.557 17.283 C 14.130 19.219,11.602 19.856,9.460 18.820 C 8.197 18.209,7.181 16.974,6.839 15.636 C 6.574 14.598,6.677 13.530,7.131 12.592 C 7.224 12.400,8.263 10.714,9.440 8.844 C 11.059 6.273,11.591 5.456,11.625 5.492 C 11.650 5.519,12.621 7.061,13.783 8.920 " fill="#A855F7" stroke="none" fill-rule="evenodd"></path></svg>