<svg width="24" height="24" viewBox="0 0 24 24" fill="none" xmlns="http://www.w3.org/2000/svg"><path d="M4.510 4.370 C 2.777 6.365,1.921 9.207,2.013 12.660 C 2.026 13.166,2.057 13.751,2.081 13.960 C 2.355 16.362,3.091 18.198,4.374 19.690 L 4.572 19.920 11.747 19.920 L 18.922 19.920 19.170 19.795 C 19.549 19.604,20.021 19.301,20.398 19.008 C 20.797 18.698,21.537 17.967,21.811 17.611 L 22.003 17.363 20.852 16.442 C 20.218 15.935,19.688 15.520,19.673 15.520 C 19.657 15.520,19.243 15.900,18.752 16.364 C 17.547 17.504,17.121 17.788,16.118 18.124 C 14.651 18.614,12.979 18.687,11.640 18.319 C 10.508 18.008,9.414 17.355,8.928 16.701 C 8.338 15.908,7.819 14.144,7.690 12.491 L 7.657 12.081 14.123 12.107 L 20.588 12.133 20.476 11.257 C 20.070 8.083,19.444 5.563,18.780 4.430 L 18.598 4.120 11.662 4.120 L 4.727 4.120 4.510 4.370 M11.920 4.778 C 13.099 4.938,13.963 5.410,14.394 6.133 C 14.700 6.645,14.816 7.096,14.865 7.958 L 14.892 8.440 11.262 8.440 L 7.632 8.440 7.660 8.110 C 7.751 7.038,7.971 6.430,8.463 5.886 C 9.305 4.958,10.475 4.583,11.920 4.778 " fill="#F87171" stroke="none" fill-rule="evenodd"></path></svg>