<svg width="24" height="24" viewBox="0 0 24 24" fill="none" xmlns="http://www.w3.org/2000/svg"><path d="M6.951 3.039 C 6.783 3.090,6.588 3.223,6.495 3.348 C 6.374 3.512,2.035 11.394,1.974 11.560 C 1.910 11.738,1.910 11.941,1.974 12.122 C 2.002 12.201,3.011 14.046,4.216 16.222 C 5.788 19.063,6.449 20.221,6.558 20.327 C 6.642 20.407,6.780 20.493,6.865 20.516 C 6.971 20.546,8.426 20.560,11.503 20.560 C 16.422 20.560,16.221 20.570,16.457 20.323 C 16.600 20.174,20.988 12.274,21.044 12.063 C 21.102 11.850,21.066 11.608,20.938 11.355 C 20.723 10.932,16.584 3.455,16.504 3.346 C 16.458 3.283,16.339 3.184,16.240 3.126 L 16.060 3.020 11.560 3.013 C 9.085 3.009,7.011 3.021,6.951 3.039 M14.410 6.545 C 15.934 7.460,17.221 8.253,17.270 8.307 L 17.360 8.404 17.360 11.858 C 17.360 15.090,17.356 15.316,17.290 15.391 C 17.252 15.435,15.955 16.231,14.409 17.160 C 11.980 18.618,11.580 18.846,11.469 18.833 C 11.328 18.815,5.830 15.530,5.710 15.392 C 5.644 15.316,5.640 15.089,5.640 11.858 L 5.640 8.404 5.730 8.307 C 5.801 8.230,10.906 5.132,11.347 4.898 C 11.409 4.865,11.501 4.848,11.550 4.860 C 11.600 4.872,12.887 5.630,14.410 6.545 M9.560 8.281 C 8.537 8.896,7.669 9.438,7.630 9.484 C 7.565 9.563,7.560 9.737,7.560 11.860 C 7.560 13.984,7.565 14.157,7.630 14.233 C 7.669 14.278,8.528 14.813,9.540 15.422 C 10.860 16.217,11.414 16.530,11.500 16.530 C 11.673 16.530,15.352 14.308,15.403 14.171 C 15.424 14.117,15.440 13.094,15.440 11.820 L 15.440 9.564 15.350 9.467 C 15.229 9.336,11.593 7.160,11.496 7.161 C 11.454 7.161,10.583 7.665,9.560 8.281 " fill="#A5B4FC" stroke="none" fill-rule="evenodd"></path></svg>