<svg width="24" height="24" viewBox="0 0 24 24" fill="none" xmlns="http://www.w3.org/2000/svg"><path d="M3.718 2.042 C 3.199 2.119,2.729 2.397,2.419 2.810 C 2.207 3.092,2.089 3.395,2.037 3.796 C 2.011 3.993,2.001 6.967,2.008 12.220 L 2.020 20.340 2.109 20.600 C 2.326 21.237,2.787 21.692,3.420 21.892 L 3.700 21.980 12.000 21.980 C 19.940 21.980,20.310 21.977,20.540 21.907 C 21.209 21.702,21.702 21.209,21.907 20.540 C 21.977 20.310,21.980 19.940,21.980 12.000 C 21.980 4.060,21.977 3.690,21.907 3.460 C 21.707 2.808,21.242 2.327,20.600 2.109 L 20.340 2.020 12.140 2.015 C 7.630 2.011,3.840 2.024,3.718 2.042 M20.000 13.000 L 20.000 20.000 12.000 20.000 L 4.000 20.000 4.000 13.000 L 4.000 6.000 12.000 6.000 L 20.000 6.000 20.000 13.000 M9.802 8.183 C 9.489 8.351,9.115 8.603,8.882 8.802 L 8.785 8.885 8.859 9.153 C 8.987 9.616,9.038 9.893,9.039 10.122 C 9.041 10.611,8.803 11.169,8.443 11.519 C 8.169 11.786,7.942 11.904,7.440 12.039 L 7.060 12.141 7.027 12.381 C 6.992 12.636,7.015 13.738,7.058 13.843 C 7.074 13.882,7.198 13.933,7.384 13.977 C 8.062 14.137,8.520 14.488,8.810 15.071 C 8.966 15.385,8.975 15.424,8.990 15.831 C 9.004 16.215,8.993 16.304,8.886 16.680 L 8.766 17.099 8.893 17.210 C 9.090 17.381,9.634 17.738,9.904 17.873 L 10.148 17.995 10.524 17.605 C 10.957 17.156,11.237 16.992,11.710 16.912 C 12.090 16.849,12.437 16.907,12.825 17.099 C 13.059 17.214,13.184 17.316,13.473 17.624 L 13.832 18.005 14.086 17.878 C 14.368 17.737,14.916 17.378,15.097 17.216 L 15.214 17.111 15.141 16.846 C 14.945 16.138,14.918 15.818,15.020 15.428 C 15.161 14.886,15.527 14.401,15.963 14.177 C 16.083 14.115,16.351 14.019,16.560 13.962 L 16.940 13.859 16.973 13.619 C 17.008 13.360,16.984 12.262,16.941 12.154 C 16.926 12.118,16.848 12.076,16.767 12.061 C 16.492 12.010,16.031 11.838,15.864 11.722 C 15.576 11.525,15.362 11.272,15.191 10.929 C 15.034 10.614,15.025 10.577,15.010 10.169 C 14.996 9.785,15.007 9.696,15.114 9.320 L 15.234 8.901 15.107 8.791 C 14.903 8.616,14.360 8.259,14.096 8.127 L 13.852 8.005 13.476 8.393 C 13.074 8.807,12.842 8.959,12.459 9.059 C 12.012 9.175,11.592 9.121,11.148 8.889 C 10.943 8.783,10.787 8.654,10.524 8.374 C 10.331 8.168,10.166 8.000,10.157 8.001 C 10.148 8.001,9.988 8.083,9.802 8.183 M12.456 11.625 C 12.732 11.719,13.080 12.056,13.223 12.369 C 13.324 12.590,13.338 12.666,13.338 13.000 C 13.338 13.496,13.219 13.780,12.876 14.097 C 12.351 14.583,11.649 14.583,11.124 14.097 C 10.781 13.780,10.662 13.496,10.662 13.000 C 10.662 12.666,10.676 12.590,10.777 12.369 C 10.914 12.069,11.269 11.719,11.528 11.627 C 11.759 11.545,12.219 11.544,12.456 11.625 " fill="#64748B" stroke="none" fill-rule="evenodd"></path></svg>