<svg width="24" height="24" viewBox="0 0 24 24" fill="none" xmlns="http://www.w3.org/2000/svg"><path d="M5.027 5.606 C 4.802 5.804,4.889 6.168,5.174 6.221 C 5.416 6.267,5.597 6.119,5.599 5.874 C 5.600 5.677,5.497 5.560,5.297 5.533 C 5.164 5.515,5.115 5.529,5.027 5.606 M6.032 5.642 C 5.927 5.747,5.913 5.784,5.934 5.912 C 5.983 6.224,6.306 6.340,6.523 6.123 C 6.765 5.881,6.608 5.520,6.260 5.520 C 6.195 5.520,6.106 5.568,6.032 5.642 M7.077 5.637 C 6.997 5.717,6.960 5.794,6.960 5.880 C 6.960 6.052,7.148 6.240,7.320 6.240 C 7.492 6.240,7.680 6.052,7.680 5.880 C 7.680 5.794,7.643 5.717,7.563 5.637 C 7.483 5.557,7.406 5.520,7.320 5.520 C 7.234 5.520,7.157 5.557,7.077 5.637 M19.461 9.164 C 18.252 11.142,17.248 12.760,17.231 12.760 C 17.199 12.760,15.400 11.689,15.265 11.589 C 15.095 11.464,15.353 11.175,15.777 11.015 C 16.449 10.761,16.966 10.426,17.220 10.080 C 17.299 9.972,17.476 9.662,17.612 9.392 L 17.860 8.900 17.872 7.790 L 17.884 6.680 10.942 6.680 L 4.000 6.680 4.000 8.600 L 4.000 10.520 7.644 10.520 C 11.074 10.520,11.287 10.524,11.262 10.589 C 11.248 10.627,11.248 10.645,11.263 10.631 C 11.277 10.616,11.316 10.630,11.349 10.663 C 11.401 10.715,11.400 10.741,11.344 10.882 C 11.254 11.106,11.260 11.120,11.439 11.120 C 11.624 11.120,11.680 11.192,11.680 11.431 C 11.680 11.619,11.596 11.708,11.401 11.727 C 11.269 11.739,11.256 11.754,11.156 12.016 C 11.069 12.241,11.054 12.336,11.070 12.537 C 11.093 12.830,11.053 12.880,10.770 12.909 C 10.665 12.920,10.562 12.949,10.540 12.974 C 10.494 13.027,10.391 13.035,10.357 12.989 C 10.344 12.971,10.312 13.030,10.285 13.120 C 10.258 13.209,10.221 13.273,10.202 13.261 C 10.183 13.249,10.176 13.280,10.187 13.330 C 10.201 13.394,10.196 13.405,10.169 13.367 C 10.140 13.325,10.126 13.333,10.108 13.402 C 10.093 13.460,10.064 13.482,10.024 13.467 C 9.986 13.453,9.955 13.474,9.938 13.525 C 9.924 13.570,9.902 13.595,9.889 13.582 C 9.876 13.569,9.842 13.615,9.813 13.683 C 9.784 13.751,9.739 13.800,9.713 13.791 C 9.653 13.771,9.537 13.884,9.501 13.996 C 9.487 14.042,9.456 14.080,9.433 14.080 C 9.410 14.080,9.402 14.048,9.416 14.010 C 9.436 13.952,9.430 13.953,9.380 14.018 C 9.347 14.060,9.320 14.111,9.320 14.130 C 9.320 14.148,9.271 14.209,9.211 14.265 C 9.151 14.321,9.079 14.414,9.052 14.473 L 9.003 14.580 9.026 14.470 C 9.059 14.312,8.985 14.334,8.925 14.500 C 8.878 14.632,8.760 14.697,8.760 14.592 C 8.760 14.555,8.749 14.555,8.712 14.592 C 8.676 14.628,8.092 14.640,6.332 14.640 L 4.000 14.640 4.000 16.202 C 4.000 17.271,4.015 17.824,4.047 17.952 C 4.108 18.192,4.433 18.532,4.664 18.596 C 4.893 18.660,16.993 18.657,17.206 18.594 C 17.406 18.533,17.659 18.315,17.771 18.106 C 17.858 17.944,17.861 17.898,17.880 16.280 L 17.900 14.620 18.030 14.409 C 18.102 14.294,18.160 14.189,18.160 14.177 C 18.160 14.164,18.280 13.946,18.426 13.692 L 18.691 13.229 18.656 12.865 C 18.536 11.622,18.685 11.173,19.609 9.990 C 20.404 8.973,20.544 8.786,20.798 8.408 C 21.127 7.917,21.376 7.423,21.519 6.977 C 21.665 6.522,21.739 6.003,21.694 5.754 L 21.660 5.567 19.461 9.164 M10.991 8.222 C 11.110 8.305,11.115 8.565,11.000 8.680 C 10.922 8.758,10.867 8.760,8.589 8.760 C 5.947 8.760,6.080 8.776,6.080 8.460 C 6.080 8.144,5.948 8.160,8.580 8.160 C 10.617 8.160,10.913 8.168,10.991 8.222 M12.920 8.240 C 12.970 8.290,13.000 8.373,13.000 8.460 C 13.000 8.547,12.970 8.630,12.920 8.680 C 12.849 8.751,12.787 8.760,12.349 8.760 C 11.752 8.760,11.680 8.728,11.680 8.460 C 11.680 8.192,11.752 8.160,12.349 8.160 C 12.787 8.160,12.849 8.169,12.920 8.240 M8.637 9.417 C 8.739 9.510,8.748 9.743,8.654 9.847 C 8.592 9.915,8.500 9.920,7.397 9.920 C 6.067 9.920,6.079 9.923,6.081 9.647 C 6.082 9.376,6.059 9.382,7.088 9.357 C 8.419 9.323,8.538 9.328,8.637 9.417 M10.724 9.434 C 10.816 9.549,10.822 9.711,10.738 9.831 C 10.678 9.916,10.651 9.920,10.061 9.920 C 9.367 9.920,9.320 9.903,9.321 9.647 C 9.322 9.358,9.418 9.319,10.114 9.331 C 10.621 9.340,10.651 9.345,10.724 9.434 M14.845 9.425 C 14.939 9.510,14.944 9.747,14.854 9.847 C 14.792 9.915,14.685 9.920,13.136 9.920 L 11.485 9.920 11.422 9.831 C 11.299 9.656,11.381 9.388,11.570 9.345 C 11.620 9.334,12.360 9.332,13.215 9.341 C 14.607 9.355,14.778 9.364,14.845 9.425 M16.090 12.426 C 16.646 12.770,17.174 13.096,17.265 13.152 L 17.429 13.253 17.268 13.522 L 17.106 13.790 16.803 13.611 C 15.822 13.032,14.720 12.348,14.720 12.319 C 14.720 12.260,15.008 11.800,15.045 11.800 C 15.064 11.800,15.535 12.081,16.090 12.426 M15.791 13.318 L 16.841 13.967 16.711 14.208 C 16.639 14.340,16.558 14.457,16.532 14.468 C 16.506 14.478,15.969 14.178,15.340 13.800 C 14.533 13.315,14.207 13.099,14.232 13.067 C 14.252 13.041,14.335 12.915,14.416 12.787 C 14.557 12.563,14.567 12.556,14.652 12.611 C 14.700 12.643,15.213 12.961,15.791 13.318 M14.360 13.400 C 14.436 13.454,14.478 13.465,14.489 13.434 C 14.498 13.405,14.616 13.452,14.802 13.561 C 15.214 13.801,17.373 15.121,17.409 15.154 C 17.454 15.197,17.256 15.589,17.164 15.638 C 17.119 15.662,17.012 15.785,16.926 15.911 C 16.736 16.190,16.434 16.530,16.275 16.644 C 16.170 16.719,16.181 16.691,16.379 16.384 C 16.501 16.195,16.582 16.040,16.561 16.040 C 16.539 16.040,16.345 16.217,16.130 16.433 C 15.733 16.833,15.748 16.823,14.951 17.207 C 14.858 17.251,14.830 17.249,14.861 17.198 C 14.875 17.175,14.565 17.370,14.171 17.632 C 13.458 18.105,13.340 18.158,13.010 18.160 C 12.938 18.160,12.880 18.145,12.880 18.126 C 12.880 18.107,12.689 18.080,12.455 18.066 C 11.665 18.018,10.702 17.747,8.980 17.088 C 7.185 16.402,6.608 16.267,6.149 16.423 C 5.926 16.499,5.704 16.729,5.636 16.956 C 5.596 17.093,5.599 17.145,5.657 17.298 C 5.695 17.398,5.773 17.516,5.829 17.560 C 5.886 17.605,5.923 17.650,5.912 17.662 C 5.867 17.706,5.610 17.364,5.584 17.227 C 5.523 16.903,5.722 16.564,6.072 16.394 C 6.362 16.253,6.786 16.272,7.560 16.460 C 8.730 16.744,8.800 16.757,8.800 16.696 C 8.800 16.623,8.856 16.625,9.660 16.727 C 10.183 16.794,10.561 16.815,11.300 16.817 C 12.323 16.819,12.485 16.794,12.770 16.593 C 12.878 16.516,12.880 16.506,12.880 16.102 C 12.880 15.390,13.139 14.615,13.570 14.040 C 13.784 13.754,14.170 13.323,14.214 13.321 C 14.232 13.321,14.298 13.356,14.360 13.400 M13.304 15.592 C 13.124 15.948,12.982 16.562,13.026 16.797 C 13.050 16.927,13.059 16.908,13.125 16.587 C 13.165 16.393,13.243 16.150,13.297 16.047 C 13.352 15.944,13.423 15.757,13.455 15.630 C 13.504 15.435,13.504 15.400,13.457 15.400 C 13.426 15.400,13.358 15.486,13.304 15.592 " fill="#292929" stroke="none" fill-rule="evenodd"></path></svg>