<svg width="24" height="24" viewBox="0 0 24 24" fill="none" xmlns="http://www.w3.org/2000/svg"><path d="M6.420 5.057 C 6.354 5.086,6.252 5.162,6.194 5.225 C 6.117 5.308,5.584 6.660,4.280 10.080 C 3.285 12.687,2.381 15.045,2.270 15.320 C 1.888 16.269,1.572 16.824,1.228 17.149 C 0.979 17.384,0.860 17.451,0.547 17.533 C 0.261 17.608,0.140 17.685,0.057 17.847 C -0.074 18.099,0.069 18.400,0.357 18.480 C 0.548 18.533,4.012 18.533,4.203 18.480 C 4.491 18.400,4.634 18.099,4.503 17.847 C 4.415 17.675,4.306 17.614,4.000 17.561 C 3.578 17.488,3.374 17.407,3.244 17.258 C 2.992 16.972,2.993 16.601,3.246 15.860 C 3.454 15.253,3.591 15.053,3.907 14.896 C 4.049 14.826,4.184 14.819,5.720 14.808 C 6.947 14.799,7.427 14.809,7.559 14.846 C 7.680 14.879,7.803 14.960,7.943 15.098 C 8.129 15.280,8.173 15.361,8.397 15.931 C 8.584 16.408,8.650 16.628,8.665 16.831 C 8.703 17.331,8.528 17.492,7.864 17.568 C 7.401 17.620,7.263 17.693,7.195 17.919 C 7.154 18.058,7.156 18.104,7.212 18.219 C 7.353 18.515,7.191 18.499,10.138 18.512 C 11.591 18.519,12.860 18.513,12.958 18.499 C 13.214 18.461,13.400 18.268,13.400 18.040 C 13.400 17.785,13.228 17.633,12.843 17.546 C 12.480 17.464,12.260 17.340,12.044 17.096 C 11.752 16.764,11.737 16.727,9.294 10.480 C 8.205 7.697,7.284 5.367,7.247 5.303 C 7.105 5.059,6.692 4.935,6.420 5.057 M17.556 10.257 C 16.371 10.408,15.563 10.794,15.073 11.444 C 14.848 11.742,14.757 11.971,14.731 12.303 C 14.697 12.748,14.808 12.988,15.139 13.181 C 15.470 13.375,16.108 13.388,16.419 13.206 C 16.603 13.099,16.750 12.819,16.865 12.359 C 17.120 11.342,17.449 11.072,18.435 11.075 C 19.440 11.078,19.890 11.466,19.949 12.382 C 19.967 12.653,19.958 12.728,19.889 12.862 C 19.740 13.152,19.665 13.192,18.747 13.463 C 17.691 13.775,17.112 13.984,16.540 14.260 C 15.476 14.773,14.872 15.343,14.591 16.103 C 14.519 16.297,14.503 16.427,14.502 16.820 C 14.500 17.261,14.509 17.319,14.609 17.533 C 14.765 17.865,14.925 18.050,15.233 18.256 C 15.752 18.601,16.481 18.757,17.216 18.680 C 17.896 18.610,18.167 18.531,18.887 18.193 C 19.346 17.978,19.419 17.955,19.658 17.955 C 20.019 17.955,20.311 18.047,20.760 18.301 C 21.222 18.563,21.387 18.623,21.793 18.679 C 22.329 18.752,23.051 18.625,23.440 18.388 C 23.517 18.341,23.674 18.214,23.790 18.106 L 24.000 17.908 24.000 17.194 C 24.000 16.628,23.989 16.480,23.947 16.480 C 23.868 16.480,23.740 16.636,23.651 16.840 C 23.487 17.216,23.230 17.397,22.939 17.342 C 22.754 17.308,22.572 17.146,22.516 16.967 C 22.485 16.868,22.461 16.075,22.443 14.520 C 22.416 12.300,22.412 12.211,22.328 11.960 C 22.081 11.223,21.568 10.714,20.820 10.461 C 20.316 10.290,19.885 10.235,18.920 10.219 C 18.279 10.209,17.845 10.221,17.556 10.257 M6.084 11.047 C 6.311 11.125,6.519 11.285,6.620 11.457 C 6.672 11.547,6.800 11.836,6.904 12.100 C 7.195 12.838,7.167 13.199,6.789 13.566 C 6.551 13.797,6.334 13.851,5.708 13.833 C 5.265 13.820,5.154 13.804,5.020 13.732 C 4.689 13.556,4.482 13.217,4.481 12.848 C 4.480 12.558,4.842 11.579,5.033 11.356 C 5.295 11.049,5.725 10.923,6.084 11.047 M19.505 14.623 C 19.623 14.696,19.745 14.818,19.819 14.938 C 19.936 15.127,19.940 15.152,19.954 15.688 C 19.967 16.224,19.964 16.251,19.860 16.464 C 19.614 16.967,18.601 17.435,17.965 17.340 C 17.188 17.224,16.866 16.525,17.231 15.746 C 17.432 15.318,17.787 14.989,18.360 14.703 C 18.796 14.485,18.833 14.473,19.066 14.488 C 19.251 14.499,19.359 14.533,19.505 14.623 " fill="#64748B" stroke="none" fill-rule="evenodd"></path></svg>