<svg width="24" height="24" viewBox="0 0 24 24" fill="none" xmlns="http://www.w3.org/2000/svg"><path d="M6.560 4.042 C 5.866 4.105,5.144 4.514,4.663 5.116 C 4.393 5.453,4.276 5.662,4.134 6.060 L 4.020 6.380 4.020 11.980 L 4.020 17.580 4.115 17.860 C 4.265 18.303,4.391 18.544,4.638 18.854 C 5.030 19.348,5.499 19.670,6.140 19.886 L 6.420 19.980 11.920 19.991 L 17.420 20.002 17.777 19.899 C 18.871 19.586,19.641 18.797,19.919 17.704 C 19.998 17.394,20.000 17.270,20.000 11.983 L 20.000 6.579 19.906 6.240 C 19.781 5.786,19.640 5.499,19.375 5.161 C 19.096 4.804,18.747 4.519,18.340 4.317 C 17.701 3.999,18.211 4.024,12.240 4.017 C 9.303 4.013,6.747 4.025,6.560 4.042 M17.840 8.324 L 17.840 10.928 17.182 10.914 C 16.752 10.905,16.508 10.884,16.477 10.853 C 16.452 10.828,16.406 10.549,16.375 10.233 C 16.290 9.352,16.143 8.632,15.979 8.294 C 15.738 7.800,15.300 7.437,14.777 7.301 C 14.501 7.229,13.489 7.173,11.890 7.142 L 10.760 7.120 10.760 9.066 L 10.760 11.011 11.210 10.983 C 12.537 10.899,12.837 10.632,13.018 9.372 C 13.052 9.134,13.090 8.900,13.101 8.850 C 13.121 8.761,13.129 8.760,13.801 8.760 L 14.480 8.760 14.470 11.870 L 14.460 14.980 13.774 14.991 L 13.089 15.002 13.060 14.631 C 13.001 13.852,12.829 13.170,12.623 12.901 C 12.564 12.823,12.413 12.713,12.270 12.644 C 12.026 12.525,11.865 12.494,11.044 12.405 L 10.748 12.373 10.773 14.296 C 10.787 15.354,10.816 16.290,10.837 16.376 C 10.885 16.575,11.025 16.715,11.224 16.764 C 11.310 16.785,11.689 16.813,12.067 16.827 C 12.445 16.841,12.778 16.867,12.807 16.884 C 12.847 16.909,12.863 17.089,12.873 17.598 L 12.885 18.280 9.519 18.280 L 6.152 18.280 6.166 17.603 C 6.174 17.231,6.190 16.916,6.203 16.904 C 6.215 16.892,6.529 16.862,6.901 16.839 C 7.647 16.792,7.857 16.733,7.987 16.536 C 8.055 16.431,8.062 16.234,8.092 13.382 C 8.124 10.391,8.105 8.106,8.044 7.688 C 7.988 7.300,7.735 7.160,7.085 7.160 C 6.939 7.160,6.671 7.148,6.490 7.134 L 6.160 7.108 6.160 6.414 L 6.160 5.720 12.000 5.720 L 17.840 5.720 17.840 8.324 " fill="#A855F7" stroke="none" fill-rule="evenodd"></path></svg>