<svg width="24" height="24" viewBox="0 0 24 24" fill="none" xmlns="http://www.w3.org/2000/svg"><path d="M19.424 5.125 C 19.818 5.575,19.896 6.225,19.641 6.924 C 19.380 7.638,18.995 8.164,17.961 9.214 C 17.122 10.067,16.589 10.509,15.300 11.419 C 13.604 12.618,11.490 13.838,10.280 14.318 C 8.979 14.834,8.352 15.343,7.981 16.181 C 7.926 16.307,7.880 16.444,7.880 16.486 C 7.880 16.527,7.864 16.592,7.845 16.631 C 7.764 16.791,7.676 17.128,7.603 17.559 C 7.560 17.812,7.529 18.021,7.533 18.025 C 7.537 18.028,7.747 18.113,8.000 18.213 C 9.343 18.745,10.709 19.000,12.221 19.000 C 13.265 19.000,14.210 18.875,14.992 18.633 L 15.244 18.555 15.390 18.684 C 15.718 18.971,16.253 19.117,16.689 19.038 C 17.499 18.891,17.920 18.279,17.763 17.477 L 17.714 17.231 18.247 16.705 C 19.123 15.840,19.716 15.045,20.161 14.136 C 21.023 12.378,21.218 10.387,20.743 8.191 C 20.576 7.420,20.284 6.474,19.987 5.744 C 19.893 5.514,19.599 5.165,19.420 5.071 C 19.343 5.031,19.343 5.032,19.424 5.125 M14.420 5.418 C 13.319 5.702,12.221 6.130,10.820 6.821 C 9.768 7.340,8.816 7.889,8.555 8.125 C 8.375 8.289,8.355 8.425,8.480 8.631 C 8.524 8.703,8.560 8.767,8.560 8.773 C 8.560 8.779,8.439 8.784,8.290 8.784 C 7.779 8.786,7.579 8.909,6.763 9.720 C 5.513 10.962,4.754 12.194,4.691 13.083 C 4.665 13.450,4.717 13.632,4.909 13.845 C 5.167 14.130,5.648 14.188,6.540 14.041 C 7.422 13.895,8.759 13.515,8.906 13.368 C 9.048 13.226,9.373 12.445,9.425 12.120 C 9.439 12.032,9.472 11.960,9.498 11.960 C 9.556 11.960,9.688 12.102,9.934 12.427 C 10.037 12.563,10.156 12.686,10.198 12.699 C 10.341 12.745,11.959 11.812,13.320 10.900 C 14.955 9.805,15.889 9.075,16.723 8.242 C 17.587 7.378,17.904 6.852,17.872 6.331 C 17.859 6.128,17.835 6.056,17.735 5.931 C 17.489 5.627,17.009 5.400,16.608 5.400 C 16.388 5.400,15.714 5.494,15.589 5.542 C 15.549 5.557,15.518 5.537,15.502 5.487 C 15.470 5.386,15.248 5.279,15.074 5.282 C 15.000 5.283,14.706 5.344,14.420 5.418 M11.442 8.121 C 11.593 8.161,12.111 8.236,12.256 8.239 C 12.313 8.240,12.293 8.270,12.176 8.361 C 12.090 8.428,11.978 8.532,11.927 8.591 C 11.826 8.709,11.560 9.227,11.560 9.307 C 11.560 9.395,11.497 9.397,11.237 9.315 C 10.736 9.156,10.007 9.219,9.503 9.465 L 9.300 9.563 9.460 9.434 C 9.822 9.141,10.037 8.884,10.188 8.563 C 10.335 8.250,10.344 8.240,10.480 8.240 C 10.643 8.240,10.848 8.126,10.940 7.985 L 11.005 7.886 11.148 7.983 C 11.227 8.036,11.359 8.098,11.442 8.121 " fill="#FACC15" stroke="none" fill-rule="evenodd"></path></svg>