<svg width="24" height="24" viewBox="0 0 24 24" fill="none" xmlns="http://www.w3.org/2000/svg"><path d="M4.780 5.046 C 4.670 5.067,4.433 5.155,4.253 5.242 C 3.256 5.722,2.758 6.908,3.128 7.920 C 3.190 8.088,4.560 10.352,7.014 14.340 C 9.100 17.728,10.856 20.563,10.917 20.640 C 11.095 20.863,11.365 20.980,11.699 20.978 C 12.020 20.977,12.230 20.889,12.434 20.672 C 12.614 20.480,20.278 8.263,20.389 7.990 C 20.441 7.864,20.503 7.621,20.528 7.450 C 20.669 6.469,20.006 5.450,19.003 5.109 L 18.740 5.020 11.860 5.014 C 7.665 5.011,4.902 5.023,4.780 5.046 M10.720 11.787 C 10.720 14.375,10.713 16.486,10.705 16.477 C 10.675 16.441,5.339 8.209,5.213 8.002 C 4.985 7.629,5.051 7.279,5.377 7.137 C 5.476 7.094,6.016 7.083,8.110 7.082 L 10.720 7.080 10.720 11.787 M18.180 7.138 C 18.338 7.204,18.480 7.408,18.480 7.571 C 18.480 7.632,18.453 7.746,18.421 7.824 C 18.362 7.964,12.959 16.327,12.855 16.439 C 12.808 16.488,12.800 15.772,12.800 11.789 L 12.800 7.080 15.421 7.080 C 17.612 7.080,18.065 7.089,18.180 7.138 " fill="#2563EB" stroke="none" fill-rule="evenodd"></path></svg>