<svg width="24" height="24" viewBox="0 0 24 24" fill="none" xmlns="http://www.w3.org/2000/svg"><path d="M11.140 3.042 C 7.861 3.379,4.988 5.489,3.719 8.493 C 2.588 11.172,2.808 14.207,4.311 16.657 C 5.296 18.262,6.800 19.566,8.493 20.281 C 12.613 22.021,17.336 20.492,19.689 16.657 C 21.681 13.411,21.371 9.204,18.923 6.274 C 17.491 4.559,15.508 3.437,13.320 3.102 C 12.809 3.024,11.632 2.991,11.140 3.042 M13.180 4.777 C 14.745 5.042,16.162 5.780,17.255 6.900 C 17.508 7.159,18.040 7.801,18.040 7.848 C 18.040 7.880,16.755 9.000,16.718 9.000 C 16.704 9.000,16.633 8.915,16.558 8.810 C 16.483 8.705,16.305 8.494,16.161 8.340 C 15.227 7.338,14.107 6.733,12.820 6.534 C 12.342 6.460,11.289 6.483,10.880 6.576 C 9.148 6.969,7.760 8.045,7.018 9.568 C 6.920 9.769,6.840 9.954,6.840 9.977 C 6.840 10.001,8.450 11.630,10.417 13.597 L 13.995 17.174 14.261 17.061 C 15.330 16.607,16.406 15.579,16.957 14.487 C 17.064 14.273,17.320 13.633,17.320 13.577 C 17.320 13.568,16.645 13.560,15.820 13.560 L 14.320 13.560 14.320 12.660 L 14.320 11.760 16.826 11.760 L 19.332 11.760 19.307 12.290 C 19.219 14.123,18.521 15.748,17.245 17.089 C 16.343 18.037,15.054 18.815,13.870 19.127 L 13.519 19.219 9.180 14.880 L 4.840 10.540 4.937 10.180 C 5.734 7.214,8.212 5.061,11.220 4.721 C 11.657 4.672,12.742 4.703,13.180 4.777 M12.428 19.266 C 12.378 19.316,10.918 19.204,10.509 19.119 C 8.154 18.629,6.162 16.988,5.222 14.761 C 4.875 13.938,4.726 13.206,4.694 12.160 L 4.672 11.460 8.564 15.348 C 10.705 17.487,12.444 19.250,12.428 19.266 " fill="#A855F7" stroke="none" fill-rule="evenodd"></path></svg>