<svg width="24" height="24" viewBox="0 0 24 24" fill="none" xmlns="http://www.w3.org/2000/svg"><path d="M7.957 2.539 C 7.491 2.752,6.889 3.094,6.460 3.392 C 5.979 3.725,5.561 4.076,5.580 4.131 C 5.702 4.497,6.008 5.651,6.044 5.880 C 6.223 7.042,5.744 8.395,4.877 9.176 C 4.324 9.674,3.816 9.918,2.818 10.165 L 2.128 10.336 2.105 10.478 C 1.984 11.244,1.978 12.676,2.091 13.418 L 2.140 13.736 2.831 13.907 C 3.874 14.166,4.410 14.447,4.964 15.029 C 5.319 15.402,5.532 15.715,5.709 16.123 C 5.940 16.658,6.010 16.996,6.014 17.600 C 6.018 18.201,5.994 18.340,5.736 19.199 C 5.640 19.519,5.561 19.811,5.560 19.849 C 5.559 20.019,6.789 20.880,7.662 21.321 C 7.966 21.474,8.246 21.600,8.283 21.600 C 8.321 21.600,8.592 21.345,8.886 21.034 C 9.180 20.722,9.561 20.362,9.733 20.234 C 10.876 19.382,12.376 19.249,13.656 19.884 C 14.134 20.122,14.446 20.376,15.072 21.035 L 15.642 21.635 15.771 21.590 C 16.480 21.344,18.480 20.045,18.420 19.870 C 18.311 19.549,17.993 18.348,17.957 18.118 C 17.929 17.944,17.919 17.638,17.932 17.380 C 18.004 15.961,18.872 14.710,20.179 14.142 C 20.351 14.067,20.802 13.929,21.182 13.835 L 21.872 13.664 21.895 13.522 C 22.014 12.775,22.021 11.317,21.909 10.582 L 21.860 10.265 21.180 10.099 C 20.133 9.844,19.590 9.556,19.020 8.955 C 18.392 8.293,18.045 7.512,17.976 6.608 C 17.940 6.124,18.008 5.682,18.241 4.883 C 18.351 4.510,18.440 4.177,18.440 4.145 C 18.440 4.026,17.528 3.347,16.840 2.952 C 16.465 2.737,15.767 2.400,15.696 2.400 C 15.676 2.400,15.363 2.703,15.000 3.074 C 14.506 3.579,14.262 3.796,14.029 3.939 C 12.985 4.579,11.764 4.689,10.619 4.245 C 10.068 4.032,9.727 3.777,9.000 3.037 L 8.340 2.364 7.957 2.539 M12.635 9.261 C 12.959 9.338,13.446 9.590,13.718 9.822 C 14.034 10.092,14.225 10.341,14.421 10.740 C 14.820 11.553,14.820 12.447,14.421 13.260 C 13.939 14.241,13.050 14.810,12.000 14.810 C 11.191 14.810,10.453 14.460,9.928 13.827 C 9.540 13.360,9.280 12.626,9.280 12.000 C 9.280 11.383,9.541 10.637,9.913 10.191 C 10.271 9.762,10.860 9.381,11.346 9.263 C 11.659 9.187,12.318 9.187,12.635 9.261 " fill="#64748B" stroke="none" fill-rule="evenodd"></path></svg>