<svg width="24" height="24" viewBox="0 0 24 24" fill="none" xmlns="http://www.w3.org/2000/svg"><path d="M11.145 3.056 C 11.060 3.088,10.933 3.156,10.862 3.207 C 10.727 3.304,9.190 4.896,9.167 4.963 C 9.159 4.983,9.591 5.455,10.127 6.010 C 10.846 6.757,11.121 7.017,11.180 7.008 C 11.224 7.002,11.387 6.994,11.543 6.989 C 11.790 6.983,11.860 6.999,12.091 7.113 C 12.380 7.255,12.579 7.456,12.728 7.755 C 12.807 7.914,12.820 8.003,12.822 8.386 L 12.824 8.832 13.758 9.811 L 14.692 10.789 14.856 10.751 C 15.417 10.621,16.033 10.927,16.299 11.468 C 16.430 11.733,16.479 12.190,16.406 12.460 C 16.187 13.268,15.301 13.694,14.577 13.340 C 13.973 13.045,13.681 12.314,13.887 11.614 C 13.894 11.590,13.504 11.153,13.020 10.645 L 12.140 9.720 12.129 12.150 L 12.117 14.580 12.229 14.660 C 12.423 14.800,12.600 15.003,12.712 15.215 C 12.810 15.400,12.820 15.461,12.820 15.840 C 12.820 16.243,12.814 16.270,12.683 16.513 C 12.479 16.889,12.181 17.109,11.760 17.196 C 11.227 17.306,10.678 17.031,10.397 16.513 C 10.266 16.270,10.260 16.243,10.260 15.840 C 10.260 15.474,10.272 15.397,10.356 15.240 C 10.506 14.958,10.630 14.815,10.843 14.678 L 11.040 14.552 11.040 12.081 L 11.040 9.610 10.919 9.560 C 10.731 9.482,10.417 9.110,10.319 8.850 C 10.249 8.662,10.236 8.558,10.250 8.280 C 10.259 8.093,10.278 7.913,10.294 7.879 C 10.314 7.835,10.049 7.533,9.355 6.808 C 8.824 6.252,8.373 5.802,8.353 5.809 C 8.333 5.816,7.131 7.059,5.681 8.573 C 3.302 11.055,3.036 11.347,2.962 11.544 C 2.857 11.825,2.857 12.136,2.963 12.419 C 3.039 12.622,3.378 12.987,6.925 16.690 C 9.708 19.596,10.859 20.772,11.000 20.853 C 11.352 21.055,11.775 21.039,12.108 20.810 C 12.197 20.750,13.998 18.895,16.112 16.689 C 19.615 13.032,19.963 12.658,20.038 12.457 C 20.143 12.175,20.143 11.864,20.037 11.581 C 19.961 11.378,19.622 11.013,16.075 7.310 C 13.249 4.360,12.142 3.229,11.997 3.145 C 11.754 3.006,11.384 2.967,11.145 3.056 " fill="#F87171" stroke="none" fill-rule="evenodd"></path></svg>