<svg width="24" height="24" viewBox="0 0 24 24" fill="none" xmlns="http://www.w3.org/2000/svg"><path d="M10.780 2.280 C 9.541 2.385,8.479 2.681,7.380 3.227 C 4.846 4.485,2.946 6.871,2.239 9.680 C 1.987 10.684,1.900 11.511,1.933 12.580 C 1.967 13.679,2.103 14.462,2.438 15.480 C 2.935 16.990,3.665 18.204,4.750 19.324 C 5.750 20.356,6.844 21.097,8.109 21.598 C 8.556 21.775,8.654 21.789,8.859 21.703 C 9.105 21.600,9.120 21.524,9.120 20.398 L 9.120 19.391 9.027 19.415 C 8.975 19.428,8.755 19.458,8.537 19.483 C 7.594 19.591,6.798 19.386,6.330 18.915 C 6.127 18.710,6.044 18.572,5.804 18.031 C 5.558 17.475,5.203 17.006,4.854 16.774 C 4.599 16.605,4.480 16.465,4.480 16.334 C 4.480 16.201,4.635 16.150,4.980 16.168 C 5.496 16.195,5.916 16.506,6.406 17.227 C 6.561 17.454,6.770 17.712,6.870 17.801 C 7.269 18.152,7.807 18.312,8.337 18.238 C 8.648 18.195,9.105 18.056,9.144 17.994 C 9.157 17.972,9.192 17.841,9.221 17.702 C 9.279 17.424,9.468 17.019,9.645 16.795 L 9.759 16.649 9.492 16.621 C 9.111 16.580,8.325 16.381,7.967 16.234 C 6.912 15.803,6.166 15.044,5.777 14.009 C 5.423 13.067,5.325 11.532,5.559 10.620 C 5.659 10.234,5.972 9.585,6.211 9.270 L 6.386 9.040 6.307 8.750 C 6.192 8.325,6.195 7.467,6.312 6.991 C 6.359 6.799,6.426 6.576,6.459 6.495 L 6.521 6.348 6.822 6.374 C 7.344 6.418,8.000 6.688,8.777 7.178 L 9.134 7.404 9.558 7.302 C 10.800 7.005,12.327 7.014,13.591 7.325 L 13.921 7.406 14.211 7.215 C 14.625 6.941,15.250 6.622,15.608 6.502 C 16.002 6.370,16.480 6.324,16.552 6.410 C 16.643 6.519,16.804 7.251,16.828 7.663 C 16.852 8.080,16.798 8.602,16.702 8.873 C 16.650 9.021,16.652 9.025,16.844 9.281 C 17.453 10.090,17.705 11.111,17.602 12.349 C 17.529 13.234,17.380 13.835,17.090 14.420 C 16.488 15.631,15.319 16.367,13.612 16.611 L 13.266 16.661 13.388 16.800 C 13.555 16.993,13.709 17.310,13.810 17.674 C 13.892 17.966,13.895 18.055,13.888 19.651 C 13.879 21.501,13.882 21.529,14.128 21.679 C 14.316 21.794,14.431 21.781,14.905 21.596 C 17.791 20.468,20.019 17.855,20.780 14.706 C 20.976 13.896,21.042 13.401,21.068 12.560 C 21.120 10.845,20.803 9.325,20.078 7.810 C 19.735 7.094,19.477 6.666,19.035 6.077 C 17.516 4.060,15.275 2.706,12.882 2.362 C 12.235 2.268,11.331 2.233,10.780 2.280 " fill="#71717A" stroke="none" fill-rule="evenodd"></path></svg>