<svg width="24" height="24" viewBox="0 0 24 24" fill="none" xmlns="http://www.w3.org/2000/svg"><path d="M6.763 4.070 C 6.687 4.109,6.593 4.185,6.553 4.240 C 6.490 4.327,4.336 10.086,4.310 10.237 C 4.303 10.275,4.355 10.306,4.460 10.328 C 5.059 10.453,6.155 10.933,6.740 11.328 C 6.973 11.485,11.683 15.143,11.933 15.361 C 11.951 15.377,11.767 15.546,11.523 15.738 C 11.279 15.929,11.080 16.094,11.080 16.105 C 11.080 16.116,11.202 16.029,11.351 15.912 C 11.500 15.796,11.712 15.631,11.821 15.548 C 11.931 15.464,13.130 14.526,14.487 13.463 C 15.844 12.400,17.086 11.444,17.247 11.338 C 17.878 10.921,18.643 10.574,19.354 10.383 C 19.593 10.318,19.696 10.272,19.688 10.235 C 19.681 10.205,19.188 8.857,18.593 7.240 C 17.813 5.123,17.481 4.269,17.407 4.189 C 17.183 3.950,16.792 3.955,16.585 4.201 C 16.524 4.274,16.419 4.531,16.318 4.850 C 16.227 5.142,15.888 6.217,15.566 7.240 L 14.979 9.100 12.002 9.100 L 9.025 9.100 8.269 6.700 C 7.752 5.058,7.486 4.270,7.427 4.206 C 7.233 3.996,7.001 3.949,6.763 4.070 M4.006 11.560 C 4.006 11.615,4.015 11.638,4.026 11.610 C 4.038 11.582,4.038 11.537,4.026 11.510 C 4.015 11.482,4.006 11.505,4.006 11.560 M19.963 11.583 C 19.965 11.630,19.975 11.639,19.987 11.607 C 19.999 11.579,19.997 11.544,19.984 11.531 C 19.971 11.518,19.961 11.541,19.963 11.583 M4.006 12.080 C 4.006 12.135,4.015 12.158,4.026 12.130 C 4.038 12.103,4.038 12.058,4.026 12.030 C 4.015 12.002,4.006 12.025,4.006 12.080 M19.966 12.080 C 19.966 12.135,19.975 12.158,19.986 12.130 C 19.998 12.103,19.998 12.058,19.986 12.030 C 19.975 12.002,19.966 12.025,19.966 12.080 M4.043 12.463 C 4.045 12.510,4.055 12.519,4.067 12.488 C 4.079 12.459,4.077 12.424,4.064 12.411 C 4.051 12.398,4.041 12.421,4.043 12.463 M19.923 12.463 C 19.925 12.510,19.935 12.519,19.947 12.488 C 19.959 12.459,19.957 12.424,19.944 12.411 C 19.931 12.398,19.921 12.421,19.923 12.463 M4.760 14.295 C 4.760 14.303,4.792 14.335,4.830 14.365 C 4.893 14.415,4.895 14.413,4.845 14.350 C 4.793 14.283,4.760 14.262,4.760 14.295 M19.155 14.350 C 19.105 14.413,19.107 14.415,19.170 14.365 C 19.209 14.335,19.240 14.303,19.240 14.295 C 19.240 14.262,19.207 14.283,19.155 14.350 M4.940 14.520 C 4.980 14.564,5.021 14.600,5.032 14.600 C 5.043 14.600,5.020 14.564,4.980 14.520 C 4.940 14.476,4.899 14.440,4.888 14.440 C 4.877 14.440,4.900 14.476,4.940 14.520 M19.035 14.510 C 18.985 14.573,18.987 14.575,19.050 14.525 C 19.117 14.473,19.138 14.440,19.105 14.440 C 19.097 14.440,19.065 14.472,19.035 14.510 M5.238 14.850 C 5.336 14.955,5.422 15.040,5.428 15.040 C 5.458 15.040,5.427 15.004,5.250 14.838 L 5.060 14.660 5.238 14.850 M18.738 14.850 L 18.580 15.020 18.750 14.862 C 18.908 14.715,18.938 14.680,18.908 14.680 C 18.902 14.680,18.825 14.757,18.738 14.850 M5.520 15.095 C 5.520 15.103,5.551 15.135,5.590 15.165 C 5.653 15.215,5.655 15.213,5.605 15.150 C 5.553 15.083,5.520 15.062,5.520 15.095 M5.720 15.255 C 5.720 15.263,5.752 15.295,5.790 15.325 C 5.853 15.375,5.855 15.373,5.805 15.310 C 5.753 15.243,5.720 15.222,5.720 15.255 M18.195 15.310 C 18.145 15.373,18.147 15.375,18.210 15.325 C 18.248 15.295,18.280 15.263,18.280 15.255 C 18.280 15.222,18.247 15.243,18.195 15.310 M17.995 15.470 C 17.945 15.533,17.947 15.535,18.010 15.485 C 18.077 15.433,18.098 15.400,18.065 15.400 C 18.057 15.400,18.025 15.432,17.995 15.470 M12.080 15.455 C 12.080 15.463,12.112 15.495,12.150 15.525 C 12.213 15.575,12.215 15.573,12.165 15.510 C 12.113 15.443,12.080 15.422,12.080 15.455 M6.080 15.535 C 6.080 15.543,6.111 15.575,6.150 15.605 C 6.213 15.655,6.215 15.653,6.165 15.590 C 6.113 15.523,6.080 15.502,6.080 15.535 M17.835 15.590 C 17.785 15.653,17.787 15.655,17.850 15.605 C 17.917 15.553,17.938 15.520,17.905 15.520 C 17.897 15.520,17.865 15.552,17.835 15.590 M12.240 15.575 C 12.240 15.583,12.272 15.615,12.310 15.645 C 12.373 15.695,12.375 15.693,12.325 15.630 C 12.273 15.563,12.240 15.542,12.240 15.575 M17.635 15.750 C 17.585 15.813,17.587 15.815,17.650 15.765 C 17.717 15.713,17.738 15.680,17.705 15.680 C 17.697 15.680,17.665 15.712,17.635 15.750 M12.440 15.735 C 12.440 15.743,12.472 15.775,12.510 15.805 C 12.573 15.855,12.575 15.853,12.525 15.790 C 12.473 15.723,12.440 15.702,12.440 15.735 M6.440 15.815 C 6.440 15.823,6.471 15.855,6.510 15.885 C 6.573 15.935,6.575 15.933,6.525 15.870 C 6.473 15.803,6.440 15.782,6.440 15.815 M17.475 15.870 C 17.425 15.933,17.427 15.935,17.490 15.885 C 17.529 15.855,17.560 15.823,17.560 15.815 C 17.560 15.782,17.527 15.803,17.475 15.870 M12.640 15.895 C 12.640 15.903,12.672 15.935,12.710 15.965 C 12.773 16.015,12.775 16.013,12.725 15.950 C 12.673 15.883,12.640 15.862,12.640 15.895 M17.275 16.030 C 17.225 16.093,17.227 16.095,17.290 16.045 C 17.357 15.993,17.378 15.960,17.345 15.960 C 17.337 15.960,17.305 15.992,17.275 16.030 M6.800 16.095 C 6.800 16.103,6.832 16.135,6.870 16.165 C 6.933 16.215,6.935 16.213,6.885 16.150 C 6.833 16.083,6.800 16.062,6.800 16.095 M17.115 16.150 C 17.065 16.213,17.067 16.215,17.130 16.165 C 17.197 16.113,17.218 16.080,17.185 16.080 C 17.177 16.080,17.145 16.111,17.115 16.150 M10.820 16.284 C 10.516 16.530,10.467 16.599,10.753 16.379 C 10.973 16.209,11.073 16.117,11.032 16.121 C 11.026 16.122,10.930 16.196,10.820 16.284 M16.915 16.310 C 16.865 16.373,16.867 16.375,16.930 16.325 C 16.997 16.273,17.018 16.240,16.985 16.240 C 16.977 16.240,16.945 16.271,16.915 16.310 M7.160 16.375 C 7.160 16.383,7.191 16.415,7.230 16.445 C 7.293 16.495,7.295 16.493,7.245 16.430 C 7.193 16.363,7.160 16.342,7.160 16.375 M16.755 16.430 C 16.705 16.493,16.707 16.495,16.770 16.445 C 16.837 16.393,16.858 16.360,16.825 16.360 C 16.817 16.360,16.785 16.392,16.755 16.430 M16.555 16.590 C 16.505 16.653,16.507 16.655,16.570 16.605 C 16.608 16.575,16.640 16.543,16.640 16.535 C 16.640 16.502,16.607 16.523,16.555 16.590 M9.714 17.152 C 9.304 17.475,8.974 17.746,8.980 17.753 C 8.994 17.767,10.480 16.602,10.480 16.577 C 10.480 16.548,10.478 16.549,9.714 17.152 M7.520 16.655 C 7.520 16.663,7.551 16.695,7.590 16.725 C 7.653 16.775,7.655 16.773,7.605 16.710 C 7.553 16.643,7.520 16.622,7.520 16.655 M16.395 16.710 C 16.345 16.773,16.347 16.775,16.410 16.725 C 16.448 16.695,16.480 16.663,16.480 16.655 C 16.480 16.622,16.447 16.643,16.395 16.710 M13.920 16.895 C 13.920 16.903,13.952 16.935,13.990 16.965 C 14.053 17.015,14.055 17.013,14.005 16.950 C 13.953 16.883,13.920 16.862,13.920 16.895 M7.880 16.935 C 7.880 16.943,7.912 16.975,7.950 17.005 C 8.013 17.055,8.015 17.053,7.965 16.990 C 7.913 16.923,7.880 16.902,7.880 16.935 M16.035 16.990 C 15.985 17.053,15.987 17.055,16.050 17.005 C 16.088 16.975,16.120 16.943,16.120 16.935 C 16.120 16.902,16.087 16.923,16.035 16.990 M14.120 17.055 C 14.120 17.063,14.152 17.095,14.190 17.125 C 14.253 17.175,14.255 17.173,14.205 17.110 C 14.153 17.043,14.120 17.022,14.120 17.055 M8.240 17.215 C 8.240 17.223,8.271 17.255,8.310 17.285 C 8.373 17.335,8.375 17.333,8.325 17.270 C 8.273 17.203,8.240 17.182,8.240 17.215 M15.675 17.270 C 15.625 17.333,15.627 17.335,15.690 17.285 C 15.757 17.233,15.778 17.200,15.745 17.200 C 15.737 17.200,15.705 17.232,15.675 17.270 M8.400 17.335 C 8.400 17.343,8.431 17.375,8.470 17.405 C 8.533 17.455,8.535 17.453,8.485 17.390 C 8.433 17.323,8.400 17.302,8.400 17.335 M14.480 17.335 C 14.480 17.343,14.512 17.375,14.550 17.405 C 14.613 17.455,14.615 17.453,14.565 17.390 C 14.513 17.323,14.480 17.302,14.480 17.335 M8.600 17.495 C 8.600 17.503,8.632 17.535,8.670 17.565 C 8.733 17.615,8.735 17.613,8.685 17.550 C 8.633 17.483,8.600 17.462,8.600 17.495 M14.680 17.495 C 14.680 17.503,14.712 17.535,14.750 17.565 C 14.813 17.615,14.815 17.613,14.765 17.550 C 14.713 17.483,14.680 17.462,14.680 17.495 M15.315 17.550 C 15.265 17.613,15.267 17.615,15.330 17.565 C 15.397 17.513,15.418 17.480,15.385 17.480 C 15.377 17.480,15.345 17.512,15.315 17.550 M8.760 17.615 C 8.760 17.623,8.791 17.655,8.830 17.685 C 8.893 17.735,8.895 17.733,8.845 17.670 C 8.793 17.603,8.760 17.582,8.760 17.615 " fill="#E24329" stroke="none" fill-rule="evenodd"></path></svg>