<svg width="24" height="24" viewBox="0 0 24 24" fill="none" xmlns="http://www.w3.org/2000/svg"><path d="M11.531 2.976 C 11.276 3.059,11.022 3.222,10.873 3.397 C 10.800 3.484,10.227 4.468,9.600 5.583 C 8.373 7.767,8.269 7.918,7.870 8.101 C 7.726 8.166,6.894 8.353,5.313 8.674 C 2.745 9.195,2.713 9.205,2.395 9.550 C 2.306 9.647,2.185 9.828,2.126 9.953 C 2.033 10.151,2.020 10.230,2.020 10.580 C 2.020 10.940,2.031 11.002,2.134 11.205 C 2.217 11.368,2.689 11.908,3.864 13.185 C 5.620 15.091,5.707 15.205,5.747 15.666 C 5.761 15.820,5.676 16.688,5.500 18.200 C 5.325 19.700,5.239 20.581,5.253 20.732 C 5.324 21.554,6.252 22.208,7.058 22.005 C 7.158 21.980,8.180 21.530,9.330 21.006 C 11.657 19.944,11.507 20.008,11.778 19.957 C 12.159 19.884,12.326 19.946,14.660 21.013 L 16.860 22.020 17.240 22.020 C 17.574 22.020,17.647 22.007,17.845 21.910 C 18.164 21.753,18.405 21.525,18.561 21.233 C 18.771 20.838,18.767 20.691,18.461 18.080 C 18.286 16.589,18.205 15.756,18.221 15.633 C 18.278 15.217,18.411 15.033,19.587 13.755 C 20.199 13.089,20.930 12.295,21.211 11.989 C 21.492 11.683,21.771 11.340,21.831 11.226 C 21.931 11.038,21.940 10.982,21.940 10.580 C 21.940 10.180,21.930 10.120,21.830 9.920 C 21.652 9.564,21.363 9.294,21.037 9.179 C 20.940 9.144,19.834 8.910,18.580 8.657 C 16.959 8.331,16.242 8.170,16.100 8.101 C 15.704 7.908,15.602 7.759,14.360 5.560 C 13.671 4.340,13.136 3.437,13.048 3.346 C 12.967 3.262,12.792 3.137,12.660 3.069 C 12.453 2.963,12.370 2.944,12.060 2.933 C 11.831 2.925,11.639 2.941,11.531 2.976 " fill="#F472B6" stroke="none" fill-rule="evenodd"></path></svg>