<svg width="24" height="24" viewBox="0 0 24 24" fill="none" xmlns="http://www.w3.org/2000/svg"><path d="M17.420 5.459 C 17.042 5.543,16.740 5.671,16.419 5.886 C 16.098 6.100,15.960 6.246,15.960 6.369 C 15.960 6.482,16.471 7.000,16.582 7.000 C 16.630 7.000,16.774 6.938,16.900 6.862 C 17.193 6.685,17.469 6.624,17.873 6.648 C 18.457 6.682,18.942 7.009,19.208 7.550 C 19.333 7.804,19.340 7.841,19.340 8.259 C 19.340 8.654,19.329 8.724,19.233 8.929 C 19.024 9.374,18.582 9.745,18.119 9.863 C 17.534 10.013,17.052 9.867,15.280 9.002 C 13.543 8.155,12.892 7.916,11.820 7.734 C 11.192 7.628,10.005 7.638,9.340 7.756 C 8.282 7.943,6.830 8.461,6.486 8.774 C 6.257 8.983,6.147 9.411,6.248 9.701 C 6.358 10.016,7.516 11.973,7.696 12.146 C 7.955 12.398,8.308 12.467,8.649 12.333 C 9.065 12.170,10.007 11.546,10.646 11.010 C 10.929 10.773,11.018 10.720,11.130 10.720 C 11.298 10.720,11.400 10.821,11.400 10.988 C 11.400 11.088,11.354 11.150,11.150 11.328 C 10.540 11.860,9.768 12.386,9.110 12.719 C 8.691 12.931,8.672 12.936,8.350 12.934 C 7.880 12.931,7.612 12.820,7.302 12.503 C 7.118 12.315,6.936 12.036,6.497 11.269 L 5.928 10.278 5.734 10.425 C 5.188 10.839,4.701 11.364,4.275 11.996 C 3.669 12.895,3.292 13.886,3.092 15.100 C 2.985 15.750,2.994 17.228,3.109 17.933 C 3.164 18.270,3.217 18.472,3.263 18.523 C 3.327 18.594,3.392 18.600,4.083 18.600 C 4.901 18.600,4.935 18.591,4.983 18.367 C 5.151 17.581,5.581 17.074,6.280 16.839 C 6.498 16.766,6.603 16.754,6.926 16.769 C 7.267 16.785,7.348 16.805,7.617 16.932 C 8.151 17.186,8.523 17.657,8.642 18.231 C 8.718 18.596,8.728 18.600,9.551 18.600 C 10.396 18.600,10.407 18.596,10.476 18.245 C 10.615 17.536,11.201 16.945,11.911 16.798 C 12.887 16.595,13.869 17.224,14.096 18.197 C 14.192 18.608,14.174 18.600,15.020 18.600 C 15.672 18.600,15.754 18.592,15.813 18.527 C 15.863 18.473,15.889 18.314,15.920 17.877 C 15.992 16.865,16.152 16.105,16.438 15.409 C 16.780 14.579,17.155 14.101,17.980 13.445 C 19.687 12.087,20.635 10.779,20.925 9.380 C 21.234 7.893,20.525 6.322,19.266 5.704 C 18.684 5.418,18.011 5.329,17.420 5.459 M15.386 10.572 C 15.506 10.683,15.534 10.739,15.550 10.906 C 15.569 11.106,15.500 11.318,15.395 11.383 C 15.369 11.399,15.153 11.315,14.914 11.197 C 14.448 10.967,14.427 10.939,14.542 10.716 C 14.631 10.545,14.823 10.440,15.051 10.440 C 15.211 10.440,15.264 10.461,15.386 10.572 " fill="#2DD4BF" stroke="none" fill-rule="evenodd"></path></svg>