<svg width="24" height="24" viewBox="0 0 24 24" fill="none" xmlns="http://www.w3.org/2000/svg"><path d="M11.169 2.040 C 10.901 2.097,10.540 2.311,10.319 2.545 C 9.945 2.940,9.760 3.525,9.844 4.048 C 9.866 4.181,9.878 4.294,9.872 4.298 C 9.865 4.303,8.984 4.833,7.914 5.476 L 5.967 6.645 5.719 6.462 C 5.193 6.075,4.553 6.013,3.985 6.294 C 3.013 6.774,2.708 8.003,3.328 8.939 C 3.484 9.175,3.836 9.456,4.089 9.547 L 4.280 9.616 4.279 11.998 L 4.278 14.380 4.011 14.499 C 2.948 14.975,2.665 16.427,3.463 17.315 C 3.830 17.724,4.267 17.903,4.816 17.870 C 5.189 17.848,5.432 17.756,5.752 17.515 L 5.963 17.355 7.872 18.503 C 8.921 19.134,9.802 19.671,9.829 19.696 C 9.866 19.730,9.869 19.800,9.842 19.968 C 9.701 20.834,10.318 21.763,11.165 21.958 C 11.896 22.126,12.687 21.743,13.035 21.051 C 13.216 20.692,13.284 20.217,13.203 19.871 L 13.169 19.722 15.074 18.574 C 16.122 17.942,17.011 17.407,17.049 17.384 C 17.102 17.351,17.141 17.365,17.229 17.446 C 17.559 17.755,17.972 17.898,18.456 17.872 C 19.749 17.803,20.470 16.314,19.781 15.138 C 19.604 14.836,19.033 14.402,18.810 14.400 C 18.771 14.400,18.760 13.893,18.760 12.000 C 18.760 10.107,18.771 9.600,18.810 9.600 C 18.930 9.599,19.295 9.389,19.483 9.213 C 19.856 8.865,20.043 8.424,20.044 7.895 C 20.044 7.176,19.677 6.578,19.047 6.271 C 18.798 6.150,18.752 6.141,18.360 6.141 C 17.972 6.140,17.920 6.150,17.678 6.264 C 17.534 6.332,17.350 6.447,17.268 6.518 C 17.186 6.590,17.097 6.639,17.070 6.628 C 17.042 6.616,16.156 6.085,15.100 5.448 C 13.206 4.306,13.180 4.288,13.200 4.175 C 13.249 3.893,13.211 3.378,13.125 3.156 C 12.937 2.668,12.565 2.284,12.120 2.116 C 11.871 2.022,11.423 1.986,11.169 2.040 M10.313 5.098 C 10.290 5.199,5.185 14.400,5.152 14.400 C 5.134 14.400,5.120 13.324,5.120 12.009 L 5.120 9.619 5.318 9.548 C 5.709 9.410,6.114 9.001,6.285 8.574 C 6.365 8.374,6.379 8.269,6.379 7.857 L 6.380 7.374 8.318 6.207 C 9.384 5.565,10.272 5.040,10.291 5.040 C 10.310 5.040,10.320 5.066,10.313 5.098 M14.780 6.229 C 16.563 7.305,16.699 7.394,16.680 7.484 C 16.634 7.707,16.664 8.266,16.735 8.471 C 16.898 8.948,17.342 9.422,17.752 9.557 L 17.920 9.613 17.920 12.015 C 17.920 14.028,17.911 14.408,17.866 14.359 C 17.807 14.294,12.720 5.100,12.720 5.057 C 12.720 4.994,12.959 5.130,14.780 6.229 M11.681 5.546 L 12.022 5.522 14.591 10.166 L 17.160 14.809 17.014 15.008 C 16.934 15.117,16.827 15.309,16.776 15.433 L 16.684 15.660 11.525 15.670 L 6.366 15.680 6.318 15.530 C 6.245 15.305,6.133 15.098,6.005 14.951 L 5.891 14.820 8.472 10.155 L 11.054 5.490 11.197 5.530 C 11.276 5.552,11.493 5.559,11.681 5.546 M16.686 16.580 C 16.691 16.616,12.859 18.956,12.791 18.959 C 12.775 18.960,12.667 18.888,12.551 18.800 C 11.908 18.311,10.991 18.337,10.440 18.861 L 10.300 18.994 8.330 17.807 C 7.247 17.154,6.361 16.597,6.360 16.570 C 6.360 16.505,16.676 16.515,16.686 16.580 " fill="#F472B6" stroke="none" fill-rule="evenodd"></path></svg>