<svg width="24" height="24" viewBox="0 0 24 24" fill="none" xmlns="http://www.w3.org/2000/svg"><path d="M14.798 3.135 C 14.453 3.279,13.773 3.663,12.350 4.515 L 11.040 5.300 11.040 7.170 L 11.040 9.040 9.060 9.040 L 7.080 9.040 7.080 10.020 L 7.080 11.000 7.530 11.001 C 7.777 11.001,8.002 11.015,8.029 11.032 C 8.062 11.053,8.125 11.555,8.219 12.548 C 8.296 13.365,8.513 15.582,8.700 17.476 C 8.887 19.370,9.040 20.928,9.040 20.940 C 9.040 20.951,10.370 20.960,11.996 20.960 L 14.953 20.960 14.976 20.810 C 14.989 20.727,15.207 18.545,15.461 15.960 C 15.714 13.375,15.931 11.202,15.943 11.130 L 15.964 11.000 16.442 11.000 L 16.920 11.000 16.920 10.020 L 16.920 9.040 14.943 9.040 L 12.965 9.040 12.985 7.730 C 12.996 7.009,13.012 6.382,13.022 6.336 C 13.034 6.276,13.266 6.116,13.829 5.780 C 15.029 5.064,15.748 4.580,15.821 4.437 C 15.995 4.101,15.920 3.688,15.626 3.369 C 15.339 3.058,15.127 2.998,14.798 3.135 " fill="#F87171" stroke="none" fill-rule="evenodd"></path></svg>