<svg width="24" height="24" viewBox="0 0 24 24" fill="none" xmlns="http://www.w3.org/2000/svg"><path d="M7.459 5.489 C 7.448 5.517,7.444 8.465,7.450 12.040 L 7.460 18.540 8.820 18.540 L 10.180 18.540 10.201 15.420 C 10.224 11.914,10.206 12.116,10.531 11.633 C 10.725 11.345,11.003 11.119,11.320 10.991 C 11.508 10.915,11.618 10.902,12.080 10.901 C 12.583 10.900,12.636 10.907,12.847 11.006 C 13.241 11.191,13.528 11.509,13.709 11.961 C 13.774 12.126,13.782 12.392,13.800 15.340 L 13.820 18.540 15.180 18.540 L 16.540 18.540 16.540 15.100 C 16.539 11.745,16.537 11.651,16.455 11.280 C 16.211 10.184,15.631 9.398,14.747 8.965 C 14.183 8.688,13.848 8.619,13.100 8.624 C 12.625 8.628,12.433 8.647,12.180 8.714 C 11.338 8.938,10.674 9.478,10.316 10.229 C 10.250 10.367,10.179 10.480,10.158 10.480 C 10.135 10.480,10.117 9.505,10.110 7.970 L 10.100 5.460 8.789 5.449 C 7.762 5.441,7.474 5.450,7.459 5.489 " fill="#60A5FA" stroke="none" fill-rule="evenodd"></path></svg>