<svg width="24" height="24" viewBox="0 0 24 24" fill="none" xmlns="http://www.w3.org/2000/svg"><path d="M5.340 2.782 C 4.996 2.840,4.475 2.983,4.113 3.119 L 3.888 3.203 4.739 4.931 C 5.208 5.882,6.097 7.685,6.715 8.938 C 7.334 10.191,7.840 11.240,7.840 11.269 C 7.840 11.298,7.380 13.288,6.818 15.691 C 6.255 18.094,5.786 20.105,5.774 20.161 C 5.756 20.249,5.790 20.289,6.047 20.474 C 6.444 20.763,6.984 21.019,7.463 21.147 C 7.816 21.242,7.935 21.254,8.540 21.257 C 9.075 21.259,9.275 21.244,9.480 21.188 C 9.622 21.149,9.753 21.103,9.771 21.085 C 9.788 21.068,10.017 19.518,10.280 17.640 C 10.543 15.762,10.764 14.209,10.770 14.189 C 10.777 14.168,10.863 14.220,10.961 14.302 C 11.676 14.904,13.050 15.457,14.380 15.678 C 14.534 15.704,14.697 15.732,14.743 15.741 L 14.827 15.758 14.736 16.029 C 14.656 16.271,14.625 16.490,14.636 16.744 C 14.639 16.808,14.713 16.861,14.950 16.971 C 15.729 17.332,16.579 17.431,17.280 17.241 C 18.022 17.041,18.716 16.284,18.799 15.587 C 18.823 15.382,18.845 15.330,18.941 15.262 C 19.587 14.796,19.856 14.509,20.007 14.122 C 20.271 13.446,19.957 12.561,19.176 11.779 C 18.608 11.212,17.615 10.621,16.785 10.356 C 15.806 10.044,15.585 9.813,15.583 9.100 C 15.583 8.810,15.607 8.658,15.709 8.320 C 15.778 8.089,15.841 7.843,15.848 7.774 C 15.858 7.663,16.008 7.517,17.030 6.623 C 17.674 6.059,18.200 5.585,18.200 5.569 C 18.199 5.475,18.006 5.254,17.771 5.081 C 17.483 4.869,16.823 4.527,16.309 4.323 L 15.999 4.200 12.989 6.760 C 11.334 8.168,9.970 9.320,9.958 9.320 C 9.947 9.320,9.155 7.845,8.200 6.043 C 6.583 2.993,6.455 2.765,6.347 2.743 C 6.158 2.706,5.685 2.724,5.340 2.782 M14.705 8.950 C 14.616 9.904,15.257 10.704,16.301 10.940 C 17.611 11.237,18.941 12.105,19.360 12.938 C 19.491 13.198,19.500 13.241,19.500 13.598 C 19.500 13.935,19.487 14.004,19.392 14.184 C 19.288 14.382,18.903 14.840,18.841 14.840 C 18.825 14.840,18.799 14.737,18.784 14.610 C 18.748 14.301,18.684 14.099,18.591 13.999 L 18.513 13.916 18.376 14.148 C 18.093 14.627,17.734 14.840,17.211 14.840 C 16.937 14.840,16.700 14.789,16.082 14.597 C 15.873 14.533,15.674 14.480,15.639 14.480 C 15.570 14.480,15.269 14.875,15.089 15.201 C 15.029 15.310,14.958 15.399,14.931 15.399 C 14.813 15.401,13.439 14.843,12.811 14.539 C 12.055 14.173,11.507 13.822,11.151 13.474 C 10.880 13.209,10.885 13.251,11.013 12.396 L 11.100 11.813 12.880 10.249 C 13.859 9.389,14.676 8.685,14.695 8.683 C 14.715 8.681,14.719 8.802,14.705 8.950 " fill="#EA580C" stroke="none" fill-rule="evenodd"></path></svg>