<svg width="24" height="24" viewBox="0 0 24 24" fill="none" xmlns="http://www.w3.org/2000/svg"><path d="M4.323 8.484 C 5.600 10.400,6.655 11.993,6.666 12.022 C 6.678 12.052,5.647 13.635,4.371 15.548 C 3.097 17.458,2.041 19.043,2.025 19.070 C 2.001 19.110,2.359 19.120,3.758 19.120 L 5.520 19.120 7.877 15.585 L 10.233 12.050 7.887 8.526 L 5.540 5.002 3.770 5.001 L 2.000 5.000 4.323 8.484 M14.200 9.141 C 14.200 9.152,14.542 9.674,14.960 10.301 L 15.721 11.440 18.860 11.440 L 22.000 11.440 22.000 10.280 L 22.000 9.120 18.100 9.120 C 15.955 9.120,14.200 9.129,14.200 9.141 M17.298 13.790 L 18.070 14.940 20.035 14.950 L 22.000 14.961 22.000 13.800 L 22.000 12.640 19.263 12.640 L 16.526 12.640 17.298 13.790 " fill="#A855F7" stroke="none" fill-rule="evenodd"></path></svg>