<svg width="24" height="24" viewBox="0 0 24 24" fill="none" xmlns="http://www.w3.org/2000/svg"><path d="M11.103 2.806 C 10.575 2.852,9.805 3.009,9.246 3.183 C 5.164 4.456,2.481 8.391,2.792 12.650 C 3.130 17.266,6.734 20.870,11.350 21.208 C 14.059 21.406,16.730 20.387,18.622 18.435 C 20.157 16.850,21.046 14.863,21.208 12.650 C 21.399 10.028,20.465 7.467,18.622 5.565 C 16.669 3.550,13.956 2.555,11.103 2.806 M12.490 4.491 C 13.039 4.744,13.516 5.306,13.993 6.260 C 14.204 6.682,14.560 7.623,14.560 7.759 C 14.560 7.839,14.540 7.840,12.000 7.840 C 9.460 7.840,9.440 7.839,9.440 7.759 C 9.440 7.623,9.795 6.683,10.006 6.260 C 10.773 4.722,11.645 4.101,12.490 4.491 M8.605 5.470 C 8.342 5.997,8.077 6.677,7.903 7.274 C 7.824 7.546,7.750 7.784,7.738 7.804 C 7.707 7.853,5.640 7.851,5.640 7.802 C 5.640 7.727,6.148 7.090,6.499 6.725 C 6.904 6.305,7.432 5.867,7.880 5.579 C 8.206 5.371,8.722 5.081,8.770 5.081 C 8.787 5.080,8.713 5.255,8.605 5.470 M15.550 5.239 C 16.266 5.630,16.941 6.144,17.501 6.725 C 17.852 7.090,18.360 7.727,18.360 7.802 C 18.360 7.851,16.293 7.853,16.262 7.804 C 16.250 7.784,16.176 7.546,16.097 7.274 C 15.923 6.677,15.658 5.997,15.395 5.470 C 15.287 5.255,15.213 5.080,15.230 5.081 C 15.246 5.081,15.391 5.152,15.550 5.239 M7.426 9.570 C 7.249 10.570,7.249 13.430,7.426 14.430 L 7.449 14.560 6.126 14.560 L 4.803 14.560 4.706 14.250 C 4.435 13.389,4.317 12.326,4.394 11.432 C 4.447 10.811,4.555 10.231,4.706 9.750 L 4.803 9.440 6.126 9.440 L 7.449 9.440 7.426 9.570 M14.976 9.650 C 15.169 11.174,15.169 12.826,14.976 14.350 L 14.949 14.560 12.000 14.560 L 9.051 14.560 9.024 14.350 C 8.831 12.826,8.831 11.174,9.024 9.650 L 9.051 9.440 12.000 9.440 L 14.949 9.440 14.976 9.650 M19.294 9.750 C 19.445 10.231,19.553 10.811,19.606 11.432 C 19.683 12.326,19.565 13.389,19.294 14.250 L 19.197 14.560 17.874 14.560 L 16.551 14.560 16.574 14.430 C 16.668 13.899,16.700 13.286,16.700 12.000 C 16.700 10.714,16.668 10.101,16.574 9.570 L 16.551 9.440 17.874 9.440 L 19.197 9.440 19.294 9.750 M7.738 16.196 C 7.750 16.216,7.824 16.454,7.903 16.726 C 8.077 17.323,8.342 18.003,8.605 18.530 C 8.713 18.745,8.787 18.920,8.770 18.919 C 8.714 18.918,8.162 18.604,7.830 18.384 C 7.343 18.061,6.905 17.696,6.499 17.275 C 6.148 16.910,5.640 16.273,5.640 16.198 C 5.640 16.149,7.707 16.147,7.738 16.196 M14.560 16.241 C 14.560 16.377,14.204 17.318,13.993 17.740 C 13.514 18.699,13.043 19.251,12.480 19.515 C 11.497 19.976,10.374 18.921,9.623 16.831 C 9.522 16.550,9.440 16.285,9.440 16.241 C 9.440 16.161,9.460 16.160,12.000 16.160 C 14.540 16.160,14.560 16.161,14.560 16.241 M18.360 16.196 C 18.360 16.270,17.848 16.912,17.500 17.275 C 17.095 17.696,16.658 18.061,16.170 18.384 C 15.838 18.604,15.286 18.918,15.230 18.919 C 15.213 18.920,15.287 18.745,15.395 18.530 C 15.658 18.003,15.923 17.323,16.097 16.726 C 16.176 16.454,16.250 16.216,16.262 16.196 C 16.292 16.148,18.360 16.149,18.360 16.196 " fill="#2563EB" stroke="none" fill-rule="evenodd"></path></svg>