<svg width="24" height="24" viewBox="0 0 24 24" fill="none" xmlns="http://www.w3.org/2000/svg"><path d="M11.036 1.925 C 10.616 1.965,10.148 2.110,9.795 2.310 C 9.649 2.392,8.355 3.216,6.918 4.140 C 4.700 5.568,4.261 5.865,4.002 6.120 C 3.456 6.655,3.116 7.286,2.956 8.060 C 2.886 8.396,2.881 8.662,2.881 12.080 C 2.881 15.493,2.886 15.764,2.956 16.101 C 3.128 16.938,3.590 17.702,4.235 18.216 C 4.536 18.456,9.779 21.659,10.167 21.839 C 10.856 22.160,11.541 22.191,12.289 21.937 C 12.466 21.877,13.628 21.225,15.571 20.095 C 17.226 19.134,18.680 18.280,18.801 18.198 C 19.095 18.000,19.477 17.586,19.675 17.251 C 19.764 17.102,19.895 16.809,19.968 16.600 L 20.100 16.220 20.100 12.040 L 20.100 7.860 19.968 7.480 C 19.759 6.880,19.447 6.419,19.028 6.088 C 18.810 5.916,13.117 2.402,12.762 2.221 C 12.536 2.105,12.084 1.963,11.865 1.939 C 11.448 1.894,11.373 1.893,11.036 1.925 M12.080 2.729 C 12.223 2.773,12.394 2.836,12.460 2.870 C 12.526 2.903,13.915 3.749,15.548 4.749 C 17.483 5.935,18.584 6.633,18.712 6.756 C 18.976 7.010,19.182 7.327,19.312 7.685 L 19.420 7.980 19.431 11.920 C 19.444 16.287,19.451 16.151,19.184 16.704 C 19.007 17.071,18.765 17.364,18.466 17.576 C 18.010 17.899,12.284 21.198,12.031 21.283 C 11.529 21.452,10.913 21.421,10.454 21.203 C 10.235 21.099,5.135 18.004,4.775 17.757 C 4.475 17.550,4.091 17.093,3.903 16.717 C 3.568 16.047,3.580 16.226,3.580 12.080 C 3.580 8.699,3.585 8.397,3.652 8.114 C 3.798 7.490,4.199 6.843,4.675 6.464 C 5.143 6.091,10.167 2.889,10.454 2.781 C 10.966 2.588,11.561 2.569,12.080 2.729 " fill="#DB2777" stroke="none" fill-rule="evenodd"></path></svg>