<svg width="24" height="24" viewBox="0 0 24 24" fill="none" xmlns="http://www.w3.org/2000/svg"><path d="M8.720 4.640 L 8.720 5.440 5.860 5.440 L 3.000 5.440 3.000 6.260 L 3.000 7.080 7.560 7.080 C 10.241 7.080,12.120 7.095,12.120 7.116 C 12.120 7.176,11.768 8.034,11.583 8.424 C 11.128 9.386,10.454 10.402,9.636 11.360 L 9.550 11.460 9.351 11.240 C 8.900 10.741,8.306 9.890,7.870 9.120 L 7.656 8.740 6.845 8.729 L 6.034 8.718 6.062 8.809 C 6.078 8.859,6.177 9.074,6.284 9.286 C 6.776 10.270,7.469 11.307,8.218 12.178 L 8.457 12.456 6.379 14.507 L 4.300 16.558 4.880 17.139 L 5.460 17.720 7.500 15.680 L 9.540 13.640 10.808 14.908 C 11.506 15.606,12.084 16.168,12.093 16.158 C 12.101 16.148,12.243 15.777,12.408 15.333 L 12.707 14.527 11.676 13.496 L 10.645 12.466 10.733 12.360 C 12.016 10.805,12.700 9.688,13.318 8.140 C 13.424 7.876,13.552 7.529,13.603 7.370 L 13.696 7.080 14.888 7.080 L 16.080 7.080 16.080 6.260 L 16.080 5.440 13.220 5.440 L 10.360 5.440 10.360 4.640 L 10.360 3.840 9.540 3.840 L 8.720 3.840 8.720 4.640 M15.659 10.410 C 15.649 10.438,14.824 12.638,13.826 15.300 C 12.827 17.962,12.018 20.154,12.027 20.170 C 12.037 20.187,12.402 20.200,12.838 20.200 L 13.631 20.200 14.089 18.970 L 14.547 17.740 16.490 17.730 L 18.433 17.719 18.551 18.030 C 18.615 18.200,18.827 18.758,19.020 19.270 L 19.372 20.200 20.159 20.200 C 20.592 20.200,20.956 20.190,20.968 20.179 C 20.984 20.163,18.422 13.277,17.416 10.630 L 17.313 10.360 16.495 10.360 C 15.877 10.360,15.673 10.372,15.659 10.410 M17.157 14.305 C 17.511 15.254,17.800 16.042,17.800 16.055 C 17.800 16.069,17.215 16.080,16.500 16.080 C 15.785 16.080,15.200 16.069,15.200 16.055 C 15.200 16.014,16.492 12.559,16.503 12.570 C 16.509 12.576,16.803 13.357,17.157 14.305 " fill="#C084FC" stroke="none" fill-rule="evenodd"></path></svg>