<svg width="24" height="24" viewBox="0 0 24 24" fill="none" xmlns="http://www.w3.org/2000/svg"><path d="M11.322 10.679 C 6.122 13.539,1.832 15.910,1.788 15.949 C 1.675 16.050,1.562 16.316,1.562 16.480 C 1.562 17.016,2.155 17.366,2.643 17.119 C 3.135 16.870,21.319 6.856,21.430 6.773 C 21.614 6.636,21.696 6.459,21.697 6.196 C 21.700 5.785,21.390 5.480,20.969 5.480 C 20.787 5.480,20.217 5.787,11.322 10.679 M11.100 6.641 C 8.713 6.854,6.433 7.824,4.315 9.528 C 3.562 10.134,2.444 11.277,2.269 11.621 C 2.094 11.963,2.144 12.213,2.488 12.722 C 2.669 12.990,2.749 13.078,2.796 13.059 C 3.052 12.961,9.456 9.396,9.595 9.275 C 9.962 8.953,10.559 8.619,10.982 8.499 C 11.236 8.428,14.089 6.887,14.059 6.839 C 14.041 6.809,13.974 6.798,13.265 6.700 C 12.713 6.625,11.620 6.595,11.100 6.641 M17.900 11.035 L 15.820 12.183 15.790 12.479 C 15.731 13.067,15.476 13.754,15.143 14.220 C 14.775 14.735,14.174 15.232,13.616 15.482 C 13.068 15.728,12.806 15.779,12.100 15.780 C 11.366 15.780,10.996 15.704,10.460 15.442 L 10.160 15.296 8.970 15.950 C 8.315 16.310,7.764 16.620,7.745 16.639 C 7.701 16.683,8.581 16.963,9.180 17.097 C 10.889 17.479,12.777 17.492,14.520 17.135 C 16.315 16.767,18.122 15.915,19.559 14.757 C 20.542 13.966,21.673 12.672,21.803 12.190 C 21.894 11.851,21.785 11.613,21.286 11.060 C 20.889 10.621,20.092 9.878,20.023 9.883 C 19.999 9.885,19.044 10.403,17.900 11.035 M12.915 13.779 C 11.958 14.304,11.549 14.548,11.595 14.567 C 11.631 14.582,11.806 14.596,11.984 14.597 C 12.757 14.604,13.531 14.229,13.982 13.629 C 14.177 13.370,14.333 13.094,14.312 13.046 C 14.306 13.030,13.677 13.360,12.915 13.779 " fill="#64748B" stroke="none" fill-rule="evenodd"></path></svg>