<svg width="24" height="24" viewBox="0 0 24 24" fill="none" xmlns="http://www.w3.org/2000/svg"><path d="M11.120 2.039 C 9.316 2.220,7.707 2.807,6.280 3.806 C 2.738 6.286,1.178 10.759,2.422 14.865 C 2.918 16.499,3.728 17.850,4.939 19.061 C 5.928 20.050,7.038 20.788,8.272 21.278 C 11.634 22.610,15.313 22.080,18.200 19.845 C 18.637 19.507,19.507 18.637,19.845 18.200 C 21.881 15.570,22.514 12.244,21.575 9.120 C 21.519 8.933,21.460 8.767,21.445 8.750 C 21.429 8.734,21.350 8.800,21.268 8.898 C 21.076 9.128,20.725 9.396,20.406 9.557 C 20.137 9.693,19.628 9.840,19.428 9.840 C 19.293 9.840,19.292 9.794,19.437 10.477 C 19.810 12.238,19.501 14.185,18.600 15.755 C 16.597 19.248,12.267 20.585,8.660 18.823 C 6.479 17.758,4.960 15.728,4.512 13.280 C 4.392 12.623,4.392 11.377,4.512 10.720 C 4.791 9.193,5.454 7.871,6.489 6.778 C 8.768 4.370,12.350 3.724,15.340 5.181 C 15.582 5.299,15.912 5.482,16.074 5.588 L 16.368 5.780 16.380 6.122 C 16.401 6.732,16.636 7.242,17.087 7.660 C 17.968 8.476,19.312 8.432,20.135 7.559 C 20.431 7.246,20.615 6.900,20.700 6.500 C 20.774 6.148,20.774 5.972,20.700 5.620 C 20.522 4.779,19.807 4.072,18.983 3.923 C 18.691 3.870,18.355 3.869,18.131 3.921 C 17.965 3.959,17.957 3.956,17.511 3.664 C 16.225 2.821,14.843 2.299,13.360 2.097 C 12.842 2.026,11.578 1.993,11.120 2.039 M11.213 7.699 C 10.800 7.774,10.433 7.903,10.000 8.125 C 8.877 8.700,8.107 9.666,7.751 10.947 C 7.677 11.216,7.665 11.363,7.665 12.000 C 7.665 12.637,7.677 12.784,7.751 13.053 C 7.978 13.869,8.353 14.524,8.915 15.083 C 9.591 15.756,10.403 16.173,11.328 16.321 C 11.766 16.391,12.652 16.352,13.053 16.245 C 13.850 16.033,14.519 15.651,15.085 15.085 C 15.648 14.522,16.022 13.868,16.249 13.053 C 16.323 12.784,16.335 12.637,16.335 12.000 C 16.335 11.363,16.323 11.216,16.249 10.947 C 15.897 9.679,15.130 8.709,14.027 8.136 C 13.342 7.781,12.743 7.638,11.965 7.644 C 11.709 7.646,11.371 7.671,11.213 7.699 " fill="#2563EB" stroke="none" fill-rule="evenodd"></path></svg>