<svg width="24" height="24" viewBox="0 0 24 24" fill="none" xmlns="http://www.w3.org/2000/svg"><path d="M15.128 7.264 C 14.193 7.421,13.331 7.894,12.822 8.529 C 12.422 9.029,12.240 9.571,12.241 10.256 C 12.242 11.317,12.675 12.001,13.687 12.539 C 14.178 12.800,14.460 12.895,15.642 13.199 C 16.928 13.529,17.258 13.657,17.545 13.937 C 17.786 14.172,17.861 14.379,17.827 14.712 C 17.744 15.526,16.666 16.011,15.454 15.780 C 15.022 15.698,14.691 15.527,14.446 15.259 C 14.255 15.050,14.080 14.697,14.080 14.522 C 14.080 14.315,14.107 14.320,12.991 14.320 L 11.950 14.320 11.978 14.605 C 12.131 16.163,13.086 17.157,14.780 17.526 C 15.316 17.643,16.402 17.670,17.000 17.583 C 18.486 17.365,19.502 16.637,19.865 15.532 C 19.970 15.210,19.980 15.131,19.980 14.600 C 19.980 14.093,19.968 13.983,19.882 13.723 C 19.672 13.084,19.178 12.529,18.480 12.147 C 18.048 11.910,17.626 11.769,16.611 11.519 C 15.266 11.187,14.983 11.072,14.675 10.731 C 14.486 10.522,14.424 10.329,14.452 10.030 C 14.511 9.379,15.101 9.000,16.056 9.000 C 16.745 9.000,17.136 9.129,17.462 9.464 C 17.629 9.636,17.800 9.989,17.800 10.162 C 17.800 10.237,17.833 10.240,18.845 10.240 L 19.890 10.240 19.863 9.990 C 19.705 8.551,18.655 7.541,17.025 7.261 C 16.583 7.185,15.588 7.187,15.128 7.264 M8.360 11.076 C 8.360 14.725,8.358 14.839,8.280 15.092 C 8.223 15.277,8.147 15.411,8.018 15.553 C 7.780 15.818,7.568 15.900,7.120 15.900 C 6.829 15.900,6.747 15.883,6.552 15.788 C 6.194 15.612,5.980 15.304,5.928 14.888 L 5.900 14.660 4.830 14.649 L 3.760 14.639 3.760 14.877 C 3.760 15.419,3.963 16.025,4.291 16.459 C 4.683 16.981,5.200 17.308,5.948 17.509 C 6.296 17.602,6.416 17.614,7.020 17.616 C 7.761 17.618,8.127 17.556,8.644 17.338 C 9.516 16.971,10.148 16.242,10.409 15.300 C 10.498 14.981,10.498 14.967,10.511 11.150 L 10.523 7.320 9.442 7.320 L 8.360 7.320 8.360 11.076 " fill="#F59E0B" stroke="none" fill-rule="evenodd"></path></svg>