<svg width="24" height="24" viewBox="0 0 24 24" fill="none" xmlns="http://www.w3.org/2000/svg"><path d="M6.280 12.047 C 5.354 12.177,4.343 12.790,3.750 13.581 C 3.124 14.414,2.845 15.323,2.891 16.374 C 2.973 18.255,4.215 19.803,6.000 20.250 C 6.457 20.365,7.241 20.372,7.700 20.266 C 8.413 20.101,9.004 19.782,9.542 19.270 C 10.147 18.695,10.536 18.044,10.750 17.248 C 10.843 16.902,10.854 16.787,10.854 16.180 C 10.854 15.573,10.843 15.458,10.750 15.112 C 10.429 13.917,9.667 12.956,8.619 12.424 C 7.907 12.062,7.096 11.931,6.280 12.047 " fill="#60A5FA" stroke="none" fill-rule="evenodd"></path></svg>