<svg width="24" height="24" viewBox="0 0 24 24" fill="none" xmlns="http://www.w3.org/2000/svg"><path d="M8.778 7.806 C 3.358 13.230,3.040 13.555,3.360 13.357 C 3.940 12.998,7.292 10.913,7.442 10.818 L 7.585 10.729 8.215 13.565 C 8.561 15.124,8.834 16.418,8.821 16.439 C 8.807 16.461,9.227 16.693,9.754 16.957 L 10.711 17.436 10.078 19.967 C 9.730 21.359,9.449 22.503,9.454 22.508 C 9.459 22.513,12.054 19.926,15.220 16.760 C 18.386 13.594,20.968 10.996,20.958 10.986 C 20.948 10.977,19.221 10.110,17.120 9.060 C 15.019 8.010,13.297 7.148,13.293 7.145 C 13.288 7.141,13.571 5.996,13.920 4.600 C 14.269 3.204,14.551 2.057,14.546 2.052 C 14.541 2.047,11.945 4.636,8.778 7.806 " fill="#64748B" stroke="none" fill-rule="evenodd"></path></svg>