<svg width="24" height="24" viewBox="0 0 24 24" fill="none" xmlns="http://www.w3.org/2000/svg"><path d="M5.780 3.059 C 5.409 3.129,5.162 3.216,4.800 3.405 C 4.158 3.741,3.681 4.236,3.360 4.900 C 2.990 5.665,3.020 5.039,3.020 12.000 C 3.020 18.962,2.990 18.336,3.361 19.100 C 3.705 19.810,4.193 20.298,4.900 20.640 C 5.665 21.010,5.039 20.980,12.000 20.980 C 18.962 20.980,18.336 21.010,19.100 20.639 C 19.810 20.295,20.298 19.807,20.640 19.100 C 21.010 18.335,20.980 18.961,20.980 12.000 C 20.980 5.039,21.010 5.665,20.640 4.900 C 20.301 4.199,19.767 3.671,19.060 3.338 C 18.328 2.993,18.949 3.022,12.120 3.014 C 7.258 3.008,6.005 3.017,5.780 3.059 M16.236 5.010 C 16.210 5.059,15.275 6.693,14.159 8.640 C 13.044 10.587,12.082 12.276,12.023 12.394 C 11.877 12.683,11.619 12.932,11.377 13.018 C 11.269 13.056,11.102 13.115,11.006 13.149 C 10.717 13.250,10.579 13.404,10.463 13.752 C 10.252 14.385,10.350 14.563,10.954 14.641 C 11.482 14.708,12.046 15.132,12.264 15.624 C 12.369 15.863,12.480 16.363,12.480 16.600 C 12.480 17.306,11.927 18.442,11.333 18.956 C 11.078 19.176,10.646 19.387,10.300 19.460 C 9.261 19.678,8.481 19.224,8.135 18.200 C 8.020 17.861,8.030 17.117,8.154 16.720 C 8.264 16.369,8.560 15.729,8.783 15.360 C 8.869 15.217,9.102 14.690,9.300 14.190 C 9.524 13.623,9.678 13.287,9.707 13.297 C 9.734 13.308,10.552 11.908,11.707 9.874 C 13.068 7.476,13.736 6.338,13.911 6.119 C 14.502 5.378,15.292 4.933,16.031 4.923 C 16.280 4.920,16.282 4.921,16.236 5.010 M7.376 8.679 C 7.803 8.788,8.190 9.002,8.481 9.290 C 8.789 9.596,8.941 9.859,9.024 10.235 C 9.106 10.599,9.080 10.908,8.941 11.238 C 8.721 11.761,8.853 11.950,9.533 12.082 C 9.662 12.107,9.810 12.116,9.863 12.103 C 9.916 12.089,9.960 12.089,9.960 12.102 C 9.960 12.115,9.850 12.324,9.715 12.565 C 9.487 12.976,9.464 13.003,9.365 12.983 C 8.972 12.905,7.447 12.721,7.357 12.741 C 7.296 12.754,6.966 12.745,6.624 12.722 C 5.644 12.653,5.077 12.454,4.597 12.011 C 4.280 11.719,4.069 11.395,3.979 11.062 C 3.709 10.066,4.483 8.967,5.660 8.675 C 6.074 8.573,6.968 8.575,7.376 8.679 M6.183 9.440 C 5.293 9.599,4.682 10.145,4.772 10.701 C 4.828 11.041,5.160 11.458,5.518 11.638 C 5.997 11.878,6.565 11.923,7.133 11.765 C 7.535 11.654,7.724 11.556,7.926 11.354 C 8.702 10.578,8.024 9.513,6.697 9.426 C 6.523 9.414,6.291 9.421,6.183 9.440 M19.953 11.530 C 19.828 11.759,19.305 12.280,19.070 12.410 C 18.779 12.570,18.392 12.716,18.007 12.809 C 17.675 12.890,17.545 12.894,14.930 12.909 C 13.428 12.918,12.200 12.917,12.200 12.908 C 12.200 12.899,12.394 12.560,12.632 12.156 L 13.064 11.420 14.082 11.399 C 14.642 11.387,16.213 11.374,17.573 11.369 L 20.045 11.360 19.953 11.530 M11.052 11.848 C 10.932 11.906,10.826 12.139,10.859 12.273 C 10.923 12.530,11.204 12.662,11.434 12.543 C 11.586 12.465,11.648 12.355,11.648 12.167 C 11.648 11.893,11.321 11.718,11.052 11.848 M10.309 15.457 C 9.939 15.556,9.513 15.920,9.201 16.403 C 8.963 16.772,8.900 16.994,8.902 17.460 C 8.903 17.941,8.995 18.191,9.258 18.434 C 9.577 18.728,9.955 18.754,10.408 18.513 C 11.108 18.141,11.607 17.357,11.614 16.620 C 11.618 16.187,11.524 15.921,11.283 15.679 C 11.018 15.414,10.720 15.346,10.309 15.457 " fill="#FB923C" stroke="none" fill-rule="evenodd"></path></svg>