<svg width="24" height="24" viewBox="0 0 24 24" fill="none" xmlns="http://www.w3.org/2000/svg"><path d="M2.880 12.000 L 2.880 21.000 11.488 21.000 L 20.097 21.000 19.934 20.830 C 19.845 20.737,17.906 18.712,15.625 16.330 L 11.478 12.000 15.625 7.670 C 17.906 5.288,19.845 3.264,19.934 3.170 L 20.097 3.000 11.488 3.000 L 2.880 3.000 2.880 12.000 M15.157 5.310 C 14.995 5.480,13.494 7.048,11.822 8.794 C 10.149 10.540,8.780 11.983,8.780 12.000 C 8.780 12.017,10.149 13.460,11.822 15.206 C 13.494 16.952,14.995 18.520,15.157 18.690 L 15.450 19.000 10.165 19.000 L 4.880 19.000 4.880 12.000 L 4.880 5.000 10.165 5.000 L 15.450 5.000 15.157 5.310 " stroke="none" fill-rule="evenodd" fill="black"></path></svg>