<svg width="24" height="24" viewBox="0 0 24 24" fill="none" xmlns="http://www.w3.org/2000/svg"><path d="M4.646 3.429 C 3.393 4.154,2.765 4.540,2.706 4.620 L 2.620 4.738 2.609 10.893 C 2.602 15.075,2.612 17.097,2.641 17.203 C 2.667 17.300,2.731 17.394,2.811 17.455 C 2.928 17.542,9.635 21.414,9.957 21.579 C 10.259 21.734,10.170 21.778,14.020 19.562 C 15.978 18.435,17.634 17.461,17.700 17.396 L 17.820 17.279 17.840 15.291 L 17.860 13.304 19.534 12.341 C 20.657 11.695,21.237 11.338,21.294 11.259 C 21.379 11.143,21.380 11.115,21.392 9.041 C 21.400 7.673,21.390 6.891,21.363 6.798 C 21.340 6.720,21.272 6.609,21.211 6.552 C 21.118 6.464,18.053 4.672,17.592 4.436 C 17.280 4.277,17.297 4.270,15.284 5.430 C 14.102 6.111,13.398 6.541,13.344 6.613 C 13.262 6.723,13.260 6.772,13.240 8.702 L 13.220 10.679 12.000 11.379 L 10.780 12.078 10.760 8.409 C 10.739 4.600,10.742 4.665,10.572 4.511 C 10.530 4.473,9.687 3.980,8.698 3.416 C 7.129 2.520,6.875 2.387,6.700 2.373 C 6.501 2.357,6.489 2.363,4.646 3.429 M7.923 4.188 C 8.602 4.578,9.149 4.904,9.140 4.913 C 9.131 4.922,8.572 5.248,7.897 5.638 L 6.670 6.347 5.485 5.669 C 4.833 5.296,4.277 4.969,4.250 4.943 C 4.210 4.907,4.463 4.743,5.410 4.192 C 6.075 3.804,6.636 3.486,6.655 3.484 C 6.674 3.482,7.245 3.799,7.923 4.188 M18.554 6.194 C 19.217 6.575,19.760 6.899,19.759 6.914 C 19.759 6.928,19.206 7.257,18.532 7.644 L 17.305 8.347 16.074 7.644 C 15.397 7.257,14.847 6.927,14.852 6.910 C 14.862 6.872,17.291 5.476,17.323 5.490 C 17.337 5.495,17.890 5.812,18.554 6.194 M4.775 6.464 C 5.372 6.808,5.928 7.132,6.010 7.185 L 6.160 7.281 6.160 11.247 L 6.160 15.212 6.257 15.340 C 6.326 15.430,6.838 15.740,8.016 16.403 L 9.678 17.340 9.679 18.773 C 9.680 19.562,9.665 20.201,9.647 20.193 C 9.629 20.186,8.270 19.406,6.627 18.460 L 3.640 16.741 3.640 11.290 C 3.640 8.293,3.651 5.840,3.665 5.840 C 3.678 5.840,4.178 6.121,4.775 6.464 M9.679 9.270 L 9.679 12.700 8.473 13.400 C 7.810 13.785,7.252 14.106,7.233 14.113 C 7.215 14.121,7.204 12.575,7.210 10.679 L 7.220 7.231 8.420 6.536 C 9.080 6.154,9.633 5.841,9.650 5.841 C 9.666 5.840,9.680 7.384,9.679 9.270 M15.542 8.543 L 16.760 9.247 16.760 10.665 L 16.760 12.083 16.590 11.984 C 16.497 11.929,15.943 11.608,15.360 11.271 L 14.300 10.658 14.289 9.249 C 14.284 8.474,14.289 7.840,14.302 7.840 C 14.314 7.840,14.872 8.157,15.542 8.543 M20.320 9.250 L 20.319 10.660 19.273 11.260 C 18.698 11.590,18.140 11.910,18.033 11.971 L 17.840 12.082 17.840 10.664 L 17.840 9.247 19.050 8.545 C 19.715 8.160,20.273 7.843,20.290 7.842 C 20.306 7.841,20.320 8.475,20.320 9.250 M15.021 12.280 C 15.681 12.660,16.226 12.975,16.232 12.981 C 16.239 12.987,14.886 13.768,13.226 14.717 L 10.207 16.442 8.985 15.751 C 8.313 15.371,7.767 15.045,7.772 15.028 C 7.787 14.976,13.735 11.559,13.781 11.576 C 13.804 11.584,14.362 11.901,15.021 12.280 M16.760 15.336 L 16.760 16.751 13.762 18.476 C 12.114 19.424,10.754 20.200,10.742 20.200 C 10.729 20.200,10.724 19.557,10.729 18.771 L 10.740 17.343 13.720 15.635 C 15.359 14.696,16.713 13.926,16.730 13.924 C 16.747 13.922,16.760 14.557,16.760 15.336 " fill="#EF4444" stroke="none" fill-rule="evenodd"></path></svg>