<svg width="24" height="24" viewBox="0 0 24 24" fill="none" xmlns="http://www.w3.org/2000/svg"><path d="M11.336 2.043 C 6.757 2.335,2.927 5.794,2.162 10.327 C 1.504 14.228,3.198 18.132,6.502 20.330 C 9.794 22.519,14.206 22.519,17.498 20.330 C 21.764 17.492,23.205 11.941,20.853 7.400 C 19.421 4.634,16.742 2.680,13.673 2.162 C 13.243 2.090,12.131 1.992,11.900 2.007 C 11.856 2.009,11.602 2.026,11.336 2.043 M12.720 4.521 C 15.999 4.861,18.664 7.235,19.343 10.419 C 19.916 13.110,19.002 15.848,16.920 17.671 C 14.693 19.622,11.447 20.064,8.769 18.780 C 7.214 18.035,5.966 16.787,5.221 15.234 C 3.828 12.327,4.461 8.832,6.785 6.599 C 8.383 5.064,10.571 4.298,12.720 4.521 M11.340 7.046 C 10.849 7.108,10.317 7.273,9.820 7.517 C 8.566 8.132,7.649 9.183,7.247 10.468 C 7.050 11.096,7.021 11.291,7.021 12.000 C 7.021 12.709,7.050 12.904,7.247 13.532 C 7.786 15.253,9.273 16.563,11.100 16.925 C 11.468 16.998,12.532 16.998,12.900 16.925 C 13.802 16.746,14.681 16.316,15.292 15.754 L 15.525 15.540 14.649 14.667 L 13.773 13.794 13.466 14.014 C 12.989 14.357,12.573 14.489,11.980 14.486 C 11.407 14.484,10.958 14.333,10.492 13.987 C 9.879 13.532,9.521 12.800,9.521 12.000 C 9.521 11.022,10.039 10.186,10.905 9.763 C 11.247 9.597,11.589 9.521,12.000 9.521 C 12.592 9.521,13.092 9.693,13.565 10.058 L 13.789 10.232 14.663 9.357 L 15.537 8.482 15.419 8.357 C 15.183 8.109,14.650 7.748,14.180 7.517 C 13.288 7.079,12.327 6.920,11.340 7.046 " fill="#64748B" stroke="none" fill-rule="evenodd"></path></svg>