<svg width="24" height="24" viewBox="0 0 24 24" fill="none" xmlns="http://www.w3.org/2000/svg"><path d="M17.615 3.039 C 16.786 3.165,16.099 3.767,15.834 4.600 C 15.719 4.965,15.719 5.635,15.834 6.000 C 15.994 6.502,16.322 6.940,16.756 7.228 C 17.432 7.678,18.387 7.685,19.071 7.246 C 20.051 6.615,20.387 5.283,19.839 4.198 C 19.437 3.402,18.487 2.907,17.615 3.039 M9.340 5.383 C 7.387 5.682,5.652 6.740,4.430 8.378 C 3.604 9.486,3.086 10.835,2.917 12.320 C 2.859 12.833,2.890 13.951,2.977 14.460 C 3.508 17.572,5.726 20.053,8.620 20.773 C 9.325 20.949,9.586 20.979,10.400 20.979 C 11.236 20.979,11.491 20.948,12.239 20.756 C 14.500 20.176,16.424 18.448,17.340 16.176 C 17.523 15.723,17.706 15.077,17.809 14.520 C 17.925 13.887,17.934 12.460,17.825 11.860 C 17.507 10.121,16.827 8.763,15.683 7.585 C 14.491 6.359,13.071 5.623,11.435 5.382 C 10.912 5.306,9.843 5.306,9.340 5.383 M13.996 7.661 C 14.609 7.806,15.161 8.248,15.443 8.820 C 15.706 9.351,15.774 9.841,15.660 10.379 C 15.472 11.264,14.777 11.977,13.928 12.155 C 12.885 12.375,11.818 11.726,11.435 10.640 C 11.304 10.268,11.302 9.582,11.430 9.173 C 11.775 8.075,12.911 7.406,13.996 7.661 " fill="#2563EB" stroke="none" fill-rule="evenodd"></path></svg>