<svg width="24" height="24" viewBox="0 0 24 24" fill="none" xmlns="http://www.w3.org/2000/svg"><path d="M7.027 3.190 C 6.810 3.407,3.937 12.869,3.202 15.785 C 3.113 16.140,3.040 16.458,3.040 16.492 C 3.040 16.564,3.311 16.672,4.500 17.071 C 7.721 18.153,14.632 20.284,16.135 20.660 C 16.656 20.790,16.760 20.774,16.943 20.534 C 17.012 20.443,17.136 20.210,17.218 20.015 C 17.772 18.704,21.039 8.187,21.040 7.712 C 21.040 7.673,20.966 7.600,20.870 7.545 C 20.249 7.187,17.238 6.182,11.340 4.366 C 8.647 3.536,7.252 3.120,7.166 3.120 C 7.128 3.120,7.066 3.151,7.027 3.190 M17.745 7.857 C 18.345 8.062,19.138 8.366,19.316 8.458 C 19.468 8.537,19.472 8.607,19.358 9.174 C 19.206 9.928,18.894 10.880,18.799 10.880 C 18.615 10.880,17.136 10.338,16.745 10.127 L 16.550 10.022 16.573 9.781 C 16.593 9.572,16.984 7.944,17.061 7.750 C 17.101 7.649,17.172 7.660,17.745 7.857 " fill="#0EA5E9" stroke="none" fill-rule="evenodd"></path></svg>