<svg width="24" height="24" viewBox="0 0 24 24" fill="none" xmlns="http://www.w3.org/2000/svg"><path d="M3.000 11.859 L 3.000 15.720 4.160 15.720 L 5.319 15.720 5.330 13.515 L 5.340 11.310 6.471 12.693 C 7.093 13.454,7.615 14.085,7.631 14.094 C 7.647 14.104,8.173 13.485,8.800 12.718 L 9.940 11.323 9.950 13.522 L 9.961 15.720 11.120 15.720 L 12.280 15.720 12.280 11.860 L 12.280 8.000 11.123 8.000 L 9.965 8.000 8.818 9.402 C 8.188 10.173,7.656 10.798,7.636 10.792 C 7.617 10.785,7.092 10.159,6.470 9.400 L 5.340 8.020 4.170 8.009 L 3.000 7.999 3.000 11.859 M16.360 9.979 L 16.360 11.959 15.200 11.969 L 14.041 11.980 15.765 13.832 C 16.713 14.850,17.507 15.678,17.530 15.670 C 17.552 15.663,18.340 14.829,19.281 13.818 L 20.991 11.980 19.835 11.969 L 18.680 11.959 18.680 9.979 L 18.680 8.000 17.520 8.000 L 16.360 8.000 16.360 9.979 " fill="#60A5FA" stroke="none" fill-rule="evenodd"></path></svg>