<svg width="24" height="24" viewBox="0 0 24 24" fill="none" xmlns="http://www.w3.org/2000/svg"><path d="M6.720 4.801 C 6.217 4.981,5.771 5.434,5.594 5.946 L 5.500 6.220 5.500 12.000 L 5.500 17.780 5.594 18.054 C 5.780 18.591,6.241 19.045,6.781 19.222 C 7.013 19.298,7.170 19.300,12.500 19.300 C 17.830 19.300,17.987 19.298,18.219 19.222 C 18.759 19.045,19.220 18.591,19.406 18.054 L 19.500 17.780 19.500 12.000 L 19.500 6.220 19.406 5.946 C 19.225 5.424,18.752 4.952,18.245 4.789 C 18.046 4.725,17.629 4.720,12.485 4.721 C 7.080 4.723,6.934 4.725,6.720 4.801 M11.494 9.730 C 11.751 10.967,11.998 12.232,12.043 12.539 C 12.156 13.316,12.164 13.316,12.277 12.539 C 12.322 12.232,12.569 10.967,12.826 9.730 L 13.295 7.480 14.347 7.480 L 15.400 7.480 15.400 12.340 L 15.400 17.200 14.656 17.200 L 13.912 17.200 13.926 13.200 C 13.934 11.000,13.927 9.200,13.912 9.200 C 13.896 9.200,13.875 9.258,13.863 9.330 C 13.696 10.402,13.576 11.055,13.227 12.780 L 12.814 14.820 12.160 14.820 L 11.506 14.820 11.114 12.880 C 10.784 11.251,10.652 10.535,10.457 9.330 C 10.446 9.258,10.424 9.200,10.408 9.200 C 10.393 9.200,10.386 11.000,10.394 13.200 L 10.408 17.200 9.664 17.200 L 8.920 17.200 8.920 12.340 L 8.920 7.480 9.973 7.480 L 11.025 7.480 11.494 9.730 " fill="#FBBF24" stroke="none" fill-rule="evenodd"></path></svg>