<svg width="24" height="24" viewBox="0 0 24 24" fill="none" xmlns="http://www.w3.org/2000/svg"><path d="M5.225 4.044 C 4.664 4.177,4.174 4.676,4.042 5.248 C 3.987 5.483,3.987 18.517,4.042 18.752 C 4.152 19.230,4.453 19.603,4.911 19.829 L 5.216 19.980 11.998 19.980 L 18.780 19.980 19.047 19.853 C 19.419 19.677,19.651 19.450,19.831 19.086 L 19.980 18.784 19.980 12.002 L 19.980 5.220 19.853 4.953 C 19.677 4.581,19.450 4.349,19.086 4.169 L 18.784 4.020 12.082 4.014 C 8.125 4.010,5.316 4.023,5.225 4.044 M10.400 8.800 L 10.400 10.400 12.000 10.400 L 13.600 10.400 13.600 8.800 L 13.600 7.200 15.200 7.200 L 16.800 7.200 16.800 8.800 L 16.800 10.400 15.200 10.400 L 13.600 10.400 13.600 11.200 L 13.600 12.000 14.400 12.000 L 15.200 12.000 15.200 14.400 L 15.200 16.800 14.400 16.800 L 13.600 16.800 13.600 16.000 L 13.600 15.200 12.000 15.200 L 10.400 15.200 10.400 16.000 L 10.400 16.800 9.600 16.800 L 8.800 16.800 8.800 14.400 L 8.800 12.000 9.600 12.000 L 10.400 12.000 10.400 11.200 L 10.400 10.400 8.800 10.400 L 7.200 10.400 7.200 8.800 L 7.200 7.200 8.800 7.200 L 10.400 7.200 10.400 8.800 " fill="#22C55E" stroke="none" fill-rule="evenodd"></path></svg>