<svg width="24" height="24" viewBox="0 0 24 24" fill="none" xmlns="http://www.w3.org/2000/svg"><path d="M11.700 2.330 C 11.437 2.641,10.910 3.223,9.935 4.280 C 8.051 6.323,6.918 8.472,6.620 10.568 C 6.542 11.114,6.543 12.176,6.622 12.715 C 6.846 14.251,7.518 15.726,8.647 17.155 C 9.257 17.929,10.432 19.037,11.152 19.520 C 11.266 19.597,11.367 19.696,11.376 19.740 C 11.384 19.784,11.441 20.288,11.501 20.860 C 11.561 21.432,11.619 21.922,11.629 21.950 C 11.643 21.985,11.756 22.000,12.000 22.000 L 12.351 22.000 12.375 21.870 C 12.409 21.683,12.550 20.441,12.583 20.034 L 12.610 19.688 13.115 19.307 C 15.328 17.639,16.819 15.449,17.301 13.160 C 17.431 12.547,17.480 11.366,17.402 10.732 C 17.141 8.589,15.995 6.373,14.065 4.280 C 13.090 3.223,12.563 2.641,12.300 2.330 C 12.146 2.148,12.011 2.000,12.000 2.000 C 11.989 2.000,11.854 2.148,11.700 2.330 M12.284 13.993 L 12.548 18.980 12.464 19.074 C 12.418 19.126,12.294 19.240,12.190 19.328 L 12.000 19.488 11.742 19.279 C 11.601 19.164,11.476 19.047,11.465 19.020 C 11.455 18.992,11.561 16.794,11.702 14.135 C 11.843 11.476,11.959 9.220,11.959 9.123 C 11.960 9.026,11.973 8.960,11.990 8.977 C 12.007 8.993,12.139 11.251,12.284 13.993 " fill="#22C55E" stroke="none" fill-rule="evenodd"></path></svg>