<svg width="24" height="24" viewBox="0 0 24 24" fill="none" xmlns="http://www.w3.org/2000/svg"><path d="M13.328 3.034 C 13.237 3.060,13.238 3.063,13.383 3.200 C 13.711 3.513,13.772 3.946,13.555 4.424 C 13.403 4.758,13.387 5.016,13.499 5.300 L 13.578 5.500 13.606 5.223 C 13.650 4.798,13.788 4.567,14.220 4.200 C 14.441 4.012,14.585 3.859,14.593 3.803 C 14.615 3.655,14.522 3.489,14.311 3.299 C 14.034 3.050,13.644 2.945,13.328 3.034 M15.044 3.514 C 14.979 3.844,14.801 4.095,14.482 4.302 C 14.152 4.517,13.987 4.689,13.882 4.926 C 13.768 5.183,13.745 5.422,13.811 5.666 C 13.866 5.869,13.865 5.872,13.783 5.840 C 12.966 5.522,12.714 5.435,12.360 5.348 C 11.624 5.168,11.082 5.103,10.300 5.103 C 9.223 5.103,8.333 5.246,7.713 5.520 C 7.077 5.800,6.814 5.983,6.234 6.546 C 5.932 6.839,5.574 7.150,5.439 7.238 C 5.118 7.445,4.661 7.620,4.216 7.705 C 4.020 7.742,3.778 7.814,3.677 7.863 C 3.217 8.091,2.897 8.747,3.038 9.173 C 3.087 9.322,3.402 9.637,3.607 9.744 C 3.669 9.776,3.720 9.829,3.720 9.862 C 3.720 9.968,3.908 10.299,4.047 10.437 C 4.120 10.510,4.268 10.611,4.376 10.662 L 4.572 10.755 4.576 11.014 C 4.578 11.157,4.595 11.288,4.613 11.307 C 4.646 11.339,4.837 11.153,4.968 10.960 C 5.034 10.862,5.036 10.869,5.038 11.228 C 5.039 11.430,5.055 11.605,5.073 11.616 C 5.116 11.642,5.351 11.395,5.514 11.153 C 5.676 10.913,5.798 10.882,6.707 10.852 C 7.251 10.835,7.479 10.844,7.805 10.899 C 10.005 11.267,11.766 13.004,12.173 15.210 C 12.205 15.380,12.226 15.520,12.221 15.520 C 12.215 15.520,12.166 15.452,12.111 15.369 C 11.993 15.191,11.683 15.011,11.461 14.993 L 11.303 14.980 11.137 15.286 C 10.959 15.617,10.803 15.824,10.630 15.959 L 10.521 16.045 10.545 15.924 C 10.575 15.776,10.525 15.200,10.483 15.200 C 10.466 15.200,10.430 15.276,10.402 15.370 C 10.339 15.580,10.187 15.885,10.033 16.110 C 9.926 16.265,9.902 16.280,9.748 16.278 C 9.372 16.275,8.909 16.008,8.766 15.712 C 8.659 15.490,8.658 15.366,8.763 15.123 C 8.943 14.703,8.809 14.488,8.345 14.450 C 8.008 14.423,7.772 14.508,7.515 14.748 C 7.286 14.963,7.155 15.253,7.130 15.601 C 7.092 16.114,7.360 16.799,7.756 17.205 L 7.980 17.434 7.740 17.481 C 7.311 17.565,7.302 17.590,7.644 17.762 C 7.971 17.926,8.627 18.131,9.040 18.198 C 9.647 18.295,10.358 18.220,11.046 17.985 C 12.427 17.514,13.547 16.278,13.868 14.870 C 13.935 14.579,13.996 14.471,14.003 14.630 C 14.005 14.668,14.020 14.853,14.036 15.040 C 14.167 16.520,13.530 18.002,12.367 18.917 C 12.188 19.058,12.047 19.181,12.056 19.189 C 12.116 19.250,13.646 18.845,14.218 18.616 C 14.345 18.566,13.976 19.015,13.535 19.448 C 12.953 20.020,12.514 20.349,11.838 20.718 L 11.460 20.925 11.740 20.900 C 12.553 20.826,13.425 20.563,14.280 20.132 C 15.445 19.547,16.354 18.740,17.088 17.640 C 17.243 17.409,17.374 17.214,17.381 17.206 C 17.388 17.199,17.366 17.316,17.333 17.466 C 17.167 18.217,16.755 19.201,16.334 19.854 L 16.157 20.127 16.405 19.954 C 17.043 19.508,17.741 18.782,18.211 18.075 C 18.682 17.367,19.109 16.350,19.274 15.542 C 19.327 15.283,19.354 15.211,19.371 15.282 C 19.451 15.618,19.494 16.105,19.497 16.691 C 19.500 17.451,19.471 17.436,19.830 16.860 C 21.213 14.640,21.368 12.011,20.270 9.400 C 19.955 8.650,19.577 7.976,19.126 7.360 C 18.870 7.011,18.521 6.600,18.479 6.600 C 18.463 6.600,18.438 6.708,18.423 6.839 C 18.293 7.990,17.423 9.015,16.241 9.409 C 15.882 9.529,15.827 9.536,15.280 9.535 C 14.859 9.534,14.651 9.516,14.520 9.471 C 14.350 9.411,14.347 9.408,14.464 9.404 C 14.680 9.397,15.200 9.245,15.495 9.104 C 16.291 8.721,16.888 8.012,17.166 7.120 C 17.246 6.864,17.260 6.738,17.259 6.260 C 17.257 5.734,17.249 5.677,17.127 5.320 C 16.973 4.873,16.764 4.506,16.485 4.196 C 16.214 3.893,15.491 3.402,15.175 3.304 C 15.099 3.281,15.086 3.301,15.044 3.514 " fill="#60A5FA" stroke="none" fill-rule="evenodd"></path></svg>