<svg width="24" height="24" viewBox="0 0 24 24" fill="none" xmlns="http://www.w3.org/2000/svg"><path d="M11.755 2.535 C 11.654 2.562,11.501 2.641,11.415 2.710 C 11.330 2.779,10.527 3.569,9.631 4.467 L 8.003 6.100 9.337 6.663 L 10.671 7.226 10.846 7.123 C 10.997 7.034,11.066 7.020,11.364 7.020 L 11.708 7.020 12.739 5.422 L 13.771 3.823 13.188 3.254 C 12.867 2.940,12.536 2.650,12.452 2.607 C 12.244 2.502,11.977 2.475,11.755 2.535 M13.173 5.850 L 12.167 7.416 12.238 7.558 C 12.278 7.636,12.322 7.755,12.336 7.822 C 12.362 7.939,12.413 7.965,13.831 8.567 L 15.300 9.190 15.460 9.105 C 15.548 9.058,15.623 9.020,15.627 9.019 C 15.631 9.019,15.739 8.375,15.866 7.588 L 16.097 6.157 15.159 5.219 C 14.643 4.702,14.211 4.281,14.200 4.282 C 14.189 4.282,13.727 4.988,13.173 5.850 M6.431 7.670 L 5.322 8.780 6.514 10.518 L 7.706 12.257 8.023 12.262 L 8.340 12.267 9.489 10.486 C 10.503 8.914,10.631 8.697,10.581 8.641 C 10.457 8.504,10.362 8.218,10.361 7.978 L 10.360 7.737 8.969 7.148 C 8.204 6.825,7.570 6.560,7.559 6.560 C 7.548 6.560,7.041 7.060,6.431 7.670 M16.423 7.885 L 16.234 9.049 16.367 9.163 C 16.440 9.226,16.514 9.277,16.531 9.278 C 16.563 9.280,18.367 8.522,18.398 8.494 C 18.418 8.475,16.675 6.720,16.636 6.720 C 16.623 6.720,16.527 7.244,16.423 7.885 M12.051 8.701 C 11.862 8.893,11.603 8.999,11.323 9.001 L 11.140 9.002 10.005 10.763 C 9.381 11.731,8.878 12.531,8.886 12.540 C 8.910 12.564,14.936 9.991,14.969 9.943 C 14.986 9.919,14.999 9.855,14.999 9.800 C 14.999 9.707,14.911 9.663,13.674 9.140 C 12.945 8.832,12.320 8.569,12.284 8.555 C 12.242 8.539,12.163 8.588,12.051 8.701 M17.829 9.389 C 17.284 9.622,16.846 9.820,16.855 9.829 C 16.909 9.883,21.462 11.784,21.473 11.757 C 21.518 11.638,21.239 11.313,20.125 10.190 C 19.454 9.514,18.886 8.961,18.863 8.963 C 18.839 8.965,18.374 9.156,17.829 9.389 M3.750 10.351 C 2.657 11.449,2.520 11.617,2.520 11.856 C 2.520 11.930,2.546 11.959,2.630 11.977 C 2.691 11.989,3.685 12.198,4.840 12.440 L 6.940 12.880 7.066 12.730 C 7.136 12.648,7.181 12.559,7.166 12.534 C 7.085 12.392,4.896 9.242,4.878 9.241 C 4.867 9.240,4.359 9.740,3.750 10.351 M16.485 10.495 C 16.406 10.579,16.228 10.673,16.035 10.734 C 15.961 10.757,15.982 10.650,15.658 12.647 L 15.426 14.074 15.551 14.216 C 15.620 14.295,15.699 14.433,15.726 14.524 C 15.753 14.614,15.794 14.695,15.818 14.704 C 15.896 14.734,18.537 15.280,18.601 15.280 C 18.671 15.280,21.281 12.674,21.358 12.527 C 21.385 12.475,21.400 12.427,21.392 12.419 C 21.367 12.393,16.642 10.400,16.607 10.400 C 16.589 10.400,16.534 10.443,16.485 10.495 M12.167 11.808 C 9.176 13.085,9.155 13.095,9.180 13.197 C 9.194 13.254,9.219 13.314,9.235 13.330 C 9.251 13.347,10.352 13.585,11.682 13.861 L 14.100 14.361 14.200 14.251 C 14.378 14.054,14.476 13.989,14.670 13.939 L 14.859 13.891 15.126 12.256 C 15.368 10.772,15.387 10.615,15.329 10.570 C 15.294 10.543,15.246 10.520,15.222 10.521 C 15.199 10.521,13.824 11.100,12.167 11.808 M3.620 13.520 C 4.104 14.004,4.515 14.400,4.535 14.400 C 4.570 14.400,6.519 13.584,6.653 13.512 C 6.694 13.491,6.718 13.465,6.708 13.455 C 6.686 13.432,2.887 12.641,2.800 12.640 C 2.768 12.640,3.136 13.036,3.620 13.520 M8.997 13.983 C 8.954 14.035,8.955 14.062,9.003 14.138 C 9.034 14.189,10.040 15.646,11.238 17.376 L 13.417 20.522 13.616 20.323 L 13.816 20.123 14.187 17.872 C 14.391 16.633,14.558 15.610,14.559 15.598 C 14.559 15.585,14.483 15.521,14.389 15.455 C 14.287 15.383,14.178 15.256,14.117 15.139 L 14.017 14.943 11.558 14.433 C 10.206 14.153,9.089 13.923,9.075 13.922 C 9.061 13.921,9.026 13.948,8.997 13.983 M6.000 14.433 C 5.461 14.664,5.012 14.860,5.002 14.868 C 4.992 14.876,5.208 15.107,5.481 15.381 C 5.868 15.769,5.988 15.868,6.024 15.830 C 6.072 15.778,7.008 14.335,7.078 14.204 C 7.108 14.148,7.100 14.116,7.049 14.071 C 6.987 14.018,6.882 14.054,6.000 14.433 M8.400 14.480 C 8.301 14.541,7.950 14.568,7.772 14.528 L 7.604 14.489 7.043 15.358 C 6.735 15.836,6.473 16.252,6.461 16.283 C 6.434 16.354,11.396 21.319,11.600 21.425 C 11.792 21.524,12.211 21.523,12.400 21.423 C 12.561 21.337,12.960 21.006,12.960 20.958 C 12.960 20.920,8.620 14.611,8.525 14.511 C 8.480 14.464,8.442 14.454,8.400 14.480 M15.437 15.411 C 15.359 15.482,15.266 15.558,15.232 15.580 C 15.185 15.610,15.099 16.065,14.883 17.420 C 14.725 18.410,14.586 19.256,14.574 19.300 C 14.562 19.344,15.355 18.579,16.337 17.600 C 17.770 16.169,18.107 15.814,18.050 15.791 C 17.987 15.765,15.651 15.278,15.601 15.281 C 15.589 15.282,15.516 15.340,15.437 15.411 " fill="#2DD4BF" stroke="none" fill-rule="evenodd"></path></svg>