<svg width="24" height="24" viewBox="0 0 24 24" fill="none" xmlns="http://www.w3.org/2000/svg"><path d="M14.954 4.530 C 14.731 4.719,14.741 4.545,14.727 8.320 C 14.718 10.840,14.727 11.876,14.760 12.020 C 14.814 12.256,15.524 13.410,15.693 13.535 C 15.900 13.690,16.223 13.602,16.349 13.356 C 16.388 13.282,16.399 12.311,16.399 9.048 C 16.400 4.457,16.413 4.710,16.175 4.524 C 16.080 4.449,16.016 4.440,15.565 4.440 C 15.100 4.440,15.052 4.448,14.954 4.530 M6.780 4.854 C 6.714 4.884,6.624 4.949,6.580 4.999 C 6.501 5.087,6.500 5.162,6.477 10.534 C 6.464 13.529,6.467 16.041,6.484 16.116 C 6.501 16.192,6.570 16.309,6.638 16.376 C 6.759 16.498,6.769 16.500,7.218 16.513 C 7.741 16.529,7.893 16.483,8.022 16.269 C 8.098 16.144,8.101 16.019,8.122 12.180 C 8.134 10.002,8.147 8.216,8.152 8.210 C 8.156 8.205,8.196 8.200,8.241 8.200 C 8.334 8.200,8.200 7.999,11.349 12.857 C 13.021 15.434,13.875 16.706,15.031 18.337 C 16.352 20.200,17.830 22.276,17.861 22.312 C 17.867 22.319,18.071 22.202,18.314 22.053 L 18.757 21.781 18.685 21.661 C 18.551 21.433,11.511 10.302,9.810 7.628 C 8.843 6.108,8.067 4.927,8.009 4.889 C 7.870 4.798,6.958 4.772,6.780 4.854 " fill="#64748B" stroke="none" fill-rule="evenodd"></path></svg>