<svg width="24" height="24" viewBox="0 0 24 24" fill="none" xmlns="http://www.w3.org/2000/svg"><path d="M6.706 3.482 L 6.431 3.964 7.066 5.068 C 7.414 5.675,7.706 6.187,7.713 6.206 C 7.721 6.225,7.136 6.240,6.413 6.240 L 5.100 6.241 4.568 7.185 C 4.275 7.704,4.043 8.136,4.051 8.145 C 4.060 8.153,6.245 8.156,8.906 8.150 L 13.745 8.140 13.198 7.200 L 12.652 6.260 11.326 6.249 L 10.000 6.239 9.917 6.109 C 9.871 6.038,9.452 5.314,8.986 4.500 L 8.140 3.020 7.560 3.010 L 6.980 3.001 6.706 3.482 M11.357 3.037 L 11.053 3.060 13.466 7.240 C 14.794 9.539,15.893 11.418,15.908 11.415 C 15.944 11.408,17.000 9.566,17.000 9.509 C 17.000 9.486,16.712 8.966,16.360 8.355 C 16.008 7.744,15.720 7.227,15.720 7.208 C 15.720 7.188,16.135 6.458,16.643 5.585 L 17.565 3.998 17.279 3.498 L 16.993 2.998 16.434 3.009 L 15.874 3.020 15.230 4.131 C 14.876 4.742,14.572 5.228,14.556 5.211 C 14.540 5.194,14.244 4.690,13.899 4.090 L 13.272 3.000 12.466 3.007 C 12.023 3.011,11.523 3.025,11.357 3.037 M18.948 6.606 C 18.885 6.705,14.505 14.294,14.282 14.690 L 14.152 14.920 15.272 14.920 L 16.392 14.920 17.048 13.790 L 17.704 12.660 19.574 12.640 L 21.444 12.620 21.724 12.135 L 22.004 11.651 21.727 11.175 L 21.451 10.700 20.151 10.680 L 18.851 10.660 19.503 9.540 C 20.083 8.542,20.149 8.411,20.104 8.340 C 20.076 8.296,19.832 7.882,19.561 7.420 C 19.290 6.958,19.055 6.565,19.038 6.546 C 19.021 6.527,18.981 6.554,18.948 6.606 M8.144 8.438 L 7.587 8.460 6.937 9.580 L 6.287 10.700 4.416 10.720 L 2.544 10.740 2.272 11.214 L 2.000 11.689 2.268 12.159 L 2.536 12.630 2.834 12.655 C 2.998 12.669,3.581 12.680,4.130 12.680 C 4.983 12.680,5.125 12.688,5.106 12.738 C 5.094 12.769,4.806 13.273,4.466 13.856 L 3.848 14.918 4.413 15.877 C 4.724 16.405,4.991 16.824,5.005 16.809 C 5.040 16.772,9.803 8.520,9.829 8.451 C 9.850 8.397,9.319 8.392,8.144 8.438 M7.560 12.827 C 7.263 13.345,7.015 13.791,7.008 13.817 C 7.002 13.844,7.292 14.378,7.652 15.004 L 8.307 16.142 7.372 17.747 L 6.438 19.352 6.715 19.826 L 6.992 20.300 7.566 20.310 L 8.140 20.320 8.777 19.220 C 9.127 18.615,9.424 18.120,9.437 18.120 C 9.449 18.121,9.748 18.627,10.100 19.246 L 10.740 20.370 11.840 20.342 C 12.444 20.327,12.945 20.309,12.951 20.302 C 12.962 20.291,8.176 11.972,8.124 11.912 C 8.111 11.897,7.857 12.309,7.560 12.827 M10.309 15.290 C 10.351 15.362,10.607 15.803,10.878 16.270 L 11.371 17.120 12.699 17.120 L 14.028 17.120 14.944 18.720 L 15.860 20.321 16.439 20.310 L 17.019 20.300 17.291 19.830 L 17.563 19.361 16.925 18.250 L 16.288 17.140 17.581 17.129 L 18.874 17.119 19.407 16.172 C 19.700 15.652,19.946 15.211,19.953 15.193 C 19.961 15.175,17.776 15.160,15.099 15.160 L 10.232 15.160 10.309 15.290 " fill="#60A5FA" stroke="none" fill-rule="evenodd"></path></svg>