<svg width="24" height="24" viewBox="0 0 24 24" fill="none" xmlns="http://www.w3.org/2000/svg"><path d="M11.780 1.677 C 11.714 1.693,11.597 1.739,11.520 1.779 C 11.188 1.951,3.328 6.503,3.211 6.591 C 3.140 6.644,3.032 6.790,2.971 6.914 L 2.860 7.140 2.860 12.060 L 2.860 16.980 2.950 17.162 C 2.999 17.263,3.089 17.392,3.150 17.449 C 3.305 17.595,11.501 22.319,11.720 22.389 C 11.931 22.456,12.218 22.434,12.408 22.337 C 12.481 22.299,14.367 21.217,16.600 19.931 C 20.977 17.411,20.970 17.415,21.075 17.034 C 21.111 16.902,21.120 15.668,21.111 11.960 L 21.100 7.060 21.014 6.900 C 20.966 6.812,20.876 6.692,20.814 6.634 C 20.622 6.455,12.442 1.751,12.221 1.693 C 12.005 1.635,11.960 1.634,11.780 1.677 M6.864 6.124 C 7.475 7.381,8.310 8.117,9.246 8.224 L 9.472 8.250 10.546 7.631 C 11.873 6.866,11.845 6.880,12.021 6.880 C 12.195 6.880,12.088 6.826,13.455 7.610 L 14.569 8.250 14.795 8.224 C 15.735 8.117,16.571 7.374,17.186 6.103 L 17.378 5.706 17.426 5.943 C 17.670 7.143,17.565 8.285,17.132 9.160 C 17.029 9.369,16.943 9.556,16.942 9.576 C 16.941 9.595,17.046 9.676,17.176 9.756 C 17.596 10.012,17.560 9.602,17.560 14.131 L 17.560 18.084 17.462 18.182 C 17.408 18.236,17.320 18.280,17.267 18.280 C 17.128 18.280,14.089 16.528,13.984 16.387 C 13.902 16.277,13.900 16.227,13.880 14.267 C 13.860 12.266,13.860 12.260,13.770 12.134 C 13.711 12.051,13.431 11.864,12.946 11.584 C 12.292 11.207,12.191 11.160,12.020 11.160 C 11.849 11.160,11.748 11.207,11.094 11.584 C 10.609 11.864,10.329 12.051,10.270 12.134 C 10.180 12.260,10.180 12.266,10.160 14.267 C 10.140 16.227,10.138 16.277,10.056 16.387 C 9.951 16.528,6.912 18.280,6.773 18.280 C 6.720 18.280,6.632 18.236,6.578 18.182 L 6.480 18.084 6.480 14.138 C 6.480 9.607,6.444 10.015,6.869 9.748 C 7.009 9.661,7.118 9.578,7.111 9.565 C 7.105 9.551,7.029 9.405,6.944 9.240 C 6.477 8.336,6.368 7.288,6.604 5.968 C 6.629 5.829,6.656 5.723,6.665 5.732 C 6.674 5.740,6.763 5.917,6.864 6.124 " fill="#14B8A6" stroke="none" fill-rule="evenodd"></path></svg>