<svg width="24" height="24" viewBox="0 0 24 24" fill="none" xmlns="http://www.w3.org/2000/svg"><path d="M11.629 2.041 C 11.414 2.095,11.579 2.003,7.500 4.352 C 3.516 6.645,3.489 6.663,3.290 7.088 C 3.241 7.192,3.183 7.354,3.162 7.448 C 3.137 7.556,3.122 9.258,3.121 12.006 C 3.120 16.262,3.122 16.399,3.199 16.647 C 3.303 16.984,3.484 17.251,3.736 17.438 C 3.848 17.521,4.387 17.846,4.933 18.160 C 6.337 18.965,6.745 19.120,7.462 19.120 C 7.927 19.120,8.374 19.023,8.683 18.855 C 8.961 18.703,9.302 18.331,9.439 18.029 C 9.685 17.486,9.680 17.592,9.680 12.788 C 9.680 8.600,9.677 8.410,9.607 8.346 C 9.546 8.291,9.440 8.280,8.993 8.280 C 8.520 8.280,8.444 8.289,8.386 8.353 C 8.325 8.420,8.320 8.780,8.320 12.703 C 8.320 15.595,8.306 17.029,8.277 17.133 C 8.221 17.335,7.983 17.593,7.760 17.694 C 7.516 17.803,7.136 17.798,6.828 17.681 C 6.701 17.633,6.128 17.322,5.555 16.991 C 4.791 16.550,4.504 16.363,4.477 16.292 C 4.455 16.235,4.440 14.455,4.440 11.960 L 4.440 7.724 4.530 7.627 C 4.646 7.500,11.902 3.320,12.005 3.320 C 12.094 3.320,19.434 7.538,19.510 7.633 C 19.549 7.682,19.560 8.616,19.560 12.001 L 19.560 16.306 19.470 16.386 C 19.399 16.450,12.479 20.457,12.133 20.635 C 12.085 20.660,12.021 20.680,11.990 20.680 C 11.960 20.680,11.496 20.419,10.958 20.101 C 10.420 19.782,9.948 19.521,9.908 19.521 C 9.869 19.520,9.707 19.590,9.548 19.675 C 9.390 19.761,9.125 19.880,8.960 19.940 C 8.595 20.074,8.517 20.134,8.601 20.217 C 8.740 20.352,11.283 21.825,11.520 21.908 C 11.852 22.023,12.148 22.023,12.480 21.908 C 12.752 21.813,19.897 17.710,20.264 17.438 C 20.517 17.250,20.699 16.980,20.803 16.641 C 20.880 16.387,20.881 16.266,20.871 11.898 L 20.860 7.416 20.712 7.118 C 20.631 6.954,20.496 6.753,20.412 6.672 C 20.264 6.528,13.174 2.398,12.650 2.150 C 12.373 2.020,11.910 1.970,11.629 2.041 M12.940 8.142 C 11.448 8.418,10.640 9.218,10.640 10.420 C 10.640 10.971,10.797 11.417,11.102 11.736 C 11.595 12.250,12.348 12.494,14.020 12.681 C 15.553 12.852,16.182 13.035,16.380 13.370 C 16.483 13.545,16.467 13.968,16.349 14.197 C 16.084 14.712,15.392 14.910,14.000 14.869 C 12.532 14.826,12.025 14.549,11.805 13.671 C 11.764 13.504,11.717 13.348,11.702 13.324 C 11.663 13.260,10.512 13.264,10.448 13.328 C 10.319 13.457,10.452 14.285,10.668 14.693 C 10.842 15.022,11.363 15.512,11.726 15.689 C 12.391 16.012,13.186 16.162,14.256 16.165 C 16.490 16.171,17.780 15.357,17.906 13.860 C 17.956 13.269,17.769 12.649,17.442 12.322 C 16.944 11.824,16.282 11.612,14.380 11.340 C 12.776 11.111,12.299 10.970,12.147 10.679 C 12.015 10.425,12.105 9.970,12.330 9.758 C 12.603 9.500,12.986 9.398,13.782 9.372 C 15.309 9.320,15.924 9.604,16.189 10.480 C 16.299 10.845,16.289 10.840,16.945 10.840 C 17.501 10.840,17.520 10.837,17.579 10.747 C 17.633 10.664,17.634 10.616,17.585 10.337 C 17.473 9.703,17.287 9.320,16.903 8.938 C 16.526 8.561,16.075 8.340,15.360 8.180 C 14.932 8.084,13.385 8.059,12.940 8.142 " fill="#2DD4BF" stroke="none" fill-rule="evenodd"></path></svg>