<svg width="24" height="24" viewBox="0 0 24 24" fill="none" xmlns="http://www.w3.org/2000/svg"><path d="M3.545 3.059 C 3.309 3.143,3.112 3.321,2.990 3.559 L 2.880 3.774 2.880 12.022 C 2.880 21.234,2.855 20.468,3.170 20.790 C 3.503 21.129,2.717 21.100,11.500 21.100 C 18.950 21.100,19.308 21.097,19.489 21.027 C 19.718 20.939,20.005 20.635,20.072 20.409 C 20.109 20.289,20.120 18.261,20.120 12.010 L 20.120 3.769 20.008 3.555 C 19.883 3.316,19.637 3.105,19.409 3.042 C 19.309 3.014,16.721 3.001,11.480 3.002 C 4.968 3.003,3.675 3.013,3.545 3.059 M16.529 6.042 C 16.764 6.107,17.007 6.316,17.130 6.557 L 17.240 6.774 17.239 11.997 C 17.238 17.165,17.237 17.222,17.157 17.400 C 17.056 17.622,16.909 17.781,16.700 17.893 C 16.560 17.968,16.461 17.981,15.904 17.993 C 15.156 18.010,14.995 17.976,14.738 17.750 C 14.393 17.446,14.423 17.813,14.400 13.560 C 14.378 9.381,14.397 9.661,14.119 9.345 C 13.859 9.049,13.753 9.020,12.940 9.020 C 12.137 9.020,12.042 9.045,11.772 9.326 C 11.484 9.627,11.502 9.357,11.480 13.560 L 11.460 17.340 11.368 17.487 C 11.243 17.688,11.043 17.857,10.834 17.937 C 10.678 17.996,10.438 18.002,8.560 17.991 C 6.496 17.980,6.457 17.979,6.300 17.894 C 6.091 17.781,5.944 17.622,5.843 17.400 C 5.763 17.222,5.762 17.166,5.762 12.000 C 5.762 6.834,5.763 6.778,5.843 6.600 C 5.973 6.314,6.184 6.127,6.480 6.037 C 6.639 5.989,16.354 5.993,16.529 6.042 " fill="#F87171" stroke="none" fill-rule="evenodd"></path></svg>