<svg width="24" height="24" viewBox="0 0 24 24" fill="none" xmlns="http://www.w3.org/2000/svg"><path d="M9.133 5.552 C 8.866 5.647,8.633 5.802,8.507 5.968 C 8.279 6.268,2.138 16.638,2.068 16.840 C 1.863 17.431,2.187 18.133,2.793 18.414 C 2.978 18.499,3.009 18.500,5.700 18.511 C 8.666 18.524,8.934 18.509,9.588 18.297 C 10.567 17.979,11.421 17.324,11.997 16.448 C 12.113 16.272,12.977 14.835,13.919 13.254 C 14.860 11.674,15.645 10.382,15.663 10.385 C 15.682 10.388,16.510 11.756,17.504 13.425 L 19.311 16.460 16.868 16.480 L 14.424 16.500 13.832 17.495 C 13.506 18.042,13.240 18.497,13.240 18.506 C 13.240 18.514,14.990 18.517,17.130 18.511 L 21.020 18.500 21.246 18.389 C 21.798 18.118,22.099 17.501,21.961 16.924 C 21.925 16.775,21.216 15.550,19.360 12.430 C 17.956 10.070,16.742 8.064,16.663 7.972 C 16.576 7.872,16.411 7.751,16.254 7.674 C 16.021 7.560,15.951 7.544,15.665 7.544 C 15.402 7.544,15.298 7.564,15.118 7.646 C 14.732 7.823,14.635 7.944,13.951 9.097 C 13.597 9.693,13.287 10.210,13.262 10.248 C 13.223 10.304,13.016 9.978,11.958 8.191 C 11.154 6.833,10.638 6.003,10.528 5.890 C 10.180 5.533,9.588 5.389,9.133 5.552 M10.781 10.329 C 11.437 11.433,11.973 12.356,11.972 12.379 C 11.972 12.401,11.569 13.095,11.076 13.920 C 10.257 15.292,10.153 15.447,9.860 15.740 C 9.518 16.083,9.220 16.262,8.780 16.387 C 8.572 16.447,8.283 16.458,6.604 16.470 L 4.668 16.485 4.727 16.392 C 4.760 16.342,5.855 14.505,7.160 12.310 C 8.466 10.115,9.546 8.320,9.561 8.320 C 9.576 8.320,10.125 9.224,10.781 10.329 " fill="#22C55E" stroke="none" fill-rule="evenodd"></path></svg>