<svg width="24" height="24" viewBox="0 0 24 24" fill="none" xmlns="http://www.w3.org/2000/svg"><path d="M4.744 4.224 C 4.328 4.324,4.007 4.510,3.679 4.838 C 3.332 5.186,3.190 5.429,3.079 5.863 C 3.004 6.156,3.000 6.313,3.000 8.766 C 3.000 10.193,3.015 11.360,3.033 11.360 C 3.110 11.360,3.425 11.043,3.741 10.647 C 3.998 10.324,4.111 10.142,4.204 9.902 C 4.387 9.430,4.657 8.914,4.786 8.793 C 4.942 8.646,5.081 8.600,5.373 8.600 C 5.547 8.600,5.658 8.623,5.747 8.678 C 5.901 8.772,6.241 9.245,6.525 9.760 C 6.827 10.310,6.939 10.461,7.100 10.537 C 7.236 10.602,7.250 10.602,7.370 10.531 C 7.475 10.470,7.537 10.365,7.721 9.939 C 8.217 8.791,8.265 8.718,8.596 8.606 C 8.801 8.537,9.204 8.548,9.321 8.626 C 9.484 8.735,9.760 9.009,9.882 9.186 C 10.011 9.370,10.389 10.179,10.617 10.757 C 10.772 11.150,11.037 11.563,11.248 11.741 C 11.422 11.887,11.680 12.011,12.153 12.176 C 12.557 12.316,12.745 12.345,13.149 12.329 C 13.425 12.317,13.595 12.172,13.732 11.829 C 13.849 11.535,14.015 10.751,13.982 10.646 C 13.968 10.603,13.998 10.518,14.057 10.437 C 14.111 10.362,14.190 10.226,14.233 10.136 C 14.342 9.905,14.562 9.806,15.083 9.754 L 15.490 9.713 15.735 9.836 C 15.967 9.953,16.003 9.959,16.400 9.952 C 16.750 9.945,16.886 9.962,17.216 10.052 C 17.800 10.213,17.996 10.330,18.128 10.600 C 18.270 10.889,18.305 11.089,18.228 11.167 C 18.184 11.210,18.179 11.245,18.210 11.299 C 18.241 11.356,18.235 11.384,18.184 11.422 C 18.131 11.461,18.069 11.458,17.879 11.407 C 17.677 11.353,17.615 11.351,17.470 11.395 C 17.377 11.423,17.093 11.504,16.840 11.574 C 16.587 11.645,16.323 11.737,16.254 11.778 C 16.094 11.873,15.989 12.065,15.903 12.420 C 15.766 12.985,15.329 13.633,14.830 14.012 C 14.492 14.268,14.323 14.357,13.940 14.482 C 13.689 14.564,13.556 14.576,12.660 14.597 L 11.660 14.620 11.672 15.100 C 11.682 15.533,11.733 15.964,11.844 16.542 C 11.892 16.796,12.092 17.225,12.229 17.369 C 12.320 17.464,12.337 17.526,12.362 17.849 C 12.378 18.053,12.437 18.402,12.493 18.624 C 12.593 19.016,12.809 19.614,12.883 19.704 C 12.910 19.736,13.053 19.716,13.389 19.636 C 13.948 19.503,14.519 19.440,15.176 19.440 C 15.441 19.440,15.996 19.420,16.409 19.396 C 17.337 19.343,17.669 19.374,18.793 19.624 C 19.725 19.831,20.247 19.880,20.710 19.802 L 21.000 19.753 21.000 12.963 C 21.000 6.329,20.998 6.166,20.921 5.863 C 20.809 5.427,20.667 5.185,20.321 4.840 C 19.987 4.506,19.665 4.323,19.238 4.222 C 18.862 4.133,5.111 4.135,4.744 4.224 M4.297 14.203 C 4.122 14.253,4.051 14.348,3.945 14.672 C 3.837 15.002,3.670 15.291,3.368 15.669 C 2.976 16.160,3.000 16.024,3.000 17.778 L 3.000 19.318 3.090 19.339 C 3.139 19.351,3.477 19.436,3.840 19.529 L 4.500 19.697 5.340 19.693 C 5.802 19.691,6.233 19.673,6.298 19.652 C 6.431 19.611,6.448 19.568,6.541 19.020 C 6.575 18.822,6.642 18.543,6.690 18.400 C 6.755 18.203,6.774 18.060,6.768 17.808 C 6.758 17.449,6.772 17.408,7.004 17.100 C 7.106 16.964,7.211 16.732,7.333 16.375 C 7.539 15.774,7.632 15.578,7.800 15.386 C 7.866 15.311,7.920 15.241,7.920 15.230 C 7.920 15.220,7.736 15.199,7.510 15.183 C 6.937 15.144,6.148 14.985,5.571 14.791 C 5.158 14.653,5.042 14.594,4.831 14.419 C 4.547 14.184,4.471 14.153,4.297 14.203 M9.373 14.997 C 9.144 15.101,8.936 15.329,8.705 15.725 C 8.598 15.909,8.428 16.195,8.328 16.360 C 8.027 16.853,7.889 17.129,7.837 17.340 C 7.775 17.597,7.707 17.733,7.517 17.981 C 7.268 18.308,7.131 18.651,7.062 19.117 C 7.028 19.346,7.000 19.542,7.000 19.552 C 7.000 19.562,7.155 19.557,7.344 19.541 C 7.980 19.488,8.247 19.505,8.566 19.621 C 9.211 19.855,9.241 19.858,10.832 19.812 C 11.630 19.789,12.295 19.759,12.308 19.745 C 12.333 19.721,12.018 18.885,11.877 18.599 C 11.839 18.521,11.727 18.350,11.628 18.219 C 11.498 18.045,11.436 17.915,11.400 17.740 C 11.317 17.339,11.043 16.520,10.873 16.165 C 10.749 15.906,10.644 15.761,10.407 15.521 C 10.093 15.206,9.709 14.919,9.601 14.921 C 9.567 14.921,9.465 14.956,9.373 14.997 " fill="#EA580C" stroke="none" fill-rule="evenodd"></path></svg>