<svg width="24" height="24" viewBox="0 0 24 24" fill="none" xmlns="http://www.w3.org/2000/svg"><path d="M11.894 2.494 C 11.545 2.583,11.233 2.761,10.975 3.018 C 10.238 3.753,10.211 4.879,10.913 5.644 C 11.022 5.763,11.204 5.914,11.318 5.980 L 11.525 6.100 11.512 6.787 C 11.505 7.165,11.489 7.485,11.476 7.497 C 11.464 7.509,10.861 7.565,10.137 7.620 C 9.413 7.675,8.780 7.729,8.731 7.740 C 8.561 7.780,8.519 7.911,8.509 8.433 C 8.496 9.131,8.360 9.064,10.045 9.190 C 10.801 9.247,11.423 9.295,11.426 9.297 C 11.452 9.310,11.273 14.737,11.237 15.020 C 11.052 16.485,10.485 17.308,9.536 17.485 C 8.846 17.613,8.236 17.309,7.489 16.464 C 7.253 16.197,6.832 15.611,6.781 15.476 C 6.763 15.430,6.853 15.381,7.175 15.263 C 7.745 15.054,7.756 14.999,7.293 14.656 C 6.663 14.190,6.009 13.472,5.680 12.885 C 5.476 12.522,5.386 12.388,5.332 12.371 C 5.135 12.306,4.695 13.513,4.540 14.540 C 4.431 15.268,4.478 16.575,4.618 16.715 C 4.697 16.794,4.743 16.768,5.143 16.430 L 5.414 16.201 5.549 16.550 C 6.266 18.406,7.675 19.870,9.660 20.824 C 10.972 21.454,12.173 21.663,13.224 21.445 C 14.657 21.147,16.189 20.312,17.335 19.204 C 18.113 18.452,18.771 17.451,19.120 16.490 C 19.170 16.352,19.222 16.240,19.236 16.240 C 19.250 16.240,19.395 16.358,19.559 16.502 C 20.057 16.940,20.123 16.858,20.151 15.762 C 20.172 14.941,20.118 14.429,19.936 13.730 C 19.813 13.255,19.535 12.535,19.438 12.438 C 19.331 12.331,19.224 12.383,19.123 12.593 C 18.811 13.242,17.973 14.216,17.349 14.657 C 17.200 14.762,17.061 14.881,17.040 14.920 C 16.978 15.036,17.102 15.133,17.500 15.278 C 17.698 15.351,17.866 15.415,17.873 15.422 C 17.897 15.442,17.598 15.890,17.339 16.220 C 16.842 16.857,16.252 17.336,15.802 17.468 C 15.491 17.559,14.967 17.494,14.616 17.321 C 13.974 17.005,13.552 16.203,13.403 15.020 C 13.363 14.706,13.269 11.905,13.232 9.960 L 13.220 9.300 14.572 9.195 C 16.247 9.065,16.120 9.129,16.120 8.411 C 16.120 7.939,16.115 7.912,16.022 7.818 C 15.968 7.764,15.882 7.720,15.832 7.719 C 15.585 7.718,13.186 7.519,13.165 7.499 C 13.152 7.486,13.132 7.170,13.121 6.797 L 13.100 6.119 13.327 5.979 C 13.986 5.572,14.340 4.773,14.189 4.031 C 14.044 3.324,13.610 2.805,12.969 2.572 C 12.647 2.455,12.180 2.421,11.894 2.494 M12.675 3.306 C 12.939 3.391,13.176 3.596,13.309 3.854 C 13.460 4.146,13.461 4.573,13.312 4.860 C 12.971 5.514,12.132 5.677,11.585 5.196 C 11.297 4.943,11.221 4.768,11.221 4.360 C 11.221 3.954,11.297 3.777,11.581 3.527 C 11.896 3.251,12.269 3.175,12.675 3.306 " fill="#EA580C" stroke="none" fill-rule="evenodd"></path></svg>