<svg width="24" height="24" viewBox="0 0 24 24" fill="none" xmlns="http://www.w3.org/2000/svg"><path d="M6.720 4.801 C 6.217 4.981,5.771 5.434,5.594 5.946 L 5.500 6.220 5.500 12.000 L 5.500 17.780 5.594 18.054 C 5.780 18.591,6.241 19.045,6.781 19.222 C 7.013 19.298,7.170 19.300,12.500 19.300 C 17.830 19.300,17.987 19.298,18.219 19.222 C 18.759 19.045,19.220 18.591,19.406 18.054 L 19.500 17.780 19.500 12.000 L 19.500 6.220 19.406 5.946 C 19.225 5.424,18.752 4.952,18.245 4.789 C 18.046 4.725,17.629 4.720,12.485 4.721 C 7.080 4.723,6.934 4.725,6.720 4.801 M14.421 7.096 C 15.511 7.281,16.389 7.702,16.982 8.325 C 17.291 8.649,17.450 8.884,17.640 9.293 C 18.185 10.469,18.095 12.012,17.420 13.040 C 17.086 13.549,16.650 13.897,15.860 14.283 C 15.115 14.648,14.236 14.899,13.603 14.928 L 13.346 14.940 13.210 14.602 C 13.055 14.217,12.821 13.432,12.780 13.154 L 12.752 12.968 13.246 12.953 C 13.817 12.935,13.998 12.874,14.296 12.599 C 14.869 12.071,14.908 10.826,14.368 10.267 C 14.084 9.972,13.675 9.832,13.100 9.832 C 12.069 9.832,11.516 10.292,11.342 11.295 C 11.269 11.714,11.265 11.946,11.322 12.472 C 11.450 13.648,11.796 14.769,12.499 16.285 C 12.664 16.643,12.800 16.950,12.800 16.967 C 12.800 16.985,11.945 17.000,10.901 17.000 L 9.002 17.000 8.944 16.910 C 8.853 16.769,8.571 15.888,8.420 15.275 C 8.251 14.587,8.095 13.657,8.041 13.020 C 7.741 9.456,9.265 7.371,12.410 7.040 C 12.868 6.992,13.988 7.023,14.421 7.096 " fill="#FBBF24" stroke="none" fill-rule="evenodd"></path></svg>