<svg width="24" height="24" viewBox="0 0 24 24" fill="none" xmlns="http://www.w3.org/2000/svg"><path d="M7.743 4.062 C 7.400 4.131,6.949 4.342,6.649 4.575 C 6.293 4.851,4.586 6.594,4.431 6.840 C 3.845 7.769,3.864 8.908,4.482 9.827 C 4.622 10.036,13.320 18.775,13.878 19.267 C 14.844 20.120,16.121 20.237,17.160 19.567 C 17.411 19.405,19.156 17.698,19.425 17.351 C 20.149 16.419,20.185 15.166,19.518 14.173 C 19.357 13.933,10.412 4.965,10.000 4.630 C 9.344 4.097,8.561 3.900,7.743 4.062 M15.141 4.066 C 14.500 4.204,14.081 4.491,13.140 5.437 L 12.581 6.000 15.290 8.710 L 17.999 11.419 18.484 10.940 C 18.750 10.676,19.103 10.308,19.267 10.122 C 20.120 9.157,20.236 7.896,19.569 6.840 C 19.397 6.568,17.630 4.777,17.296 4.537 C 16.649 4.071,15.890 3.906,15.141 4.066 M12.279 8.990 C 12.714 9.209,12.702 9.866,12.260 10.080 C 12.052 10.181,11.948 10.181,11.740 10.080 C 11.422 9.926,11.297 9.485,11.491 9.196 C 11.600 9.033,11.808 8.920,12.000 8.920 C 12.077 8.920,12.203 8.952,12.279 8.990 M9.792 11.456 C 10.178 11.657,10.252 12.127,9.945 12.434 C 9.823 12.556,9.773 12.577,9.572 12.591 C 9.378 12.604,9.317 12.592,9.200 12.513 C 8.835 12.267,8.833 11.733,9.196 11.491 C 9.354 11.385,9.625 11.369,9.792 11.456 M12.310 11.480 C 12.831 11.797,12.608 12.600,12.000 12.600 C 11.659 12.600,11.400 12.341,11.400 12.000 C 11.400 11.659,11.659 11.400,12.000 11.400 C 12.109 11.400,12.231 11.432,12.310 11.480 M14.804 11.491 C 15.167 11.733,15.165 12.267,14.800 12.513 C 14.683 12.592,14.622 12.604,14.428 12.591 C 14.227 12.577,14.177 12.556,14.055 12.434 C 13.895 12.274,13.833 12.068,13.881 11.857 C 13.969 11.467,14.470 11.268,14.804 11.491 M5.295 13.290 C 4.922 13.670,4.558 14.067,4.485 14.173 C 3.865 15.075,3.844 16.230,4.431 17.160 C 4.579 17.395,6.326 19.181,6.660 19.440 C 7.464 20.061,8.526 20.167,9.462 19.719 C 9.826 19.545,10.189 19.242,10.940 18.484 L 11.419 17.999 8.720 15.300 C 7.235 13.815,6.009 12.600,5.996 12.600 C 5.983 12.600,5.667 12.910,5.295 13.290 M12.320 13.958 C 12.496 14.080,12.600 14.274,12.600 14.480 C 12.600 15.077,11.824 15.300,11.487 14.800 C 11.408 14.683,11.396 14.622,11.409 14.428 C 11.423 14.226,11.444 14.177,11.567 14.054 C 11.781 13.840,12.094 13.800,12.320 13.958 " fill="#F87171" stroke="none" fill-rule="evenodd"></path></svg>