<svg width="24" height="24" viewBox="0 0 24 24" fill="none" xmlns="http://www.w3.org/2000/svg"><path d="M8.600 3.054 C 8.180 3.216,8.081 3.266,7.883 3.416 C 7.493 3.711,7.191 4.175,7.060 4.681 C 6.952 5.096,6.801 5.380,6.272 6.161 C 5.747 6.937,5.641 7.121,5.459 7.578 C 5.266 8.061,5.081 8.351,4.537 9.020 C 4.358 9.240,4.173 9.495,4.127 9.587 C 4.080 9.679,3.997 9.979,3.942 10.253 C 3.888 10.527,3.805 10.825,3.759 10.914 C 3.692 11.042,3.684 11.092,3.719 11.158 C 3.743 11.203,3.782 11.240,3.806 11.240 C 3.836 11.240,3.839 11.312,3.818 11.470 C 3.778 11.757,3.781 11.868,3.832 11.975 C 3.854 12.022,3.921 12.204,3.981 12.380 C 4.124 12.800,4.433 13.476,4.536 13.592 C 4.645 13.714,4.766 13.691,4.808 13.540 C 4.827 13.474,4.852 13.240,4.864 13.020 C 4.885 12.658,4.878 12.605,4.798 12.460 C 4.676 12.239,4.648 11.725,4.735 11.303 C 4.771 11.132,4.800 10.913,4.800 10.817 C 4.800 10.578,4.949 10.181,5.018 10.238 C 5.077 10.288,5.141 10.661,5.205 11.340 C 5.261 11.932,5.226 13.067,5.138 13.480 C 5.103 13.647,5.066 14.073,5.055 14.440 C 5.038 14.979,5.020 15.130,4.957 15.263 C 4.865 15.458,4.859 15.733,4.938 16.182 C 5.104 17.119,5.095 17.791,4.903 18.640 C 4.674 19.654,4.665 19.721,4.749 19.836 C 4.901 20.044,5.070 20.090,5.563 20.058 C 6.068 20.025,6.141 19.987,6.107 19.774 C 6.095 19.701,6.041 19.538,5.987 19.411 C 5.719 18.787,5.564 17.086,5.694 16.212 C 5.729 15.975,5.778 15.555,5.801 15.280 C 5.852 14.692,5.894 14.509,6.019 14.343 C 6.260 14.022,6.726 12.823,6.942 11.972 C 6.982 11.814,7.030 11.694,7.048 11.705 C 7.108 11.742,7.347 12.250,7.474 12.609 C 7.689 13.218,7.735 13.568,7.697 14.300 C 7.679 14.652,7.664 15.066,7.663 15.220 L 7.663 15.500 8.024 16.040 C 8.600 16.900,8.887 17.483,8.849 17.712 C 8.840 17.767,8.753 17.863,8.635 17.947 C 8.321 18.173,8.161 18.589,8.160 19.187 L 8.160 19.394 8.390 19.481 C 8.555 19.543,8.648 19.558,8.720 19.533 C 8.822 19.498,8.969 19.299,9.174 18.917 C 9.301 18.682,9.331 18.694,9.380 19.000 C 9.427 19.291,9.496 19.386,9.709 19.456 C 10.023 19.559,10.460 19.605,10.724 19.563 C 11.019 19.515,11.040 19.502,11.040 19.363 C 11.040 19.203,10.903 19.050,10.654 18.932 C 10.401 18.812,10.269 18.668,10.114 18.340 C 9.929 17.950,9.937 17.925,10.431 17.442 C 10.669 17.210,11.055 16.844,11.289 16.630 C 11.651 16.298,11.727 16.206,11.797 16.018 C 11.936 15.646,11.897 14.987,11.711 14.571 C 11.642 14.418,11.624 14.291,11.617 13.940 C 11.613 13.698,11.589 13.437,11.565 13.360 C 11.473 13.072,11.477 13.068,11.879 13.087 C 12.076 13.097,12.252 13.118,12.269 13.135 C 12.286 13.152,12.310 13.441,12.321 13.776 C 12.343 14.378,12.345 14.388,12.469 14.577 C 12.539 14.682,12.616 14.869,12.641 14.994 C 12.666 15.118,12.708 15.256,12.733 15.300 C 12.764 15.352,12.781 15.624,12.782 16.080 C 12.784 16.762,12.788 16.794,12.930 17.300 C 13.085 17.850,13.130 18.133,13.200 18.994 C 13.224 19.288,13.272 19.657,13.306 19.814 C 13.341 19.971,13.377 20.235,13.388 20.400 C 13.411 20.782,13.472 20.854,13.843 20.938 C 14.187 21.016,14.449 21.017,14.711 20.939 C 14.925 20.875,15.160 20.710,15.160 20.622 C 15.160 20.509,14.970 20.342,14.703 20.219 C 14.547 20.148,14.388 20.055,14.349 20.011 C 14.249 19.899,13.968 19.168,13.853 18.720 C 13.680 18.048,13.690 16.915,13.878 15.960 C 13.919 15.751,13.974 15.376,14.000 15.127 C 14.026 14.877,14.065 14.616,14.087 14.547 C 14.108 14.477,14.139 14.029,14.155 13.551 C 14.171 13.073,14.195 12.672,14.207 12.659 C 14.220 12.647,14.345 12.699,14.485 12.776 C 14.717 12.903,14.907 12.969,15.210 13.028 C 15.297 13.045,15.348 13.020,15.464 12.904 C 15.543 12.825,15.626 12.760,15.648 12.760 C 15.670 12.760,15.742 12.805,15.807 12.860 C 15.950 12.980,15.985 12.984,16.038 12.883 C 16.115 12.741,16.796 12.200,16.990 12.128 L 17.180 12.058 17.200 11.835 C 17.224 11.565,17.281 11.488,17.472 11.472 C 17.611 11.460,17.620 11.450,17.703 11.208 C 17.767 11.022,17.832 10.920,17.950 10.819 C 18.038 10.744,18.141 10.606,18.178 10.513 C 18.265 10.295,18.326 9.570,18.334 8.640 L 18.340 7.900 18.110 7.372 C 17.983 7.082,17.875 6.803,17.870 6.752 C 17.856 6.627,18.041 6.542,18.496 6.463 C 19.077 6.363,19.303 6.193,19.296 5.861 C 19.291 5.635,19.152 5.400,18.850 5.113 C 18.683 4.954,18.571 4.880,18.476 4.866 C 18.401 4.855,18.223 4.826,18.080 4.802 C 17.937 4.777,17.712 4.738,17.580 4.716 C 17.316 4.671,17.220 4.605,17.140 4.413 C 17.090 4.294,16.992 4.221,16.547 3.971 C 16.445 3.913,16.375 3.928,16.080 4.068 C 15.713 4.243,15.695 4.254,15.449 4.446 C 15.122 4.700,15.005 4.866,14.961 5.132 C 14.936 5.286,14.883 5.408,14.784 5.538 C 14.568 5.820,14.540 5.966,14.540 6.801 C 14.540 7.392,14.553 7.575,14.605 7.701 C 14.640 7.789,14.710 7.959,14.760 8.080 C 14.878 8.365,14.943 9.032,14.861 9.115 C 14.765 9.213,14.689 9.136,14.642 8.893 C 14.520 8.267,14.101 7.307,13.772 6.900 C 13.666 6.768,13.453 6.570,13.299 6.460 C 12.692 6.025,12.250 5.474,11.960 4.794 C 11.861 4.561,11.768 4.430,11.508 4.160 C 11.327 3.973,11.144 3.769,11.100 3.707 C 11.035 3.615,10.968 3.583,10.740 3.537 C 10.573 3.503,10.314 3.405,10.100 3.293 C 9.780 3.127,9.700 3.103,9.380 3.076 C 9.182 3.058,8.957 3.035,8.880 3.022 C 8.802 3.010,8.678 3.024,8.600 3.054 M9.360 12.822 C 9.360 12.873,9.385 13.029,9.416 13.168 C 9.447 13.306,9.484 13.487,9.498 13.569 C 9.512 13.651,9.571 13.774,9.629 13.844 C 9.745 13.981,9.836 14.373,9.857 14.824 C 9.863 14.959,9.881 15.089,9.896 15.113 C 9.911 15.138,9.993 15.176,10.077 15.199 C 10.323 15.265,10.680 15.750,10.680 16.019 C 10.680 16.191,10.212 16.847,10.032 16.928 C 9.758 17.050,9.441 17.137,9.404 17.098 C 9.338 17.028,9.047 16.423,8.973 16.200 C 8.849 15.828,8.874 14.800,9.034 13.660 C 9.105 13.154,9.173 12.695,9.185 12.640 L 9.207 12.540 9.283 12.634 C 9.326 12.686,9.360 12.771,9.360 12.822 " fill="#A855F7" stroke="none" fill-rule="evenodd"></path></svg>