<svg width="24" height="24" viewBox="0 0 24 24" fill="none" xmlns="http://www.w3.org/2000/svg"><path d="M12.093 4.058 C 11.137 4.329,10.323 4.919,9.866 5.670 C 9.422 6.401,9.356 7.407,9.685 8.417 C 9.819 8.827,10.136 9.474,10.441 9.963 C 10.840 10.601,11.949 12.269,11.993 12.296 C 12.092 12.357,12.725 11.954,13.115 11.583 C 13.570 11.149,13.843 10.700,14.023 10.092 C 14.117 9.776,14.130 9.654,14.147 8.900 C 14.171 7.909,14.192 7.796,14.376 7.683 C 14.619 7.532,14.878 7.594,15.081 7.852 C 15.166 7.961,15.168 7.984,15.150 8.931 C 15.134 9.813,15.123 9.935,15.029 10.288 C 14.822 11.066,14.481 11.647,13.893 12.228 C 13.485 12.631,13.007 12.966,12.387 13.285 C 11.936 13.516,11.751 13.547,11.572 13.418 C 11.466 13.341,10.451 11.859,9.721 10.712 C 9.108 9.751,8.701 8.843,8.540 8.081 C 8.507 7.924,8.469 7.593,8.454 7.345 C 8.412 6.600,8.526 6.063,8.874 5.371 C 8.965 5.190,9.040 5.030,9.040 5.015 C 9.040 4.970,8.630 5.035,8.155 5.155 C 5.952 5.711,4.084 7.456,3.359 9.636 C 3.064 10.521,3.020 10.815,3.021 11.900 C 3.022 12.978,3.052 13.190,3.317 13.997 C 3.523 14.621,3.757 15.109,4.234 15.909 C 4.957 17.119,5.032 17.374,5.081 18.800 C 5.142 20.562,5.132 20.467,5.284 20.624 L 5.416 20.760 6.720 20.760 L 8.025 20.760 8.137 20.643 C 8.203 20.574,8.264 20.453,8.283 20.353 C 8.301 20.258,8.317 19.600,8.318 18.890 L 8.320 17.600 9.354 17.600 L 10.388 17.600 10.414 18.206 C 10.428 18.540,10.440 19.193,10.440 19.659 L 10.440 20.504 10.572 20.632 L 10.704 20.760 12.008 20.760 L 13.312 20.760 13.432 20.623 C 13.574 20.462,13.586 20.396,13.642 19.500 C 13.767 17.493,14.154 16.125,15.170 14.100 C 15.291 13.858,15.426 13.616,15.469 13.563 L 15.548 13.466 16.119 13.570 C 17.020 13.734,17.372 13.960,17.653 14.553 L 17.780 14.820 17.780 15.513 L 17.780 16.206 17.633 16.341 C 17.408 16.547,17.263 16.556,16.939 16.384 C 16.630 16.220,16.443 16.202,16.253 16.318 C 16.118 16.400,15.029 17.481,14.729 17.831 C 14.583 18.002,14.545 18.079,14.530 18.231 C 14.515 18.392,14.530 18.444,14.629 18.580 C 14.858 18.893,15.447 19.283,15.987 19.478 C 16.485 19.658,16.977 19.734,17.460 19.706 C 17.990 19.675,18.298 19.594,18.780 19.358 C 19.706 18.904,20.473 17.994,20.848 16.905 L 21.001 16.460 20.990 12.720 L 20.978 8.980 20.867 8.625 C 20.594 7.756,20.178 7.035,19.613 6.453 C 18.631 5.442,17.347 4.920,15.839 4.920 L 15.388 4.920 14.924 4.644 C 14.102 4.154,13.757 4.050,12.860 4.019 C 12.440 4.004,12.248 4.014,12.093 4.058 M17.575 9.284 C 17.700 9.381,17.800 9.560,17.800 9.683 C 17.800 9.730,17.761 9.838,17.714 9.922 C 17.468 10.360,16.796 10.176,16.801 9.672 C 16.802 9.599,16.826 9.498,16.854 9.448 C 16.987 9.208,17.369 9.121,17.575 9.284 " fill="#A855F7" stroke="none" fill-rule="evenodd"></path></svg>