<svg width="24" height="24" viewBox="0 0 24 24" fill="none" xmlns="http://www.w3.org/2000/svg"><path d="M8.800 3.137 C 8.613 3.211,8.320 3.335,8.150 3.413 C 7.804 3.572,7.080 3.988,7.080 4.028 C 7.080 4.043,7.171 4.585,7.282 5.233 L 7.485 6.412 7.284 6.587 C 7.014 6.824,6.515 7.424,6.237 7.849 C 6.111 8.040,6.001 8.215,5.994 8.236 C 5.986 8.258,5.463 8.296,4.767 8.325 L 3.555 8.375 3.494 8.517 C 3.342 8.877,3.091 9.927,3.019 10.504 L 2.994 10.708 4.027 11.277 C 4.595 11.590,5.074 11.860,5.092 11.877 C 5.109 11.894,5.141 12.072,5.161 12.272 C 5.212 12.758,5.338 13.331,5.503 13.815 C 5.577 14.033,5.626 14.231,5.612 14.256 C 5.598 14.280,5.284 14.717,4.913 15.227 C 4.543 15.736,4.240 16.172,4.240 16.196 C 4.240 16.329,4.978 17.322,5.424 17.789 L 5.700 18.079 6.798 17.619 C 7.402 17.367,7.913 17.160,7.933 17.160 C 7.953 17.160,8.095 17.244,8.249 17.346 C 8.630 17.600,9.219 17.889,9.700 18.061 L 10.101 18.204 10.421 19.372 L 10.740 20.539 10.940 20.573 C 11.202 20.618,12.637 20.628,12.920 20.588 L 13.140 20.557 13.473 19.388 L 13.805 18.219 14.165 18.103 C 14.603 17.961,15.296 17.631,15.686 17.379 L 15.975 17.192 17.074 17.666 C 17.678 17.927,18.185 18.145,18.201 18.152 C 18.274 18.181,19.258 17.006,19.573 16.514 L 19.717 16.288 19.013 15.295 L 18.309 14.303 18.380 14.121 C 18.601 13.552,18.840 12.518,18.840 12.126 L 18.840 11.980 19.923 11.401 L 21.006 10.822 20.979 10.581 C 20.916 10.013,20.582 8.605,20.488 8.512 C 20.473 8.497,19.920 8.454,19.260 8.417 C 18.600 8.380,18.054 8.335,18.047 8.316 C 18.040 8.297,17.890 8.064,17.713 7.797 C 17.512 7.493,17.240 7.154,16.983 6.886 L 16.572 6.460 16.784 5.320 C 16.901 4.693,16.997 4.152,16.998 4.118 C 17.003 3.937,14.899 2.926,14.807 3.065 C 14.792 3.088,14.430 3.498,14.002 3.976 C 13.361 4.693,13.210 4.841,13.142 4.822 C 13.097 4.810,12.828 4.778,12.544 4.752 C 12.141 4.716,11.895 4.716,11.425 4.755 C 10.845 4.802,10.821 4.801,10.762 4.726 C 10.424 4.298,9.250 3.000,9.202 3.001 C 9.168 3.002,8.987 3.063,8.800 3.137 M13.279 5.940 C 13.755 6.047,14.192 6.195,14.584 6.382 C 15.948 7.033,17.049 8.267,17.520 9.674 C 18.192 11.679,17.726 13.858,16.298 15.392 C 15.502 16.247,14.473 16.828,13.289 17.089 C 12.766 17.204,11.600 17.214,11.069 17.108 C 9.024 16.697,7.316 15.178,6.720 13.240 C 6.525 12.605,6.466 12.205,6.467 11.520 C 6.467 10.797,6.538 10.341,6.744 9.722 C 7.309 8.025,8.682 6.660,10.380 6.108 C 10.653 6.019,10.888 5.965,11.440 5.864 C 11.678 5.821,12.989 5.875,13.279 5.940 " fill="#0D9488" stroke="none" fill-rule="evenodd"></path></svg>