<svg width="24" height="24" viewBox="0 0 24 24" fill="none" xmlns="http://www.w3.org/2000/svg"><path d="M15.270 4.057 C 15.049 4.136,14.856 4.298,14.731 4.511 L 14.620 4.700 14.608 6.320 C 14.598 7.753,14.604 7.959,14.663 8.114 C 14.755 8.355,14.943 8.556,15.180 8.666 C 15.378 8.758,15.394 8.759,16.855 8.760 C 17.860 8.760,18.380 8.745,18.486 8.714 C 18.705 8.648,18.955 8.419,19.065 8.182 C 19.159 7.980,19.159 7.976,19.160 6.377 L 19.160 4.774 19.050 4.557 C 18.927 4.316,18.684 4.107,18.449 4.042 C 18.214 3.977,15.458 3.990,15.270 4.057 M9.874 9.695 C 9.568 9.806,9.303 10.116,9.260 10.413 C 9.246 10.505,9.241 11.282,9.248 12.140 C 9.261 13.859,9.254 13.808,9.523 14.077 C 9.794 14.348,9.733 14.340,11.500 14.340 C 13.267 14.340,13.206 14.348,13.477 14.077 C 13.749 13.804,13.740 13.878,13.740 12.000 C 13.740 10.122,13.749 10.196,13.477 9.923 C 13.208 9.654,13.258 9.661,11.560 9.651 C 10.362 9.644,9.988 9.653,9.874 9.695 M4.566 15.286 C 4.237 15.380,3.964 15.667,3.879 16.007 C 3.851 16.121,3.840 16.708,3.848 17.720 C 3.860 19.207,3.863 19.265,3.946 19.421 C 4.063 19.640,4.226 19.796,4.440 19.896 C 4.613 19.977,4.680 19.980,6.100 19.980 C 7.791 19.980,7.826 19.974,8.115 19.661 C 8.395 19.357,8.406 19.270,8.392 17.512 L 8.380 15.980 8.260 15.763 C 8.132 15.532,7.902 15.352,7.641 15.280 C 7.459 15.229,4.745 15.234,4.566 15.286 M9.980 15.277 C 9.684 15.350,9.458 15.543,9.323 15.840 C 9.246 16.011,9.242 16.097,9.241 17.625 L 9.240 19.231 9.352 19.445 C 9.490 19.709,9.730 19.898,10.000 19.956 C 10.273 20.015,12.727 20.015,13.000 19.956 C 13.270 19.898,13.510 19.709,13.648 19.445 L 13.760 19.231 13.760 17.625 C 13.759 16.028,13.759 16.019,13.666 15.820 C 13.615 15.710,13.507 15.562,13.427 15.491 C 13.160 15.257,13.023 15.240,11.483 15.244 C 10.722 15.246,10.046 15.261,9.980 15.277 M15.308 15.298 C 15.044 15.392,14.864 15.540,14.739 15.764 L 14.620 15.980 14.620 17.620 C 14.620 19.228,14.622 19.263,14.707 19.423 C 14.819 19.632,15.067 19.855,15.265 19.925 C 15.490 20.005,18.270 20.005,18.495 19.925 C 18.693 19.855,18.941 19.632,19.053 19.423 C 19.138 19.263,19.140 19.228,19.140 17.620 L 19.140 15.980 19.022 15.766 C 18.891 15.531,18.671 15.354,18.419 15.285 C 18.173 15.216,15.505 15.228,15.308 15.298 " fill="#F59E0B" stroke="none" fill-rule="evenodd"></path></svg>