<svg width="24" height="24" viewBox="0 0 24 24" fill="none" xmlns="http://www.w3.org/2000/svg"><path d="M11.328 3.050 C 11.255 3.074,11.126 3.157,11.040 3.236 C 10.933 3.334,9.817 5.122,7.516 8.877 C 5.665 11.901,4.116 14.448,4.076 14.537 C 3.986 14.734,3.979 14.993,4.059 15.183 C 4.181 15.477,7.484 20.634,7.639 20.774 C 7.799 20.919,8.008 20.999,8.224 21.000 C 8.343 21.000,18.008 18.119,18.176 18.033 C 18.487 17.874,18.711 17.467,18.666 17.141 C 18.652 17.038,17.425 14.327,15.521 10.196 C 12.658 3.983,12.385 3.406,12.226 3.254 C 11.979 3.017,11.658 2.945,11.328 3.050 M12.095 6.398 C 12.151 6.419,12.225 6.493,12.261 6.561 C 12.380 6.792,16.449 16.218,16.501 16.384 C 16.545 16.522,16.543 16.567,16.491 16.673 C 16.420 16.822,16.858 16.678,12.628 17.940 C 10.769 18.494,9.565 18.834,9.516 18.819 C 9.391 18.779,9.280 18.635,9.280 18.512 C 9.280 18.350,11.632 6.637,11.685 6.534 C 11.761 6.386,11.923 6.333,12.095 6.398 " fill="#14B8A6" stroke="none" fill-rule="evenodd"></path></svg>