<svg width="24" height="24" viewBox="0 0 24 24" fill="none" xmlns="http://www.w3.org/2000/svg"><path d="M8.749 7.041 C 8.535 7.095,8.605 7.056,5.240 8.997 C 2.497 10.579,2.157 10.786,1.954 10.998 C 1.665 11.299,1.554 11.578,1.554 12.000 C 1.554 12.403,1.664 12.693,1.928 12.981 C 2.040 13.103,2.205 13.245,2.295 13.297 C 2.386 13.348,3.765 14.143,5.360 15.062 C 6.955 15.981,8.375 16.787,8.515 16.853 C 8.847 17.008,9.294 17.020,9.650 16.883 C 10.421 16.586,10.802 15.649,10.460 14.891 C 10.267 14.464,10.163 14.390,8.027 13.160 C 6.938 12.533,6.059 12.008,6.073 11.993 C 6.088 11.978,6.961 11.470,8.013 10.863 C 9.065 10.256,9.986 9.714,10.059 9.658 C 10.251 9.512,10.464 9.178,10.542 8.903 C 10.803 7.986,10.146 7.069,9.192 7.019 C 9.031 7.010,8.832 7.020,8.749 7.041 " fill="#F87171" stroke="none" fill-rule="evenodd"></path></svg>