<svg width="24" height="24" viewBox="0 0 24 24" fill="none" xmlns="http://www.w3.org/2000/svg"><path d="M10.760 5.867 C 9.697 5.913,8.555 6.062,7.952 6.232 C 7.781 6.281,7.687 6.292,7.692 6.264 C 7.704 6.197,7.041 6.218,6.640 6.298 C 6.203 6.384,5.597 6.569,5.274 6.714 C 5.134 6.777,4.867 6.943,4.680 7.082 C 4.041 7.561,2.343 9.343,2.005 9.891 C 1.926 10.020,1.920 10.053,1.965 10.111 C 1.994 10.149,2.351 10.513,2.760 10.920 L 3.502 11.660 3.677 12.100 C 3.947 12.782,4.237 13.348,4.406 13.522 C 4.739 13.865,4.941 13.665,5.033 12.900 C 5.073 12.562,5.091 12.616,5.177 13.348 C 5.211 13.638,5.269 13.951,5.306 14.043 C 5.343 14.136,5.540 14.434,5.745 14.706 C 5.949 14.977,6.135 15.267,6.158 15.350 C 6.180 15.432,6.226 15.617,6.260 15.760 C 6.421 16.435,6.876 16.950,7.591 17.267 C 7.715 17.321,7.882 17.418,7.962 17.482 C 8.157 17.636,8.256 17.670,8.669 17.721 C 8.865 17.746,9.125 17.810,9.260 17.867 C 9.861 18.123,9.923 18.130,11.540 18.129 C 13.161 18.127,13.315 18.110,13.834 17.883 C 14.019 17.802,14.220 17.753,14.492 17.723 C 14.918 17.675,15.099 17.617,15.213 17.489 C 15.254 17.443,15.460 17.320,15.672 17.215 C 16.369 16.869,16.750 16.388,16.898 15.666 C 16.976 15.287,17.053 15.128,17.392 14.660 C 17.748 14.166,17.825 13.981,17.884 13.480 C 17.911 13.249,17.946 13.045,17.961 13.028 C 17.976 13.010,18.000 13.077,18.013 13.177 C 18.071 13.595,18.235 13.760,18.470 13.635 C 18.640 13.546,18.924 13.052,19.222 12.333 L 19.500 11.660 20.241 10.920 C 20.649 10.513,21.006 10.149,21.035 10.111 C 21.080 10.053,21.074 10.020,20.995 9.891 C 20.656 9.342,18.965 7.567,18.320 7.083 C 17.949 6.805,17.659 6.660,17.151 6.499 C 16.611 6.328,16.088 6.233,15.620 6.219 C 15.378 6.212,15.000 6.170,14.780 6.125 C 13.715 5.908,12.138 5.806,10.760 5.867 M7.939 9.880 C 8.001 9.903,8.068 9.977,8.102 10.060 C 8.246 10.403,7.875 10.705,7.588 10.480 C 7.452 10.372,7.417 10.200,7.500 10.041 C 7.592 9.863,7.746 9.806,7.939 9.880 M15.517 9.899 C 15.647 9.966,15.680 10.031,15.680 10.225 C 15.680 10.519,15.359 10.659,15.133 10.464 C 15.044 10.388,15.022 10.335,15.022 10.200 C 15.022 10.065,15.044 10.012,15.133 9.936 C 15.261 9.825,15.358 9.816,15.517 9.899 M9.575 10.863 C 9.741 10.956,9.755 10.975,9.714 11.051 C 9.619 11.229,9.286 11.540,8.947 11.768 C 8.391 12.143,7.957 12.622,7.552 13.309 C 7.458 13.469,7.366 13.600,7.349 13.600 C 7.297 13.600,6.920 13.401,6.920 13.373 C 6.920 13.225,7.623 12.290,8.057 11.860 C 8.386 11.534,9.304 10.762,9.365 10.761 C 9.379 10.760,9.473 10.806,9.575 10.863 M14.128 11.088 C 14.915 11.715,15.517 12.357,15.955 13.036 C 16.046 13.177,16.120 13.321,16.119 13.356 C 16.118 13.420,15.739 13.616,15.683 13.582 C 15.668 13.573,15.577 13.433,15.481 13.272 C 15.084 12.604,14.635 12.110,14.133 11.788 C 13.979 11.689,13.784 11.548,13.699 11.474 C 13.530 11.325,13.320 11.053,13.320 10.982 C 13.320 10.942,13.609 10.769,13.688 10.762 C 13.703 10.761,13.901 10.908,14.128 11.088 M11.339 11.197 C 11.371 11.299,11.260 11.560,11.185 11.560 C 11.016 11.560,11.118 11.124,11.287 11.121 C 11.302 11.120,11.326 11.155,11.339 11.197 M11.954 11.256 C 12.016 11.383,11.985 11.560,11.901 11.560 C 11.825 11.560,11.760 11.435,11.760 11.289 C 11.760 11.085,11.862 11.068,11.954 11.256 M11.660 11.703 C 11.748 11.792,11.787 11.803,11.931 11.784 C 12.075 11.765,12.065 11.771,11.864 11.831 L 11.627 11.900 11.637 12.738 C 11.641 13.199,11.654 13.591,11.665 13.608 C 11.676 13.626,11.721 13.640,11.765 13.640 C 11.912 13.640,12.277 13.843,12.507 14.053 C 12.767 14.290,13.001 14.631,13.118 14.943 C 13.240 15.269,13.258 15.411,13.144 15.142 C 12.881 14.526,12.225 13.890,11.713 13.754 C 11.534 13.707,11.515 13.711,11.259 13.840 C 10.810 14.069,10.258 14.644,10.066 15.084 C 10.033 15.159,10.005 15.191,10.003 15.155 C 10.001 15.119,10.073 14.943,10.163 14.764 C 10.433 14.223,10.925 13.767,11.355 13.658 L 11.540 13.611 11.529 12.756 L 11.518 11.900 11.412 11.855 C 11.309 11.812,11.309 11.809,11.391 11.783 C 11.438 11.768,11.487 11.721,11.501 11.678 C 11.532 11.579,11.536 11.579,11.660 11.703 M11.269 11.784 C 11.256 11.797,11.221 11.799,11.193 11.787 C 11.161 11.775,11.170 11.765,11.217 11.763 C 11.259 11.761,11.282 11.771,11.269 11.784 M9.227 12.703 C 9.240 12.738,9.220 12.796,9.183 12.833 C 9.120 12.896,9.112 12.895,9.060 12.826 C 9.030 12.785,9.015 12.727,9.027 12.696 C 9.056 12.620,9.197 12.625,9.227 12.703 M10.147 12.703 C 10.160 12.738,10.141 12.796,10.105 12.832 C 10.045 12.892,10.035 12.892,9.975 12.832 C 9.893 12.750,9.930 12.640,10.040 12.640 C 10.085 12.640,10.133 12.668,10.147 12.703 M13.067 12.703 C 13.080 12.738,13.061 12.796,13.025 12.832 C 12.965 12.892,12.955 12.892,12.895 12.832 C 12.813 12.750,12.850 12.640,12.960 12.640 C 13.005 12.640,13.053 12.668,13.067 12.703 M13.973 12.696 C 13.985 12.727,13.970 12.785,13.940 12.826 C 13.888 12.895,13.880 12.896,13.817 12.833 C 13.780 12.796,13.760 12.738,13.773 12.703 C 13.803 12.625,13.944 12.620,13.973 12.696 M9.451 13.450 C 9.479 13.531,9.437 13.600,9.358 13.600 C 9.270 13.600,9.225 13.538,9.255 13.458 C 9.282 13.387,9.427 13.381,9.451 13.450 M13.740 13.500 C 13.740 13.601,13.581 13.633,13.545 13.539 C 13.509 13.446,13.553 13.393,13.654 13.408 C 13.709 13.416,13.740 13.449,13.740 13.500 " fill="#FED7AA" stroke="none" fill-rule="evenodd"></path></svg>