<svg width="24" height="24" viewBox="0 0 24 24" fill="none" xmlns="http://www.w3.org/2000/svg"><path d="M3.449 8.162 C 2.445 8.674,2.838 10.897,4.150 12.122 C 4.518 12.465,4.923 12.677,5.273 12.709 C 5.745 12.752,6.108 12.470,6.262 11.939 C 6.349 11.641,6.322 10.983,6.208 10.600 C 5.901 9.565,5.184 8.600,4.458 8.242 C 4.093 8.062,3.705 8.031,3.449 8.162 M18.759 8.171 C 17.951 8.447,17.151 9.439,16.815 10.580 C 16.732 10.865,16.709 11.032,16.705 11.380 C 16.699 11.936,16.771 12.170,17.035 12.441 C 17.188 12.598,17.258 12.639,17.440 12.676 C 18.032 12.797,18.816 12.310,19.402 11.456 C 19.616 11.147,19.913 10.476,20.004 10.100 C 20.114 9.646,20.123 9.112,20.026 8.788 C 19.975 8.619,19.906 8.504,19.768 8.362 C 19.481 8.066,19.215 8.016,18.759 8.171 M8.191 10.880 C 7.231 11.169,7.241 12.864,8.211 14.271 C 8.493 14.680,9.018 15.166,9.347 15.324 C 9.864 15.570,10.337 15.520,10.621 15.188 C 11.142 14.579,10.953 13.190,10.197 12.076 C 9.623 11.229,8.753 10.711,8.191 10.880 M14.371 10.883 C 13.479 11.056,12.532 12.165,12.194 13.429 C 12.083 13.846,12.074 14.450,12.175 14.780 C 12.298 15.184,12.664 15.479,13.043 15.480 C 13.399 15.481,13.926 15.197,14.341 14.781 C 14.945 14.176,15.365 13.326,15.484 12.471 C 15.540 12.060,15.490 11.650,15.348 11.365 C 15.237 11.142,14.988 10.928,14.803 10.897 C 14.725 10.884,14.633 10.868,14.600 10.861 C 14.567 10.855,14.464 10.864,14.371 10.883 M3.777 13.624 C 3.757 13.629,3.671 13.645,3.586 13.659 C 3.380 13.694,3.114 13.944,2.999 14.211 C 2.888 14.469,2.850 14.996,2.916 15.372 C 3.155 16.748,4.171 18.030,5.190 18.242 C 5.617 18.331,6.004 18.109,6.206 17.660 C 6.348 17.345,6.356 16.739,6.225 16.229 C 6.111 15.786,5.852 15.212,5.597 14.835 C 5.333 14.444,4.866 14.004,4.526 13.826 C 4.273 13.693,3.903 13.593,3.777 13.624 M18.711 13.734 C 18.366 13.879,18.121 14.051,17.834 14.350 C 16.797 15.430,16.382 17.116,16.959 17.912 C 17.335 18.431,18.126 18.318,18.850 17.642 C 19.498 17.037,19.955 16.143,20.082 15.235 C 20.170 14.607,19.997 14.028,19.648 13.783 C 19.408 13.615,19.041 13.595,18.711 13.734 M8.057 16.473 C 7.039 16.951,7.440 19.230,8.757 20.446 C 9.174 20.831,9.555 21.015,9.943 21.018 C 10.190 21.020,10.250 21.005,10.423 20.898 C 10.582 20.800,10.647 20.724,10.760 20.502 C 10.897 20.234,10.900 20.218,10.900 19.744 C 10.900 19.194,10.839 18.914,10.600 18.354 C 10.278 17.600,9.625 16.841,9.058 16.562 C 8.707 16.389,8.311 16.354,8.057 16.473 M14.171 16.473 C 13.234 16.806,12.356 18.023,12.135 19.292 C 12.061 19.720,12.083 20.057,12.204 20.383 C 12.365 20.812,12.624 21.001,13.048 20.999 C 14.085 20.995,15.284 19.523,15.486 18.005 C 15.544 17.566,15.494 17.200,15.331 16.881 C 15.119 16.468,14.650 16.302,14.171 16.473 " fill="#F87171" stroke="none" fill-rule="evenodd"></path></svg>