<svg width="24" height="24" viewBox="0 0 24 24" fill="none" xmlns="http://www.w3.org/2000/svg"><path d="M10.260 5.121 C 5.980 5.598,2.880 8.097,2.880 11.071 C 2.880 12.780,3.867 14.352,5.681 15.532 C 6.490 16.058,7.684 16.554,8.722 16.796 L 9.040 16.870 9.039 15.885 L 9.037 14.900 8.722 14.747 C 8.224 14.506,7.704 14.142,7.323 13.766 C 6.598 13.051,6.282 12.370,6.281 11.516 C 6.277 9.520,8.604 7.802,11.753 7.477 C 12.336 7.416,14.073 7.451,14.620 7.534 C 16.115 7.762,17.228 8.213,17.995 8.903 C 18.469 9.330,18.850 9.976,19.001 10.613 C 19.097 11.021,19.105 11.312,19.062 12.920 L 19.032 14.020 19.140 13.880 C 20.096 12.632,20.361 11.112,19.876 9.662 C 19.420 8.298,18.191 7.027,16.530 6.200 C 15.492 5.684,14.533 5.389,13.200 5.178 C 12.711 5.101,10.779 5.064,10.260 5.121 M10.000 13.858 L 10.000 18.920 11.460 18.920 L 12.920 18.920 12.920 16.940 L 12.920 14.960 13.357 14.960 C 13.858 14.960,13.940 14.983,14.130 15.172 C 14.366 15.409,14.567 15.758,15.385 17.362 L 16.180 18.920 17.833 18.920 L 19.487 18.920 19.408 18.790 C 19.365 18.718,18.902 17.904,18.379 16.980 C 17.302 15.074,17.281 15.041,17.094 14.898 C 16.937 14.778,16.462 14.552,16.210 14.478 C 16.027 14.423,15.984 14.360,16.131 14.360 C 16.295 14.360,16.800 14.201,17.073 14.064 C 18.056 13.569,18.560 12.713,18.560 11.540 C 18.560 10.647,18.264 9.949,17.681 9.467 C 17.439 9.266,16.933 9.020,16.540 8.911 C 16.224 8.824,16.177 8.822,13.110 8.809 L 10.000 8.796 10.000 13.858 M15.091 11.054 C 15.419 11.192,15.588 11.530,15.549 11.967 C 15.521 12.270,15.378 12.493,15.124 12.627 C 14.953 12.717,14.918 12.720,13.934 12.720 L 12.920 12.720 12.920 11.860 L 12.920 11.000 13.941 11.000 C 14.709 11.000,14.994 11.013,15.091 11.054 " fill="#71717A" stroke="none" fill-rule="evenodd"></path></svg>