<svg width="24" height="24" viewBox="0 0 24 24" fill="none" xmlns="http://www.w3.org/2000/svg"><path d="M11.133 3.041 C 9.998 3.151,9.021 3.429,8.040 3.921 C 6.521 4.682,5.122 5.986,4.223 7.480 C 3.110 9.328,2.740 11.596,3.184 13.840 C 3.600 15.939,4.863 17.872,6.740 19.279 C 8.009 20.230,9.492 20.801,11.097 20.957 C 11.353 20.982,12.567 21.000,14.027 21.000 L 16.520 21.000 16.520 20.102 L 16.520 19.205 13.810 19.190 C 10.756 19.174,10.725 19.171,9.729 18.844 C 7.673 18.169,5.884 16.402,5.185 14.357 C 4.682 12.885,4.682 11.120,5.184 9.643 C 5.865 7.642,7.638 5.870,9.643 5.185 C 11.087 4.691,12.857 4.682,14.291 5.161 C 16.625 5.940,18.550 8.084,19.039 10.450 C 19.161 11.037,19.209 11.748,19.194 12.740 C 19.180 13.640,19.178 13.665,19.073 13.888 C 18.734 14.611,17.897 14.906,17.246 14.532 C 17.015 14.399,16.776 14.148,16.647 13.901 C 16.543 13.702,16.541 13.688,16.515 12.580 C 16.487 11.394,16.451 11.106,16.263 10.544 C 15.800 9.166,14.592 8.033,13.180 7.652 C 12.810 7.552,12.722 7.544,12.000 7.544 C 11.283 7.544,11.189 7.552,10.833 7.649 C 9.522 8.005,8.359 9.019,7.844 10.257 C 7.383 11.366,7.387 12.684,7.857 13.769 C 8.635 15.568,10.497 16.676,12.416 16.480 C 13.425 16.378,14.237 16.025,14.949 15.380 L 15.198 15.155 15.328 15.308 C 15.815 15.879,16.355 16.226,17.040 16.408 C 17.464 16.520,18.219 16.518,18.660 16.402 C 19.749 16.118,20.532 15.357,20.865 14.260 C 20.970 13.913,20.974 13.860,20.991 12.780 C 21.016 11.103,20.910 10.246,20.539 9.135 C 19.604 6.336,17.075 3.983,14.245 3.280 C 13.989 3.216,13.591 3.136,13.360 3.101 C 12.849 3.025,11.634 2.992,11.133 3.041 M12.635 9.381 C 13.530 9.592,14.408 10.470,14.619 11.365 C 14.696 11.692,14.696 12.308,14.619 12.635 C 14.481 13.221,14.010 13.873,13.450 14.256 C 12.600 14.837,11.400 14.837,10.550 14.256 C 9.990 13.873,9.519 13.221,9.381 12.635 C 9.304 12.308,9.304 11.692,9.381 11.365 C 9.590 10.480,10.466 9.596,11.346 9.383 C 11.659 9.307,12.318 9.307,12.635 9.381 " fill="#14B8A6" stroke="none" fill-rule="evenodd"></path></svg>