<svg width="24" height="24" viewBox="0 0 24 24" fill="none" xmlns="http://www.w3.org/2000/svg"><path d="M7.542 3.560 C 7.433 3.580,7.215 3.660,7.056 3.738 C 6.160 4.181,5.744 5.325,5.873 6.993 C 5.913 7.509,6.074 8.554,6.141 8.727 C 6.157 8.771,6.065 8.819,5.771 8.918 C 4.014 9.516,2.902 10.333,2.513 11.314 C 2.384 11.641,2.384 12.359,2.513 12.686 C 2.901 13.665,4.016 14.485,5.771 15.082 C 6.065 15.181,6.157 15.229,6.141 15.273 C 6.074 15.446,5.913 16.491,5.873 17.007 C 5.772 18.313,6.001 19.291,6.545 19.879 C 6.824 20.180,7.216 20.385,7.632 20.447 C 8.594 20.590,9.827 19.996,11.199 18.729 L 11.498 18.453 11.919 18.833 C 13.537 20.297,14.895 20.779,15.943 20.262 C 16.614 19.931,16.974 19.296,17.109 18.206 C 17.167 17.742,17.169 17.587,17.127 17.034 C 17.085 16.479,16.928 15.452,16.857 15.268 C 16.839 15.221,16.872 15.194,16.987 15.163 C 17.559 15.008,18.651 14.513,19.156 14.179 C 19.928 13.670,20.432 13.035,20.562 12.411 C 20.626 12.102,20.590 11.596,20.483 11.314 C 20.118 10.351,18.982 9.514,17.229 8.918 C 16.935 8.819,16.843 8.771,16.859 8.727 C 16.928 8.548,17.085 7.514,17.127 6.966 C 17.169 6.413,17.167 6.258,17.109 5.794 C 16.974 4.704,16.614 4.069,15.943 3.738 C 14.872 3.210,13.472 3.728,11.800 5.272 L 11.500 5.549 11.140 5.221 C 9.947 4.134,8.956 3.597,8.042 3.542 C 7.876 3.533,7.651 3.540,7.542 3.560 M8.473 4.623 C 8.868 4.755,9.256 4.970,9.711 5.309 C 10.075 5.581,10.800 6.222,10.800 6.273 C 10.800 6.288,10.638 6.498,10.440 6.740 C 10.241 6.982,9.918 7.406,9.721 7.681 L 9.363 8.182 8.932 8.233 C 8.694 8.262,8.239 8.330,7.920 8.385 C 7.601 8.441,7.284 8.496,7.216 8.507 C 7.075 8.531,7.097 8.588,6.959 7.846 C 6.746 6.704,6.794 5.609,7.082 5.038 C 7.172 4.860,7.383 4.647,7.540 4.577 C 7.738 4.488,8.129 4.508,8.473 4.623 M15.451 4.575 C 16.183 4.889,16.376 6.337,15.951 8.314 C 15.906 8.524,15.903 8.528,15.783 8.507 C 15.715 8.496,15.399 8.441,15.080 8.385 C 14.761 8.330,14.305 8.261,14.066 8.233 L 13.631 8.182 13.508 8.001 C 13.307 7.707,12.745 6.964,12.463 6.620 C 12.318 6.444,12.200 6.288,12.200 6.273 C 12.200 6.222,12.925 5.581,13.289 5.309 C 14.161 4.660,14.992 4.378,15.451 4.575 M11.959 7.563 L 12.357 8.060 11.916 8.071 C 11.674 8.078,11.288 8.078,11.060 8.071 L 10.644 8.060 11.068 7.528 C 11.309 7.227,11.508 7.012,11.527 7.031 C 11.547 7.051,11.741 7.290,11.959 7.563 M12.472 9.076 C 12.880 9.097,13.059 9.123,13.100 9.163 C 13.218 9.283,13.938 10.532,14.303 11.251 L 14.685 12.003 14.269 12.811 C 13.871 13.585,13.218 14.716,13.099 14.837 C 12.956 14.982,10.044 14.982,9.901 14.837 C 9.782 14.718,9.062 13.469,8.697 12.750 L 8.316 12.000 8.697 11.250 C 9.065 10.525,9.783 9.282,9.903 9.161 C 9.999 9.063,11.382 9.017,12.472 9.076 M8.599 9.390 C 8.479 9.592,8.164 10.154,7.969 10.513 C 7.844 10.743,7.805 10.790,7.782 10.733 C 7.743 10.634,7.360 9.512,7.360 9.497 C 7.360 9.479,8.464 9.262,8.654 9.243 C 8.673 9.241,8.648 9.308,8.599 9.390 M15.115 9.383 C 15.388 9.435,15.618 9.484,15.626 9.492 C 15.638 9.505,15.318 10.479,15.218 10.733 C 15.195 10.790,15.156 10.743,15.031 10.513 C 14.837 10.155,14.521 9.592,14.402 9.392 L 14.315 9.244 14.467 9.266 C 14.551 9.279,14.843 9.331,15.115 9.383 M6.533 10.131 C 6.596 10.334,6.781 10.838,6.945 11.250 L 7.244 12.000 6.945 12.750 C 6.781 13.162,6.596 13.667,6.533 13.872 C 6.401 14.307,6.452 14.294,5.812 14.058 C 4.873 13.712,4.024 13.189,3.691 12.752 C 3.437 12.419,3.385 12.291,3.385 12.000 C 3.385 11.241,4.279 10.505,5.940 9.896 C 6.138 9.823,6.327 9.763,6.360 9.763 C 6.401 9.762,6.455 9.877,6.533 10.131 M17.188 9.942 C 18.364 10.376,19.232 10.983,19.531 11.580 C 19.939 12.397,19.002 13.388,17.188 14.058 C 16.549 14.294,16.599 14.307,16.466 13.872 C 16.404 13.667,16.218 13.162,16.054 12.750 L 15.756 12.000 16.054 11.250 C 16.218 10.838,16.404 10.333,16.466 10.128 C 16.599 9.693,16.549 9.706,17.188 9.942 M11.145 10.362 C 10.881 10.428,10.523 10.645,10.339 10.849 C 9.724 11.534,9.749 12.555,10.397 13.202 C 10.775 13.579,11.246 13.736,11.743 13.651 C 12.097 13.590,12.341 13.463,12.603 13.202 C 12.861 12.945,13.015 12.646,13.085 12.267 C 13.258 11.328,12.534 10.389,11.597 10.339 C 11.434 10.330,11.230 10.341,11.145 10.362 M8.319 14.120 C 8.424 14.307,8.549 14.527,8.598 14.608 L 8.685 14.756 8.533 14.734 C 8.274 14.696,7.390 14.523,7.374 14.508 C 7.362 14.495,7.682 13.521,7.782 13.267 C 7.805 13.210,7.844 13.257,7.969 13.487 C 8.057 13.648,8.214 13.933,8.319 14.120 M15.438 13.899 C 15.550 14.226,15.634 14.499,15.626 14.508 C 15.610 14.523,14.726 14.696,14.469 14.733 C 14.386 14.745,14.325 14.743,14.334 14.728 C 14.342 14.712,14.448 14.529,14.569 14.320 C 14.690 14.111,14.877 13.775,14.984 13.573 C 15.106 13.344,15.190 13.224,15.208 13.256 C 15.224 13.283,15.327 13.573,15.438 13.899 M7.920 15.615 C 8.239 15.670,8.695 15.739,8.934 15.767 L 9.369 15.818 9.493 15.999 C 9.711 16.318,10.264 17.050,10.536 17.380 C 10.681 17.556,10.800 17.712,10.800 17.727 C 10.800 17.778,10.075 18.419,9.711 18.691 C 8.840 19.339,8.008 19.622,7.549 19.425 C 6.803 19.105,6.626 17.707,7.064 15.606 C 7.090 15.482,7.101 15.473,7.216 15.493 C 7.284 15.504,7.601 15.559,7.920 15.615 M15.952 15.690 C 16.257 17.111,16.245 18.315,15.918 18.962 C 15.826 19.146,15.615 19.355,15.451 19.425 C 14.992 19.622,14.160 19.339,13.289 18.691 C 12.925 18.419,12.200 17.778,12.200 17.727 C 12.200 17.712,12.318 17.556,12.463 17.380 C 12.748 17.032,13.307 16.293,13.514 15.990 C 13.620 15.835,13.666 15.800,13.763 15.800 C 13.903 15.800,15.103 15.619,15.480 15.542 C 15.907 15.453,15.901 15.451,15.952 15.690 M12.235 16.090 C 12.085 16.284,11.609 16.874,11.540 16.951 C 11.504 16.991,11.413 16.901,11.119 16.531 C 10.913 16.272,10.718 16.029,10.686 15.990 C 10.631 15.924,10.673 15.920,11.497 15.920 L 12.367 15.920 12.235 16.090 " fill="#2563EB" stroke="none" fill-rule="evenodd"></path></svg>