<svg width="24" height="24" viewBox="0 0 24 24" fill="none" xmlns="http://www.w3.org/2000/svg"><path d="M11.238 3.041 C 10.236 3.181,9.232 3.712,8.436 4.520 C 7.291 5.684,6.600 7.609,6.600 9.640 C 6.600 11.129,6.991 12.656,7.754 14.140 C 8.000 14.621,8.017 14.669,7.970 14.767 C 7.830 15.059,7.844 15.535,8.003 15.846 C 8.129 16.093,8.347 16.308,8.594 16.429 C 8.788 16.524,8.868 16.540,9.160 16.539 C 9.557 16.538,9.775 16.452,10.043 16.192 C 10.542 15.708,10.551 14.874,10.064 14.387 C 9.836 14.159,9.548 14.031,9.215 14.009 L 8.930 13.990 8.749 13.665 C 7.561 11.528,7.394 8.642,8.340 6.614 C 8.787 5.656,9.339 5.012,10.048 4.622 C 10.831 4.192,11.930 4.004,12.622 4.181 C 13.432 4.389,14.138 4.988,14.691 5.934 C 15.023 6.503,15.344 7.434,15.421 8.053 C 15.437 8.181,15.470 8.292,15.495 8.300 C 15.520 8.307,15.780 8.385,16.072 8.473 L 16.605 8.632 16.579 8.406 C 16.381 6.656,15.809 5.331,14.822 4.335 C 13.979 3.483,13.052 3.058,11.960 3.020 C 11.707 3.012,11.382 3.021,11.238 3.041 M10.438 8.292 C 9.851 8.458,9.425 9.075,9.498 9.654 C 9.552 10.093,9.836 10.492,10.232 10.688 C 10.387 10.764,10.484 10.780,10.780 10.779 C 11.091 10.779,11.168 10.764,11.343 10.672 C 11.551 10.563,11.810 10.310,11.888 10.138 C 11.932 10.042,11.943 10.040,12.397 10.040 C 14.305 10.040,16.274 10.728,17.782 11.923 C 18.166 12.226,18.798 12.909,19.055 13.297 C 19.462 13.911,19.787 14.667,19.885 15.230 C 19.959 15.659,19.912 16.364,19.783 16.739 C 19.542 17.447,18.939 18.200,18.334 18.552 C 17.338 19.132,16.034 19.185,14.629 18.704 L 14.233 18.568 13.827 18.895 C 13.603 19.075,13.376 19.253,13.322 19.291 C 13.195 19.379,13.219 19.399,13.671 19.576 C 14.121 19.752,14.602 19.894,15.070 19.988 C 15.569 20.089,16.768 20.088,17.240 19.987 C 18.643 19.688,19.825 18.921,20.465 17.895 C 21.059 16.941,21.162 15.537,20.734 14.220 C 20.072 12.179,18.001 10.275,15.563 9.464 C 14.592 9.141,13.740 8.999,12.397 8.936 L 11.895 8.913 11.757 8.727 C 11.490 8.366,10.883 8.166,10.438 8.292 M5.343 11.200 C 4.186 12.119,3.431 13.259,3.117 14.560 C 3.041 14.874,3.024 15.054,3.022 15.600 C 3.020 16.320,3.060 16.599,3.247 17.180 C 3.679 18.514,4.707 19.416,6.249 19.816 C 7.460 20.130,8.676 20.034,10.320 19.495 C 12.426 18.805,14.242 17.264,15.301 15.270 C 15.447 14.995,15.505 14.920,15.573 14.920 C 15.723 14.919,16.066 14.734,16.241 14.559 C 16.530 14.270,16.666 13.838,16.593 13.440 C 16.477 12.803,15.967 12.380,15.320 12.385 C 14.966 12.387,14.735 12.474,14.483 12.702 C 13.984 13.153,13.913 13.838,14.305 14.406 L 14.405 14.552 14.304 14.751 C 14.134 15.087,13.661 15.762,13.349 16.115 C 12.252 17.355,10.461 18.434,8.961 18.762 C 7.953 18.982,6.754 18.921,5.993 18.610 C 5.404 18.370,4.814 17.880,4.527 17.392 C 4.135 16.726,3.976 16.115,4.012 15.421 C 4.041 14.878,4.142 14.507,4.403 13.979 C 4.665 13.450,5.026 12.976,5.536 12.493 L 5.952 12.099 5.815 11.559 C 5.740 11.263,5.673 11.004,5.667 10.985 C 5.662 10.966,5.516 11.063,5.343 11.200 " fill="#F59E0B" stroke="none" fill-rule="evenodd"></path></svg>