<svg width="24" height="24" viewBox="0 0 24 24" fill="none" xmlns="http://www.w3.org/2000/svg"><path d="M6.037 2.561 C 5.191 2.624,4.678 2.738,4.240 2.961 C 3.960 3.104,3.798 3.225,3.504 3.511 C 2.905 4.094,2.657 4.748,2.560 6.000 C 2.496 6.824,2.526 18.055,2.593 18.486 C 2.735 19.392,2.962 19.908,3.444 20.417 C 3.934 20.934,4.385 21.181,5.121 21.332 C 5.808 21.474,6.442 21.486,12.400 21.469 C 17.590 21.455,18.261 21.446,18.600 21.387 C 19.517 21.227,19.939 21.024,20.481 20.481 C 21.038 19.925,21.238 19.499,21.389 18.550 C 21.455 18.132,21.460 17.662,21.460 12.000 C 21.460 6.309,21.455 5.869,21.388 5.440 C 21.240 4.502,20.981 3.974,20.404 3.431 C 19.902 2.959,19.414 2.744,18.546 2.613 C 18.146 2.552,17.506 2.545,12.280 2.538 C 9.079 2.533,6.270 2.544,6.037 2.561 M11.271 11.770 L 11.260 16.420 11.163 16.617 C 11.039 16.868,10.803 17.104,10.566 17.214 C 10.396 17.293,10.301 17.301,9.470 17.313 C 8.381 17.328,8.241 17.301,7.922 17.015 C 7.809 16.912,7.667 16.737,7.608 16.624 L 7.500 16.420 7.500 12.240 C 7.500 8.074,7.500 8.059,7.584 7.878 C 7.758 7.503,8.103 7.223,8.469 7.162 C 8.574 7.144,9.250 7.127,9.971 7.125 L 11.281 7.120 11.271 11.770 M15.848 7.244 C 16.237 7.324,16.634 7.546,16.944 7.856 C 17.405 8.316,17.600 8.787,17.600 9.440 C 17.600 10.074,17.407 10.555,16.971 11.006 C 16.532 11.461,16.006 11.680,15.354 11.680 C 13.993 11.680,12.954 10.470,13.151 9.114 C 13.336 7.843,14.579 6.981,15.848 7.244 " fill="#F87171" stroke="none" fill-rule="evenodd"></path></svg>