<svg width="24" height="24" viewBox="0 0 24 24" fill="none" xmlns="http://www.w3.org/2000/svg"><path d="M6.037 2.561 C 5.191 2.624,4.678 2.738,4.240 2.961 C 3.960 3.104,3.798 3.225,3.504 3.511 C 2.905 4.094,2.657 4.748,2.560 6.000 C 2.496 6.824,2.526 18.055,2.593 18.486 C 2.733 19.377,2.962 19.906,3.424 20.397 C 3.920 20.923,4.387 21.181,5.121 21.332 C 5.808 21.474,6.442 21.486,12.400 21.469 C 17.590 21.455,18.261 21.446,18.600 21.387 C 19.517 21.227,19.939 21.024,20.481 20.481 C 21.038 19.925,21.238 19.499,21.389 18.550 C 21.455 18.132,21.460 17.662,21.460 12.000 C 21.460 6.309,21.455 5.869,21.388 5.440 C 21.240 4.502,20.981 3.974,20.404 3.431 C 19.902 2.959,19.414 2.744,18.546 2.613 C 18.146 2.552,17.506 2.545,12.280 2.538 C 9.079 2.533,6.270 2.544,6.037 2.561 M17.660 3.638 C 18.572 3.757,19.044 3.963,19.543 4.460 C 20.150 5.063,20.334 5.633,20.401 7.115 C 20.449 8.194,20.449 15.866,20.401 16.907 C 20.332 18.370,20.151 18.928,19.546 19.535 C 19.056 20.027,18.601 20.232,17.700 20.365 C 17.252 20.431,7.897 20.464,6.920 20.402 C 5.589 20.319,5.040 20.127,4.460 19.543 C 3.941 19.022,3.743 18.550,3.633 17.576 C 3.556 16.882,3.556 7.116,3.634 6.422 C 3.744 5.442,3.938 4.980,4.459 4.459 C 5.069 3.849,5.596 3.670,6.980 3.601 C 8.007 3.550,17.233 3.582,17.660 3.638 " fill="#F87171" stroke="none" fill-rule="evenodd"></path></svg>