<svg width="24" height="24" viewBox="0 0 24 24" fill="none" xmlns="http://www.w3.org/2000/svg"><path d="M12.080 3.035 C 11.786 3.131,11.569 3.312,11.426 3.579 C 11.343 3.734,11.340 3.788,11.340 4.989 L 11.340 6.238 7.920 6.249 L 4.500 6.260 4.280 6.357 C 3.647 6.637,3.224 7.118,3.061 7.742 C 2.970 8.092,2.969 18.342,3.060 18.692 C 3.238 19.378,3.725 19.902,4.394 20.130 L 4.660 20.220 11.820 20.231 C 16.605 20.239,19.069 20.229,19.249 20.201 C 20.018 20.083,20.591 19.625,20.886 18.894 L 20.980 18.660 20.991 13.329 C 21.000 8.546,20.995 7.971,20.937 7.749 C 20.774 7.115,20.358 6.640,19.720 6.357 L 19.500 6.260 16.410 6.249 L 13.320 6.238 13.320 5.033 C 13.320 4.235,13.304 3.777,13.274 3.674 C 13.213 3.472,12.993 3.219,12.789 3.114 C 12.612 3.024,12.240 2.982,12.080 3.035 M8.860 8.240 C 9.655 8.486,10.346 9.077,10.698 9.816 C 10.913 10.264,10.975 10.554,10.976 11.100 C 10.977 11.683,10.913 11.954,10.652 12.480 C 10.494 12.798,10.404 12.918,10.102 13.220 C 9.488 13.831,8.851 14.096,8.000 14.096 C 7.149 14.096,6.512 13.831,5.898 13.220 C 5.596 12.918,5.506 12.798,5.348 12.480 C 5.084 11.948,5.021 11.681,5.023 11.100 C 5.025 10.554,5.089 10.261,5.302 9.816 C 5.706 8.969,6.545 8.328,7.471 8.159 C 7.795 8.099,8.546 8.143,8.860 8.240 M16.860 8.240 C 17.655 8.486,18.346 9.077,18.698 9.816 C 18.913 10.264,18.975 10.554,18.976 11.100 C 18.977 11.683,18.913 11.954,18.652 12.480 C 18.494 12.798,18.404 12.918,18.102 13.220 C 17.488 13.831,16.851 14.096,16.000 14.096 C 15.149 14.096,14.512 13.831,13.898 13.220 C 13.596 12.918,13.506 12.798,13.348 12.480 C 13.084 11.948,13.021 11.681,13.023 11.100 C 13.025 10.554,13.089 10.261,13.302 9.816 C 13.706 8.969,14.545 8.328,15.471 8.159 C 15.795 8.099,16.546 8.143,16.860 8.240 M7.600 10.203 C 7.254 10.360,7.050 10.643,7.011 11.021 C 6.970 11.420,7.165 11.782,7.530 11.983 C 8.220 12.364,9.069 11.803,8.989 11.021 C 8.934 10.496,8.523 10.122,8.000 10.122 C 7.864 10.122,7.711 10.153,7.600 10.203 M15.600 10.203 C 15.254 10.360,15.050 10.643,15.011 11.021 C 14.970 11.420,15.165 11.782,15.530 11.983 C 16.220 12.364,17.069 11.803,16.989 11.021 C 16.934 10.496,16.523 10.122,16.000 10.122 C 15.864 10.122,15.711 10.153,15.600 10.203 M16.374 16.295 C 16.563 16.374,16.791 16.586,16.891 16.776 C 17.012 17.005,17.012 17.435,16.892 17.663 C 16.782 17.871,16.534 18.095,16.335 18.165 C 16.208 18.210,15.515 18.220,12.500 18.220 C 8.448 18.220,8.644 18.232,8.352 17.968 C 8.110 17.749,8.022 17.551,8.022 17.220 C 8.022 16.891,8.112 16.686,8.345 16.481 C 8.631 16.230,8.396 16.243,12.491 16.242 C 15.586 16.240,16.266 16.250,16.374 16.295 " fill="#64748B" stroke="none" fill-rule="evenodd"></path></svg>