<svg width="26" height="24" viewBox="0 0 26 24" fill="none" xmlns="http://www.w3.org/2000/svg"><path d="M7.311 0.091 C 7.127 0.134,6.882 0.250,6.841 0.314 C 6.823 0.342,6.593 0.340,6.185 0.308 C 5.118 0.226,5.187 0.215,4.587 0.574 C 4.298 0.747,4.036 0.927,4.005 0.975 C 3.935 1.083,3.621 2.950,3.547 3.698 C 3.484 4.332,3.524 4.576,3.773 5.097 C 3.886 5.336,3.949 5.405,4.217 5.594 C 4.388 5.715,4.645 5.878,4.788 5.956 L 5.048 6.099 6.002 6.152 C 6.526 6.182,6.962 6.212,6.971 6.221 C 6.980 6.229,6.964 6.361,6.935 6.513 L 6.883 6.790 6.324 6.819 C 3.406 6.966,1.367 8.710,0.690 11.635 C 0.548 12.250,0.525 13.506,0.643 14.198 C 0.938 15.921,1.855 17.438,3.106 18.268 C 3.234 18.353,3.328 18.438,3.316 18.458 C 3.304 18.477,3.085 18.577,2.828 18.678 C 1.874 19.056,1.391 19.369,1.209 19.726 C 1.077 19.985,1.016 20.587,1.074 21.060 C 1.125 21.475,1.188 21.651,1.311 21.727 C 1.428 21.800,1.517 21.719,1.716 21.360 C 1.913 21.003,2.055 20.902,2.533 20.779 C 3.101 20.634,3.618 20.734,4.256 21.113 C 4.722 21.391,5.114 21.591,5.330 21.661 C 5.421 21.690,5.511 21.761,5.554 21.837 C 5.601 21.920,5.685 21.982,5.795 22.015 C 5.960 22.064,6.145 22.030,6.907 21.807 C 6.969 21.789,6.946 21.841,6.815 22.017 C 6.475 22.472,6.283 22.973,6.283 23.407 C 6.283 23.624,6.301 23.678,6.410 23.800 C 6.532 23.937,6.549 23.942,6.923 23.957 C 7.256 23.969,7.389 23.950,7.890 23.818 C 8.210 23.733,8.784 23.594,9.165 23.509 C 9.546 23.423,10.102 23.286,10.400 23.204 C 10.994 23.039,11.676 22.924,12.047 22.924 C 12.178 22.924,12.470 22.963,12.697 23.010 C 13.609 23.199,15.227 23.210,16.071 23.033 C 16.957 22.846,18.227 23.047,19.632 23.594 C 19.975 23.728,20.336 23.849,20.434 23.862 C 20.874 23.922,21.072 23.569,20.906 23.021 C 20.884 22.946,20.894 22.923,20.950 22.923 C 20.990 22.923,21.083 22.864,21.156 22.791 C 21.276 22.670,21.285 22.642,21.260 22.459 C 21.245 22.349,21.184 22.152,21.125 22.022 C 21.065 21.893,21.017 21.784,21.017 21.781 C 21.017 21.778,21.095 21.774,21.191 21.773 C 21.916 21.764,21.478 20.625,20.540 20.080 L 20.210 19.888 20.333 19.523 C 20.458 19.148,20.583 18.452,20.583 18.124 C 20.583 18.023,20.594 17.940,20.606 17.940 C 20.619 17.940,20.761 18.006,20.922 18.088 C 21.411 18.334,21.731 18.422,22.234 18.448 C 23.285 18.502,24.088 18.110,24.653 17.265 C 24.788 17.064,24.878 16.875,24.896 16.760 C 24.919 16.608,24.948 16.563,25.061 16.510 C 25.378 16.360,25.591 15.144,25.417 14.477 C 25.195 13.629,24.537 12.912,23.624 12.523 C 22.617 12.095,21.325 12.086,20.390 12.499 C 20.252 12.560,20.122 12.610,20.101 12.610 C 20.080 12.610,20.063 12.531,20.063 12.434 C 20.063 11.898,19.767 11.160,19.388 10.750 C 19.107 10.447,18.818 10.291,18.392 10.212 L 18.092 10.157 18.330 9.997 C 18.461 9.909,18.705 9.715,18.873 9.566 C 19.563 8.952,19.894 8.444,19.926 7.949 C 19.947 7.612,19.881 7.405,19.679 7.181 C 19.366 6.834,18.812 6.688,17.967 6.730 C 17.682 6.745,17.467 6.741,17.489 6.721 C 17.511 6.702,17.714 6.532,17.940 6.345 C 18.542 5.845,19.226 5.157,19.303 4.973 C 19.393 4.757,19.334 4.610,19.121 4.521 C 18.922 4.437,18.225 4.461,17.723 4.569 C 16.328 4.868,14.553 5.894,13.368 7.085 C 12.608 7.849,12.415 8.374,12.766 8.724 C 13.024 8.982,13.645 9.106,15.078 9.185 C 15.653 9.217,15.932 9.249,15.955 9.285 C 16.002 9.360,15.998 9.699,15.943 10.159 C 15.880 10.692,15.869 10.713,15.770 10.522 C 15.651 10.292,15.294 9.957,15.005 9.804 C 14.270 9.415,13.317 9.390,12.600 9.742 L 12.264 9.906 12.105 9.666 C 12.017 9.533,11.729 9.204,11.465 8.933 C 10.743 8.193,10.132 7.761,9.297 7.400 C 9.081 7.307,8.892 7.217,8.877 7.201 C 8.853 7.176,8.952 6.370,8.982 6.345 C 8.987 6.341,9.358 6.358,9.805 6.383 C 10.599 6.429,10.626 6.427,10.932 6.330 C 11.104 6.276,11.404 6.157,11.598 6.067 L 11.951 5.903 11.996 5.692 C 12.141 5.013,12.480 1.998,12.425 1.877 C 12.378 1.774,11.704 1.201,11.333 0.949 C 11.122 0.805,11.057 0.786,10.528 0.716 C 9.988 0.645,9.946 0.632,9.846 0.513 C 9.581 0.198,8.996 0.042,8.107 0.048 C 7.760 0.050,7.401 0.069,7.311 0.091 M9.007 0.394 C 9.456 0.513,9.746 0.681,9.683 0.784 C 9.572 0.962,8.888 1.072,8.341 0.999 C 7.689 0.912,7.063 0.668,7.063 0.499 C 7.063 0.373,7.799 0.254,8.363 0.290 C 8.542 0.301,8.832 0.348,9.007 0.394 M6.147 0.568 C 6.764 0.615,6.785 0.620,6.890 0.740 C 7.127 1.012,7.834 1.245,8.545 1.287 C 9.153 1.324,9.611 1.220,9.863 0.989 C 9.953 0.908,9.970 0.908,10.491 0.976 L 11.026 1.045 11.352 1.283 C 11.532 1.413,11.745 1.577,11.827 1.647 L 11.975 1.774 11.827 1.753 C 11.651 1.730,9.255 1.588,7.453 1.496 C 6.750 1.459,6.054 1.419,5.906 1.405 L 5.637 1.380 5.510 1.048 C 5.310 0.524,5.310 0.520,5.418 0.520 C 5.470 0.520,5.798 0.542,6.147 0.568 M5.215 0.984 C 5.335 1.346,5.336 1.362,5.259 1.419 C 5.145 1.502,4.069 2.047,4.052 2.029 C 4.019 1.994,4.208 1.146,4.262 1.093 C 4.341 1.014,4.993 0.614,5.048 0.612 C 5.072 0.610,5.147 0.778,5.215 0.984 M5.312 2.498 C 5.145 3.679,4.940 5.366,4.940 5.553 C 4.940 5.645,4.924 5.720,4.904 5.720 C 4.814 5.720,4.175 5.250,4.087 5.120 C 3.873 4.802,3.792 4.511,3.794 4.073 C 3.796 3.689,3.920 2.635,3.985 2.455 C 4.014 2.372,5.383 1.643,5.408 1.696 C 5.415 1.711,5.372 2.072,5.312 2.498 M8.082 1.798 C 10.379 1.926,12.148 2.041,12.173 2.064 C 12.206 2.093,11.890 4.825,11.781 5.453 L 11.733 5.728 11.462 5.850 C 11.313 5.917,11.052 6.016,10.882 6.071 L 10.573 6.170 7.941 6.009 C 6.493 5.920,5.281 5.848,5.248 5.849 C 5.198 5.850,5.192 5.778,5.216 5.449 C 5.244 5.059,5.397 3.817,5.592 2.394 L 5.689 1.690 5.932 1.690 C 6.066 1.691,7.033 1.739,8.082 1.798 M8.948 2.538 C 8.782 2.571,8.599 2.618,8.542 2.643 C 8.369 2.721,7.582 3.387,7.518 3.510 C 7.465 3.612,7.468 3.641,7.540 3.759 C 7.584 3.832,7.778 3.995,7.970 4.120 C 8.163 4.245,8.320 4.361,8.320 4.378 C 8.320 4.395,8.193 4.572,8.039 4.772 C 7.569 5.379,7.659 5.486,8.470 5.283 C 9.127 5.118,9.665 4.931,9.707 4.852 C 9.771 4.732,9.678 4.529,9.380 4.138 C 8.971 3.602,8.980 3.658,9.237 3.265 C 9.429 2.972,9.577 2.694,9.577 2.626 C 9.577 2.615,9.546 2.576,9.509 2.538 C 9.429 2.458,9.354 2.458,8.948 2.538 M9.230 2.797 C 9.230 2.811,9.155 2.932,9.063 3.068 C 8.814 3.435,8.745 3.588,8.778 3.696 C 8.794 3.749,8.943 3.975,9.111 4.199 C 9.278 4.424,9.417 4.636,9.420 4.671 C 9.423 4.708,9.353 4.760,9.252 4.796 C 8.965 4.897,8.147 5.109,8.147 5.082 C 8.147 5.068,8.222 4.957,8.315 4.836 C 8.695 4.335,8.688 4.275,8.201 3.955 C 7.992 3.818,7.802 3.692,7.779 3.675 C 7.674 3.599,8.542 2.887,8.820 2.822 C 9.020 2.776,9.230 2.763,9.230 2.797 M18.980 4.858 C 18.980 4.949,18.349 5.558,17.587 6.203 C 17.166 6.559,16.813 6.888,16.801 6.933 C 16.789 6.979,16.804 7.050,16.834 7.092 C 16.885 7.161,16.929 7.163,17.387 7.115 C 18.723 6.976,19.332 7.117,19.553 7.617 C 19.657 7.852,19.639 8.017,19.472 8.360 C 19.307 8.698,18.558 9.440,18.027 9.792 C 17.668 10.029,16.254 10.765,16.221 10.732 C 16.214 10.725,16.241 10.425,16.280 10.065 L 16.352 9.410 16.619 9.363 C 16.765 9.338,16.926 9.317,16.975 9.317 C 17.119 9.317,17.263 9.175,17.228 9.067 C 17.212 9.016,17.166 8.965,17.125 8.953 C 17.085 8.941,16.545 8.910,15.925 8.884 C 13.721 8.792,13.003 8.671,12.930 8.379 C 12.821 7.947,14.104 6.704,15.569 5.821 C 16.403 5.318,17.055 5.051,17.815 4.899 C 18.276 4.807,18.980 4.782,18.980 4.858 M7.563 7.170 C 8.952 7.396,10.159 8.006,11.139 8.981 C 12.091 9.925,12.432 10.627,12.110 10.974 C 12.050 11.039,11.957 11.102,11.905 11.115 C 10.708 11.392,10.757 11.384,9.754 11.457 C 9.009 11.511,8.999 11.513,8.895 11.634 C 8.772 11.776,8.766 11.701,8.995 12.807 C 9.095 13.291,9.146 13.633,9.128 13.705 C 9.062 13.969,8.602 14.279,7.904 14.530 C 7.735 14.590,7.208 14.750,6.734 14.885 C 5.335 15.282,4.946 15.433,4.712 15.666 C 4.577 15.802,4.555 16.007,4.655 16.198 C 4.750 16.379,5.007 16.607,5.097 16.589 C 5.237 16.563,5.213 16.429,5.030 16.222 C 4.833 15.998,4.819 15.947,4.929 15.850 C 5.066 15.730,5.668 15.466,5.617 15.548 C 5.571 15.622,5.368 16.961,5.390 17.046 C 5.422 17.170,5.772 17.564,6.035 17.772 C 6.278 17.964,6.445 17.986,6.791 17.871 C 7.149 17.752,7.623 17.508,7.672 17.417 C 7.737 17.296,7.824 16.755,7.928 15.838 C 8.058 14.688,8.004 14.820,8.418 14.632 C 9.120 14.314,9.414 14.007,9.410 13.597 C 9.407 13.368,9.181 12.195,9.097 11.975 C 9.070 11.904,9.069 11.844,9.094 11.819 C 9.116 11.797,9.433 11.761,9.799 11.739 C 10.377 11.704,11.026 11.621,11.339 11.543 C 11.423 11.521,11.437 11.541,11.464 11.722 C 11.519 12.089,11.454 13.291,11.356 13.715 C 10.826 16.011,9.334 17.776,7.363 18.440 C 6.692 18.666,6.289 18.736,5.655 18.738 C 4.808 18.741,4.160 18.564,3.403 18.120 C 2.974 17.869,2.183 17.101,1.888 16.650 C 1.448 15.977,1.119 15.182,0.946 14.373 C 0.867 14.007,0.851 13.785,0.848 13.065 C 0.845 12.310,0.858 12.141,0.945 11.751 C 1.412 9.665,2.602 8.180,4.348 7.503 C 4.724 7.357,5.327 7.195,5.720 7.135 C 6.015 7.090,7.207 7.113,7.563 7.170 M15.578 10.884 C 15.733 11.228,15.755 11.530,15.689 12.382 C 15.554 14.132,15.239 15.064,14.525 15.822 C 13.869 16.520,13.083 16.681,12.269 16.287 C 11.803 16.061,11.367 15.549,11.283 15.130 L 11.256 14.993 11.500 15.140 C 11.929 15.398,12.520 15.444,13.193 15.270 C 14.006 15.061,14.734 14.312,15.076 13.333 C 15.312 12.658,15.399 12.146,15.401 11.418 C 15.403 11.061,15.388 10.711,15.369 10.642 C 15.311 10.428,15.442 10.580,15.578 10.884 M13.308 11.234 C 13.393 11.291,13.507 11.432,13.577 11.570 C 13.693 11.794,13.699 11.834,13.682 12.242 C 13.661 12.753,13.558 13.063,13.300 13.389 C 12.858 13.948,12.252 13.910,11.934 13.303 C 11.817 13.080,11.827 12.460,11.954 12.112 C 12.243 11.320,12.847 10.929,13.308 11.234 M17.544 11.948 C 17.834 12.163,17.961 12.513,17.928 13.000 C 17.840 14.269,16.738 14.978,16.222 14.098 C 15.859 13.479,16.225 12.246,16.868 11.918 C 17.088 11.807,17.370 11.819,17.544 11.948 M22.477 12.478 C 22.927 12.530,23.553 12.738,23.927 12.958 C 25.053 13.625,25.477 14.707,25.108 15.975 C 24.991 16.378,24.887 16.410,24.498 16.163 C 24.104 15.914,23.832 15.960,23.595 16.315 C 23.454 16.527,23.320 16.590,23.164 16.519 C 23.066 16.474,22.997 16.398,22.610 15.903 C 22.491 15.750,22.346 15.626,22.208 15.557 C 22.017 15.461,21.944 15.449,21.581 15.458 C 21.129 15.469,21.090 15.454,20.677 15.108 C 20.524 14.980,20.474 14.959,20.406 14.995 C 20.272 15.067,20.308 15.150,20.569 15.362 C 20.973 15.691,21.092 15.736,21.529 15.721 C 22.064 15.703,22.193 15.769,22.537 16.236 C 22.861 16.677,23.043 16.813,23.306 16.813 C 23.504 16.813,23.498 16.818,23.896 16.369 C 23.954 16.304,24.028 16.250,24.060 16.250 C 24.147 16.250,24.577 16.519,24.631 16.608 C 24.702 16.724,24.441 17.193,24.120 17.524 C 23.638 18.023,23.088 18.221,22.273 18.190 C 21.844 18.173,21.727 18.152,21.428 18.034 C 21.238 17.959,20.974 17.833,20.843 17.754 L 20.605 17.610 20.528 17.157 C 20.411 16.464,20.168 15.800,19.835 15.258 C 19.752 15.122,19.749 15.091,19.798 14.868 C 19.910 14.359,20.022 13.666,20.048 13.316 L 20.076 12.953 20.254 12.849 C 20.352 12.792,20.588 12.695,20.778 12.634 C 21.356 12.448,21.835 12.404,22.477 12.478 M19.716 13.240 C 19.637 14.165,19.456 14.985,19.220 15.497 C 18.647 16.737,17.736 17.248,16.847 16.827 C 16.481 16.654,16.171 16.366,15.996 16.038 C 15.801 15.673,15.812 15.620,16.054 15.749 C 16.366 15.915,16.778 15.965,17.209 15.889 C 17.409 15.854,17.683 15.784,17.820 15.732 C 18.432 15.500,19.071 14.805,19.366 14.052 C 19.457 13.820,19.644 13.112,19.694 12.811 C 19.751 12.473,19.763 12.702,19.716 13.240 M15.712 16.208 C 15.994 16.745,16.575 17.176,17.180 17.297 C 17.490 17.359,17.903 17.296,18.239 17.134 C 18.596 16.961,19.121 16.412,19.389 15.931 L 19.602 15.547 19.731 15.801 C 20.176 16.676,20.348 17.862,20.169 18.807 C 20.082 19.266,19.816 20.020,19.614 20.381 C 18.927 21.609,17.617 22.423,15.817 22.739 C 15.317 22.827,13.832 22.837,13.238 22.756 C 12.488 22.654,11.873 22.435,11.491 22.133 C 11.391 22.054,11.183 21.833,11.029 21.644 C 10.707 21.247,10.353 20.964,9.858 20.706 C 9.581 20.562,9.386 20.405,8.883 19.924 C 8.207 19.276,8.131 19.163,8.086 18.740 L 8.058 18.478 8.421 18.275 C 9.416 17.721,10.321 16.785,10.945 15.664 L 11.035 15.502 11.157 15.711 C 11.424 16.166,11.869 16.527,12.388 16.710 C 12.613 16.790,12.767 16.812,13.099 16.812 C 13.586 16.813,13.913 16.724,14.273 16.493 C 14.561 16.308,15.021 15.817,15.232 15.469 L 15.399 15.194 15.476 15.549 C 15.519 15.748,15.622 16.037,15.712 16.208 M6.399 16.720 C 6.386 16.807,6.352 17.039,6.324 17.236 C 6.296 17.432,6.259 17.593,6.242 17.593 C 6.225 17.593,6.079 17.457,5.919 17.291 C 5.668 17.031,5.629 16.971,5.649 16.868 C 5.662 16.802,5.694 16.607,5.721 16.435 L 5.771 16.122 6.097 16.342 C 6.419 16.560,6.423 16.564,6.399 16.720 M14.275 16.834 C 14.210 16.933,14.211 16.952,14.285 17.103 C 14.375 17.285,14.689 17.468,15.050 17.547 C 15.279 17.598,15.778 17.602,15.947 17.554 C 16.036 17.529,16.005 17.513,15.773 17.468 C 15.131 17.341,14.706 17.135,14.553 16.876 C 14.449 16.699,14.371 16.688,14.275 16.834 M7.497 19.020 C 7.497 19.078,7.000 19.484,6.657 19.707 C 6.320 19.927,5.525 20.313,5.330 20.352 C 5.221 20.373,5.200 20.364,5.200 20.292 C 5.200 20.050,5.815 19.472,6.276 19.280 C 6.822 19.053,7.497 18.909,7.497 19.020 M8.309 20.013 L 8.407 20.042 8.315 20.227 C 8.102 20.657,7.315 21.171,6.457 21.440 C 5.819 21.640,5.807 21.641,5.807 21.530 C 5.807 21.358,6.114 20.807,6.342 20.570 C 6.596 20.306,6.903 20.114,7.190 20.036 C 7.398 19.980,8.142 19.965,8.309 20.013 M20.523 20.480 C 20.783 20.653,21.001 20.898,21.141 21.177 C 21.265 21.424,21.260 21.453,21.093 21.421 C 20.873 21.379,20.754 21.303,20.488 21.031 C 20.228 20.765,20.150 20.619,20.150 20.403 C 20.150 20.246,20.179 20.252,20.523 20.480 M19.936 21.052 C 20.338 21.308,20.825 21.999,20.913 22.437 C 20.940 22.574,20.939 22.575,20.816 22.532 C 20.748 22.507,20.604 22.419,20.497 22.336 C 20.389 22.253,20.172 22.098,20.013 21.991 C 19.561 21.688,19.397 21.326,19.591 21.064 C 19.645 20.990,19.702 20.930,19.716 20.930 C 19.731 20.930,19.830 20.985,19.936 21.052 M9.868 21.104 C 9.992 21.175,10.114 21.271,10.138 21.317 C 10.216 21.463,10.192 21.912,10.097 22.100 C 9.805 22.672,7.884 23.619,6.984 23.634 C 6.650 23.639,6.565 23.564,6.607 23.298 C 6.688 22.776,6.988 22.267,7.511 21.767 C 7.964 21.333,8.371 21.112,8.858 21.036 C 9.442 20.946,9.611 20.957,9.868 21.104 M19.678 22.219 C 19.835 22.296,20.053 22.438,20.162 22.534 C 20.494 22.826,20.745 23.444,20.560 23.515 C 20.480 23.546,19.815 23.316,19.389 23.111 C 18.995 22.921,18.773 22.736,18.672 22.515 C 18.502 22.140,18.582 22.049,19.068 22.066 C 19.333 22.076,19.447 22.105,19.678 22.219 " fill="#FF5A5A" stroke="none" fill-rule="evenodd"></path></svg>