<svg width="27" height="24" viewBox="0 0 27 24" fill="none" xmlns="http://www.w3.org/2000/svg"><path d="M20.115 0.094 C 20.004 0.116,19.790 0.195,19.641 0.271 C 19.442 0.372,19.268 0.419,18.989 0.449 C 17.877 0.566,16.870 0.986,16.105 1.649 C 15.271 2.373,14.528 3.589,14.352 4.518 C 14.300 4.790,14.217 4.884,13.830 5.110 C 13.448 5.334,13.411 5.421,13.361 6.232 C 13.307 7.098,13.308 7.093,13.090 7.128 C 12.931 7.154,12.899 7.180,12.826 7.347 C 12.780 7.452,12.729 7.632,12.712 7.747 L 12.681 7.957 12.393 8.008 C 12.234 8.035,11.934 8.118,11.726 8.191 C 11.518 8.265,11.338 8.325,11.327 8.325 C 11.301 8.325,11.299 8.307,10.957 5.584 C 10.661 3.232,10.627 3.061,10.450 3.059 C 10.407 3.058,9.878 2.643,9.273 2.136 C 8.669 1.630,8.160 1.215,8.143 1.215 C 8.126 1.215,7.976 1.277,7.809 1.353 C 7.642 1.428,7.494 1.479,7.480 1.465 C 7.465 1.450,7.500 1.327,7.557 1.191 C 7.613 1.055,7.647 0.913,7.633 0.876 C 7.601 0.793,6.802 0.270,6.706 0.270 C 6.668 0.269,6.465 0.450,6.255 0.670 C 6.045 0.891,5.113 1.864,4.185 2.832 C 3.257 3.800,2.473 4.647,2.443 4.715 C 2.413 4.782,2.388 4.926,2.387 5.034 C 2.385 5.185,2.724 7.977,2.807 8.496 C 2.820 8.580,2.773 8.633,2.552 8.780 C 1.708 9.341,1.129 10.082,0.786 11.042 C 0.579 11.620,0.495 12.111,0.495 12.734 C 0.495 13.919,0.847 15.014,1.578 16.107 C 1.847 16.510,2.581 17.303,2.938 17.577 L 3.108 17.707 2.545 18.215 C 1.364 19.278,0.079 20.953,0.071 21.440 C 0.068 21.596,0.082 21.625,0.169 21.637 C 0.241 21.647,0.331 21.591,0.478 21.444 C 0.717 21.205,1.353 20.877,1.798 20.764 C 2.002 20.712,2.215 20.696,2.518 20.708 C 2.902 20.724,2.977 20.742,3.233 20.879 C 3.561 21.055,3.897 21.420,4.155 21.882 C 4.586 22.654,5.239 22.894,6.031 22.574 C 6.189 22.510,6.323 22.463,6.328 22.468 C 6.333 22.473,6.309 22.588,6.274 22.724 C 6.239 22.859,6.210 23.092,6.210 23.241 C 6.211 23.956,6.734 24.127,7.942 23.807 C 9.877 23.295,11.132 23.029,12.013 22.947 C 12.660 22.886,12.985 22.907,13.950 23.074 C 14.559 23.179,14.768 23.194,15.592 23.193 C 16.294 23.191,16.659 23.170,17.010 23.110 C 18.002 22.939,18.465 22.967,19.665 23.270 C 20.210 23.407,20.482 23.505,20.909 23.715 C 21.209 23.864,21.513 23.985,21.584 23.984 C 21.978 23.982,22.252 23.521,22.099 23.118 C 22.064 23.027,22.080 22.993,22.210 22.890 C 22.403 22.736,22.446 22.531,22.354 22.200 L 22.286 21.956 22.462 21.866 C 22.559 21.817,22.660 21.729,22.686 21.671 C 22.713 21.614,22.818 21.520,22.920 21.462 C 23.186 21.313,23.562 21.319,23.912 21.479 C 24.229 21.624,24.297 21.628,24.451 21.507 C 24.618 21.376,24.608 21.160,24.417 20.761 C 24.224 20.358,23.631 19.405,23.246 18.878 C 23.083 18.656,22.950 18.446,22.950 18.412 C 22.950 18.364,22.995 18.357,23.146 18.379 C 23.253 18.395,23.531 18.385,23.763 18.357 C 25.102 18.194,26.031 17.528,26.592 16.328 C 26.864 15.747,26.969 15.285,26.973 14.647 C 26.977 14.009,26.908 13.703,26.633 13.140 C 26.379 12.622,25.791 12.026,25.290 11.781 C 24.968 11.623,24.374 11.413,24.107 11.361 C 24.038 11.348,23.971 11.302,23.958 11.260 C 23.946 11.217,23.883 11.075,23.819 10.944 C 23.639 10.579,22.896 9.933,22.159 9.501 L 21.841 9.314 21.792 8.998 C 21.721 8.540,21.656 8.460,21.356 8.460 L 21.113 8.460 21.040 8.246 C 21.000 8.129,20.947 7.830,20.922 7.582 C 20.805 6.412,20.713 6.207,20.166 5.896 C 20.117 5.868,20.115 5.817,20.155 5.628 C 20.183 5.500,20.205 5.320,20.205 5.228 L 20.205 5.060 20.383 5.077 C 20.525 5.091,20.582 5.072,20.671 4.983 C 20.845 4.809,21.193 3.613,21.194 3.184 C 21.195 3.066,21.206 2.970,21.220 2.970 C 21.358 2.970,21.645 3.369,22.063 4.140 C 22.347 4.665,22.518 4.824,22.825 4.849 C 23.037 4.867,23.087 4.852,23.285 4.718 C 23.493 4.578,23.514 4.546,23.591 4.252 C 23.704 3.823,23.711 2.925,23.604 2.521 C 23.442 1.905,23.146 1.454,22.502 0.842 C 22.107 0.466,21.683 0.211,21.262 0.095 C 21.053 0.038,20.409 0.037,20.115 0.094 M21.532 0.557 C 21.706 0.639,21.965 0.803,22.109 0.920 C 22.450 1.199,22.900 1.730,23.074 2.057 C 23.331 2.541,23.420 3.316,23.293 3.972 C 23.218 4.356,23.091 4.510,22.863 4.491 C 22.672 4.475,22.562 4.335,22.143 3.577 C 21.799 2.956,21.572 2.682,21.340 2.608 C 21.248 2.579,21.084 2.471,20.976 2.369 L 20.779 2.183 20.808 2.407 C 20.887 3.037,20.888 3.143,20.817 3.489 C 20.777 3.686,20.682 4.047,20.607 4.291 L 20.470 4.734 20.304 4.704 C 20.212 4.687,19.992 4.604,19.815 4.519 C 19.542 4.389,18.752 4.140,18.608 4.140 C 18.543 4.140,19.233 4.593,19.564 4.769 L 19.845 4.918 19.844 5.193 C 19.844 5.344,19.814 5.579,19.778 5.715 C 19.741 5.851,19.722 5.997,19.735 6.038 C 19.749 6.080,19.859 6.147,19.981 6.188 C 20.341 6.307,20.457 6.509,20.543 7.166 C 20.562 7.315,20.555 7.380,20.518 7.380 C 20.489 7.380,20.230 7.270,19.942 7.135 C 19.653 7.000,19.306 6.846,19.170 6.793 C 18.676 6.599,18.225 6.438,18.225 6.454 C 18.225 6.523,19.488 7.296,19.984 7.531 L 20.596 7.822 20.647 8.062 C 20.675 8.194,20.711 8.348,20.726 8.404 C 20.754 8.500,20.743 8.505,20.514 8.504 C 20.204 8.503,19.977 8.408,18.903 7.832 C 17.905 7.296,17.521 7.158,16.929 7.122 L 16.510 7.096 16.378 6.904 C 16.195 6.638,16.043 6.596,15.292 6.600 C 14.717 6.602,14.664 6.610,14.482 6.717 C 14.375 6.780,14.241 6.894,14.185 6.971 C 14.093 7.095,14.057 7.110,13.853 7.110 L 13.623 7.110 13.651 6.919 C 13.667 6.814,13.693 6.495,13.709 6.210 C 13.744 5.590,13.767 5.517,13.959 5.419 C 14.041 5.378,14.213 5.266,14.342 5.169 L 14.577 4.994 15.287 4.949 C 16.559 4.867,16.690 4.852,16.537 4.809 C 16.192 4.710,15.561 4.630,15.136 4.631 L 14.669 4.632 14.698 4.510 C 14.950 3.427,15.839 2.174,16.804 1.541 C 17.439 1.124,18.232 0.859,19.102 0.774 C 19.532 0.732,19.555 0.734,19.686 0.832 C 19.867 0.968,20.340 1.231,20.340 1.196 C 20.340 1.144,20.104 0.788,19.987 0.662 C 19.846 0.511,19.887 0.468,20.205 0.426 C 20.316 0.411,20.438 0.392,20.475 0.382 C 20.512 0.373,20.694 0.375,20.880 0.387 C 21.138 0.403,21.292 0.443,21.532 0.557 M7.000 0.815 C 7.122 0.892,7.230 0.963,7.240 0.972 C 7.250 0.981,7.203 1.139,7.135 1.324 C 7.068 1.508,7.020 1.706,7.028 1.763 C 7.051 1.924,7.271 1.921,7.718 1.752 C 8.144 1.592,8.118 1.587,8.471 1.899 L 8.639 2.047 7.877 2.700 C 7.457 3.059,7.105 3.376,7.092 3.405 C 7.080 3.435,7.098 3.481,7.132 3.509 C 7.180 3.549,7.295 3.471,7.676 3.141 C 7.942 2.911,8.302 2.599,8.477 2.448 L 8.794 2.174 9.391 2.672 C 9.720 2.946,9.973 3.183,9.955 3.199 C 9.925 3.225,4.277 5.412,3.833 5.569 C 3.300 5.758,2.514 5.218,2.765 4.835 C 2.857 4.694,6.703 0.675,6.746 0.675 C 6.763 0.675,6.878 0.738,7.000 0.815 M5.832 2.750 C 5.042 3.434,4.861 3.645,5.064 3.645 C 5.175 3.645,6.795 2.208,6.795 2.110 C 6.795 2.063,6.766 2.025,6.732 2.025 C 6.697 2.025,6.292 2.351,5.832 2.750 M5.242 3.965 C 4.662 4.424,4.476 4.635,4.652 4.635 C 4.749 4.635,6.030 3.607,6.030 3.529 C 6.030 3.386,5.843 3.490,5.242 3.965 M10.336 3.563 C 10.321 3.599,10.311 3.589,10.309 3.536 C 10.307 3.489,10.317 3.462,10.332 3.477 C 10.347 3.492,10.349 3.531,10.336 3.563 M10.381 3.904 C 10.370 3.947,10.360 3.912,10.360 3.825 C 10.360 3.738,10.370 3.703,10.381 3.746 C 10.392 3.790,10.392 3.860,10.381 3.904 M4.369 3.965 C 4.142 4.146,4.101 4.239,4.237 4.265 C 4.338 4.285,4.771 3.924,4.740 3.845 C 4.700 3.741,4.617 3.768,4.369 3.965 M10.426 4.263 C 10.415 4.307,10.405 4.282,10.404 4.207 C 10.403 4.133,10.412 4.097,10.425 4.128 C 10.437 4.158,10.438 4.219,10.426 4.263 M10.092 4.365 C 10.111 4.452,10.228 5.302,10.352 6.255 C 10.475 7.208,10.617 8.291,10.667 8.662 C 11.093 11.853,11.098 11.914,10.905 11.991 C 10.859 12.009,9.869 12.374,8.704 12.803 C 7.539 13.231,6.511 13.614,6.418 13.652 C 6.261 13.718,6.251 13.717,6.272 13.645 C 6.487 12.908,6.587 12.325,6.553 12.000 C 6.485 11.348,6.145 11.026,5.524 11.025 C 5.396 11.025,5.310 11.005,5.310 10.975 C 5.310 10.947,5.270 10.648,5.222 10.311 C 5.174 9.974,5.072 9.242,4.995 8.685 C 4.919 8.128,4.814 7.365,4.761 6.988 C 4.683 6.429,4.676 6.291,4.723 6.234 C 4.755 6.196,4.805 6.165,4.835 6.165 C 4.865 6.165,6.022 5.721,7.406 5.178 C 8.790 4.636,9.953 4.195,9.990 4.200 C 10.027 4.205,10.073 4.278,10.092 4.365 M3.645 4.572 C 3.451 4.726,3.388 4.857,3.491 4.891 C 3.573 4.919,4.004 4.549,3.975 4.475 C 3.937 4.375,3.866 4.396,3.645 4.572 M10.471 4.623 C 10.460 4.667,10.450 4.642,10.449 4.567 C 10.448 4.493,10.457 4.457,10.470 4.488 C 10.482 4.518,10.483 4.579,10.471 4.623 M10.516 4.938 C 10.505 4.982,10.495 4.957,10.494 4.882 C 10.493 4.808,10.502 4.772,10.515 4.803 C 10.527 4.833,10.528 4.894,10.516 4.938 M10.561 5.298 C 10.550 5.342,10.540 5.317,10.539 5.242 C 10.538 5.168,10.547 5.132,10.560 5.163 C 10.572 5.193,10.573 5.254,10.561 5.298 M10.605 5.681 C 10.592 5.712,10.582 5.687,10.582 5.625 C 10.582 5.563,10.592 5.538,10.605 5.569 C 10.617 5.600,10.617 5.650,10.605 5.681 M3.262 5.913 C 3.337 5.929,3.472 5.945,3.563 5.948 C 3.763 5.956,3.740 5.880,3.890 7.020 C 3.953 7.503,4.015 7.953,4.026 8.020 C 4.045 8.132,4.031 8.147,3.857 8.192 C 3.753 8.219,3.559 8.281,3.425 8.330 C 3.292 8.378,3.177 8.412,3.168 8.403 C 3.149 8.384,3.086 7.948,2.947 6.862 C 2.883 6.367,2.820 5.905,2.806 5.836 L 2.781 5.709 2.954 5.796 C 3.050 5.845,3.188 5.897,3.262 5.913 M10.651 6.018 C 10.640 6.062,10.630 6.037,10.629 5.962 C 10.628 5.888,10.637 5.852,10.650 5.883 C 10.662 5.913,10.663 5.974,10.651 6.018 M4.126 6.063 C 4.115 6.107,4.105 6.082,4.104 6.007 C 4.103 5.933,4.112 5.897,4.125 5.928 C 4.137 5.958,4.138 6.019,4.126 6.063 M10.696 6.379 C 10.685 6.422,10.675 6.387,10.675 6.300 C 10.675 6.213,10.685 6.178,10.696 6.221 C 10.707 6.265,10.707 6.335,10.696 6.379 M10.741 6.738 C 10.730 6.782,10.720 6.757,10.719 6.683 C 10.718 6.608,10.727 6.572,10.740 6.603 C 10.752 6.633,10.753 6.694,10.741 6.738 M4.215 6.761 C 4.202 6.792,4.192 6.767,4.192 6.705 C 4.192 6.643,4.202 6.618,4.215 6.649 C 4.227 6.680,4.227 6.730,4.215 6.761 M10.786 7.053 C 10.775 7.097,10.765 7.072,10.764 6.997 C 10.763 6.923,10.772 6.887,10.785 6.918 C 10.797 6.948,10.798 7.009,10.786 7.053 M4.261 7.028 C 4.246 7.064,4.236 7.054,4.234 7.001 C 4.232 6.954,4.242 6.927,4.257 6.942 C 4.272 6.957,4.274 6.996,4.261 7.028 M15.907 6.969 C 16.005 6.990,16.070 7.051,16.149 7.194 L 16.257 7.390 16.182 7.774 C 16.103 8.175,15.936 8.587,15.809 8.692 C 15.724 8.762,15.103 8.758,14.710 8.685 C 14.327 8.613,14.245 8.528,14.229 8.187 C 14.212 7.824,14.331 7.325,14.477 7.152 C 14.538 7.080,14.652 7.002,14.730 6.979 C 14.891 6.933,15.703 6.926,15.907 6.969 M10.831 7.413 C 10.820 7.457,10.810 7.432,10.809 7.357 C 10.808 7.283,10.817 7.247,10.830 7.278 C 10.842 7.308,10.843 7.369,10.831 7.413 M4.306 7.388 C 4.291 7.424,4.281 7.414,4.279 7.361 C 4.277 7.314,4.287 7.287,4.302 7.302 C 4.317 7.317,4.319 7.356,4.306 7.388 M13.930 7.661 C 13.914 7.791,13.891 7.971,13.878 8.061 L 13.854 8.224 13.463 8.246 C 13.248 8.258,13.062 8.258,13.050 8.247 C 13.012 8.214,13.044 7.717,13.092 7.591 C 13.133 7.483,13.160 7.473,13.442 7.458 C 13.610 7.450,13.795 7.439,13.853 7.434 C 13.955 7.425,13.957 7.434,13.930 7.661 M17.576 7.579 C 17.757 7.637,18.295 7.893,18.770 8.148 C 19.245 8.403,19.757 8.661,19.908 8.723 C 20.184 8.835,20.354 8.845,21.285 8.804 L 21.442 8.797 21.456 9.096 L 21.469 9.394 21.084 9.426 C 20.430 9.481,19.979 9.376,19.012 8.945 C 18.427 8.683,17.862 8.538,17.019 8.432 C 16.680 8.389,16.397 8.351,16.391 8.347 C 16.384 8.343,16.409 8.255,16.445 8.153 C 16.481 8.051,16.524 7.843,16.542 7.690 L 16.573 7.414 16.910 7.444 C 17.095 7.461,17.395 7.522,17.576 7.579 M10.875 7.796 C 10.862 7.827,10.852 7.802,10.852 7.740 C 10.852 7.678,10.862 7.653,10.875 7.684 C 10.887 7.715,10.887 7.765,10.875 7.796 M10.921 8.133 C 10.910 8.177,10.900 8.152,10.899 8.078 C 10.898 8.003,10.907 7.967,10.920 7.998 C 10.932 8.028,10.933 8.089,10.921 8.133 M4.680 8.393 C 4.738 8.454,4.776 8.505,4.763 8.505 C 4.751 8.505,4.693 8.454,4.635 8.393 C 4.577 8.331,4.539 8.280,4.552 8.280 C 4.564 8.280,4.622 8.331,4.680 8.393 M12.735 8.392 C 12.735 8.426,12.768 8.486,12.808 8.526 C 12.867 8.586,12.969 8.597,13.359 8.589 L 13.838 8.578 14.054 8.744 C 14.313 8.942,14.602 9.029,15.130 9.070 C 15.721 9.116,15.914 9.074,16.113 8.856 L 16.279 8.675 16.768 8.729 C 17.425 8.802,18.200 8.967,18.523 9.104 C 19.516 9.523,19.827 9.640,20.099 9.698 C 20.455 9.774,21.142 9.784,21.531 9.720 C 21.797 9.677,21.803 9.678,22.103 9.857 C 22.636 10.173,23.580 11.002,23.580 11.153 C 23.580 11.178,23.592 11.230,23.607 11.269 C 23.630 11.329,23.593 11.340,23.371 11.342 C 23.085 11.343,22.605 11.431,22.383 11.522 C 22.256 11.575,22.223 11.568,22.001 11.441 C 21.604 11.214,20.580 10.778,20.025 10.598 C 19.378 10.389,18.543 10.205,17.640 10.072 C 16.362 9.883,13.374 9.950,12.023 10.198 C 11.816 10.236,11.621 10.257,11.589 10.244 C 11.552 10.230,11.519 10.099,11.500 9.892 C 11.467 9.525,11.393 8.940,11.361 8.790 C 11.342 8.703,11.383 8.675,11.711 8.548 C 12.073 8.409,12.633 8.275,12.701 8.312 C 12.720 8.322,12.735 8.358,12.735 8.392 M10.965 8.471 C 10.952 8.502,10.942 8.477,10.942 8.415 C 10.942 8.353,10.952 8.328,10.965 8.359 C 10.977 8.390,10.977 8.440,10.965 8.471 M4.352 8.623 C 4.406 8.656,4.472 8.760,4.498 8.853 C 4.594 9.201,4.530 10.269,4.356 11.218 C 4.268 11.700,4.265 11.754,4.329 11.819 C 4.415 11.905,4.532 11.874,4.708 11.718 C 4.920 11.532,5.175 11.421,5.451 11.396 C 5.925 11.353,6.155 11.543,6.198 12.011 C 6.249 12.574,5.953 13.650,5.467 14.665 C 5.282 15.053,5.130 15.404,5.130 15.446 C 5.130 15.531,5.288 15.634,5.355 15.592 C 5.379 15.578,5.503 15.362,5.631 15.113 C 5.826 14.734,5.889 14.649,6.017 14.596 C 6.101 14.561,7.227 14.139,8.519 13.659 C 9.811 13.180,10.906 12.772,10.952 12.754 C 11.033 12.722,11.036 12.749,11.015 13.392 C 10.999 13.881,10.967 14.164,10.895 14.437 C 10.280 16.776,8.299 18.405,6.068 18.405 C 5.287 18.405,4.573 18.200,3.871 17.773 C 2.293 16.814,1.238 15.339,0.918 13.644 C 0.815 13.097,0.851 11.999,0.988 11.520 C 1.376 10.160,2.392 9.065,3.687 8.612 C 3.989 8.507,4.170 8.509,4.352 8.623 M11.010 8.831 C 10.997 8.862,10.987 8.837,10.987 8.775 C 10.987 8.713,10.997 8.688,11.010 8.719 C 11.022 8.750,11.022 8.800,11.010 8.831 M11.055 9.191 C 11.042 9.222,11.032 9.197,11.032 9.135 C 11.032 9.073,11.042 9.048,11.055 9.079 C 11.067 9.110,11.067 9.160,11.055 9.191 M11.101 9.529 C 11.090 9.572,11.080 9.537,11.080 9.450 C 11.080 9.363,11.090 9.328,11.101 9.371 C 11.112 9.415,11.112 9.485,11.101 9.529 M11.146 9.888 C 11.135 9.932,11.125 9.907,11.124 9.832 C 11.123 9.758,11.132 9.722,11.145 9.753 C 11.157 9.783,11.158 9.844,11.146 9.888 M4.891 10.178 C 4.876 10.214,4.866 10.204,4.864 10.151 C 4.862 10.104,4.872 10.077,4.887 10.092 C 4.902 10.107,4.904 10.146,4.891 10.178 M11.191 10.248 C 11.180 10.292,11.170 10.267,11.169 10.192 C 11.168 10.118,11.177 10.082,11.190 10.113 C 11.202 10.143,11.203 10.204,11.191 10.248 M16.320 10.508 C 16.353 10.631,16.402 10.970,16.430 11.260 C 16.643 13.451,15.544 15.699,14.069 16.092 C 13.316 16.293,12.546 15.999,11.975 15.293 C 11.726 14.986,11.407 14.386,11.356 14.130 L 11.324 13.973 11.634 14.256 C 12.404 14.962,13.359 15.144,14.195 14.745 C 14.836 14.439,15.284 13.956,15.664 13.162 C 16.019 12.420,16.195 11.483,16.135 10.650 C 16.109 10.289,16.113 10.254,16.184 10.268 C 16.235 10.277,16.282 10.361,16.320 10.508 M11.235 10.586 C 11.222 10.617,11.212 10.592,11.212 10.530 C 11.212 10.468,11.222 10.443,11.235 10.474 C 11.247 10.505,11.247 10.555,11.235 10.586 M13.355 10.736 C 13.618 10.867,13.842 11.142,13.977 11.497 C 14.104 11.831,14.094 12.534,13.959 12.874 C 13.544 13.916,12.502 13.950,12.029 12.938 C 11.913 12.691,11.902 12.623,11.902 12.149 C 11.902 11.653,11.909 11.617,12.051 11.328 C 12.267 10.891,12.608 10.633,12.985 10.623 C 13.060 10.622,13.227 10.672,13.355 10.736 M11.281 10.923 C 11.270 10.967,11.260 10.942,11.259 10.867 C 11.258 10.793,11.267 10.757,11.280 10.788 C 11.292 10.818,11.293 10.879,11.281 10.923 M18.345 11.119 C 18.922 11.398,19.232 12.352,18.997 13.126 C 18.639 14.304,17.521 14.415,17.016 13.322 C 16.850 12.961,16.825 12.322,16.962 11.910 C 17.197 11.205,17.805 10.857,18.345 11.119 M4.950 11.160 C 4.913 11.184,4.862 11.204,4.837 11.204 C 4.813 11.204,4.823 11.184,4.860 11.160 C 4.897 11.136,4.948 11.116,4.973 11.116 C 4.997 11.116,4.987 11.136,4.950 11.160 M11.326 11.328 C 11.315 11.372,11.305 11.347,11.304 11.272 C 11.303 11.198,11.312 11.162,11.325 11.193 C 11.337 11.223,11.338 11.284,11.326 11.328 M20.728 11.509 C 20.834 11.973,20.834 12.885,20.728 13.432 C 20.440 14.926,19.633 16.147,18.685 16.521 C 18.298 16.674,17.791 16.667,17.456 16.503 C 16.992 16.277,16.583 15.748,16.361 15.086 C 16.298 14.898,16.255 14.735,16.266 14.724 C 16.277 14.713,16.403 14.809,16.547 14.937 C 17.441 15.735,18.588 15.755,19.449 14.986 C 20.219 14.298,20.673 12.970,20.596 11.626 C 20.582 11.369,20.588 11.160,20.609 11.160 C 20.631 11.160,20.685 11.317,20.728 11.509 M21.069 11.464 C 21.056 11.532,21.036 11.562,21.026 11.530 C 21.007 11.473,21.041 11.340,21.075 11.340 C 21.085 11.340,21.082 11.396,21.069 11.464 M11.371 11.643 C 11.360 11.687,11.350 11.662,11.349 11.588 C 11.348 11.513,11.357 11.477,11.370 11.508 C 11.382 11.538,11.383 11.599,11.371 11.643 M24.151 11.726 C 24.822 11.864,25.397 12.172,25.859 12.641 C 27.007 13.805,26.865 15.914,25.555 17.167 C 25.012 17.686,24.260 18.000,23.562 18.000 C 23.225 18.000,22.656 17.844,22.372 17.673 C 21.788 17.322,21.222 16.442,21.092 15.681 C 21.030 15.322,21.112 14.916,21.304 14.632 L 21.442 14.426 22.038 14.422 L 22.634 14.418 22.657 14.555 C 22.749 15.124,22.786 15.290,22.845 15.405 C 22.913 15.535,22.917 15.536,23.213 15.510 C 23.378 15.496,23.553 15.478,23.602 15.471 C 23.689 15.458,23.692 15.479,23.677 16.045 C 23.665 16.532,23.674 16.643,23.732 16.690 C 23.838 16.778,23.971 16.711,24.002 16.553 C 24.051 16.310,24.033 15.401,23.977 15.279 C 23.908 15.127,23.771 15.097,23.437 15.163 C 23.287 15.193,23.148 15.200,23.128 15.180 C 23.109 15.159,23.061 14.941,23.023 14.695 C 22.923 14.065,22.924 14.065,22.198 14.078 C 21.665 14.086,21.130 14.036,21.065 13.970 C 21.021 13.926,21.053 13.409,21.111 13.233 C 21.201 12.959,21.554 12.471,21.817 12.257 C 22.471 11.724,23.265 11.543,24.151 11.726 M21.091 11.868 C 21.080 11.912,21.070 11.887,21.069 11.813 C 21.068 11.738,21.077 11.702,21.090 11.733 C 21.102 11.763,21.103 11.824,21.091 11.868 M11.370 12.071 C 11.357 12.102,11.347 12.077,11.347 12.015 C 11.347 11.953,11.357 11.928,11.370 11.959 C 11.382 11.990,11.382 12.040,11.370 12.071 M21.155 12.362 C 21.163 12.466,21.154 12.566,21.137 12.583 C 21.119 12.601,21.105 12.507,21.105 12.375 C 21.105 12.095,21.136 12.087,21.155 12.362 M11.838 15.574 C 12.435 16.287,13.372 16.596,14.215 16.356 C 14.730 16.210,15.391 15.689,15.796 15.109 C 15.878 14.991,15.958 14.895,15.974 14.895 C 15.990 14.895,16.040 15.011,16.085 15.154 C 16.307 15.863,16.788 16.491,17.296 16.738 C 18.298 17.226,19.388 16.761,20.250 15.481 C 20.400 15.258,20.535 15.075,20.551 15.075 C 20.567 15.075,20.617 15.109,20.663 15.149 C 20.727 15.208,20.745 15.291,20.745 15.535 C 20.745 15.914,20.894 16.388,21.164 16.875 L 21.352 17.212 21.348 17.707 C 21.338 19.079,20.500 20.776,19.339 21.782 C 18.766 22.277,18.172 22.544,17.215 22.735 C 16.795 22.819,16.566 22.834,15.750 22.834 C 14.487 22.835,13.693 22.712,12.413 22.318 L 11.978 22.184 11.683 21.788 C 11.190 21.125,10.859 20.846,10.001 20.367 C 9.747 20.225,9.413 20.009,9.258 19.886 C 8.636 19.393,8.112 18.616,8.217 18.343 C 8.231 18.305,8.398 18.183,8.588 18.071 C 9.768 17.378,10.742 16.169,11.121 14.929 L 11.214 14.625 11.430 14.985 C 11.549 15.182,11.732 15.447,11.838 15.574 M20.857 14.715 C 20.842 14.740,20.806 14.760,20.776 14.759 C 20.744 14.759,20.749 14.741,20.790 14.715 C 20.876 14.659,20.892 14.659,20.857 14.715 M14.894 16.449 C 14.808 16.553,14.898 16.707,15.146 16.877 C 15.557 17.160,16.082 17.284,16.492 17.195 C 16.662 17.158,16.639 17.145,16.087 16.965 C 15.549 16.788,15.373 16.703,15.168 16.519 C 14.991 16.360,14.972 16.355,14.894 16.449 M22.633 18.563 C 22.839 18.825,23.193 19.318,23.419 19.658 C 23.840 20.288,24.329 21.181,24.281 21.229 C 24.266 21.244,24.125 21.211,23.967 21.155 C 23.621 21.033,23.115 21.019,22.909 21.125 C 22.835 21.164,22.766 21.195,22.756 21.195 C 22.746 21.195,22.702 21.104,22.660 20.992 C 22.532 20.658,22.217 20.275,21.869 20.030 C 21.693 19.907,21.530 19.799,21.506 19.791 C 21.483 19.784,21.514 19.580,21.576 19.340 C 21.700 18.848,21.776 18.179,21.745 17.845 L 21.725 17.622 21.992 17.854 C 22.139 17.981,22.427 18.300,22.633 18.563 M3.673 18.066 C 3.819 18.152,3.968 18.241,4.005 18.263 C 4.058 18.294,3.950 18.429,3.487 18.906 C 3.166 19.238,2.754 19.705,2.573 19.943 C 2.256 20.360,2.236 20.377,2.033 20.406 C 1.762 20.445,1.057 20.679,0.861 20.794 C 0.777 20.843,0.701 20.876,0.692 20.867 C 0.637 20.812,1.505 19.698,2.047 19.129 C 2.407 18.751,3.327 17.910,3.381 17.910 C 3.396 17.910,3.528 17.980,3.673 18.066 M4.950 18.610 C 5.160 18.668,5.398 18.716,5.479 18.718 C 5.559 18.719,5.625 18.735,5.625 18.754 C 5.624 18.772,5.480 18.918,5.303 19.078 C 4.868 19.471,4.725 19.702,4.725 20.015 C 4.725 20.219,4.744 20.276,4.850 20.382 C 4.974 20.506,5.343 20.606,5.445 20.543 C 5.507 20.504,5.501 20.566,5.422 20.790 C 5.385 20.895,5.355 21.112,5.355 21.272 C 5.355 21.532,5.368 21.575,5.487 21.693 C 5.603 21.810,5.649 21.825,5.890 21.825 C 6.052 21.825,6.298 21.782,6.500 21.718 C 6.807 21.620,6.834 21.618,6.794 21.691 C 6.708 21.852,6.380 22.087,6.040 22.230 C 5.428 22.489,5.124 22.472,4.779 22.162 C 4.657 22.052,4.469 21.815,4.363 21.635 C 4.257 21.455,4.016 21.154,3.829 20.967 C 3.486 20.626,3.374 20.562,2.868 20.422 L 2.653 20.363 2.978 19.957 C 3.157 19.735,3.546 19.303,3.844 18.999 C 4.285 18.547,4.402 18.450,4.476 18.475 C 4.526 18.492,4.740 18.553,4.950 18.610 M7.536 18.949 C 7.643 18.976,7.798 19.054,7.879 19.122 L 8.027 19.246 7.670 19.276 C 7.045 19.329,6.646 19.477,6.130 19.846 C 5.991 19.946,5.768 20.059,5.636 20.098 C 5.417 20.161,5.386 20.161,5.285 20.095 C 5.225 20.055,5.175 20.002,5.175 19.977 C 5.175 19.866,5.364 19.578,5.547 19.409 C 5.792 19.184,5.877 19.137,6.277 19.006 C 6.631 18.892,7.203 18.866,7.536 18.949 M8.534 19.836 C 8.733 19.939,9.068 20.293,9.012 20.341 C 8.993 20.358,8.865 20.395,8.727 20.424 C 8.454 20.483,8.048 20.662,7.655 20.899 C 7.508 20.988,7.309 21.065,7.177 21.083 C 7.054 21.100,6.725 21.183,6.447 21.267 C 5.775 21.470,5.786 21.472,5.819 21.199 C 5.890 20.597,6.504 19.988,7.250 19.778 C 7.604 19.679,8.287 19.710,8.534 19.836 M21.632 20.351 C 21.964 20.584,22.106 20.750,22.256 21.078 C 22.377 21.343,22.373 21.448,22.234 21.574 C 22.155 21.645,22.145 21.639,22.033 21.448 C 21.905 21.229,21.478 20.771,21.265 20.623 L 21.132 20.530 21.215 20.345 C 21.261 20.243,21.312 20.160,21.329 20.160 C 21.345 20.160,21.482 20.246,21.632 20.351 M10.006 20.853 C 10.298 20.941,10.825 21.413,10.964 21.712 C 11.085 21.971,11.100 22.266,11.003 22.453 C 10.853 22.743,10.651 22.822,8.955 23.248 C 7.127 23.707,6.855 23.747,6.655 23.585 C 6.554 23.503,6.552 23.490,6.599 23.164 C 6.746 22.147,7.704 21.153,8.820 20.861 C 9.141 20.777,9.739 20.773,10.006 20.853 M21.211 21.110 C 21.487 21.293,21.698 21.555,21.877 21.939 C 22.028 22.262,22.062 22.506,21.969 22.599 C 21.927 22.641,21.864 22.596,21.685 22.395 C 21.367 22.039,20.922 21.744,20.459 21.583 C 20.384 21.557,20.392 21.536,20.534 21.378 C 20.622 21.282,20.727 21.150,20.769 21.086 C 20.868 20.935,20.954 20.940,21.211 21.110 M20.424 22.045 C 20.797 22.161,21.046 22.315,21.301 22.588 C 21.633 22.943,21.817 23.455,21.679 23.641 C 21.620 23.720,21.589 23.710,21.057 23.451 C 20.531 23.195,19.887 22.979,19.294 22.860 C 18.970 22.796,18.896 22.695,19.033 22.503 C 19.113 22.390,19.405 22.172,19.688 22.013 C 19.823 21.937,20.120 21.950,20.424 22.045 " fill="#54484A" stroke="none" fill-rule="evenodd"></path></svg>