<svg width="24" height="24" viewBox="0 0 24 24" fill="none" xmlns="http://www.w3.org/2000/svg"><path d="M19.360 3.027 C 18.585 3.085,18.399 3.120,17.818 3.311 C 16.585 3.718,15.563 4.279,14.520 5.121 C 13.692 5.790,13.326 6.376,13.493 6.768 C 13.649 7.132,13.962 7.233,15.220 7.321 C 15.849 7.365,16.572 7.488,16.670 7.569 C 16.750 7.635,16.716 8.440,16.633 8.440 C 16.614 8.440,16.432 8.316,16.229 8.165 C 16.026 8.014,15.760 7.853,15.637 7.808 C 15.303 7.686,14.803 7.625,14.363 7.654 C 13.900 7.684,13.631 7.753,13.255 7.939 C 12.919 8.105,12.536 8.486,12.237 8.952 L 12.046 9.251 11.867 8.895 C 11.414 7.998,10.450 6.891,9.648 6.350 C 9.072 5.961,8.236 5.625,7.520 5.494 C 6.953 5.391,5.461 5.392,5.020 5.495 C 4.076 5.716,3.217 6.148,2.454 6.786 C 1.346 7.712,0.854 8.393,0.327 9.728 C 0.053 10.421,0.020 10.562,0.020 11.040 C 0.020 11.420,0.030 11.480,0.129 11.668 C 0.190 11.782,0.299 11.921,0.372 11.976 C 0.503 12.076,0.850 12.177,0.981 12.153 C 1.032 12.143,1.114 12.269,1.314 12.661 C 1.959 13.927,3.004 15.059,3.980 15.549 C 4.576 15.849,5.737 16.197,6.420 16.281 C 6.618 16.305,6.842 16.334,6.918 16.346 L 7.056 16.367 6.798 16.504 C 6.474 16.677,6.139 17.001,6.016 17.260 C 5.785 17.746,5.996 18.041,6.533 17.985 C 6.661 17.972,6.760 17.974,6.751 17.990 C 6.501 18.482,6.433 18.777,6.529 18.960 C 6.663 19.217,7.015 19.251,7.576 19.063 C 7.732 19.010,7.867 18.974,7.875 18.982 C 7.883 18.990,7.771 19.201,7.626 19.451 C 7.415 19.815,7.353 19.962,7.314 20.188 C 7.271 20.437,7.274 20.492,7.336 20.656 C 7.420 20.875,7.554 20.960,7.814 20.960 C 7.975 20.960,10.276 20.512,11.090 20.322 C 11.273 20.280,11.764 20.196,12.181 20.137 L 12.940 20.029 13.773 20.101 C 14.490 20.163,14.773 20.168,15.793 20.136 C 17.556 20.082,18.431 20.093,18.860 20.175 C 19.058 20.213,19.634 20.376,20.140 20.537 C 21.268 20.898,21.224 20.888,21.383 20.821 C 21.576 20.741,21.610 20.646,21.577 20.278 L 21.550 19.960 21.654 19.960 C 21.878 19.960,21.971 19.534,21.823 19.182 C 21.738 18.978,21.740 18.973,21.900 18.943 C 22.215 18.884,22.285 18.606,22.084 18.209 C 21.933 17.910,21.692 17.641,21.431 17.479 C 21.315 17.407,21.182 17.303,21.134 17.249 L 21.049 17.150 21.150 16.851 C 21.276 16.474,21.420 16.306,21.692 16.218 C 21.991 16.121,22.385 15.908,22.648 15.701 C 22.875 15.522,23.012 15.339,23.314 14.806 C 23.401 14.653,23.546 14.460,23.636 14.379 C 23.835 14.199,23.913 13.970,23.946 13.460 C 24.005 12.566,23.675 11.659,23.046 10.991 C 22.557 10.470,22.008 10.201,21.268 10.119 C 21.009 10.090,20.785 10.048,20.771 10.025 C 20.757 10.002,20.698 9.847,20.640 9.680 C 20.390 8.959,19.793 8.380,19.194 8.279 C 19.041 8.253,18.920 8.227,18.927 8.221 C 18.934 8.215,19.126 8.071,19.353 7.900 C 20.151 7.301,20.547 6.801,20.623 6.294 C 20.661 6.039,20.583 5.726,20.437 5.549 C 20.187 5.245,19.506 5.040,18.751 5.040 C 18.554 5.040,18.399 5.025,18.407 5.006 C 18.421 4.970,19.140 4.346,19.536 4.027 C 19.892 3.739,20.039 3.536,20.040 3.329 C 20.040 3.180,20.024 3.149,19.910 3.080 C 19.838 3.036,19.726 3.003,19.660 3.007 C 19.594 3.011,19.459 3.020,19.360 3.027 M19.640 3.391 C 19.640 3.471,18.724 4.311,18.040 4.857 C 17.685 5.141,17.536 5.320,17.574 5.419 C 17.593 5.468,17.706 5.474,18.308 5.454 C 19.749 5.405,20.280 5.596,20.280 6.160 C 20.280 6.513,20.071 6.809,19.424 7.371 C 18.901 7.826,18.571 8.052,17.959 8.378 C 17.173 8.796,17.044 8.857,17.015 8.828 C 16.999 8.813,17.014 8.510,17.047 8.154 C 17.118 7.397,17.115 7.400,17.523 7.400 C 17.716 7.400,17.805 7.383,17.842 7.338 C 17.945 7.214,17.808 7.170,17.040 7.085 C 16.633 7.040,15.994 6.992,15.620 6.979 C 14.331 6.933,13.887 6.850,13.821 6.644 C 13.781 6.518,13.963 6.156,14.187 5.916 C 14.404 5.684,14.939 5.223,15.297 4.961 C 16.333 4.201,17.882 3.510,18.820 3.388 C 19.049 3.358,19.640 3.360,19.640 3.391 M7.387 5.820 C 8.526 6.004,9.441 6.482,10.300 7.342 C 10.661 7.703,10.864 7.970,11.277 8.632 C 11.653 9.235,11.778 9.558,11.862 10.140 C 11.983 10.993,11.896 11.741,11.552 12.800 C 11.307 13.557,11.008 14.024,10.374 14.648 C 9.689 15.320,9.243 15.640,8.769 15.799 C 7.805 16.122,6.962 16.105,5.540 15.734 C 4.021 15.337,2.908 14.551,2.205 13.380 C 2.008 13.052,1.800 12.423,1.800 12.156 L 1.800 11.970 2.170 11.811 C 2.655 11.602,3.417 11.417,3.547 11.476 C 3.598 11.499,3.643 11.541,3.646 11.569 C 3.650 11.597,3.665 11.530,3.680 11.420 C 3.705 11.245,3.708 11.262,3.710 11.560 C 3.713 11.961,3.770 12.216,3.927 12.531 C 4.078 12.834,4.299 13.074,4.513 13.170 C 4.920 13.350,5.811 13.275,7.612 12.907 C 8.439 12.738,8.652 12.707,8.687 12.748 C 8.710 12.776,8.743 12.791,8.759 12.780 C 8.795 12.759,8.839 12.994,8.840 13.207 C 8.840 13.427,8.997 13.544,9.156 13.443 C 9.200 13.415,9.207 13.336,9.189 13.073 C 9.163 12.701,9.115 12.543,8.990 12.410 C 8.880 12.293,8.826 12.295,8.064 12.456 C 6.995 12.681,5.923 12.875,5.514 12.919 C 4.948 12.978,4.591 12.894,4.405 12.657 C 4.268 12.483,4.155 12.119,4.115 11.720 C 4.013 10.713,3.957 10.695,2.660 11.237 C 1.454 11.742,0.902 11.874,0.647 11.719 C 0.320 11.519,0.264 10.997,0.495 10.307 C 1.020 8.737,1.795 7.657,3.032 6.772 C 3.813 6.213,4.619 5.888,5.580 5.744 C 5.803 5.711,7.030 5.762,7.387 5.820 M16.425 9.100 C 16.676 9.751,16.575 10.785,16.137 12.043 C 15.805 13.000,15.668 13.213,15.132 13.617 C 14.520 14.077,14.174 14.145,13.480 13.944 C 13.054 13.820,12.762 13.645,12.559 13.393 C 12.413 13.211,12.242 12.833,12.241 12.688 C 12.240 12.597,12.242 12.597,12.390 12.715 C 12.473 12.781,12.657 12.874,12.800 12.922 C 13.024 12.997,13.118 13.006,13.480 12.988 C 14.171 12.953,14.676 12.728,15.167 12.236 C 15.424 11.979,15.508 11.859,15.675 11.514 C 15.785 11.286,15.912 10.985,15.957 10.845 C 16.138 10.282,16.229 9.480,16.169 8.969 C 16.150 8.809,16.145 8.669,16.156 8.657 C 16.195 8.618,16.316 8.819,16.425 9.100 M14.034 9.064 C 14.532 9.313,14.742 9.901,14.580 10.591 C 14.503 10.914,14.395 11.124,14.189 11.347 C 13.946 11.611,13.758 11.697,13.417 11.698 C 13.170 11.700,13.109 11.684,12.937 11.579 C 12.554 11.343,12.339 10.778,12.439 10.270 C 12.516 9.877,12.631 9.619,12.824 9.404 C 13.216 8.968,13.615 8.856,14.034 9.064 M18.203 9.766 C 18.698 9.914,18.985 10.570,18.826 11.190 C 18.736 11.541,18.596 11.797,18.388 11.988 C 17.932 12.409,17.523 12.421,17.139 12.026 C 16.798 11.675,16.711 11.197,16.895 10.676 C 17.067 10.188,17.303 9.929,17.699 9.792 C 17.939 9.709,18.003 9.706,18.203 9.766 M20.340 9.850 C 20.356 9.900,20.378 10.248,20.389 10.625 C 20.407 11.249,20.400 11.357,20.303 11.855 C 20.132 12.739,19.946 13.189,19.531 13.725 C 19.172 14.187,18.654 14.480,18.195 14.480 C 17.824 14.480,17.159 14.150,16.933 13.854 C 16.829 13.718,16.621 13.205,16.656 13.171 C 16.666 13.160,16.745 13.208,16.831 13.277 C 17.065 13.466,17.352 13.560,17.690 13.559 C 18.325 13.558,18.855 13.340,19.305 12.896 C 19.548 12.656,19.628 12.541,19.815 12.156 C 20.140 11.490,20.240 11.060,20.240 10.336 C 20.240 9.796,20.272 9.640,20.340 9.850 M22.023 10.706 C 22.351 10.851,22.468 10.927,22.647 11.112 C 23.056 11.536,23.220 11.796,23.399 12.304 C 23.514 12.630,23.520 12.677,23.520 13.285 C 23.520 13.768,23.506 13.952,23.461 14.037 C 23.356 14.242,23.178 14.253,22.837 14.075 C 22.577 13.940,22.405 13.935,22.217 14.058 C 22.093 14.140,22.014 14.396,22.077 14.514 C 22.146 14.644,22.308 14.627,22.392 14.480 C 22.429 14.414,22.482 14.360,22.509 14.360 C 22.588 14.360,22.920 14.532,22.920 14.574 C 22.920 14.663,22.323 15.188,22.084 15.310 C 21.765 15.473,21.603 15.477,21.437 15.329 C 21.322 15.226,21.309 15.188,21.276 14.866 C 21.203 14.145,21.009 13.571,20.661 13.049 L 20.441 12.718 20.540 12.377 C 20.594 12.190,20.675 11.817,20.720 11.548 C 20.831 10.891,20.860 10.794,20.989 10.670 C 21.236 10.435,21.425 10.441,22.023 10.706 M16.300 13.252 C 16.425 13.859,16.608 14.142,17.070 14.444 C 17.769 14.900,18.293 14.945,19.000 14.611 C 19.404 14.420,19.871 13.952,20.100 13.510 C 20.188 13.340,20.271 13.201,20.285 13.200 C 20.312 13.200,20.490 13.584,20.581 13.843 C 20.855 14.621,20.946 15.788,20.780 16.400 C 20.680 16.768,20.442 17.306,20.228 17.648 C 20.001 18.012,19.209 18.801,18.820 19.050 C 18.173 19.465,17.680 19.666,16.920 19.823 C 15.783 20.058,14.403 19.935,12.817 19.459 L 12.495 19.362 12.149 18.968 C 11.623 18.368,11.441 18.214,11.028 18.021 C 10.642 17.840,10.435 17.697,9.980 17.300 C 9.206 16.623,9.120 16.518,9.120 16.251 L 9.120 16.098 9.550 15.884 C 10.344 15.490,10.977 15.010,11.412 14.474 C 11.495 14.372,11.677 14.085,11.815 13.836 C 11.954 13.588,12.084 13.379,12.104 13.372 C 12.125 13.365,12.176 13.423,12.218 13.501 C 12.333 13.714,12.652 13.991,12.937 14.125 C 13.288 14.289,13.908 14.412,14.238 14.384 C 14.841 14.332,15.700 13.743,16.104 13.105 C 16.166 13.006,16.222 12.928,16.227 12.933 C 16.232 12.938,16.264 13.082,16.300 13.252 M15.120 14.360 C 15.018 14.462,15.019 14.523,15.124 14.656 C 15.295 14.874,15.859 15.080,16.283 15.080 C 16.538 15.080,16.760 15.044,16.760 15.002 C 16.760 14.987,16.585 14.942,16.370 14.902 C 15.797 14.795,15.369 14.577,15.299 14.358 C 15.268 14.259,15.221 14.259,15.120 14.360 M8.416 16.554 C 8.458 16.622,8.170 16.837,7.780 17.029 C 7.291 17.270,6.328 17.661,6.298 17.631 C 6.238 17.572,6.357 17.357,6.558 17.160 C 6.805 16.917,7.232 16.673,7.565 16.583 C 7.800 16.520,8.383 16.500,8.416 16.554 M9.261 17.306 C 9.326 17.331,9.268 17.527,9.151 17.679 C 9.038 17.825,8.381 18.270,8.058 18.420 C 7.831 18.525,6.973 18.800,6.872 18.800 C 6.839 18.800,6.913 18.482,6.976 18.356 C 7.005 18.299,7.146 18.109,7.291 17.934 C 7.627 17.527,7.921 17.362,8.456 17.278 C 8.653 17.247,9.153 17.264,9.261 17.306 M21.049 17.684 C 21.357 17.842,21.913 18.460,21.826 18.548 C 21.734 18.639,20.953 18.129,20.876 17.927 C 20.837 17.826,20.827 17.600,20.862 17.600 C 20.873 17.600,20.958 17.638,21.049 17.684 M10.691 18.319 C 10.909 18.366,11.109 18.534,11.163 18.715 C 11.213 18.882,11.171 19.006,10.974 19.269 C 10.794 19.509,10.107 19.956,9.587 20.170 C 9.078 20.380,8.108 20.614,7.840 20.592 L 7.700 20.580 7.688 20.356 C 7.648 19.595,8.606 18.538,9.550 18.300 C 9.786 18.241,10.375 18.251,10.691 18.319 M20.717 18.318 C 20.928 18.426,21.163 18.705,21.351 19.071 C 21.505 19.371,21.589 19.640,21.528 19.640 C 21.512 19.640,21.436 19.589,21.359 19.526 C 21.283 19.463,21.159 19.380,21.084 19.342 C 21.009 19.303,20.877 19.221,20.792 19.158 C 20.706 19.096,20.585 19.034,20.524 19.021 C 20.416 18.997,20.240 18.760,20.240 18.638 C 20.240 18.578,20.486 18.243,20.532 18.241 C 20.549 18.241,20.632 18.275,20.717 18.318 M20.607 19.393 C 21.033 19.578,21.311 19.995,21.284 20.410 C 21.282 20.449,21.248 20.480,21.209 20.480 C 21.066 20.480,19.895 20.091,19.736 19.990 C 19.505 19.844,19.311 19.589,19.327 19.452 C 19.344 19.305,19.444 19.281,19.980 19.298 C 20.310 19.309,20.467 19.333,20.607 19.393 " stroke="none" fill-rule="evenodd" fill="black"></path></svg>