<svg width="24" height="24" viewBox="0 0 24 24" fill="none" xmlns="http://www.w3.org/2000/svg"><path d="M11.370 2.027 C 11.342 2.038,11.191 2.261,11.035 2.523 C 10.669 3.134,10.653 3.137,10.239 2.670 C 9.861 2.242,9.811 2.200,9.689 2.200 C 9.525 2.200,9.457 2.298,9.278 2.793 C 9.110 3.257,9.045 3.360,8.919 3.360 C 8.883 3.360,8.675 3.225,8.457 3.061 C 8.165 2.841,8.027 2.762,7.936 2.761 C 7.733 2.759,7.682 2.859,7.591 3.439 C 7.478 4.160,7.484 4.157,6.858 3.862 C 6.600 3.740,6.354 3.640,6.312 3.640 C 6.271 3.640,6.191 3.685,6.136 3.740 C 6.037 3.840,6.037 3.840,6.063 4.390 C 6.089 4.911,6.086 4.944,6.009 5.013 C 5.929 5.084,5.912 5.082,5.402 4.959 C 4.910 4.840,4.872 4.836,4.780 4.897 C 4.725 4.932,4.671 5.003,4.658 5.054 C 4.645 5.105,4.688 5.378,4.753 5.662 C 4.863 6.145,4.867 6.183,4.805 6.268 C 4.741 6.358,4.730 6.359,4.197 6.334 L 3.655 6.309 3.567 6.420 C 3.519 6.481,3.480 6.560,3.481 6.595 C 3.481 6.631,3.577 6.878,3.694 7.145 C 3.890 7.591,3.903 7.639,3.853 7.734 C 3.816 7.805,3.754 7.845,3.650 7.863 C 2.871 8.003,2.742 8.036,2.693 8.103 C 2.584 8.252,2.631 8.391,2.943 8.841 C 3.335 9.409,3.332 9.418,2.684 9.679 C 1.940 9.977,1.919 10.089,2.506 10.632 C 3.016 11.103,3.014 11.118,2.420 11.510 C 2.139 11.694,1.966 11.835,1.942 11.900 C 1.873 12.085,1.955 12.187,2.420 12.492 C 3.014 12.881,3.014 12.888,2.504 13.375 C 2.277 13.591,2.111 13.783,2.097 13.844 C 2.059 14.018,2.210 14.140,2.700 14.331 C 3.331 14.577,3.335 14.591,2.943 15.159 C 2.616 15.631,2.574 15.774,2.720 15.920 C 2.764 15.964,2.813 16.000,2.830 16.000 C 2.846 16.000,3.067 16.036,3.320 16.080 C 3.573 16.124,3.784 16.160,3.789 16.160 C 3.794 16.160,3.822 16.207,3.852 16.265 C 3.903 16.361,3.891 16.406,3.694 16.855 C 3.577 17.122,3.481 17.369,3.481 17.405 C 3.480 17.440,3.519 17.519,3.567 17.580 L 3.654 17.690 4.186 17.672 C 4.687 17.655,4.724 17.659,4.796 17.737 C 4.872 17.819,4.871 17.826,4.754 18.337 C 4.688 18.621,4.645 18.895,4.658 18.946 C 4.671 18.997,4.727 19.069,4.783 19.105 C 4.879 19.168,4.910 19.165,5.408 19.046 C 5.911 18.924,5.936 18.922,6.011 18.990 C 6.085 19.056,6.088 19.095,6.063 19.610 C 6.037 20.160,6.037 20.160,6.136 20.260 C 6.191 20.315,6.272 20.360,6.315 20.360 C 6.358 20.360,6.603 20.261,6.860 20.141 C 7.483 19.848,7.479 19.846,7.593 20.571 C 7.666 21.041,7.687 21.110,7.782 21.191 C 7.923 21.313,7.977 21.292,8.457 20.935 C 8.676 20.773,8.884 20.640,8.920 20.640 C 9.045 20.640,9.110 20.743,9.278 21.207 C 9.457 21.702,9.525 21.800,9.689 21.800 C 9.811 21.800,9.861 21.758,10.239 21.330 C 10.653 20.862,10.669 20.865,11.037 21.480 C 11.458 22.184,11.543 22.184,11.965 21.477 C 12.331 20.865,12.347 20.862,12.761 21.330 C 13.139 21.758,13.189 21.800,13.311 21.800 C 13.475 21.800,13.543 21.702,13.722 21.207 C 13.890 20.743,13.955 20.640,14.080 20.640 C 14.116 20.640,14.324 20.773,14.543 20.935 C 15.023 21.292,15.078 21.313,15.217 21.191 C 15.310 21.111,15.332 21.038,15.406 20.571 C 15.521 19.846,15.518 19.848,16.140 20.141 C 16.397 20.261,16.642 20.360,16.685 20.360 C 16.728 20.360,16.809 20.315,16.864 20.260 C 16.963 20.160,16.963 20.160,16.937 19.610 C 16.912 19.095,16.915 19.056,16.989 18.990 C 17.064 18.922,17.089 18.924,17.592 19.046 C 18.090 19.165,18.121 19.168,18.217 19.105 C 18.273 19.069,18.329 18.997,18.342 18.946 C 18.355 18.895,18.312 18.621,18.246 18.337 C 18.129 17.826,18.128 17.819,18.204 17.737 C 18.276 17.659,18.313 17.655,18.814 17.672 L 19.346 17.690 19.433 17.580 C 19.481 17.519,19.520 17.440,19.519 17.405 C 19.519 17.369,19.423 17.122,19.306 16.855 C 19.109 16.406,19.097 16.361,19.148 16.265 C 19.178 16.207,19.206 16.160,19.211 16.160 C 19.216 16.160,19.427 16.124,19.680 16.080 C 19.933 16.036,20.154 16.000,20.170 16.000 C 20.187 16.000,20.236 15.964,20.280 15.920 C 20.426 15.774,20.384 15.631,20.057 15.159 C 19.665 14.591,19.669 14.577,20.300 14.331 C 20.790 14.140,20.941 14.018,20.903 13.844 C 20.889 13.783,20.723 13.591,20.496 13.375 C 19.986 12.888,19.986 12.881,20.580 12.492 C 21.044 12.187,21.128 12.084,21.058 11.901 C 21.034 11.840,20.853 11.692,20.580 11.511 C 19.986 11.118,19.984 11.103,20.494 10.632 C 21.081 10.089,21.060 9.977,20.316 9.679 C 19.668 9.418,19.665 9.409,20.057 8.841 C 20.369 8.391,20.416 8.252,20.307 8.103 C 20.258 8.036,20.129 8.003,19.350 7.863 C 19.246 7.845,19.184 7.805,19.147 7.734 C 19.097 7.639,19.110 7.591,19.306 7.145 C 19.423 6.878,19.519 6.631,19.519 6.595 C 19.520 6.560,19.481 6.481,19.433 6.420 L 19.345 6.309 18.803 6.334 C 18.270 6.359,18.259 6.358,18.195 6.268 C 18.133 6.183,18.137 6.145,18.247 5.662 C 18.312 5.378,18.355 5.105,18.342 5.054 C 18.329 5.003,18.275 4.932,18.221 4.897 C 18.129 4.837,18.089 4.841,17.596 4.958 C 17.089 5.079,17.067 5.080,16.990 5.012 C 16.915 4.944,16.911 4.908,16.937 4.390 C 16.963 3.840,16.963 3.840,16.864 3.740 C 16.809 3.685,16.729 3.640,16.688 3.640 C 16.646 3.640,16.400 3.740,16.142 3.862 C 15.516 4.157,15.523 4.160,15.407 3.437 C 15.352 3.095,15.299 2.883,15.255 2.835 C 15.125 2.690,14.969 2.740,14.543 3.061 C 14.325 3.225,14.117 3.360,14.081 3.360 C 13.955 3.360,13.890 3.257,13.722 2.793 C 13.543 2.298,13.475 2.200,13.311 2.200 C 13.189 2.200,13.139 2.242,12.761 2.670 C 12.347 3.137,12.331 3.134,11.966 2.525 C 11.656 2.006,11.579 1.942,11.370 2.027 M11.764 3.851 C 12.154 4.111,12.114 4.680,11.691 4.884 C 11.301 5.073,10.920 4.798,10.920 4.327 C 10.920 3.889,11.408 3.613,11.764 3.851 M10.681 5.266 C 11.408 6.068,11.455 6.069,12.248 5.288 L 12.797 4.749 13.043 4.797 C 13.661 4.919,14.643 5.345,15.262 5.760 C 16.141 6.349,16.943 7.188,17.440 8.039 L 17.597 8.309 17.238 9.153 C 17.041 9.617,16.880 10.043,16.880 10.100 C 16.880 10.235,16.970 10.444,17.064 10.526 C 17.106 10.562,17.439 10.730,17.805 10.899 L 18.470 11.206 18.494 11.413 C 18.526 11.675,18.526 12.272,18.495 12.389 C 18.473 12.471,18.445 12.478,18.086 12.489 L 17.700 12.500 17.673 12.928 C 17.651 13.283,17.629 13.389,17.542 13.548 C 17.346 13.909,16.932 14.067,16.507 13.944 C 16.148 13.840,16.091 13.767,15.958 13.245 C 15.769 12.508,15.550 12.124,15.123 11.780 C 15.014 11.692,14.923 11.607,14.922 11.591 C 14.921 11.575,15.023 11.486,15.150 11.393 C 15.696 10.992,16.098 10.476,16.247 9.987 C 16.404 9.468,16.300 8.842,15.969 8.322 C 15.703 7.903,15.189 7.484,14.700 7.285 C 14.121 7.051,14.386 7.065,10.165 7.042 L 6.270 7.020 6.705 6.600 C 7.582 5.753,8.574 5.175,9.700 4.856 C 10.206 4.713,10.162 4.694,10.681 5.266 M5.018 9.284 C 5.283 9.517,5.304 9.888,5.065 10.148 C 4.957 10.266,4.901 10.294,4.734 10.310 C 4.369 10.345,4.120 10.115,4.120 9.743 C 4.120 9.383,4.337 9.160,4.689 9.160 C 4.843 9.160,4.903 9.183,5.018 9.284 M18.508 9.238 C 18.626 9.292,18.699 9.361,18.758 9.475 C 18.861 9.679,18.862 9.840,18.759 10.041 C 18.563 10.426,18.115 10.463,17.825 10.118 C 17.648 9.908,17.691 9.507,17.912 9.308 C 18.078 9.157,18.278 9.134,18.508 9.238 M6.760 11.621 L 6.760 13.961 5.750 13.951 L 4.740 13.940 4.653 13.522 C 4.505 12.807,4.445 11.936,4.505 11.376 L 4.531 11.140 5.135 10.862 C 5.866 10.526,5.907 10.501,5.987 10.345 C 6.085 10.158,6.064 9.968,5.909 9.609 L 5.766 9.280 6.263 9.280 L 6.760 9.280 6.760 11.621 M12.562 9.381 C 12.924 9.508,13.120 9.741,13.120 10.042 C 13.120 10.269,13.023 10.415,12.783 10.548 L 12.580 10.660 11.250 10.672 L 9.920 10.684 9.920 10.002 L 9.920 9.320 11.155 9.320 C 12.158 9.320,12.422 9.331,12.562 9.381 M12.230 12.816 C 12.621 13.033,12.751 13.289,12.939 14.205 C 13.173 15.346,13.263 15.580,13.607 15.943 C 13.937 16.293,13.862 16.280,15.596 16.280 C 16.434 16.280,17.120 16.290,17.120 16.303 C 17.120 16.332,16.805 16.735,16.632 16.926 L 16.500 17.072 15.920 16.938 C 15.192 16.770,15.047 16.765,14.880 16.906 C 14.718 17.043,14.708 17.072,14.540 17.887 C 14.463 18.262,14.391 18.583,14.380 18.600 C 14.369 18.617,14.203 18.694,14.010 18.771 C 12.733 19.281,11.369 19.393,10.046 19.096 C 9.574 18.990,8.980 18.793,8.696 18.648 L 8.540 18.568 8.404 17.894 C 8.251 17.136,8.212 17.019,8.071 16.888 C 7.910 16.740,7.753 16.742,7.080 16.896 L 6.460 17.039 6.349 16.909 C 6.163 16.693,5.880 16.328,5.880 16.303 C 5.880 16.290,7.185 16.280,8.780 16.280 L 11.680 16.280 11.680 15.160 L 11.680 14.040 10.800 14.040 L 9.920 14.040 9.920 13.358 L 9.920 12.675 10.970 12.688 L 12.020 12.700 12.230 12.816 M7.543 17.619 C 7.870 17.832,7.887 18.351,7.577 18.595 C 7.339 18.782,6.997 18.735,6.810 18.490 C 6.667 18.303,6.654 17.949,6.783 17.773 C 6.962 17.529,7.301 17.460,7.543 17.619 M15.958 17.619 C 16.337 17.815,16.334 18.467,15.953 18.664 C 15.589 18.852,15.176 18.616,15.133 18.195 C 15.088 17.748,15.565 17.416,15.958 17.619 " fill="#EA580C" stroke="none" fill-rule="evenodd"></path></svg>