<svg width="24" height="24" viewBox="0 0 24 24" fill="none" xmlns="http://www.w3.org/2000/svg"><path d="M6.935 6.648 C 6.372 7.509,6.126 8.539,6.237 9.572 C 6.408 11.159,7.280 12.259,8.893 12.923 C 9.427 13.143,9.772 13.235,11.576 13.639 C 13.326 14.031,13.779 14.153,14.411 14.403 C 15.250 14.736,15.840 15.114,16.309 15.618 C 16.878 16.231,17.171 16.954,17.232 17.900 L 17.260 18.340 17.451 18.052 C 17.719 17.651,17.948 17.144,18.068 16.688 C 18.193 16.210,18.239 15.293,18.161 14.807 C 17.901 13.184,16.835 12.041,14.987 11.404 C 14.733 11.317,13.845 11.090,13.013 10.900 C 11.083 10.460,10.840 10.398,10.260 10.198 C 8.848 9.712,7.917 8.977,7.463 7.994 C 7.294 7.627,7.206 7.292,7.146 6.788 L 7.100 6.395 6.935 6.648 " fill="#EF4444" stroke="none" fill-rule="evenodd"></path></svg>