<svg width="24" height="24" viewBox="0 0 24 24" fill="none" xmlns="http://www.w3.org/2000/svg"><path d="M9.880 4.044 C 8.818 4.164,7.752 4.527,6.380 5.235 C 5.227 5.830,4.403 6.405,3.625 7.159 C 2.738 8.019,2.206 8.841,1.995 9.679 C 1.788 10.501,2.079 11.308,2.899 12.189 C 3.292 12.611,3.726 12.974,4.781 13.761 C 5.249 14.110,5.643 14.412,5.655 14.432 C 5.667 14.451,5.520 14.554,5.328 14.660 C 4.196 15.289,3.225 16.079,2.890 16.645 C 2.509 17.287,2.437 18.008,2.697 18.582 C 2.929 19.095,3.173 19.220,3.940 19.220 C 4.407 19.220,4.494 19.208,4.790 19.107 C 5.783 18.766,6.584 17.866,6.860 16.780 C 7.010 16.189,6.997 15.343,6.828 14.841 L 6.737 14.570 7.249 14.259 C 7.531 14.088,7.769 13.955,7.778 13.965 C 7.787 13.974,7.761 14.101,7.720 14.248 C 7.416 15.345,7.591 16.648,8.115 17.199 C 8.362 17.459,8.723 17.466,9.000 17.215 C 9.168 17.064,9.454 16.536,9.682 15.960 C 9.755 15.773,9.826 15.607,9.838 15.592 C 9.850 15.576,9.854 15.761,9.847 16.003 C 9.829 16.666,9.964 17.029,10.257 17.103 C 10.434 17.147,10.572 17.082,10.805 16.844 C 10.993 16.651,11.101 16.472,11.472 15.733 C 11.902 14.879,12.372 13.826,12.642 13.110 C 12.714 12.918,12.786 12.760,12.800 12.760 C 12.814 12.760,12.847 12.873,12.873 13.012 C 12.934 13.343,13.053 13.700,13.241 14.118 L 13.395 14.457 13.209 14.719 C 13.106 14.862,12.817 15.241,12.565 15.560 C 12.314 15.879,12.072 16.219,12.029 16.316 C 11.957 16.479,11.956 16.502,12.013 16.622 C 12.126 16.860,12.569 16.903,13.086 16.725 C 14.149 16.359,14.612 15.669,14.419 14.740 C 14.383 14.564,14.328 14.361,14.298 14.288 C 14.245 14.161,14.249 14.147,14.413 13.888 C 14.665 13.491,14.785 13.279,15.103 12.665 L 15.391 12.110 15.457 12.405 C 15.541 12.780,15.661 13.147,15.801 13.456 L 15.912 13.699 15.633 13.993 C 15.274 14.371,15.029 14.753,14.902 15.132 C 14.692 15.755,14.834 16.162,15.259 16.159 C 15.464 16.157,15.919 15.978,16.211 15.784 C 16.493 15.597,16.803 15.262,16.922 15.016 C 17.043 14.765,17.070 14.341,16.984 14.014 C 16.949 13.879,16.920 13.751,16.920 13.729 C 16.920 13.667,17.196 13.571,17.585 13.497 C 18.263 13.369,19.166 13.480,19.722 13.761 C 20.424 14.116,20.815 14.849,20.619 15.445 C 20.563 15.615,20.490 15.716,20.270 15.928 C 20.006 16.183,19.962 16.280,20.112 16.280 C 20.229 16.279,20.577 16.055,20.736 15.879 C 20.995 15.593,21.060 15.401,21.057 14.940 C 21.055 14.622,21.036 14.492,20.963 14.306 C 20.693 13.617,20.095 13.102,19.299 12.873 C 19.028 12.795,18.893 12.782,18.400 12.785 C 17.757 12.790,17.392 12.862,16.931 13.078 L 16.682 13.195 16.521 12.852 C 16.299 12.378,16.268 12.244,16.264 11.740 C 16.261 11.371,16.278 11.241,16.370 10.932 C 16.431 10.730,16.480 10.546,16.480 10.524 C 16.480 10.501,16.422 10.452,16.352 10.416 C 16.251 10.364,16.152 10.354,15.882 10.370 C 15.694 10.381,15.490 10.414,15.429 10.442 C 15.315 10.495,15.299 10.535,15.101 11.251 C 15.040 11.471,14.398 12.792,14.106 13.296 C 13.982 13.512,13.966 13.526,13.927 13.452 C 13.630 12.898,13.585 12.187,13.801 11.487 C 13.844 11.347,13.880 11.198,13.880 11.157 C 13.880 10.983,13.448 10.908,13.001 11.004 C 12.765 11.054,12.712 11.119,12.640 11.440 C 12.528 11.938,10.854 15.880,10.754 15.880 C 10.692 15.880,10.719 15.399,10.802 14.986 C 10.873 14.640,11.159 13.449,11.225 13.230 C 11.238 13.185,11.201 13.115,11.126 13.040 C 11.033 12.946,10.971 12.920,10.845 12.920 C 10.757 12.920,10.674 12.938,10.660 12.960 C 10.600 13.058,10.581 12.977,10.593 12.673 C 10.610 12.262,10.551 12.045,10.374 11.874 C 10.244 11.749,10.218 11.740,9.968 11.742 C 9.755 11.743,9.655 11.767,9.480 11.857 C 9.103 12.051,8.675 12.416,8.419 12.763 C 8.305 12.917,8.136 13.032,7.337 13.495 L 6.391 14.045 6.085 13.750 C 5.917 13.588,5.462 13.191,5.074 12.868 C 4.051 12.018,3.685 11.595,3.471 11.017 C 3.357 10.709,3.350 10.097,3.456 9.740 C 3.756 8.732,4.688 7.750,6.274 6.771 C 8.015 5.698,9.580 5.195,11.000 5.252 C 12.006 5.293,12.637 5.584,12.873 6.117 C 12.966 6.326,12.960 6.955,12.864 7.240 C 12.553 8.155,11.710 9.079,10.680 9.634 C 9.945 10.030,9.092 10.273,8.320 10.307 C 7.542 10.341,7.081 10.198,6.647 9.790 C 6.455 9.610,6.427 9.596,6.372 9.651 C 6.241 9.782,6.499 10.243,6.857 10.516 C 7.330 10.877,7.763 11.000,8.562 11.000 C 9.451 11.000,10.414 10.787,11.256 10.405 C 12.195 9.979,13.095 9.086,13.582 8.100 C 14.064 7.122,14.124 6.199,13.754 5.440 C 13.256 4.419,11.659 3.844,9.880 4.044 M10.054 12.780 C 10.047 13.083,9.849 13.758,9.458 14.813 C 8.948 16.189,8.749 16.430,8.595 15.861 C 8.528 15.617,8.575 14.681,8.670 14.340 C 8.946 13.352,9.558 12.494,9.960 12.531 C 10.055 12.540,10.060 12.551,10.054 12.780 M16.237 14.420 C 16.242 14.843,16.048 15.205,15.712 15.398 C 15.595 15.464,15.484 15.519,15.465 15.520 C 15.400 15.520,15.481 15.192,15.620 14.892 C 15.695 14.729,15.851 14.477,15.966 14.332 C 16.201 14.038,16.232 14.048,16.237 14.420 M6.202 15.230 C 6.313 16.010,6.081 16.760,5.531 17.397 C 5.164 17.822,4.458 18.170,4.099 18.102 C 3.670 18.022,3.607 17.476,3.948 16.795 C 4.190 16.312,4.754 15.782,5.698 15.152 C 5.919 15.004,6.112 14.883,6.126 14.882 C 6.140 14.881,6.174 15.037,6.202 15.230 M13.543 15.474 C 13.386 15.784,12.829 16.282,12.739 16.192 C 12.725 16.179,12.855 15.999,13.028 15.794 C 13.200 15.588,13.404 15.332,13.481 15.225 L 13.620 15.030 13.632 15.152 C 13.640 15.224,13.603 15.355,13.543 15.474 " fill="#F472B6" stroke="none" fill-rule="evenodd"></path></svg>