<svg width="24" height="24" viewBox="0 0 24 24" fill="none" xmlns="http://www.w3.org/2000/svg"><path d="M11.340 3.024 C 10.026 3.160,9.091 3.415,8.060 3.918 C 5.287 5.272,3.420 7.913,3.059 10.992 C 2.620 14.745,4.632 18.403,8.060 20.083 C 8.984 20.536,9.950 20.819,10.992 20.941 C 14.207 21.317,17.451 19.867,19.338 17.210 L 19.488 17.000 14.171 17.000 C 8.197 17.000,8.619 17.022,8.299 16.701 C 7.820 16.222,7.949 15.410,8.550 15.114 L 8.740 15.020 14.619 15.000 L 20.497 14.980 20.609 14.620 C 20.732 14.222,20.863 13.635,20.914 13.250 L 20.947 13.000 15.901 13.000 C 10.229 13.000,10.619 13.021,10.299 12.701 C 9.908 12.310,9.908 11.690,10.299 11.299 C 10.619 10.979,10.229 11.000,15.901 11.000 L 20.947 11.000 20.914 10.750 C 20.863 10.365,20.732 9.778,20.609 9.380 L 20.497 9.020 16.619 9.000 L 12.740 8.980 12.550 8.886 C 11.949 8.590,11.820 7.778,12.299 7.299 C 12.611 6.986,12.435 7.000,16.171 7.000 L 19.488 7.000 19.338 6.790 C 18.474 5.574,17.310 4.591,15.940 3.920 C 15.078 3.497,14.268 3.244,13.320 3.101 C 12.911 3.039,11.662 2.991,11.340 3.024 " fill="#2563EB" stroke="none" fill-rule="evenodd"></path></svg>