<svg width="24" height="24" viewBox="0 0 24 24" fill="none" xmlns="http://www.w3.org/2000/svg"><path d="M16.440 8.008 C 14.740 8.688,9.875 9.508,6.610 9.665 C 6.296 9.680,6.040 9.705,6.040 9.720 C 6.040 9.771,6.573 9.992,7.040 10.134 C 7.663 10.323,7.986 10.408,8.811 10.599 L 9.514 10.761 10.047 10.700 C 12.984 10.361,15.544 9.790,16.792 9.194 C 17.244 8.979,17.404 8.771,17.341 8.485 C 17.308 8.332,17.088 8.081,16.895 7.974 L 16.740 7.888 16.440 8.008 M16.600 13.597 C 16.297 13.774,14.747 14.190,13.391 14.459 C 11.365 14.860,8.370 15.239,6.670 15.307 C 6.324 15.321,6.040 15.344,6.040 15.359 C 6.040 15.503,7.506 15.958,9.140 16.322 C 9.602 16.425,9.671 16.421,11.400 16.175 C 14.184 15.780,16.733 15.073,17.220 14.561 C 17.451 14.318,17.341 13.927,16.972 13.683 C 16.780 13.556,16.702 13.538,16.600 13.597 " fill="#7F1D1D" stroke="none" fill-rule="evenodd"></path></svg>