<svg width="24" height="24" viewBox="0 0 24 24" fill="none" xmlns="http://www.w3.org/2000/svg"><path d="M3.280 6.480 L 3.280 8.001 6.208 7.990 L 9.136 7.980 9.628 6.540 C 9.899 5.748,10.130 5.069,10.143 5.030 C 10.164 4.964,9.983 4.960,6.723 4.960 L 3.280 4.960 3.280 6.480 M12.981 6.430 C 12.720 7.239,12.499 7.923,12.489 7.950 C 12.475 7.990,13.369 8.000,16.876 8.000 L 21.280 8.000 21.280 6.480 L 21.280 4.960 17.367 4.960 L 13.455 4.960 12.981 6.430 M3.280 11.840 L 3.280 13.360 5.311 13.360 L 7.341 13.360 7.776 11.910 C 8.015 11.113,8.220 10.428,8.230 10.390 C 8.248 10.324,8.112 10.320,5.765 10.320 L 3.280 10.320 3.280 11.840 M11.344 10.770 C 11.268 11.018,11.068 11.670,10.902 12.220 C 10.735 12.770,10.588 13.252,10.576 13.290 C 10.556 13.356,10.828 13.360,15.917 13.360 L 21.280 13.360 21.280 11.840 L 21.280 10.320 16.381 10.320 L 11.483 10.320 11.344 10.770 M3.280 17.580 L 3.280 19.120 4.357 19.120 C 5.349 19.120,5.436 19.114,5.455 19.050 C 5.466 19.012,5.665 18.338,5.897 17.554 C 6.130 16.770,6.320 16.109,6.320 16.084 C 6.320 16.053,5.886 16.040,4.800 16.040 L 3.280 16.040 3.280 17.580 M9.159 17.524 C 8.893 18.340,8.665 19.033,8.653 19.064 C 8.635 19.112,9.530 19.120,14.956 19.120 L 21.280 19.120 21.280 17.580 L 21.280 16.040 15.462 16.040 L 9.644 16.040 9.159 17.524 " fill="#F87171" stroke="none" fill-rule="evenodd"></path></svg>