<svg width="24" height="24" viewBox="0 0 24 24" fill="none" xmlns="http://www.w3.org/2000/svg"><path d="M7.433 5.452 L 6.017 7.904 6.148 8.122 C 6.221 8.242,6.851 9.334,7.550 10.549 C 8.248 11.763,8.829 12.757,8.840 12.758 C 8.851 12.758,9.487 11.670,10.254 10.340 L 11.649 7.921 14.504 7.910 L 17.360 7.900 15.997 5.540 C 15.248 4.242,14.609 3.139,14.577 3.090 L 14.518 3.000 11.684 3.000 L 8.849 3.000 7.433 5.452 M14.467 11.327 C 14.435 11.378,13.828 12.428,13.118 13.660 C 12.409 14.892,11.799 15.941,11.764 15.991 L 11.699 16.082 8.866 16.081 C 7.206 16.080,6.039 16.094,6.046 16.115 C 6.054 16.135,6.690 17.242,7.460 18.576 L 8.860 21.001 11.697 20.990 L 14.534 20.980 15.944 18.540 L 17.353 16.100 17.280 15.980 C 17.240 15.914,16.610 14.825,15.880 13.560 C 15.150 12.295,14.547 11.254,14.540 11.247 C 14.532 11.239,14.500 11.275,14.467 11.327 " fill="#A855F7" stroke="none" fill-rule="evenodd"></path></svg>