<svg width="24" height="24" viewBox="0 0 24 24" fill="none" xmlns="http://www.w3.org/2000/svg"><path d="M14.503 3.042 C 13.006 3.277,11.742 4.299,11.094 5.798 C 10.727 6.646,10.580 7.475,10.611 8.520 C 10.642 9.573,10.721 9.921,11.331 11.680 C 11.884 13.278,12.071 13.995,12.163 14.876 C 12.245 15.656,12.117 16.413,11.795 17.051 C 11.381 17.871,10.580 18.707,9.860 19.070 C 9.417 19.294,8.826 19.382,8.548 19.266 C 7.711 18.916,7.933 17.022,8.998 15.429 C 9.332 14.929,9.805 14.444,10.196 14.200 C 10.836 13.801,10.841 13.796,10.763 13.608 C 10.714 13.490,10.704 13.486,10.367 13.458 C 9.939 13.422,9.286 13.457,8.856 13.539 C 7.398 13.817,6.225 14.766,5.484 16.265 C 5.047 17.150,4.907 17.950,5.065 18.652 C 5.324 19.805,6.243 20.573,7.760 20.905 C 8.029 20.964,8.259 20.979,8.860 20.977 C 9.523 20.975,9.684 20.961,10.120 20.869 C 12.086 20.452,13.835 19.304,14.981 17.679 C 16.029 16.192,16.225 14.545,15.638 12.167 C 15.403 11.213,15.039 10.154,14.485 8.809 C 13.959 7.532,13.838 7.185,13.743 6.683 C 13.590 5.877,13.737 5.221,14.182 4.726 C 14.844 3.990,15.911 4.246,16.084 5.181 C 16.166 5.624,15.978 6.220,15.602 6.711 C 15.513 6.827,15.440 6.935,15.441 6.951 C 15.443 7.020,15.768 7.203,15.927 7.224 C 16.157 7.254,16.629 7.151,16.951 7.001 C 17.277 6.848,17.729 6.403,17.912 6.053 C 18.316 5.282,18.280 4.468,17.818 3.928 C 17.573 3.642,16.702 3.249,15.980 3.100 C 15.596 3.020,14.831 2.990,14.503 3.042 " fill="#14B8A6" stroke="none" fill-rule="evenodd"></path></svg>