<svg width="24" height="24" viewBox="0 0 24 24" fill="none" xmlns="http://www.w3.org/2000/svg"><path d="M4.372 4.225 C 3.650 4.900,3.060 5.467,3.060 5.485 C 3.060 5.504,3.444 5.854,3.914 6.263 L 4.768 7.008 4.669 7.114 C 4.615 7.172,4.317 7.498,4.007 7.838 L 3.444 8.455 3.615 8.698 C 3.710 8.831,5.665 11.631,7.960 14.920 C 10.255 18.209,12.139 20.907,12.146 20.917 C 12.154 20.926,12.171 20.923,12.183 20.910 C 12.196 20.897,12.170 20.755,12.126 20.593 C 11.369 17.851,10.853 15.965,10.340 14.060 C 9.784 11.995,8.828 8.509,8.778 8.366 C 8.764 8.326,8.705 8.343,8.540 8.436 C 8.283 8.582,8.227 8.587,8.120 8.480 C 8.043 8.403,8.040 8.346,8.039 7.070 L 8.038 5.740 7.647 4.380 L 7.257 3.020 6.471 3.009 L 5.684 2.998 4.372 4.225 M17.467 3.030 C 17.458 3.046,17.277 3.667,17.065 4.409 L 16.680 5.759 16.680 7.079 C 16.680 8.343,16.677 8.403,16.601 8.479 C 16.511 8.569,16.431 8.552,16.130 8.376 C 16.037 8.321,15.960 8.284,15.960 8.293 C 15.960 8.301,15.770 8.991,15.538 9.824 C 15.306 10.658,14.801 12.510,14.416 13.940 C 14.030 15.370,13.445 17.518,13.115 18.714 C 12.785 19.909,12.521 20.917,12.528 20.953 C 12.535 20.990,14.396 18.361,16.799 14.919 C 19.141 11.565,21.115 8.738,21.187 8.637 L 21.317 8.455 20.733 7.817 C 20.412 7.467,20.115 7.141,20.072 7.094 L 19.994 7.008 20.858 6.257 C 21.333 5.843,21.717 5.492,21.711 5.477 C 21.705 5.461,21.109 4.898,20.386 4.224 L 19.073 3.000 18.279 3.000 C 17.842 3.000,17.477 3.014,17.467 3.030 M8.410 3.646 C 8.371 3.685,8.360 4.175,8.360 5.827 C 8.360 7.938,8.361 7.958,8.443 8.001 C 8.514 8.040,8.689 7.951,9.753 7.335 L 10.980 6.624 10.980 5.817 L 10.980 5.011 9.792 4.322 C 9.139 3.943,8.572 3.625,8.532 3.615 C 8.492 3.604,8.438 3.618,8.410 3.646 M14.980 4.304 L 13.780 5.004 13.780 5.820 L 13.780 6.636 14.992 7.340 C 15.848 7.838,16.226 8.037,16.280 8.020 C 16.327 8.005,16.366 7.945,16.380 7.868 C 16.393 7.797,16.398 6.826,16.392 5.709 C 16.379 3.590,16.380 3.598,16.220 3.602 C 16.198 3.603,15.640 3.919,14.980 4.304 M11.178 5.132 C 11.167 5.160,11.163 5.479,11.169 5.842 L 11.180 6.500 12.360 6.500 L 13.540 6.500 13.551 5.790 L 13.562 5.080 12.380 5.080 C 11.452 5.080,11.193 5.091,11.178 5.132 M12.107 7.978 C 11.915 8.047,11.804 8.145,11.734 8.309 C 11.556 8.731,11.867 9.202,12.323 9.199 C 12.643 9.198,12.920 8.905,12.920 8.569 C 12.920 8.137,12.506 7.836,12.107 7.978 M12.058 11.854 C 11.653 12.038,11.559 12.569,11.875 12.885 C 12.049 13.058,12.253 13.113,12.478 13.045 C 12.990 12.892,13.080 12.239,12.635 11.909 C 12.500 11.810,12.216 11.782,12.058 11.854 M12.058 15.736 C 11.649 15.914,11.557 16.458,11.883 16.768 C 12.153 17.024,12.516 17.012,12.756 16.739 C 12.902 16.573,12.937 16.456,12.910 16.222 C 12.886 16.004,12.784 15.863,12.577 15.761 C 12.390 15.668,12.232 15.661,12.058 15.736 " fill="#A855F7" stroke="none" fill-rule="evenodd"></path></svg>