<svg width="24" height="24" viewBox="0 0 24 24" fill="none" xmlns="http://www.w3.org/2000/svg"><path d="M13.280 2.041 C 12.665 2.096,12.015 2.283,11.440 2.571 C 10.843 2.870,6.115 5.998,5.635 6.411 C 4.881 7.060,4.281 8.029,4.018 9.020 C 3.875 9.559,3.837 9.869,3.837 10.494 C 3.837 11.392,3.999 12.115,4.379 12.909 L 4.595 13.358 4.387 13.572 C 4.131 13.833,3.962 14.169,3.806 14.724 C 3.642 15.311,3.589 15.694,3.590 16.300 C 3.594 18.463,4.809 20.419,6.758 21.399 C 7.187 21.615,7.804 21.820,8.280 21.904 C 8.821 22.000,9.700 21.992,10.214 21.886 C 10.431 21.841,10.615 21.798,10.622 21.791 C 10.630 21.783,10.564 21.510,10.476 21.184 C 10.388 20.858,10.323 20.584,10.332 20.575 C 10.340 20.566,10.416 20.809,10.499 21.115 C 10.582 21.421,10.663 21.693,10.680 21.720 C 10.727 21.796,11.097 21.672,11.613 21.406 C 12.191 21.109,16.956 17.943,17.377 17.576 C 18.165 16.891,18.731 15.947,19.021 14.835 C 19.114 14.481,19.133 14.314,19.149 13.700 C 19.178 12.646,19.040 11.965,18.621 11.091 L 18.405 10.642 18.617 10.421 C 18.877 10.151,19.038 9.830,19.194 9.276 C 19.357 8.694,19.410 8.310,19.409 7.700 C 19.408 5.541,18.190 3.580,16.242 2.601 C 15.352 2.154,14.286 1.952,13.280 2.041 M14.800 4.139 C 15.456 4.352,15.910 4.634,16.384 5.126 C 17.046 5.810,17.385 6.589,17.428 7.520 C 17.452 8.019,17.408 8.396,17.280 8.811 L 17.198 9.075 16.869 8.839 C 16.306 8.434,15.767 8.161,15.030 7.907 C 14.973 7.887,14.960 7.833,14.959 7.611 C 14.957 6.988,14.502 6.521,13.895 6.520 C 13.760 6.520,13.589 6.546,13.515 6.578 C 13.441 6.611,12.291 7.362,10.960 8.248 C 8.743 9.725,8.530 9.876,8.422 10.053 C 8.285 10.278,8.242 10.622,8.318 10.891 C 8.385 11.130,8.606 11.417,8.820 11.542 C 9.039 11.670,9.429 11.716,9.657 11.641 C 9.738 11.614,10.290 11.271,10.883 10.879 C 12.034 10.117,12.349 9.959,12.920 9.857 C 14.050 9.654,15.211 10.019,16.043 10.840 C 16.777 11.565,17.143 12.357,17.188 13.320 C 17.236 14.344,16.946 15.173,16.294 15.877 C 16.054 16.137,15.731 16.365,13.501 17.852 C 12.115 18.777,10.836 19.602,10.660 19.686 C 10.134 19.937,9.911 19.980,9.180 19.977 C 8.593 19.974,8.512 19.964,8.200 19.862 C 7.560 19.652,7.134 19.393,6.667 18.931 C 5.988 18.257,5.615 17.425,5.572 16.480 C 5.548 15.981,5.592 15.604,5.720 15.189 L 5.802 14.925 6.131 15.161 C 6.694 15.566,7.233 15.839,7.970 16.093 C 8.027 16.113,8.040 16.167,8.041 16.389 C 8.042 16.700,8.119 16.905,8.324 17.139 C 8.619 17.475,9.165 17.583,9.551 17.382 C 9.655 17.328,10.802 16.576,12.100 15.712 C 14.741 13.953,14.664 14.017,14.709 13.525 C 14.737 13.214,14.672 12.984,14.486 12.738 C 14.231 12.401,13.724 12.233,13.340 12.360 C 13.259 12.387,12.731 12.715,12.166 13.090 C 11.602 13.465,11.029 13.823,10.893 13.885 C 10.503 14.064,10.095 14.162,9.640 14.186 C 7.967 14.278,6.447 13.176,5.935 11.500 C 5.834 11.172,5.825 11.083,5.824 10.500 C 5.822 9.679,5.923 9.289,6.302 8.641 C 6.634 8.075,6.779 7.962,9.488 6.156 C 10.867 5.236,12.118 4.422,12.268 4.347 C 12.831 4.065,13.149 4.000,13.880 4.016 C 14.382 4.027,14.505 4.044,14.800 4.139 " stroke="none" fill-rule="evenodd" fill="black"></path></svg>