<svg width="24" height="24" viewBox="0 0 24 24" fill="none" xmlns="http://www.w3.org/2000/svg"><path d="M13.280 2.042 C 12.569 2.108,11.784 2.344,11.206 2.666 C 11.060 2.748,9.779 3.588,8.360 4.533 C 5.917 6.161,5.759 6.274,5.379 6.656 C 4.359 7.683,3.843 8.947,3.835 10.436 C 3.831 11.385,4.005 12.168,4.399 12.967 L 4.590 13.354 4.450 13.487 C 3.860 14.046,3.491 15.473,3.602 16.760 C 3.718 18.105,4.251 19.269,5.203 20.258 C 6.169 21.260,7.357 21.832,8.740 21.958 C 9.388 22.017,10.485 21.909,10.622 21.773 C 10.654 21.741,10.680 21.733,10.680 21.756 C 10.680 21.810,11.161 21.640,11.592 21.434 C 12.085 21.199,17.110 17.837,17.473 17.499 C 18.119 16.899,18.617 16.119,18.899 15.266 C 19.088 14.696,19.160 14.212,19.160 13.520 C 19.160 12.575,18.978 11.782,18.581 10.994 L 18.407 10.649 18.549 10.514 C 19.138 9.956,19.504 8.551,19.398 7.253 C 19.288 5.908,18.754 4.736,17.797 3.742 C 16.839 2.748,15.665 2.180,14.286 2.041 C 13.834 1.996,13.782 1.996,13.280 2.042 M14.713 4.117 C 15.749 4.417,16.575 5.114,17.075 6.108 C 17.463 6.882,17.546 7.900,17.291 8.760 C 17.255 8.881,17.212 8.995,17.196 9.014 C 17.181 9.033,17.007 8.933,16.810 8.791 C 16.378 8.481,15.827 8.191,15.340 8.017 L 14.980 7.889 14.958 7.574 C 14.924 7.102,14.733 6.805,14.332 6.604 C 14.132 6.504,13.711 6.489,13.506 6.575 C 13.338 6.645,8.603 9.803,8.512 9.906 C 8.474 9.948,8.404 10.071,8.357 10.178 C 8.237 10.450,8.262 10.873,8.413 11.132 C 8.690 11.604,9.282 11.815,9.740 11.605 C 9.828 11.564,10.358 11.229,10.917 10.860 C 11.985 10.156,12.175 10.053,12.674 9.910 C 12.929 9.836,13.076 9.822,13.560 9.824 C 14.072 9.827,14.182 9.840,14.500 9.936 C 15.900 10.361,16.930 11.536,17.161 12.972 C 17.222 13.348,17.192 14.025,17.098 14.400 C 16.945 15.011,16.485 15.755,16.017 16.145 C 15.616 16.481,10.818 19.625,10.516 19.751 C 9.663 20.105,8.614 20.079,7.737 19.681 C 6.782 19.249,6.019 18.356,5.693 17.292 C 5.597 16.977,5.585 16.875,5.583 16.320 C 5.580 15.791,5.594 15.650,5.673 15.360 C 5.723 15.173,5.780 15.005,5.799 14.986 C 5.817 14.967,5.993 15.067,6.190 15.209 C 6.622 15.519,7.173 15.809,7.660 15.983 L 8.020 16.111 8.042 16.426 C 8.076 16.898,8.267 17.195,8.668 17.396 C 8.868 17.496,9.289 17.511,9.494 17.425 C 9.662 17.355,14.397 14.197,14.488 14.094 C 14.526 14.052,14.596 13.929,14.643 13.822 C 14.763 13.550,14.738 13.127,14.587 12.868 C 14.325 12.421,13.780 12.206,13.317 12.367 C 13.244 12.393,12.690 12.737,12.087 13.133 C 11.397 13.586,10.885 13.893,10.705 13.963 C 8.997 14.626,7.024 13.814,6.181 12.100 C 5.758 11.242,5.685 10.229,5.981 9.358 C 6.179 8.774,6.552 8.215,6.983 7.855 C 7.091 7.764,8.307 6.943,9.684 6.031 C 12.259 4.326,12.490 4.191,13.060 4.064 C 13.461 3.975,14.317 4.002,14.713 4.117 M10.507 21.207 C 10.495 21.239,10.485 21.230,10.483 21.183 C 10.481 21.141,10.491 21.118,10.504 21.131 C 10.517 21.144,10.519 21.179,10.507 21.207 M10.547 21.367 C 10.535 21.399,10.525 21.390,10.523 21.343 C 10.521 21.301,10.531 21.278,10.544 21.291 C 10.557 21.304,10.559 21.339,10.547 21.367 M10.634 21.640 C 10.634 21.678,10.622 21.670,10.600 21.620 C 10.581 21.576,10.566 21.513,10.566 21.480 C 10.566 21.442,10.578 21.450,10.600 21.500 C 10.619 21.544,10.634 21.607,10.634 21.640 " stroke="none" fill-rule="evenodd" fill="black"></path></svg>