<svg width="24" height="24" viewBox="0 0 24 24" fill="none" xmlns="http://www.w3.org/2000/svg"><path d="M7.000 5.000 L 7.000 5.760 12.000 5.760 L 17.000 5.760 17.000 5.000 L 17.000 4.240 12.000 4.240 L 7.000 4.240 7.000 5.000 M4.240 12.000 L 4.240 17.000 5.000 17.000 L 5.760 17.000 5.760 12.000 L 5.760 7.000 5.000 7.000 L 4.240 7.000 4.240 12.000 M18.240 12.000 L 18.240 17.000 19.000 17.000 L 19.760 17.000 19.760 12.000 L 19.760 7.000 19.000 7.000 L 18.240 7.000 18.240 12.000 M7.000 19.000 L 7.000 19.760 12.000 19.760 L 17.000 19.760 17.000 19.000 L 17.000 18.240 12.000 18.240 L 7.000 18.240 7.000 19.000 " stroke="none" fill="black" fill-rule="evenodd"></path></svg>