<svg width="24" height="24" viewBox="0 0 24 24" fill="none" xmlns="http://www.w3.org/2000/svg"><path d="M14.850 8.570 L 14.160 9.261 15.540 10.640 L 16.920 12.020 15.560 13.380 L 14.200 14.741 14.900 15.440 L 15.600 16.139 16.960 14.780 L 18.320 13.420 19.670 14.770 L 21.020 16.120 21.710 15.430 L 22.400 14.740 21.050 13.390 L 19.700 12.040 21.090 10.650 L 22.480 9.259 21.780 8.560 L 21.080 7.861 19.690 9.250 L 18.300 10.640 16.920 9.260 L 15.539 7.880 14.850 8.570 M3.000 11.840 L 3.000 15.680 4.160 15.680 L 5.319 15.680 5.330 13.484 L 5.340 11.288 6.480 12.683 C 7.107 13.450,7.630 14.078,7.642 14.079 C 7.654 14.079,8.163 13.470,8.773 12.724 C 9.383 11.978,9.909 11.346,9.941 11.319 C 9.993 11.276,10.000 11.541,10.000 13.475 L 10.000 15.680 11.140 15.680 L 12.280 15.680 12.280 11.840 L 12.280 8.000 11.130 8.001 L 9.980 8.002 8.821 9.421 C 8.183 10.202,7.652 10.839,7.641 10.839 C 7.629 10.838,7.099 10.199,6.462 9.419 L 5.303 8.000 4.152 8.000 L 3.000 8.000 3.000 11.840 " stroke="none" fill-rule="evenodd" fill="black"></path></svg>