<svg width="24" height="24" viewBox="0 0 24 24" fill="none" xmlns="http://www.w3.org/2000/svg"><path d="M3.438 8.675 C 3.076 8.791,2.810 8.959,2.552 9.235 C 1.965 9.863,1.835 10.761,2.222 11.524 C 2.291 11.660,2.593 12.002,3.142 12.568 C 3.916 13.365,3.960 13.418,3.960 13.563 C 3.960 13.666,3.929 13.751,3.866 13.825 C 3.774 13.932,3.754 13.936,3.236 13.963 C 2.941 13.979,2.696 13.993,2.690 13.996 C 2.621 14.026,2.340 14.323,2.291 14.417 C 2.187 14.618,2.203 14.949,2.327 15.160 C 2.542 15.527,2.818 15.623,3.559 15.589 C 4.268 15.556,4.635 15.401,5.063 14.954 C 5.550 14.445,5.743 13.750,5.577 13.106 C 5.454 12.629,5.313 12.434,4.475 11.578 C 4.044 11.137,3.678 10.736,3.662 10.687 C 3.622 10.561,3.755 10.309,3.884 10.264 C 3.942 10.245,4.040 10.241,4.103 10.257 C 4.181 10.277,5.000 11.065,6.718 12.775 C 9.122 15.167,9.231 15.269,9.505 15.393 C 10.301 15.752,11.144 15.606,11.770 14.999 L 12.040 14.737 12.210 14.911 C 12.647 15.359,13.157 15.578,13.760 15.578 C 14.353 15.578,14.825 15.385,15.218 14.980 C 15.685 14.500,15.902 13.736,15.744 13.125 C 15.618 12.634,15.479 12.440,14.630 11.575 C 13.859 10.789,13.840 10.765,13.840 10.603 C 13.840 10.479,13.865 10.411,13.938 10.338 C 14.032 10.244,14.059 10.240,14.538 10.240 L 15.040 10.240 15.040 10.596 C 15.040 11.011,15.132 11.357,15.323 11.660 C 15.393 11.770,16.208 12.618,17.135 13.544 C 18.721 15.129,18.838 15.237,19.120 15.374 C 19.708 15.660,20.289 15.661,20.884 15.375 C 21.571 15.046,22.052 14.251,21.988 13.549 C 21.947 13.098,21.631 12.802,21.188 12.801 C 20.825 12.800,20.554 12.972,20.422 13.289 C 20.388 13.371,20.360 13.484,20.360 13.541 C 20.360 13.672,20.262 13.863,20.178 13.895 C 20.143 13.909,20.059 13.920,19.993 13.920 C 19.890 13.920,19.744 13.795,18.986 13.055 C 18.499 12.580,17.780 11.861,17.390 11.457 C 16.596 10.637,16.568 10.586,16.797 10.357 C 16.908 10.245,16.930 10.240,17.267 10.240 C 17.711 10.239,17.885 10.191,18.080 10.015 C 18.473 9.660,18.436 9.046,18.003 8.740 L 17.833 8.620 15.847 8.609 C 13.961 8.598,13.849 8.602,13.599 8.678 C 12.587 8.985,11.965 10.062,12.221 11.062 C 12.345 11.543,12.446 11.685,13.306 12.576 C 14.059 13.357,14.120 13.431,14.120 13.564 C 14.120 13.650,14.086 13.752,14.037 13.815 C 13.969 13.901,13.921 13.920,13.773 13.920 L 13.592 13.920 10.987 11.336 C 9.523 9.884,8.316 8.719,8.232 8.676 C 7.912 8.513,7.489 8.610,7.247 8.904 C 6.978 9.230,7.008 9.655,7.324 9.993 C 7.420 10.096,8.224 10.910,9.109 11.801 C 10.628 13.329,10.720 13.430,10.720 13.565 C 10.720 13.773,10.572 13.920,10.365 13.920 C 10.207 13.920,10.171 13.886,7.693 11.430 C 5.872 9.625,5.124 8.910,4.977 8.831 C 4.541 8.598,3.886 8.532,3.438 8.675 " fill="url(#paint0_linear_26982_171)" stroke="none" fill-rule="evenodd"></path></svg>