<svg width="24" height="24" viewBox="0 0 24 24" fill="none" xmlns="http://www.w3.org/2000/svg"><path d="M13.434 3.323 C 12.348 3.482,11.607 4.477,11.761 5.568 C 11.814 5.941,11.956 6.236,12.335 6.760 C 12.503 6.991,12.729 7.360,12.839 7.580 C 13.036 7.977,13.297 8.690,13.272 8.765 C 13.250 8.830,11.828 7.664,10.900 6.821 C 10.658 6.601,10.115 6.086,9.694 5.675 C 9.038 5.036,8.885 4.907,8.634 4.784 C 7.847 4.398,6.967 4.531,6.362 5.126 C 6.168 5.317,6.160 5.320,5.911 5.320 C 4.821 5.320,3.959 6.204,3.960 7.319 C 3.961 8.043,4.219 8.465,6.062 10.764 C 6.573 11.401,7.374 12.322,7.918 12.899 C 8.126 13.120,8.378 13.388,8.478 13.495 L 8.660 13.689 8.500 13.662 C 7.858 13.551,6.734 13.037,5.890 12.468 C 5.142 11.963,4.779 11.856,4.172 11.958 C 3.781 12.024,3.460 12.186,3.153 12.474 C 2.504 13.081,2.338 14.007,2.737 14.795 C 3.024 15.361,3.817 16.372,4.549 17.103 C 5.624 18.179,6.762 18.961,8.263 19.655 C 9.571 20.260,10.546 20.516,11.853 20.598 C 13.454 20.699,15.189 20.352,16.572 19.654 C 16.858 19.509,17.187 19.401,17.340 19.401 C 17.396 19.401,17.462 19.474,17.559 19.643 C 17.974 20.364,18.787 20.783,19.567 20.679 C 20.058 20.614,20.390 20.453,20.750 20.107 C 21.050 19.819,21.277 19.401,21.387 18.931 C 21.504 18.431,21.486 17.409,21.349 16.758 C 21.181 15.963,20.895 15.202,20.527 14.572 C 20.368 14.299,20.364 14.285,20.401 14.076 C 20.470 13.679,20.493 12.642,20.444 12.140 C 20.151 9.157,18.381 6.219,15.667 4.212 C 14.622 3.438,14.090 3.227,13.434 3.323 M14.100 5.516 C 15.144 6.183,16.344 7.387,17.085 8.511 C 17.430 9.034,17.916 10.017,18.098 10.561 C 18.498 11.757,18.601 12.874,18.414 13.980 C 18.300 14.657,18.325 14.761,18.778 15.498 C 19.148 16.101,19.383 16.779,19.483 17.540 C 19.558 18.108,19.482 18.720,19.337 18.720 C 19.310 18.720,19.233 18.623,19.166 18.505 C 18.976 18.168,18.638 17.830,18.331 17.669 C 17.978 17.484,17.652 17.422,17.187 17.452 C 16.705 17.483,16.329 17.592,15.720 17.879 C 15.074 18.182,14.508 18.376,13.882 18.510 C 13.421 18.608,13.303 18.617,12.440 18.618 C 11.380 18.620,10.982 18.564,10.140 18.292 C 9.391 18.050,8.219 17.479,7.540 17.027 C 6.764 16.509,5.756 15.596,5.214 14.920 C 4.904 14.534,4.505 13.961,4.529 13.938 C 4.539 13.928,4.627 13.980,4.724 14.053 C 5.529 14.667,6.854 15.278,7.980 15.555 C 9.155 15.845,10.639 15.855,11.482 15.578 C 11.695 15.509,11.967 15.250,12.058 15.031 C 12.142 14.830,12.136 14.459,12.045 14.259 C 11.994 14.147,11.711 13.853,11.114 13.294 C 10.269 12.502,9.351 11.564,8.654 10.780 C 7.691 9.697,6.317 7.947,5.942 7.325 C 5.905 7.263,5.921 7.272,6.184 7.451 C 6.273 7.511,6.444 7.582,6.563 7.607 C 6.987 7.695,7.438 7.464,7.625 7.063 C 7.677 6.951,7.719 6.793,7.720 6.710 C 7.720 6.628,7.732 6.560,7.746 6.560 C 7.760 6.560,8.044 6.825,8.376 7.150 C 10.002 8.735,11.716 10.166,13.500 11.427 C 14.044 11.812,14.134 11.854,14.422 11.854 C 14.861 11.855,15.247 11.575,15.365 11.168 C 15.448 10.885,15.436 9.535,15.347 9.020 C 15.118 7.692,14.580 6.411,13.879 5.524 C 13.692 5.286,13.680 5.245,13.830 5.342 C 13.890 5.381,14.012 5.460,14.100 5.516 " stroke="none" fill-rule="evenodd" fill="black"></path></svg>