<svg width="24" height="24" viewBox="0 0 24 24" fill="none" xmlns="http://www.w3.org/2000/svg"><path d="M10.920 6.024 C 10.197 6.112,9.638 6.261,9.180 6.490 C 8.087 7.034,7.306 8.028,6.863 9.437 C 6.785 9.688,6.725 9.898,6.731 9.905 C 6.738 9.911,6.864 9.773,7.012 9.598 C 7.502 9.019,8.129 8.602,8.721 8.462 C 9.219 8.345,9.923 8.402,10.373 8.596 C 10.755 8.761,11.035 8.991,11.960 9.901 C 12.477 10.409,13.035 10.920,13.200 11.036 C 13.769 11.436,14.419 11.712,15.160 11.868 C 15.421 11.923,15.686 11.939,16.300 11.940 C 16.993 11.940,17.156 11.927,17.520 11.846 C 18.351 11.661,19.019 11.324,19.551 10.822 C 20.109 10.295,20.460 9.770,20.754 9.020 C 20.894 8.663,21.091 8.040,21.063 8.040 C 21.058 8.040,20.931 8.185,20.783 8.362 C 20.305 8.933,19.703 9.341,19.100 9.501 C 18.786 9.585,18.136 9.584,17.820 9.500 C 17.173 9.328,16.893 9.126,15.828 8.065 C 15.308 7.547,14.806 7.084,14.616 6.950 C 13.997 6.511,13.332 6.231,12.600 6.098 C 12.267 6.038,11.197 5.991,10.920 6.024 M6.060 12.000 C 4.899 12.125,4.072 12.492,3.357 13.200 C 2.761 13.791,2.414 14.380,2.101 15.330 C 2.001 15.633,1.920 15.890,1.920 15.902 C 1.920 15.914,2.029 15.792,2.161 15.632 C 2.623 15.074,3.238 14.630,3.789 14.456 C 4.069 14.368,4.697 14.339,5.025 14.400 C 5.718 14.527,5.999 14.718,7.120 15.822 C 7.615 16.310,8.173 16.821,8.359 16.959 C 9.237 17.605,10.269 17.920,11.505 17.920 C 13.532 17.919,14.936 17.091,15.781 15.400 C 15.927 15.109,16.299 14.046,16.267 14.014 C 16.258 14.005,16.200 14.066,16.137 14.149 C 15.655 14.791,14.966 15.288,14.317 15.464 C 13.982 15.555,13.386 15.555,13.040 15.465 C 12.400 15.297,12.083 15.074,11.160 14.141 C 9.974 12.942,9.411 12.537,8.520 12.239 C 7.884 12.026,6.795 11.921,6.060 12.000 " fill="#0EA5E9" stroke="none" fill-rule="evenodd"></path></svg>