<svg width="24" height="24" viewBox="0 0 24 24" fill="none" xmlns="http://www.w3.org/2000/svg"><path d="M11.360 3.041 C 10.212 3.118,9.021 3.447,7.963 3.979 C 5.333 5.300,3.523 7.830,3.099 10.780 C 3.007 11.426,3.007 12.574,3.099 13.220 C 3.675 17.232,6.768 20.325,10.780 20.901 C 11.097 20.946,11.512 20.970,12.000 20.970 C 12.488 20.970,12.903 20.946,13.220 20.901 C 17.232 20.325,20.325 17.232,20.901 13.220 C 20.993 12.574,20.993 11.426,20.901 10.780 C 20.225 6.071,16.095 2.722,11.360 3.041 M13.015 5.062 C 14.581 5.304,15.932 5.999,17.022 7.126 C 18.330 8.476,19.000 10.128,19.000 12.000 C 19.000 13.872,18.330 15.524,17.022 16.874 C 15.678 18.263,13.936 19.000,12.000 19.000 C 10.064 19.000,8.322 18.263,6.978 16.874 C 5.670 15.524,5.000 13.872,5.000 12.000 C 5.000 10.128,5.670 8.476,6.978 7.126 C 8.045 6.023,9.352 5.337,10.880 5.079 C 11.431 4.985,12.464 4.977,13.015 5.062 M11.611 8.042 C 10.709 8.131,9.886 8.515,9.226 9.155 C 7.626 10.708,7.626 13.292,9.226 14.845 C 10.780 16.353,13.220 16.353,14.774 14.845 C 16.371 13.294,16.371 10.706,14.774 9.155 C 14.143 8.544,13.301 8.135,12.514 8.061 C 12.000 8.012,11.934 8.011,11.611 8.042 M12.730 10.116 C 13.213 10.304,13.691 10.781,13.886 11.270 C 13.965 11.467,13.978 11.572,13.978 12.000 C 13.978 12.428,13.965 12.533,13.886 12.730 C 13.691 13.217,13.217 13.691,12.730 13.886 C 12.533 13.965,12.428 13.978,12.000 13.978 C 11.572 13.978,11.467 13.965,11.270 13.886 C 10.781 13.690,10.304 13.212,10.116 12.730 C 9.983 12.387,9.963 11.775,10.074 11.412 C 10.264 10.788,10.762 10.282,11.392 10.075 C 11.717 9.968,12.405 9.989,12.730 10.116 " stroke="none" fill="black" fill-rule="evenodd"></path></svg>