<svg width="24" height="24" viewBox="0 0 24 24" fill="none" xmlns="http://www.w3.org/2000/svg"><path d="M3.001 5.166 L 3.001 8.300 4.909 9.400 C 5.959 10.005,7.182 10.711,7.629 10.968 L 8.440 11.437 8.430 8.292 L 8.420 5.148 5.760 3.610 C 4.297 2.764,3.078 2.063,3.050 2.052 C 3.010 2.036,3.000 2.674,3.001 5.166 M17.850 7.115 L 15.120 8.692 15.120 11.848 L 15.120 15.003 15.290 14.904 C 15.383 14.850,16.602 14.147,17.999 13.342 C 19.395 12.537,20.552 11.864,20.569 11.847 C 20.586 11.830,20.596 10.403,20.590 8.677 L 20.580 5.538 17.850 7.115 M9.080 8.691 L 9.080 11.827 11.670 13.321 C 13.095 14.143,14.319 14.850,14.390 14.892 L 14.520 14.968 14.520 11.830 L 14.520 8.693 11.830 7.141 C 10.351 6.287,9.127 5.581,9.110 5.572 C 9.094 5.563,9.080 6.966,9.080 8.691 M9.090 15.701 L 9.100 18.844 11.560 20.265 C 12.913 21.047,14.133 21.750,14.270 21.827 L 14.520 21.967 14.520 18.832 L 14.520 15.696 11.893 14.178 C 10.449 13.343,9.225 12.637,9.173 12.609 L 9.080 12.557 9.090 15.701 " fill="#A855F7" stroke="none" fill-rule="evenodd"></path></svg>