<svg width="24" height="24" viewBox="0 0 24 24" fill="none" xmlns="http://www.w3.org/2000/svg"><path d="M6.000 7.100 L 6.000 9.200 6.297 9.200 L 6.594 9.200 6.621 8.970 C 6.779 7.608,7.368 6.628,8.320 6.142 C 8.798 5.898,9.396 5.759,10.231 5.697 L 10.602 5.669 10.590 11.485 C 10.576 17.858,10.591 17.476,10.343 17.898 C 10.147 18.232,9.803 18.382,9.071 18.452 L 8.600 18.497 8.600 18.749 L 8.600 19.000 12.280 19.000 L 15.960 19.000 15.960 18.746 L 15.960 18.492 15.570 18.464 C 14.597 18.396,14.231 18.190,14.029 17.600 L 13.940 17.340 13.929 11.505 L 13.918 5.670 14.289 5.697 C 15.567 5.791,16.239 6.036,16.820 6.619 C 17.188 6.989,17.417 7.363,17.620 7.931 C 17.723 8.221,17.920 9.041,17.920 9.184 C 17.920 9.195,18.050 9.198,18.210 9.192 L 18.500 9.180 18.512 7.620 C 18.519 6.762,18.513 5.821,18.498 5.530 L 18.472 5.000 12.236 5.000 L 6.000 5.000 6.000 7.100 " fill="#2563EB" stroke="none" fill-rule="evenodd"></path></svg>