<svg width="24" height="24" viewBox="0 0 24 24" fill="none" xmlns="http://www.w3.org/2000/svg"><path d="M4.789 6.043 C 4.564 6.097,4.430 6.177,4.272 6.352 C 3.918 6.744,3.946 7.353,4.335 7.712 C 4.430 7.798,4.577 7.894,4.663 7.925 C 4.897 8.007,19.103 8.007,19.337 7.925 C 19.423 7.894,19.570 7.798,19.665 7.712 C 20.173 7.243,20.034 6.398,19.400 6.104 L 19.220 6.020 12.080 6.014 C 7.978 6.010,4.876 6.023,4.789 6.043 M4.789 11.043 C 4.564 11.097,4.430 11.177,4.272 11.352 C 3.918 11.744,3.946 12.353,4.335 12.712 C 4.640 12.992,4.473 12.980,8.000 12.980 C 11.596 12.980,11.406 12.996,11.712 12.665 C 11.962 12.392,12.041 12.020,11.922 11.665 C 11.852 11.456,11.620 11.206,11.400 11.104 C 11.223 11.021,11.174 11.020,8.080 11.013 C 6.318 11.010,4.874 11.023,4.789 11.043 M4.789 16.043 C 4.564 16.097,4.430 16.177,4.272 16.352 C 3.918 16.744,3.946 17.353,4.335 17.712 C 4.646 17.998,4.266 17.980,10.000 17.980 C 15.734 17.980,15.354 17.998,15.665 17.712 C 16.173 17.243,16.034 16.398,15.400 16.104 C 15.221 16.020,15.203 16.020,10.080 16.014 C 7.148 16.010,4.875 16.023,4.789 16.043 " stroke="none" fill="black" fill-rule="evenodd"></path></svg>