<svg width="24" height="24" viewBox="0 0 24 24" fill="none" xmlns="http://www.w3.org/2000/svg"><path d="M15.837 7.259 C 15.410 7.331,15.110 7.423,14.735 7.598 C 14.283 7.810,13.986 8.021,13.660 8.365 C 13.161 8.891,12.920 9.502,12.920 10.240 C 12.920 11.330,13.399 12.055,14.479 12.600 C 14.901 12.812,15.168 12.899,16.309 13.194 C 17.553 13.516,17.917 13.653,18.197 13.905 C 18.449 14.131,18.539 14.353,18.510 14.673 C 18.459 15.236,18.033 15.624,17.293 15.781 C 16.764 15.893,16.061 15.827,15.618 15.624 C 15.180 15.424,14.830 14.975,14.767 14.534 L 14.739 14.340 13.685 14.329 L 12.632 14.319 12.661 14.609 C 12.735 15.364,12.995 15.975,13.450 16.463 C 14.193 17.260,15.267 17.640,16.774 17.640 C 18.715 17.640,20.102 16.875,20.539 15.564 C 20.799 14.782,20.721 13.871,20.338 13.211 C 20.174 12.930,19.662 12.438,19.325 12.239 C 18.843 11.955,18.330 11.774,17.231 11.502 C 16.028 11.204,15.660 11.056,15.382 10.758 C 15.182 10.544,15.102 10.317,15.129 10.036 C 15.169 9.620,15.439 9.302,15.914 9.112 C 16.115 9.032,16.209 9.022,16.760 9.022 C 17.314 9.022,17.405 9.032,17.610 9.114 C 18.068 9.297,18.399 9.668,18.463 10.072 L 18.490 10.240 19.531 10.240 L 20.571 10.240 20.545 9.987 C 20.399 8.564,19.333 7.541,17.705 7.261 C 17.274 7.187,16.271 7.186,15.837 7.259 M3.240 8.200 L 3.240 9.080 4.800 9.080 L 6.360 9.080 6.360 13.300 L 6.360 17.520 7.420 17.520 L 8.480 17.520 8.480 13.300 L 8.480 9.080 10.040 9.080 L 11.600 9.080 11.600 8.200 L 11.600 7.320 7.420 7.320 L 3.240 7.320 3.240 8.200 " fill="#16A34A" stroke="none" fill-rule="evenodd"></path></svg>