<svg width="24" height="24" viewBox="0 0 24 24" fill="none" xmlns="http://www.w3.org/2000/svg"><path d="M15.995 7.243 C 14.585 7.450,13.496 8.203,13.105 9.242 C 12.845 9.935,12.873 10.769,13.179 11.415 C 13.282 11.631,13.763 12.200,13.844 12.200 C 13.863 12.200,13.926 12.106,13.984 11.991 C 14.116 11.731,14.484 11.344,14.889 11.038 C 15.059 10.910,15.228 10.788,15.265 10.768 C 15.324 10.735,15.321 10.719,15.238 10.606 C 15.122 10.449,15.087 10.079,15.163 9.809 C 15.237 9.544,15.544 9.242,15.860 9.123 C 16.234 8.983,16.658 8.936,17.070 8.988 C 17.587 9.054,17.855 9.169,18.127 9.440 C 18.319 9.633,18.367 9.712,18.441 9.954 L 18.528 10.240 19.153 10.240 C 19.683 10.240,19.809 10.228,19.979 10.161 C 20.090 10.117,20.257 10.062,20.350 10.039 C 20.552 9.989,20.557 9.959,20.443 9.511 C 20.131 8.292,19.065 7.458,17.540 7.241 C 17.211 7.195,16.317 7.195,15.995 7.243 M3.240 8.200 L 3.240 9.080 4.800 9.080 L 6.360 9.080 6.360 13.280 L 6.360 17.480 7.420 17.480 L 8.480 17.480 8.480 13.280 L 8.480 9.080 10.040 9.080 L 11.600 9.080 11.600 8.200 L 11.600 7.320 7.420 7.320 L 3.240 7.320 3.240 8.200 M16.802 12.183 C 16.489 12.351,16.115 12.603,15.882 12.802 L 15.785 12.885 15.859 13.153 C 15.987 13.616,16.038 13.893,16.039 14.122 C 16.041 14.611,15.803 15.169,15.443 15.519 C 15.169 15.786,14.942 15.904,14.440 16.039 L 14.060 16.141 14.027 16.381 C 13.992 16.636,14.015 17.738,14.058 17.843 C 14.074 17.882,14.198 17.933,14.384 17.977 C 15.062 18.137,15.520 18.488,15.810 19.071 C 15.966 19.385,15.975 19.424,15.990 19.831 C 16.004 20.215,15.993 20.304,15.886 20.680 L 15.766 21.099 15.893 21.210 C 16.090 21.381,16.634 21.738,16.904 21.873 L 17.148 21.995 17.524 21.605 C 17.957 21.156,18.237 20.992,18.710 20.912 C 19.090 20.849,19.437 20.907,19.825 21.099 C 20.059 21.214,20.184 21.316,20.473 21.624 L 20.832 22.005 21.086 21.878 C 21.368 21.737,21.916 21.378,22.097 21.216 L 22.214 21.111 22.141 20.846 C 21.945 20.138,21.918 19.818,22.020 19.428 C 22.161 18.886,22.527 18.401,22.963 18.177 C 23.083 18.115,23.351 18.019,23.560 17.962 L 23.940 17.859 23.973 17.619 C 24.008 17.360,23.984 16.262,23.941 16.154 C 23.926 16.118,23.848 16.076,23.767 16.061 C 23.492 16.010,23.031 15.838,22.864 15.722 C 22.576 15.525,22.362 15.272,22.191 14.929 C 22.034 14.614,22.025 14.577,22.010 14.169 C 21.996 13.785,22.007 13.696,22.114 13.320 L 22.234 12.901 22.107 12.791 C 21.903 12.616,21.360 12.259,21.096 12.127 L 20.852 12.005 20.476 12.393 C 20.074 12.807,19.842 12.959,19.459 13.059 C 19.012 13.175,18.592 13.121,18.148 12.889 C 17.943 12.783,17.787 12.654,17.524 12.374 C 17.331 12.168,17.166 12.000,17.157 12.001 C 17.148 12.001,16.988 12.083,16.802 12.183 M12.680 14.488 L 12.680 14.656 12.830 14.518 C 12.912 14.442,12.997 14.367,13.018 14.350 C 13.039 14.334,12.971 14.320,12.868 14.320 L 12.680 14.320 12.680 14.488 M19.456 15.625 C 19.732 15.719,20.080 16.056,20.223 16.369 C 20.324 16.590,20.338 16.666,20.338 17.000 C 20.338 17.496,20.219 17.780,19.876 18.097 C 19.351 18.583,18.649 18.583,18.124 18.097 C 17.781 17.780,17.662 17.496,17.662 17.000 C 17.662 16.666,17.676 16.590,17.777 16.369 C 17.914 16.069,18.269 15.719,18.528 15.627 C 18.759 15.545,19.219 15.544,19.456 15.625 " fill="#64748B" stroke="none" fill-rule="evenodd"></path></svg>