<svg width="24" height="24" viewBox="0 0 24 24" fill="none" xmlns="http://www.w3.org/2000/svg"><path d="M12.560 3.205 C 12.560 4.519,12.543 4.440,12.828 4.440 C 13.063 4.440,13.952 4.635,14.400 4.784 C 16.339 5.430,17.943 6.845,18.840 8.700 C 19.738 10.554,19.834 12.757,19.101 14.678 C 18.086 17.338,15.644 19.226,12.810 19.542 L 12.560 19.570 12.560 20.771 L 12.560 21.972 12.893 21.946 C 13.705 21.884,14.826 21.618,15.640 21.294 C 16.905 20.791,17.976 20.096,18.954 19.143 C 19.656 18.460,20.190 17.772,20.671 16.931 C 21.982 14.639,22.321 11.903,21.616 9.327 C 20.808 6.378,18.603 3.900,15.760 2.746 C 14.773 2.346,13.755 2.105,12.730 2.030 L 12.560 2.018 12.560 3.205 M11.320 6.044 C 10.128 6.177,8.917 6.716,8.045 7.501 C 7.029 8.416,6.409 9.483,6.113 10.826 C 5.987 11.397,5.987 12.603,6.113 13.174 C 6.242 13.759,6.416 14.244,6.684 14.759 C 7.516 16.364,8.999 17.484,10.826 17.887 C 11.397 18.013,12.603 18.013,13.174 17.887 C 13.760 17.758,14.244 17.583,14.759 17.316 C 16.365 16.484,17.484 15.001,17.887 13.174 C 18.013 12.603,18.013 11.397,17.887 10.826 C 17.758 10.240,17.583 9.756,17.316 9.241 C 16.176 7.042,13.787 5.769,11.320 6.044 M12.700 8.979 C 12.863 9.013,13.155 9.125,13.400 9.247 C 13.761 9.427,13.871 9.507,14.182 9.818 C 14.493 10.129,14.573 10.239,14.753 10.600 C 15.003 11.100,15.079 11.426,15.079 12.000 C 15.079 12.573,15.003 12.900,14.756 13.391 C 14.220 14.461,13.196 15.092,12.000 15.092 C 10.804 15.092,9.780 14.461,9.244 13.391 C 8.997 12.900,8.921 12.573,8.921 12.000 C 8.921 11.426,8.997 11.100,9.247 10.600 C 9.427 10.239,9.507 10.129,9.818 9.818 C 10.129 9.508,10.239 9.427,10.600 9.247 C 10.831 9.131,11.137 9.012,11.280 8.982 C 11.625 8.908,12.351 8.907,12.700 8.979 M2.024 12.810 C 2.180 14.509,2.754 16.148,3.673 17.520 C 4.025 18.045,4.492 18.640,4.551 18.640 C 4.567 18.640,4.957 18.263,5.417 17.803 L 6.254 16.965 6.012 16.653 C 5.148 15.533,4.575 14.134,4.455 12.849 L 4.429 12.560 3.215 12.560 L 2.001 12.560 2.024 12.810 M6.182 18.598 C 5.210 19.571,5.247 19.413,5.878 19.896 C 6.859 20.648,7.768 21.124,8.968 21.514 C 9.672 21.744,10.799 21.960,11.289 21.960 L 11.440 21.960 11.440 20.764 L 11.440 19.568 11.190 19.541 C 9.825 19.393,8.447 18.838,7.363 18.000 C 7.192 17.868,7.045 17.760,7.036 17.760 C 7.027 17.760,6.642 18.137,6.182 18.598 " fill="#E4E4E7" stroke="none" fill-rule="evenodd"></path></svg>