<svg width="24" height="24" viewBox="0 0 24 24" fill="none" xmlns="http://www.w3.org/2000/svg"><path d="M17.980 2.056 C 17.398 2.189,16.864 2.544,16.284 3.182 C 14.418 5.236,12.989 10.319,12.853 15.390 C 12.839 15.901,12.816 16.320,12.803 16.320 C 12.789 16.320,12.709 16.180,12.625 16.010 C 12.284 15.319,11.811 14.747,11.296 14.403 C 10.816 14.081,10.261 13.919,9.646 13.921 L 9.340 13.922 9.600 14.014 C 11.157 14.569,12.070 15.839,12.379 17.880 C 12.493 18.634,12.509 20.440,12.401 20.440 C 12.384 20.440,12.341 20.382,12.306 20.310 C 12.245 20.186,12.242 20.210,12.241 20.872 L 12.240 21.564 12.390 21.627 C 12.689 21.752,13.694 21.669,14.680 21.438 L 15.020 21.358 15.022 19.809 C 15.024 18.153,15.055 17.726,15.262 16.520 C 15.619 14.445,16.337 12.739,17.356 11.543 C 17.468 11.412,17.552 11.299,17.545 11.291 C 17.508 11.254,17.045 11.468,16.785 11.641 C 15.860 12.261,15.020 13.588,14.376 15.450 L 14.234 15.860 14.259 15.141 C 14.329 13.045,14.749 10.302,15.380 7.820 C 16.250 4.393,17.304 2.417,18.367 2.219 C 18.680 2.161,19.179 2.346,19.628 2.686 L 19.887 2.882 19.741 2.704 C 19.557 2.479,19.232 2.227,18.985 2.118 C 18.742 2.010,18.299 1.983,17.980 2.056 M6.815 7.080 C 6.829 7.531,6.867 8.710,6.900 9.700 C 6.988 12.389,7.040 14.689,7.039 15.900 L 7.039 16.980 6.861 16.648 C 6.332 15.663,5.499 14.803,4.705 14.421 C 4.544 14.343,4.330 14.269,4.230 14.255 L 4.048 14.230 4.287 14.485 C 5.682 15.974,6.652 18.434,6.742 20.711 C 6.765 21.290,6.762 21.288,6.518 20.580 C 6.375 20.165,6.366 20.150,6.364 20.320 C 6.363 20.419,6.381 20.626,6.404 20.780 C 6.427 20.934,6.458 21.258,6.473 21.500 L 6.500 21.940 6.780 21.973 C 7.429 22.050,8.380 21.939,8.756 21.742 L 8.860 21.687 8.863 20.454 C 8.866 19.054,8.910 18.734,9.176 18.174 C 9.420 17.660,9.914 17.247,10.371 17.174 C 10.645 17.130,10.444 17.077,10.100 17.103 C 9.581 17.141,9.140 17.299,8.692 17.606 L 8.525 17.720 8.504 17.550 C 8.493 17.457,8.464 17.101,8.440 16.760 C 8.310 14.911,8.005 12.587,7.556 10.040 C 7.331 8.763,6.845 6.311,6.811 6.280 C 6.799 6.269,6.801 6.629,6.815 7.080 " fill="#22C55E" stroke="none" fill-rule="evenodd"></path></svg>