<svg width="24" height="24" viewBox="0 0 24 24" fill="none" xmlns="http://www.w3.org/2000/svg"><path d="M3.377 12.715 C 3.152 12.852,3.153 12.839,3.171 15.164 C 3.185 17.023,3.196 17.339,3.257 17.600 C 3.666 19.349,5.116 20.634,6.862 20.794 C 8.597 20.954,10.196 20.043,10.938 18.474 C 11.318 17.670,11.359 17.309,11.357 14.820 C 11.355 12.865,11.351 12.825,11.120 12.710 C 10.990 12.645,10.721 12.640,7.240 12.640 C 3.651 12.640,3.495 12.643,3.377 12.715 M16.300 12.663 C 15.225 12.816,14.423 13.209,13.752 13.914 C 13.251 14.439,12.923 15.028,12.734 15.740 C 12.642 16.088,12.628 16.218,12.628 16.740 C 12.628 17.258,12.642 17.393,12.731 17.728 C 12.931 18.480,13.277 19.083,13.817 19.623 C 14.502 20.309,15.286 20.683,16.293 20.806 C 17.178 20.914,18.214 20.651,19.005 20.118 C 19.332 19.898,19.858 19.372,20.078 19.045 C 20.324 18.680,20.549 18.177,20.669 17.728 C 20.758 17.393,20.772 17.258,20.772 16.740 C 20.772 16.218,20.758 16.088,20.666 15.740 C 20.477 15.028,20.149 14.439,19.648 13.914 C 19.082 13.319,18.345 12.908,17.540 12.737 C 17.256 12.676,16.518 12.633,16.300 12.663 " fill="#71717A" stroke="none" fill-rule="evenodd"></path></svg>