<svg width="24" height="24" viewBox="0 0 24 24" fill="none" xmlns="http://www.w3.org/2000/svg"><path d="M3.580 4.047 C 2.859 4.185,2.199 4.848,2.044 5.592 C 1.982 5.891,1.982 18.109,2.044 18.408 C 2.201 19.158,2.842 19.799,3.592 19.956 C 3.892 20.018,20.108 20.018,20.408 19.956 C 21.158 19.799,21.799 19.158,21.956 18.408 C 22.018 18.109,22.018 5.891,21.956 5.592 C 21.797 4.830,21.138 4.181,20.383 4.043 C 20.075 3.987,3.875 3.991,3.580 4.047 M20.000 12.000 L 20.000 18.000 12.000 18.000 L 4.000 18.000 4.000 12.000 L 4.000 6.000 12.000 6.000 L 20.000 6.000 20.000 12.000 M9.938 8.713 C 9.719 8.816,9.576 8.998,9.524 9.241 C 9.463 9.523,9.463 14.479,9.524 14.761 C 9.605 15.140,9.953 15.394,10.334 15.351 C 10.561 15.325,15.334 12.737,15.559 12.517 C 15.849 12.235,15.860 11.790,15.584 11.504 C 15.508 11.426,14.492 10.847,12.980 10.021 C 10.254 8.532,10.291 8.548,9.938 8.713 " fill="#64748B" stroke="none" fill-rule="evenodd"></path></svg>