<svg width="24" height="24" viewBox="0 0 24 24" fill="none" xmlns="http://www.w3.org/2000/svg"><path d="M15.460 3.076 C 15.372 3.117,15.234 3.220,15.154 3.305 C 15.074 3.390,13.970 4.666,12.702 6.140 C 11.434 7.614,10.388 8.820,10.378 8.820 C 10.368 8.820,9.657 8.145,8.797 7.320 C 7.938 6.495,7.161 5.780,7.071 5.730 C 6.851 5.609,6.654 5.616,6.393 5.753 C 6.274 5.816,5.499 6.375,4.671 6.997 C 3.377 7.967,3.152 8.151,3.082 8.296 C 3.001 8.463,3.000 8.521,3.000 12.000 C 3.000 15.482,3.001 15.537,3.082 15.704 C 3.153 15.850,3.380 16.036,4.720 17.040 C 5.576 17.682,6.344 18.241,6.427 18.283 C 6.612 18.378,6.852 18.380,7.049 18.289 C 7.178 18.229,7.741 17.704,9.983 15.550 L 10.389 15.161 12.832 17.995 C 14.678 20.136,15.312 20.846,15.428 20.901 C 15.618 20.992,15.903 20.991,16.081 20.900 C 16.414 20.727,20.759 17.794,20.831 17.693 C 20.875 17.631,20.931 17.508,20.955 17.420 C 21.017 17.196,21.018 6.807,20.956 6.580 C 20.932 6.492,20.868 6.362,20.815 6.291 C 20.715 6.159,16.327 3.216,16.020 3.075 C 15.817 2.982,15.662 2.982,15.460 3.076 M16.520 12.029 L 16.520 14.738 16.130 14.356 C 15.915 14.146,15.286 13.539,14.731 13.006 C 14.176 12.474,13.719 12.025,13.716 12.009 C 13.710 11.975,16.445 9.326,16.490 9.322 C 16.507 9.321,16.520 10.539,16.520 12.029 M7.627 12.013 C 7.609 12.057,6.322 13.566,6.156 13.739 C 6.081 13.816,6.080 13.786,6.080 11.987 L 6.080 10.157 6.863 11.062 C 7.294 11.560,7.637 11.988,7.627 12.013 " fill="#7E22CE" stroke="none" fill-rule="evenodd"></path></svg>