<svg width="24" height="24" viewBox="0 0 24 24" fill="none" xmlns="http://www.w3.org/2000/svg"><path d="M3.016 5.136 C 2.910 5.242,2.880 5.305,2.880 5.422 C 2.880 5.545,3.615 6.916,7.026 13.156 C 9.306 17.327,11.206 20.789,11.248 20.849 C 11.421 21.097,11.790 21.058,11.973 20.773 C 12.202 20.414,20.117 5.597,20.124 5.513 C 20.141 5.319,20.116 5.242,19.997 5.123 C 19.904 5.030,19.838 5.000,19.727 5.000 C 19.568 5.000,14.960 5.867,14.923 5.903 C 14.863 5.962,14.492 7.426,14.519 7.498 C 14.582 7.668,14.639 7.667,15.609 7.473 C 16.445 7.306,16.549 7.292,16.630 7.344 C 16.686 7.380,16.720 7.442,16.720 7.508 C 16.720 7.594,12.414 16.635,11.871 17.690 C 11.701 18.019,11.606 18.089,11.444 18.002 C 11.386 17.971,11.360 17.918,11.360 17.832 C 11.360 17.763,11.532 16.843,11.743 15.788 C 11.953 14.733,12.127 13.818,12.129 13.756 C 12.133 13.611,12.057 13.520,11.930 13.520 C 11.876 13.520,11.606 13.592,11.330 13.680 C 10.797 13.851,10.684 13.868,10.608 13.792 C 10.530 13.714,10.548 13.569,10.800 12.290 C 10.932 11.619,11.040 11.028,11.040 10.976 C 11.040 10.921,11.000 10.856,10.943 10.819 C 10.853 10.759,10.793 10.768,9.953 10.970 C 9.462 11.088,9.027 11.177,8.987 11.167 C 8.946 11.157,8.896 11.110,8.874 11.063 C 8.847 11.005,8.880 10.194,8.975 8.520 C 9.053 7.168,9.112 6.060,9.108 6.057 C 9.068 6.030,3.411 5.000,3.300 5.000 C 3.185 5.000,3.122 5.030,3.016 5.136 " fill="#A855F7" stroke="none" fill-rule="evenodd"></path></svg>