<svg width="25" height="24" viewBox="0 0 25 24" fill="none" xmlns="http://www.w3.org/2000/svg"><path d="M13.692 2.510 C 13.529 2.657,8.793 9.690,8.766 9.826 C 8.736 9.974,8.842 10.196,8.971 10.253 C 9.021 10.275,9.755 10.443,10.601 10.626 C 11.448 10.810,12.146 10.966,12.154 10.973 C 12.161 10.981,12.130 11.726,12.085 12.629 C 11.960 15.118,11.959 15.015,12.103 15.166 C 12.256 15.325,12.484 15.339,12.642 15.198 C 12.818 15.041,17.583 7.956,17.583 7.851 C 17.583 7.700,17.512 7.551,17.408 7.484 C 17.356 7.450,16.610 7.271,15.752 7.085 C 14.894 6.899,14.187 6.742,14.181 6.737 C 14.175 6.731,14.215 5.839,14.269 4.755 C 14.338 3.391,14.355 2.747,14.327 2.665 C 14.240 2.418,13.890 2.332,13.692 2.510 " fill="#FBBF24" stroke="none" fill-rule="evenodd"></path></svg>