<svg width="24" height="24" viewBox="0 0 24 24" fill="none" xmlns="http://www.w3.org/2000/svg"><path d="M11.320 7.531 C 10.914 7.754,8.601 9.173,8.546 9.234 C 8.439 9.352,8.424 9.560,8.511 9.700 C 8.565 9.785,8.987 10.060,9.976 10.655 C 11.204 11.392,11.381 11.487,11.496 11.468 C 11.614 11.449,14.201 9.920,14.368 9.771 C 14.490 9.663,14.532 9.465,14.466 9.309 C 14.416 9.188,14.246 9.073,13.034 8.342 C 12.278 7.887,11.606 7.505,11.540 7.495 C 11.474 7.485,11.375 7.501,11.320 7.531 M14.800 10.522 C 14.610 10.577,12.068 12.141,11.984 12.254 C 11.903 12.362,11.900 12.415,11.888 13.973 C 11.880 15.013,11.890 15.631,11.917 15.723 C 11.977 15.929,12.095 16.020,12.294 16.018 C 12.438 16.016,12.646 15.903,13.835 15.182 C 15.021 14.462,15.217 14.329,15.265 14.215 C 15.309 14.110,15.320 13.754,15.320 12.480 C 15.320 10.618,15.319 10.610,15.009 10.523 C 14.949 10.506,14.855 10.506,14.800 10.522 M7.831 10.677 L 7.700 10.793 7.689 12.435 C 7.679 13.779,7.688 14.101,7.734 14.212 C 7.783 14.330,7.966 14.453,9.165 15.182 C 10.354 15.903,10.562 16.016,10.706 16.018 C 10.905 16.020,11.023 15.929,11.083 15.723 C 11.110 15.630,11.121 15.027,11.113 13.998 C 11.101 12.605,11.092 12.404,11.034 12.315 C 10.995 12.256,10.395 11.869,9.594 11.387 C 8.084 10.478,8.063 10.469,7.831 10.677 " fill="#2563EB" stroke="none" fill-rule="evenodd"></path></svg>