<svg width="24" height="24" viewBox="0 0 24 24" fill="none" xmlns="http://www.w3.org/2000/svg"><path d="M6.560 5.899 C 6.560 5.909,7.505 7.591,8.660 9.637 L 10.759 13.357 10.770 15.429 L 10.780 17.500 12.000 17.500 L 13.220 17.500 13.240 15.400 L 13.260 13.300 15.350 9.606 C 16.499 7.574,17.440 5.905,17.440 5.896 C 17.440 5.887,16.823 5.880,16.069 5.880 L 14.697 5.880 13.379 8.379 C 12.532 9.982,12.039 10.877,12.000 10.877 C 11.961 10.878,11.472 9.992,10.620 8.379 L 9.300 5.880 7.930 5.880 C 7.177 5.880,6.560 5.888,6.560 5.899 " fill="#A78BFA" stroke="none" fill-rule="evenodd"></path></svg>