<svg width="24" height="24" viewBox="0 0 24 24" fill="none" xmlns="http://www.w3.org/2000/svg"><path d="M11.507 1.063 C 11.046 1.175,10.774 1.345,10.297 1.819 C 9.979 2.135,9.795 2.358,9.646 2.606 C 9.442 2.948,9.437 2.953,9.230 3.001 C 8.853 3.088,8.214 3.359,7.859 3.582 C 7.668 3.702,7.331 3.953,7.110 4.139 C 6.838 4.368,6.591 4.535,6.344 4.655 C 5.932 4.856,5.564 5.165,5.349 5.490 C 5.119 5.836,4.769 6.731,4.657 7.259 C 4.539 7.810,4.611 8.729,4.818 9.314 L 4.877 9.482 4.611 9.811 C 3.641 11.013,3.138 12.295,3.005 13.907 L 2.964 14.394 2.790 14.631 C 2.110 15.554,1.802 16.806,1.963 17.987 C 2.048 18.614,2.298 19.427,2.540 19.868 C 2.617 20.007,2.705 20.244,2.736 20.393 C 3.015 21.733,4.331 22.636,6.020 22.646 C 6.240 22.647,6.530 22.627,6.664 22.600 C 6.893 22.555,6.918 22.558,7.104 22.652 C 7.871 23.040,9.041 23.094,11.600 22.858 C 11.963 22.824,12.430 22.770,12.638 22.737 C 13.134 22.659,13.817 22.429,14.147 22.230 C 14.293 22.142,14.477 22.053,14.556 22.031 C 14.895 21.938,15.819 21.572,16.300 21.339 C 16.934 21.033,17.505 20.688,18.140 20.226 C 18.688 19.827,19.371 19.474,19.780 19.377 C 20.790 19.138,21.575 18.394,21.819 17.444 C 21.898 17.139,21.908 16.549,21.841 16.223 C 21.637 15.242,20.893 14.424,19.940 14.134 C 19.757 14.079,19.576 14.062,19.180 14.064 C 18.310 14.069,17.645 14.236,16.794 14.662 L 16.368 14.875 16.279 14.507 C 16.077 13.674,15.715 12.814,15.285 12.151 L 15.044 11.778 15.257 11.339 C 15.656 10.518,15.960 9.581,16.126 8.660 C 16.210 8.196,16.220 8.022,16.219 7.040 C 16.218 6.094,16.205 5.870,16.130 5.440 C 15.913 4.192,15.668 3.587,15.204 3.149 C 14.921 2.883,14.550 2.670,14.277 2.620 C 14.150 2.597,14.120 2.566,14.012 2.347 C 13.509 1.330,12.513 0.819,11.507 1.063 M12.189 3.090 C 12.266 3.174,12.558 3.754,12.894 4.490 C 12.974 4.666,13.059 4.800,13.092 4.800 C 13.123 4.800,13.268 4.746,13.414 4.680 C 13.862 4.477,13.946 4.521,14.080 5.030 C 14.223 5.577,14.288 6.072,14.309 6.784 C 14.340 7.834,14.237 8.575,13.933 9.489 C 13.764 9.998,13.296 10.968,13.026 11.367 C 12.616 11.973,12.617 12.002,13.051 12.466 C 13.799 13.266,14.235 14.105,14.460 15.180 C 14.554 15.628,14.584 16.724,14.521 17.368 C 14.484 17.736,14.482 17.898,14.512 17.928 C 14.543 17.959,14.696 17.923,15.043 17.804 C 15.639 17.599,16.147 17.350,16.786 16.948 C 17.741 16.348,18.241 16.142,18.916 16.073 C 19.314 16.033,19.358 16.036,19.527 16.110 C 19.796 16.229,19.934 16.431,19.951 16.735 C 19.975 17.168,19.854 17.274,19.060 17.515 C 18.357 17.729,17.914 17.975,16.680 18.840 C 15.980 19.331,15.202 19.706,14.140 20.063 C 13.789 20.182,13.456 20.316,13.400 20.361 C 13.062 20.637,12.538 20.762,11.222 20.882 C 8.829 21.100,7.975 21.032,7.579 20.593 C 7.403 20.398,7.360 20.290,7.360 20.036 C 7.360 19.667,7.516 19.451,7.847 19.362 L 8.034 19.311 7.887 19.163 C 7.806 19.081,7.710 18.970,7.673 18.917 C 7.619 18.839,7.593 18.828,7.536 18.863 C 7.497 18.886,7.452 18.949,7.437 19.003 C 7.037 20.417,6.700 20.746,5.763 20.634 C 5.351 20.586,5.031 20.461,4.814 20.264 C 4.575 20.048,4.547 19.862,4.695 19.473 L 4.797 19.207 4.629 19.178 C 4.374 19.135,4.197 18.934,4.066 18.540 C 3.688 17.400,3.796 16.499,4.400 15.740 C 4.488 15.630,4.626 15.441,4.707 15.320 C 4.853 15.103,4.856 15.092,4.886 14.580 C 4.970 13.148,5.217 12.308,5.807 11.452 C 6.096 11.034,6.624 10.487,6.961 10.256 C 7.301 10.024,7.311 9.962,7.074 9.596 C 6.732 9.070,6.521 8.433,6.520 7.929 C 6.520 7.650,6.644 7.229,6.853 6.800 C 6.977 6.546,6.987 6.537,7.255 6.430 C 7.555 6.310,7.951 6.035,8.363 5.660 C 8.893 5.177,9.443 4.946,10.240 4.871 C 10.504 4.846,10.724 4.805,10.757 4.775 C 10.789 4.746,10.873 4.559,10.944 4.359 C 11.107 3.905,11.371 3.477,11.656 3.208 C 11.905 2.972,12.050 2.940,12.189 3.090 " fill="#60A5FA" stroke="none" fill-rule="evenodd"></path></svg>