<svg width="24" height="24" viewBox="0 0 24 24" fill="none" xmlns="http://www.w3.org/2000/svg"><path d="M17.545 5.282 L 14.791 6.520 12.220 6.520 L 9.650 6.520 8.595 7.742 C 8.015 8.414,7.534 8.981,7.527 9.002 C 7.519 9.025,8.506 9.043,10.099 9.050 L 12.685 9.060 8.166 14.500 C 5.681 17.492,3.654 19.946,3.661 19.954 C 3.668 19.961,4.924 19.380,6.452 18.664 L 9.229 17.360 11.791 17.360 L 14.353 17.360 15.415 16.130 L 16.476 14.900 13.898 14.890 C 12.480 14.884,11.320 14.871,11.320 14.860 C 11.320 14.842,20.097 4.347,20.293 4.130 C 20.337 4.080,20.357 4.041,20.337 4.042 C 20.317 4.042,19.060 4.600,17.545 5.282 " fill="#FBBF24" stroke="none" fill-rule="evenodd"></path></svg>