<svg width="24" height="24" viewBox="0 0 24 24" fill="none" xmlns="http://www.w3.org/2000/svg"><path d="M8.647 5.043 C 6.968 5.134,6.136 5.466,5.609 6.254 C 5.278 6.750,5.115 7.384,5.041 8.471 C 4.989 9.237,4.989 15.763,5.041 16.529 C 5.115 17.619,5.277 18.250,5.611 18.749 C 6.133 19.529,6.911 19.846,8.580 19.958 C 9.359 20.011,14.641 20.011,15.420 19.958 C 17.089 19.846,17.867 19.529,18.389 18.749 C 18.723 18.250,18.885 17.619,18.959 16.529 C 19.011 15.759,19.011 9.232,18.959 8.480 C 18.842 6.802,18.510 6.077,17.609 5.535 C 16.946 5.136,15.843 5.001,13.230 5.000 L 12.000 5.000 12.000 5.760 L 12.000 6.520 11.290 6.518 C 10.900 6.517,10.500 6.501,10.401 6.482 C 10.100 6.424,10.080 6.371,10.080 5.636 L 10.080 5.000 9.650 5.006 C 9.414 5.009,8.962 5.026,8.647 5.043 M13.822 6.618 C 13.916 6.713,13.920 6.737,13.920 7.251 C 13.920 7.774,13.918 7.788,13.817 7.883 C 13.715 7.979,13.701 7.980,12.857 7.992 L 12.000 8.004 12.000 8.762 L 12.000 9.520 12.862 9.520 C 13.724 9.520,13.724 9.520,13.822 9.618 C 13.916 9.713,13.920 9.737,13.920 10.251 C 13.920 10.774,13.918 10.788,13.817 10.883 C 13.718 10.976,13.688 10.981,13.067 10.993 C 12.017 11.014,12.000 11.000,12.000 10.081 L 12.000 9.520 11.290 9.518 C 10.900 9.517,10.500 9.501,10.401 9.482 C 10.109 9.426,10.080 9.359,10.080 8.743 C 10.080 8.226,10.082 8.212,10.183 8.117 C 10.285 8.022,10.300 8.020,11.143 8.007 L 12.000 7.994 12.000 7.257 L 12.000 6.520 12.862 6.520 C 13.724 6.520,13.724 6.520,13.822 6.618 M13.598 12.599 C 13.682 12.642,13.792 12.742,13.841 12.821 C 13.920 12.949,13.927 13.006,13.913 13.355 C 13.900 13.701,13.882 13.778,13.762 14.023 C 13.275 15.014,12.074 15.404,11.070 14.895 C 10.771 14.744,10.402 14.356,10.238 14.023 C 10.118 13.778,10.100 13.701,10.087 13.355 C 10.073 13.006,10.080 12.949,10.159 12.821 C 10.208 12.742,10.314 12.643,10.394 12.601 C 10.530 12.529,10.637 12.523,11.992 12.522 C 13.359 12.520,13.452 12.525,13.598 12.599 " fill="#FBBF24" stroke="none" fill-rule="evenodd"></path></svg>